<?xml version="1.0" encoding="utf-8"?>
<!-- Generator: Adobe Illustrator 25.2.1, SVG Export Plug-In . SVG Version: 6.00 Build 0)  -->
<svg version="1.1" id="arrow" xmlns="http://www.w3.org/2000/svg" xmlns:xlink="http://www.w3.org/1999/xlink" x="0px" y="0px"
	 viewBox="0 0 24 24" style="enable-background:new 0 0 24 24;" xml:space="preserve">
<style type="text/css">
	.st0{fill:none;}
	.st1{fill:#FFFFFF;}
</style>
<g id="Ellipse_5">
	<circle class="st0" cx="12" cy="12" r="12"/>
	<path class="st1" d="M12,24C5.4,24,0,18.6,0,12S5.4,0,12,0s12,5.4,12,12S18.6,24,12,24z M12,2C6.5,2,2,6.5,2,12s4.5,10,10,10
		s10-4.5,10-10S17.5,2,12,2z"/>
</g>
<path id="Union_1" class="st1" d="M12.6,15.2v-2.3H7.7c-0.5,0-1-0.5-0.9-1c0-0.5,0.4-0.9,0.9-0.9h4.9V8.8c0-0.6,0.4-1,1-1
	c0.3,0,0.6,0.1,0.8,0.4l2.6,3.2c0.3,0.4,0.3,0.9,0,1.3l-2.6,3.2c-0.2,0.2-0.5,0.4-0.8,0.4C13.1,16.2,12.7,15.8,12.6,15.2L12.6,15.2z
	"/>
</svg>
