<svg xmlns="http://www.w3.org/2000/svg" xmlns:xlink="http://www.w3.org/1999/xlink" width="1200" height="220" viewBox="0 0 1200 220">
  <defs>
    <clipPath id="clip-path">
      <rect id="Rectangle_597" data-name="Rectangle 597" width="1200" height="220" rx="8" transform="translate(83 1251)" fill="none"/>
    </clipPath>
  </defs>
  <g id="Group_3508" data-name="Group 3508" transform="translate(-83 -1251)">
    <rect id="Rectangle_853" data-name="Rectangle 853" width="1200" height="220" rx="8" transform="translate(83 1251)" fill="#f0f9ff"/>
    <g id="Group_3502" data-name="Group 3502">
      <g id="Group_3501" data-name="Group 3501" clip-path="url(#clip-path)">
        <g id="Group_3496" data-name="Group 3496">
          <path id="Path_2986" data-name="Path 2986" d="M1242.546,1379.439a108.815,108.815,0,0,1-200.233,85.264C1042.083,1464.162,1242.316,1378.9,1242.546,1379.439Z" fill="#45b4ce"/>
          <rect id="Rectangle_854" data-name="Rectangle 854" width="105" height="78" transform="translate(779 1412)" fill="#71deff"/>
          <rect id="Rectangle_855" data-name="Rectangle 855" width="105" height="78" transform="translate(61 1411)" fill="#71deff"/>
          <rect id="Rectangle_856" data-name="Rectangle 856" width="122.19" height="122.19" transform="translate(753.658 1180.522) rotate(-30)" fill="#45b4ce"/>
          <rect id="Rectangle_857" data-name="Rectangle 857" width="78.888" height="78.888" transform="matrix(0.504, -0.864, 0.864, 0.504, 954.863, 1284.255)" fill="#45b4ce"/>
          <rect id="Rectangle_858" data-name="Rectangle 858" width="78.888" height="78.888" transform="matrix(0.504, -0.864, 0.864, 0.504, 1015.387, 1264.624)" fill="#71deff"/>
          <circle id="Ellipse_2498" data-name="Ellipse 2498" cx="52.5" cy="52.5" r="52.5" transform="translate(418 1412)" fill="#45b4ce"/>
          <circle id="Ellipse_2499" data-name="Ellipse 2499" cx="91.5" cy="91.5" r="91.5" transform="translate(1157 1120)" fill="#258ad5"/>
          <g id="Group_3393" data-name="Group 3393">
            <g id="Group_3392" data-name="Group 3392">
              <g id="Group_3367" data-name="Group 3367">
                <circle id="Ellipse_2500" data-name="Ellipse 2500" cx="4.091" cy="4.091" r="4.091" transform="translate(1115 1279.273)" fill="#b1edff"/>
              </g>
              <g id="Group_3368" data-name="Group 3368">
                <circle id="Ellipse_2501" data-name="Ellipse 2501" cx="4.091" cy="4.091" r="4.091" transform="translate(1135.455 1279.273)" fill="#b1edff"/>
              </g>
              <g id="Group_3369" data-name="Group 3369">
                <circle id="Ellipse_2502" data-name="Ellipse 2502" cx="4.091" cy="4.091" r="4.091" transform="translate(1155.909 1279.273)" fill="#b1edff"/>
              </g>
              <g id="Group_3370" data-name="Group 3370">
                <circle id="Ellipse_2503" data-name="Ellipse 2503" cx="4.091" cy="4.091" r="4.091" transform="translate(1176.364 1279.273)" fill="#b1edff"/>
              </g>
              <g id="Group_3371" data-name="Group 3371">
                <circle id="Ellipse_2504" data-name="Ellipse 2504" cx="4.091" cy="4.091" r="4.091" transform="translate(1196.818 1279.273)" fill="#b1edff"/>
              </g>
              <g id="Group_3372" data-name="Group 3372">
                <circle id="Ellipse_2505" data-name="Ellipse 2505" cx="4.091" cy="4.091" r="4.091" transform="translate(1115 1298.091)" fill="#b1edff"/>
              </g>
              <g id="Group_3373" data-name="Group 3373">
                <circle id="Ellipse_2506" data-name="Ellipse 2506" cx="4.091" cy="4.091" r="4.091" transform="translate(1135.455 1298.091)" fill="#b1edff"/>
              </g>
              <g id="Group_3374" data-name="Group 3374">
                <circle id="Ellipse_2507" data-name="Ellipse 2507" cx="4.091" cy="4.091" r="4.091" transform="translate(1155.909 1298.091)" fill="#b1edff"/>
              </g>
              <g id="Group_3375" data-name="Group 3375">
                <circle id="Ellipse_2508" data-name="Ellipse 2508" cx="4.091" cy="4.091" r="4.091" transform="translate(1176.364 1298.091)" fill="#b1edff"/>
              </g>
              <g id="Group_3376" data-name="Group 3376">
                <circle id="Ellipse_2509" data-name="Ellipse 2509" cx="4.091" cy="4.091" r="4.091" transform="translate(1196.818 1298.091)" fill="#b1edff"/>
              </g>
              <g id="Group_3377" data-name="Group 3377">
                <circle id="Ellipse_2510" data-name="Ellipse 2510" cx="4.091" cy="4.091" r="4.091" transform="translate(1115 1316.909)" fill="#b1edff"/>
              </g>
              <g id="Group_3378" data-name="Group 3378">
                <circle id="Ellipse_2511" data-name="Ellipse 2511" cx="4.091" cy="4.091" r="4.091" transform="translate(1135.455 1316.909)" fill="#b1edff"/>
              </g>
              <g id="Group_3379" data-name="Group 3379">
                <circle id="Ellipse_2512" data-name="Ellipse 2512" cx="4.091" cy="4.091" r="4.091" transform="translate(1155.909 1316.909)" fill="#b1edff"/>
              </g>
              <g id="Group_3380" data-name="Group 3380">
                <circle id="Ellipse_2513" data-name="Ellipse 2513" cx="4.091" cy="4.091" r="4.091" transform="translate(1176.364 1316.909)" fill="#b1edff"/>
              </g>
              <g id="Group_3381" data-name="Group 3381">
                <circle id="Ellipse_2514" data-name="Ellipse 2514" cx="4.091" cy="4.091" r="4.091" transform="translate(1196.818 1316.909)" fill="#b1edff"/>
              </g>
              <g id="Group_3382" data-name="Group 3382">
                <circle id="Ellipse_2515" data-name="Ellipse 2515" cx="4.091" cy="4.091" r="4.091" transform="translate(1115 1335.727)" fill="#b1edff"/>
              </g>
              <g id="Group_3383" data-name="Group 3383">
                <circle id="Ellipse_2516" data-name="Ellipse 2516" cx="4.091" cy="4.091" r="4.091" transform="translate(1135.455 1335.727)" fill="#b1edff"/>
              </g>
              <g id="Group_3384" data-name="Group 3384">
                <circle id="Ellipse_2517" data-name="Ellipse 2517" cx="4.091" cy="4.091" r="4.091" transform="translate(1155.909 1335.727)" fill="#b1edff"/>
              </g>
              <g id="Group_3385" data-name="Group 3385">
                <circle id="Ellipse_2518" data-name="Ellipse 2518" cx="4.091" cy="4.091" r="4.091" transform="translate(1176.364 1335.727)" fill="#b1edff"/>
              </g>
              <g id="Group_3386" data-name="Group 3386">
                <circle id="Ellipse_2519" data-name="Ellipse 2519" cx="4.091" cy="4.091" r="4.091" transform="translate(1196.818 1335.727)" fill="#b1edff"/>
              </g>
              <g id="Group_3387" data-name="Group 3387">
                <circle id="Ellipse_2520" data-name="Ellipse 2520" cx="4.091" cy="4.091" r="4.091" transform="translate(1115 1354.545)" fill="#b1edff"/>
              </g>
              <g id="Group_3388" data-name="Group 3388">
                <circle id="Ellipse_2521" data-name="Ellipse 2521" cx="4.091" cy="4.091" r="4.091" transform="translate(1135.455 1354.545)" fill="#b1edff"/>
              </g>
              <g id="Group_3389" data-name="Group 3389">
                <circle id="Ellipse_2522" data-name="Ellipse 2522" cx="4.091" cy="4.091" r="4.091" transform="translate(1155.909 1354.545)" fill="#b1edff"/>
              </g>
              <g id="Group_3390" data-name="Group 3390">
                <circle id="Ellipse_2523" data-name="Ellipse 2523" cx="4.091" cy="4.091" r="4.091" transform="translate(1176.364 1354.545)" fill="#b1edff"/>
              </g>
              <g id="Group_3391" data-name="Group 3391">
                <circle id="Ellipse_2524" data-name="Ellipse 2524" cx="4.091" cy="4.091" r="4.091" transform="translate(1196.818 1354.545)" fill="#b1edff"/>
              </g>
            </g>
          </g>
          <g id="Group_3420" data-name="Group 3420">
            <g id="Group_3419" data-name="Group 3419">
              <g id="Group_3394" data-name="Group 3394">
                <circle id="Ellipse_2525" data-name="Ellipse 2525" cx="3.431" cy="3.431" r="3.431" transform="translate(360.51 1442)" fill="#258ad5"/>
              </g>
              <g id="Group_3395" data-name="Group 3395">
                <circle id="Ellipse_2526" data-name="Ellipse 2526" cx="3.431" cy="3.431" r="3.431" transform="translate(377.667 1442)" fill="#258ad5"/>
              </g>
              <g id="Group_3396" data-name="Group 3396">
                <circle id="Ellipse_2527" data-name="Ellipse 2527" cx="3.431" cy="3.431" r="3.431" transform="translate(394.824 1442)" fill="#258ad5"/>
              </g>
              <g id="Group_3397" data-name="Group 3397">
                <circle id="Ellipse_2528" data-name="Ellipse 2528" cx="3.431" cy="3.431" r="3.431" transform="translate(411.98 1442)" fill="#258ad5"/>
              </g>
              <g id="Group_3398" data-name="Group 3398">
                <circle id="Ellipse_2529" data-name="Ellipse 2529" cx="3.431" cy="3.431" r="3.431" transform="translate(429.137 1442)" fill="#258ad5"/>
              </g>
              <g id="Group_3399" data-name="Group 3399">
                <circle id="Ellipse_2530" data-name="Ellipse 2530" cx="3.431" cy="3.431" r="3.431" transform="translate(360.51 1457.784)" fill="#258ad5"/>
              </g>
              <g id="Group_3400" data-name="Group 3400">
                <circle id="Ellipse_2531" data-name="Ellipse 2531" cx="3.431" cy="3.431" r="3.431" transform="translate(377.667 1457.784)" fill="#258ad5"/>
              </g>
              <g id="Group_3401" data-name="Group 3401">
                <circle id="Ellipse_2532" data-name="Ellipse 2532" cx="3.431" cy="3.431" r="3.431" transform="translate(394.824 1457.784)" fill="#258ad5"/>
              </g>
              <g id="Group_3402" data-name="Group 3402">
                <circle id="Ellipse_2533" data-name="Ellipse 2533" cx="3.431" cy="3.431" r="3.431" transform="translate(411.98 1457.784)" fill="#258ad5"/>
              </g>
              <g id="Group_3403" data-name="Group 3403">
                <circle id="Ellipse_2534" data-name="Ellipse 2534" cx="3.431" cy="3.431" r="3.431" transform="translate(429.137 1457.784)" fill="#258ad5"/>
              </g>
              <g id="Group_3404" data-name="Group 3404">
                <circle id="Ellipse_2535" data-name="Ellipse 2535" cx="3.431" cy="3.431" r="3.431" transform="translate(360.51 1473.569)" fill="#258ad5"/>
              </g>
              <g id="Group_3405" data-name="Group 3405">
                <circle id="Ellipse_2536" data-name="Ellipse 2536" cx="3.431" cy="3.431" r="3.431" transform="translate(377.667 1473.569)" fill="#258ad5"/>
              </g>
              <g id="Group_3406" data-name="Group 3406">
                <circle id="Ellipse_2537" data-name="Ellipse 2537" cx="3.431" cy="3.431" r="3.431" transform="translate(394.824 1473.569)" fill="#258ad5"/>
              </g>
              <g id="Group_3407" data-name="Group 3407">
                <circle id="Ellipse_2538" data-name="Ellipse 2538" cx="3.431" cy="3.431" r="3.431" transform="translate(411.98 1473.569)" fill="#258ad5"/>
              </g>
              <g id="Group_3408" data-name="Group 3408">
                <circle id="Ellipse_2539" data-name="Ellipse 2539" cx="3.431" cy="3.431" r="3.431" transform="translate(429.137 1473.569)" fill="#258ad5"/>
              </g>
              <g id="Group_3409" data-name="Group 3409">
                <circle id="Ellipse_2540" data-name="Ellipse 2540" cx="3.431" cy="3.431" r="3.431" transform="translate(360.51 1489.353)" fill="#258ad5"/>
              </g>
              <g id="Group_3410" data-name="Group 3410">
                <circle id="Ellipse_2541" data-name="Ellipse 2541" cx="3.431" cy="3.431" r="3.431" transform="translate(377.667 1489.353)" fill="#258ad5"/>
              </g>
              <g id="Group_3411" data-name="Group 3411">
                <circle id="Ellipse_2542" data-name="Ellipse 2542" cx="3.431" cy="3.431" r="3.431" transform="translate(394.824 1489.353)" fill="#258ad5"/>
              </g>
              <g id="Group_3412" data-name="Group 3412">
                <circle id="Ellipse_2543" data-name="Ellipse 2543" cx="3.431" cy="3.431" r="3.431" transform="translate(411.98 1489.353)" fill="#258ad5"/>
              </g>
              <g id="Group_3413" data-name="Group 3413">
                <circle id="Ellipse_2544" data-name="Ellipse 2544" cx="3.431" cy="3.431" r="3.431" transform="translate(429.137 1489.353)" fill="#258ad5"/>
              </g>
              <g id="Group_3414" data-name="Group 3414">
                <circle id="Ellipse_2545" data-name="Ellipse 2545" cx="3.431" cy="3.431" r="3.431" transform="translate(360.51 1505.137)" fill="#258ad5"/>
              </g>
              <g id="Group_3415" data-name="Group 3415">
                <circle id="Ellipse_2546" data-name="Ellipse 2546" cx="3.431" cy="3.431" r="3.431" transform="translate(377.667 1505.137)" fill="#258ad5"/>
              </g>
              <g id="Group_3416" data-name="Group 3416">
                <circle id="Ellipse_2547" data-name="Ellipse 2547" cx="3.431" cy="3.431" r="3.431" transform="translate(394.824 1505.137)" fill="#258ad5"/>
              </g>
              <g id="Group_3417" data-name="Group 3417">
                <circle id="Ellipse_2548" data-name="Ellipse 2548" cx="3.431" cy="3.431" r="3.431" transform="translate(411.98 1505.137)" fill="#258ad5"/>
              </g>
              <g id="Group_3418" data-name="Group 3418">
                <circle id="Ellipse_2549" data-name="Ellipse 2549" cx="3.431" cy="3.431" r="3.431" transform="translate(429.137 1505.137)" fill="#258ad5"/>
              </g>
            </g>
          </g>
          <g id="Group_3427" data-name="Group 3427">
            <g id="Group_3426" data-name="Group 3426">
              <g id="Group_3421" data-name="Group 3421">
                <circle id="Ellipse_2550" data-name="Ellipse 2550" cx="5" cy="5" r="5" transform="translate(107.164 1340.158)" fill="#45b4ce"/>
              </g>
              <g id="Group_3422" data-name="Group 3422">
                <circle id="Ellipse_2551" data-name="Ellipse 2551" cx="5" cy="5" r="5" transform="translate(96.582 1360.579)" fill="#45b4ce"/>
              </g>
              <g id="Group_3423" data-name="Group 3423">
                <circle id="Ellipse_2552" data-name="Ellipse 2552" cx="5" cy="5" r="5" transform="translate(86 1381)" fill="#45b4ce"/>
              </g>
              <g id="Group_3424" data-name="Group 3424">
                <circle id="Ellipse_2553" data-name="Ellipse 2553" cx="5" cy="5" r="5" transform="translate(75.418 1401.421)" fill="#45b4ce"/>
              </g>
              <g id="Group_3425" data-name="Group 3425">
                <circle id="Ellipse_2554" data-name="Ellipse 2554" cx="5" cy="5" r="5" transform="translate(64.836 1421.842)" fill="#45b4ce"/>
              </g>
            </g>
          </g>
          <g id="Group_3434" data-name="Group 3434">
            <g id="Group_3433" data-name="Group 3433">
              <g id="Group_3428" data-name="Group 3428">
                <circle id="Ellipse_2555" data-name="Ellipse 2555" cx="5" cy="5" r="5" transform="translate(113.164 1279.158)" fill="#45b4ce"/>
              </g>
              <g id="Group_3429" data-name="Group 3429">
                <circle id="Ellipse_2556" data-name="Ellipse 2556" cx="5" cy="5" r="5" transform="translate(102.582 1299.579)" fill="#45b4ce"/>
              </g>
              <g id="Group_3430" data-name="Group 3430">
                <circle id="Ellipse_2557" data-name="Ellipse 2557" cx="5" cy="5" r="5" transform="translate(92 1320)" fill="#45b4ce"/>
              </g>
              <g id="Group_3431" data-name="Group 3431">
                <circle id="Ellipse_2558" data-name="Ellipse 2558" cx="5" cy="5" r="5" transform="translate(81.418 1340.421)" fill="#45b4ce"/>
              </g>
              <g id="Group_3432" data-name="Group 3432">
                <circle id="Ellipse_2559" data-name="Ellipse 2559" cx="5" cy="5" r="5" transform="translate(70.836 1360.842)" fill="#45b4ce"/>
              </g>
            </g>
          </g>
          <g id="Group_3441" data-name="Group 3441">
            <g id="Group_3440" data-name="Group 3440">
              <g id="Group_3435" data-name="Group 3435">
                <circle id="Ellipse_2560" data-name="Ellipse 2560" cx="5" cy="5" r="5" transform="translate(1291.164 1264.158)" fill="#258ad5"/>
              </g>
              <g id="Group_3436" data-name="Group 3436">
                <circle id="Ellipse_2561" data-name="Ellipse 2561" cx="5" cy="5" r="5" transform="translate(1280.582 1284.579)" fill="#258ad5"/>
              </g>
              <g id="Group_3437" data-name="Group 3437">
                <circle id="Ellipse_2562" data-name="Ellipse 2562" cx="5" cy="5" r="5" transform="translate(1270 1305)" fill="#258ad5"/>
              </g>
              <g id="Group_3438" data-name="Group 3438">
                <circle id="Ellipse_2563" data-name="Ellipse 2563" cx="5" cy="5" r="5" transform="translate(1259.418 1325.421)" fill="#258ad5"/>
              </g>
              <g id="Group_3439" data-name="Group 3439">
                <circle id="Ellipse_2564" data-name="Ellipse 2564" cx="5" cy="5" r="5" transform="translate(1248.836 1345.842)" fill="#258ad5"/>
              </g>
            </g>
          </g>
          <g id="Group_3468" data-name="Group 3468">
            <g id="Group_3467" data-name="Group 3467">
              <g id="Group_3442" data-name="Group 3442">
                <circle id="Ellipse_2565" data-name="Ellipse 2565" cx="3.471" cy="3.471" r="3.471" transform="translate(647.421 1215.289)" fill="#45b4ce"/>
              </g>
              <g id="Group_3443" data-name="Group 3443">
                <circle id="Ellipse_2566" data-name="Ellipse 2566" cx="3.471" cy="3.471" r="3.471" transform="translate(664.584 1212.701)" fill="#45b4ce"/>
              </g>
              <g id="Group_3444" data-name="Group 3444">
                <circle id="Ellipse_2567" data-name="Ellipse 2567" cx="3.471" cy="3.471" r="3.471" transform="translate(681.747 1210.113)" fill="#45b4ce"/>
              </g>
              <g id="Group_3445" data-name="Group 3445">
                <circle id="Ellipse_2568" data-name="Ellipse 2568" cx="3.471" cy="3.471" r="3.471" transform="translate(698.91 1207.526)" fill="#45b4ce"/>
              </g>
              <g id="Group_3446" data-name="Group 3446">
                <circle id="Ellipse_2569" data-name="Ellipse 2569" cx="3.471" cy="3.471" r="3.471" transform="translate(716.073 1204.938)" fill="#45b4ce"/>
              </g>
              <g id="Group_3447" data-name="Group 3447">
                <circle id="Ellipse_2570" data-name="Ellipse 2570" cx="3.471" cy="3.471" r="3.471" transform="translate(649.802 1231.079)" fill="#45b4ce"/>
              </g>
              <g id="Group_3448" data-name="Group 3448">
                <circle id="Ellipse_2571" data-name="Ellipse 2571" cx="3.471" cy="3.471" r="3.471" transform="translate(666.965 1228.491)" fill="#45b4ce"/>
              </g>
              <g id="Group_3449" data-name="Group 3449">
                <circle id="Ellipse_2572" data-name="Ellipse 2572" cx="3.471" cy="3.471" r="3.471" transform="translate(684.128 1225.903)" fill="#45b4ce"/>
              </g>
              <g id="Group_3450" data-name="Group 3450">
                <circle id="Ellipse_2573" data-name="Ellipse 2573" cx="3.471" cy="3.471" r="3.471" transform="translate(701.291 1223.315)" fill="#45b4ce"/>
              </g>
              <g id="Group_3451" data-name="Group 3451">
                <circle id="Ellipse_2574" data-name="Ellipse 2574" cx="3.471" cy="3.471" r="3.471" transform="translate(718.454 1220.728)" fill="#45b4ce"/>
              </g>
              <g id="Group_3452" data-name="Group 3452">
                <circle id="Ellipse_2575" data-name="Ellipse 2575" cx="3.471" cy="3.471" r="3.471" transform="translate(652.182 1246.869)" fill="#45b4ce"/>
              </g>
              <g id="Group_3453" data-name="Group 3453">
                <circle id="Ellipse_2576" data-name="Ellipse 2576" cx="3.471" cy="3.471" r="3.471" transform="translate(669.345 1244.281)" fill="#45b4ce"/>
              </g>
              <g id="Group_3454" data-name="Group 3454">
                <circle id="Ellipse_2577" data-name="Ellipse 2577" cx="3.471" cy="3.471" r="3.471" transform="translate(686.508 1241.693)" fill="#45b4ce"/>
              </g>
              <g id="Group_3455" data-name="Group 3455">
                <circle id="Ellipse_2578" data-name="Ellipse 2578" cx="3.471" cy="3.471" r="3.471" transform="translate(703.671 1239.105)" fill="#45b4ce"/>
              </g>
              <g id="Group_3456" data-name="Group 3456">
                <circle id="Ellipse_2579" data-name="Ellipse 2579" cx="3.471" cy="3.471" r="3.471" transform="translate(720.834 1236.518)" fill="#45b4ce"/>
              </g>
              <g id="Group_3457" data-name="Group 3457">
                <circle id="Ellipse_2580" data-name="Ellipse 2580" cx="3.471" cy="3.471" r="3.471" transform="translate(654.563 1262.658)" fill="#45b4ce"/>
              </g>
              <g id="Group_3458" data-name="Group 3458">
                <circle id="Ellipse_2581" data-name="Ellipse 2581" cx="3.471" cy="3.471" r="3.471" transform="translate(671.726 1260.071)" fill="#45b4ce"/>
              </g>
              <g id="Group_3459" data-name="Group 3459">
                <circle id="Ellipse_2582" data-name="Ellipse 2582" cx="3.471" cy="3.471" r="3.471" transform="translate(688.889 1257.483)" fill="#45b4ce"/>
              </g>
              <g id="Group_3460" data-name="Group 3460">
                <circle id="Ellipse_2583" data-name="Ellipse 2583" cx="3.471" cy="3.471" r="3.471" transform="translate(706.052 1254.895)" fill="#45b4ce"/>
              </g>
              <g id="Group_3461" data-name="Group 3461">
                <circle id="Ellipse_2584" data-name="Ellipse 2584" cx="3.471" cy="3.471" r="3.471" transform="translate(723.215 1252.308)" fill="#45b4ce"/>
              </g>
              <g id="Group_3462" data-name="Group 3462">
                <circle id="Ellipse_2585" data-name="Ellipse 2585" cx="3.471" cy="3.471" r="3.471" transform="translate(656.944 1278.448)" fill="#45b4ce"/>
              </g>
              <g id="Group_3463" data-name="Group 3463">
                <circle id="Ellipse_2586" data-name="Ellipse 2586" cx="3.471" cy="3.471" r="3.471" transform="translate(674.107 1275.861)" fill="#45b4ce"/>
              </g>
              <g id="Group_3464" data-name="Group 3464">
                <circle id="Ellipse_2587" data-name="Ellipse 2587" cx="3.471" cy="3.471" r="3.471" transform="translate(691.27 1273.273)" fill="#45b4ce"/>
              </g>
              <g id="Group_3465" data-name="Group 3465">
                <circle id="Ellipse_2588" data-name="Ellipse 2588" cx="3.471" cy="3.471" r="3.471" transform="translate(708.433 1270.685)" fill="#45b4ce"/>
              </g>
              <g id="Group_3466" data-name="Group 3466">
                <circle id="Ellipse_2589" data-name="Ellipse 2589" cx="3.471" cy="3.471" r="3.471" transform="translate(725.596 1268.098)" fill="#45b4ce"/>
              </g>
            </g>
          </g>
          <circle id="Ellipse_2590" data-name="Ellipse 2590" cx="99.5" cy="99.5" r="99.5" transform="translate(381.5 1116.5)" fill="none" stroke="#44b4ce" stroke-miterlimit="10" stroke-width="1"/>
          <circle id="Ellipse_2591" data-name="Ellipse 2591" cx="69.5" cy="69.5" r="69.5" transform="translate(411.5 1146.5)" fill="none" stroke="#44b4ce" stroke-miterlimit="10" stroke-width="1"/>
          <circle id="Ellipse_2592" data-name="Ellipse 2592" cx="56.5" cy="56.5" r="56.5" transform="translate(837 1436)" fill="#45b4ce"/>
          <path id="Path_2987" data-name="Path 2987" d="M1275,1267.1v187.8a7.641,7.641,0,0,1-7.893,7.365H98.893A7.641,7.641,0,0,1,91,1454.9V1267.1a7.641,7.641,0,0,1,7.893-7.365H1267.107A7.641,7.641,0,0,1,1275,1267.1Z" fill="none" stroke="#258ad5" stroke-miterlimit="10" stroke-width="1"/>
          <path id="Path_2988" data-name="Path 2988" d="M917.883,1324.084l-36.322-2.954,31.51,39.077Z" fill="#258ad5"/>
          <path id="Path_2989" data-name="Path 2989" d="M1117.6,1373.24l-11.3,34.647,45.318-21.592Z" fill="#258ad5"/>
          <g id="Group_3495" data-name="Group 3495">
            <g id="Group_3494" data-name="Group 3494">
              <g id="Group_3469" data-name="Group 3469">
                <circle id="Ellipse_2593" data-name="Ellipse 2593" cx="5" cy="5" r="5" transform="translate(935 1381)" fill="#71deff"/>
              </g>
              <g id="Group_3470" data-name="Group 3470">
                <circle id="Ellipse_2594" data-name="Ellipse 2594" cx="5" cy="5" r="5" transform="translate(960 1381)" fill="#71deff"/>
              </g>
              <g id="Group_3471" data-name="Group 3471">
                <circle id="Ellipse_2595" data-name="Ellipse 2595" cx="5" cy="5" r="5" transform="translate(985 1381)" fill="#71deff"/>
              </g>
              <g id="Group_3472" data-name="Group 3472">
                <circle id="Ellipse_2596" data-name="Ellipse 2596" cx="5" cy="5" r="5" transform="translate(1010 1381)" fill="#71deff"/>
              </g>
              <g id="Group_3473" data-name="Group 3473">
                <circle id="Ellipse_2597" data-name="Ellipse 2597" cx="5" cy="5" r="5" transform="translate(1035 1381)" fill="#71deff"/>
              </g>
              <g id="Group_3474" data-name="Group 3474">
                <circle id="Ellipse_2598" data-name="Ellipse 2598" cx="5" cy="5" r="5" transform="translate(935 1404)" fill="#71deff"/>
              </g>
              <g id="Group_3475" data-name="Group 3475">
                <circle id="Ellipse_2599" data-name="Ellipse 2599" cx="5" cy="5" r="5" transform="translate(960 1404)" fill="#71deff"/>
              </g>
              <g id="Group_3476" data-name="Group 3476">
                <circle id="Ellipse_2600" data-name="Ellipse 2600" cx="5" cy="5" r="5" transform="translate(985 1404)" fill="#71deff"/>
              </g>
              <g id="Group_3477" data-name="Group 3477">
                <circle id="Ellipse_2601" data-name="Ellipse 2601" cx="5" cy="5" r="5" transform="translate(1010 1404)" fill="#71deff"/>
              </g>
              <g id="Group_3478" data-name="Group 3478">
                <circle id="Ellipse_2602" data-name="Ellipse 2602" cx="5" cy="5" r="5" transform="translate(1035 1404)" fill="#71deff"/>
              </g>
              <g id="Group_3479" data-name="Group 3479">
                <circle id="Ellipse_2603" data-name="Ellipse 2603" cx="5" cy="5" r="5" transform="translate(935 1427)" fill="#71deff"/>
              </g>
              <g id="Group_3480" data-name="Group 3480">
                <circle id="Ellipse_2604" data-name="Ellipse 2604" cx="5" cy="5" r="5" transform="translate(960 1427)" fill="#71deff"/>
              </g>
              <g id="Group_3481" data-name="Group 3481">
                <circle id="Ellipse_2605" data-name="Ellipse 2605" cx="5" cy="5" r="5" transform="translate(985 1427)" fill="#71deff"/>
              </g>
              <g id="Group_3482" data-name="Group 3482">
                <circle id="Ellipse_2606" data-name="Ellipse 2606" cx="5" cy="5" r="5" transform="translate(1010 1427)" fill="#71deff"/>
              </g>
              <g id="Group_3483" data-name="Group 3483">
                <circle id="Ellipse_2607" data-name="Ellipse 2607" cx="5" cy="5" r="5" transform="translate(1035 1427)" fill="#71deff"/>
              </g>
              <g id="Group_3484" data-name="Group 3484">
                <circle id="Ellipse_2608" data-name="Ellipse 2608" cx="5" cy="5" r="5" transform="translate(935 1450)" fill="#71deff"/>
              </g>
              <g id="Group_3485" data-name="Group 3485">
                <circle id="Ellipse_2609" data-name="Ellipse 2609" cx="5" cy="5" r="5" transform="translate(960 1450)" fill="#71deff"/>
              </g>
              <g id="Group_3486" data-name="Group 3486">
                <circle id="Ellipse_2610" data-name="Ellipse 2610" cx="5" cy="5" r="5" transform="translate(985 1450)" fill="#71deff"/>
              </g>
              <g id="Group_3487" data-name="Group 3487">
                <circle id="Ellipse_2611" data-name="Ellipse 2611" cx="5" cy="5" r="5" transform="translate(1010 1450)" fill="#71deff"/>
              </g>
              <g id="Group_3488" data-name="Group 3488">
                <circle id="Ellipse_2612" data-name="Ellipse 2612" cx="5" cy="5" r="5" transform="translate(1035 1450)" fill="#71deff"/>
              </g>
              <g id="Group_3489" data-name="Group 3489">
                <circle id="Ellipse_2613" data-name="Ellipse 2613" cx="5" cy="5" r="5" transform="translate(935 1473)" fill="#71deff"/>
              </g>
              <g id="Group_3490" data-name="Group 3490">
                <circle id="Ellipse_2614" data-name="Ellipse 2614" cx="5" cy="5" r="5" transform="translate(960 1473)" fill="#71deff"/>
              </g>
              <g id="Group_3491" data-name="Group 3491">
                <circle id="Ellipse_2615" data-name="Ellipse 2615" cx="5" cy="5" r="5" transform="translate(985 1473)" fill="#71deff"/>
              </g>
              <g id="Group_3492" data-name="Group 3492">
                <circle id="Ellipse_2616" data-name="Ellipse 2616" cx="5" cy="5" r="5" transform="translate(1010 1473)" fill="#71deff"/>
              </g>
              <g id="Group_3493" data-name="Group 3493">
                <circle id="Ellipse_2617" data-name="Ellipse 2617" cx="5" cy="5" r="5" transform="translate(1035 1473)" fill="#71deff"/>
              </g>
            </g>
          </g>
        </g>
        <g id="Group_3500" data-name="Group 3500">
          <path id="Path_2990" data-name="Path 2990" d="M379.179,1349.874a6.1,6.1,0,0,0-5.734-.723c-4.955,1.569-4.71,7.418-2.872,9.225,3.3,3.247,9.152,2.256,10.451-2.438A5.783,5.783,0,0,0,379.179,1349.874Z" fill="#2d1e07" stroke="#2d1e07" stroke-miterlimit="10" stroke-width="1"/>
          <path id="Path_2991" data-name="Path 2991" d="M176.974,1342.831a6.1,6.1,0,0,0-5.407,2.042c-3.647,3.7-.7,8.759,1.774,9.5,4.438,1.325,9.145-2.285,8.1-7.042A5.784,5.784,0,0,0,176.974,1342.831Z" fill="#2d1e07" stroke="#2d1e07" stroke-miterlimit="10" stroke-width="1"/>
          <g id="Group_3499" data-name="Group 3499">
            <g id="Group_3497" data-name="Group 3497">
              <path id="Path_2992" data-name="Path 2992" d="M267.687,1324.946c-3.222-11.193-10.032-21.9-20.014-28.252a21.674,21.674,0,0,0-7.325-3.06c-3.436-5.027-9.132-8.809-14.728-11.268-4.586-2.016-7.06,5.381-2.488,7.391a29.762,29.762,0,0,1,8.261,5.119,10.569,10.569,0,0,0-5.691,10.7c.6,4.392,4.193,9.56,8.942,10.016,4.907.471,7.863-4.52,8.629-8.667a17.812,17.812,0,0,0,.288-3.849,39.479,39.479,0,0,1,7.682,7.121,42.932,42.932,0,0,1,8.791,16.236C261.413,1331.222,269.077,1329.775,267.687,1324.946Zm-32.757-17.58c-2.606-1.437-1.6-4.794.537-5.816.048.206.1.408.141.62a8.5,8.5,0,0,1-.2,4.274l-.314.847Q234.333,1308.467,234.93,1307.366Z" fill="#2d1e07"/>
              <path id="Path_2993" data-name="Path 2993" d="M173.049,1265.385c23.207-4.946,40.794-5.137,53.72,14.771,1.954,3.008,1.744,7.141-.6,9.085-.887.737-12.768,5.587-24.319,3.03-6.377-1.412-27.5-11.729-31.027-15.454C166.747,1272.5,168.3,1266.4,173.049,1265.385Z" fill="#328230"/>
              <path id="Path_2994" data-name="Path 2994" d="M222.358,1283.04c-.787-2.576-1.41-5.231-2.027-7.831a53.456,53.456,0,0,1-1.7-15.835c.073-1.035.636-1.7,1.45-1.317a41.743,41.743,0,0,1,5.39,7.471,38.425,38.425,0,0,1,3.316,8.9c1.125,5.1.1,9.43-1.145,13.241a2.817,2.817,0,0,1-.069,1.808.828.828,0,0,1-1.173.425,1.066,1.066,0,0,1-.966-.3,3.514,3.514,0,0,1-1-1.815A19.748,19.748,0,0,1,222.358,1283.04Z" fill="#70b535"/>
              <path id="Path_2995" data-name="Path 2995" d="M328.97,1439.309c-13.054,7.378-30.487,11.631-51.568,12.5-38.323,1.563-63.165-14-74.138-35.955a64.724,64.724,0,0,1-5.578-39.271c6.342-39.879,42.036-70.023,84.933-65.926,38.344,3.671,72.7,31.456,73.571,81.4C356.561,1413.2,346.872,1429.187,328.97,1439.309Z" fill="#fba71b"/>
              <path id="Path_2996" data-name="Path 2996" d="M326.716,1379.946c3.543,2.895-.951,8.407-4.5,5.507S323.167,1377.046,326.716,1379.946Z" fill="#2d1e07"/>
              <path id="Path_2997" data-name="Path 2997" d="M343.743,1383.687c3.543,2.9-.95,8.407-4.5,5.507S340.194,1380.787,343.743,1383.687Z" fill="#2d1e07"/>
              <path id="Path_2998" data-name="Path 2998" d="M332.932,1395.062c3.544,2.9-.95,8.407-4.5,5.507S329.383,1392.162,332.932,1395.062Z" fill="#2d1e07"/>
              <path id="Path_2999" data-name="Path 2999" d="M228.118,1401.652c2.244-3.988,8.445-.508,6.2,3.487S225.871,1405.647,228.118,1401.652Z" fill="#2d1e07"/>
              <path id="Path_3000" data-name="Path 3000" d="M217.563,1396.983c2.243-3.988,8.445-.508,6.2,3.487S215.315,1400.978,217.563,1396.983Z" fill="#2d1e07"/>
              <path id="Path_3001" data-name="Path 3001" d="M228.328,1387.374c2.244-3.988,8.445-.508,6.2,3.486S226.081,1391.369,228.328,1387.374Z" fill="#2d1e07"/>
              <path id="Path_3002" data-name="Path 3002" d="M254.716,1399.833" fill="none" stroke="#2d1e07" stroke-linecap="round" stroke-miterlimit="10" stroke-width="4"/>
              <path id="Path_3003" data-name="Path 3003" d="M244.457,1335.3a7.685,7.685,0,0,0-.966-3.872,5.239,5.239,0,0,0-4.632-2.616,6.79,6.79,0,0,0-3.74,1.329,18.621,18.621,0,0,0-1.533,1.228,6.576,6.576,0,0,0-.867.821c-.063.063-.134.12-.2.184q-.448.469-.851.979a11.7,11.7,0,0,0-1.283,1.838,5.279,5.279,0,0,0,.134,5.289,5.636,5.636,0,0,0,3.61,2.5,6.181,6.181,0,0,0,3.99-.67,6.2,6.2,0,0,0,1.769-.247,6.483,6.483,0,0,0,3.55-2.841A7.684,7.684,0,0,0,244.457,1335.3Z" fill="#ffca85"/>
              <path id="Path_3004" data-name="Path 3004" d="M302.076,1353.84a8.012,8.012,0,0,1,6.867-4.272,4.37,4.37,0,0,1,3,.386,8.168,8.168,0,0,1,5.515,5.212,8.477,8.477,0,0,1-14.892,7.429A8.427,8.427,0,0,1,302.076,1353.84Z" fill="#2d1e07"/>
              <path id="Path_3005" data-name="Path 3005" d="M243.88,1357.608c4.6-4.7,12.757-1.748,14.793,4.124,1.745,5.037-2.681,9.664-7.433,9.936a8.3,8.3,0,0,1-4.374-.391A8.41,8.41,0,0,1,243.88,1357.608Z" fill="#2d1e07"/>
              <circle id="Ellipse_2618" data-name="Ellipse 2618" cx="16.356" cy="16.356" r="16.356" transform="translate(212.046 1377.885)" fill="#e028e5" opacity="0.41"/>
              <circle id="Ellipse_2619" data-name="Ellipse 2619" cx="16.356" cy="16.356" r="16.356" transform="translate(314.449 1371.13)" fill="#e028e5" opacity="0.41"/>
              <path id="Path_3006" data-name="Path 3006" d="M350.37,1360.495c-16.084,7.919-19.256,25.5-26.37,41.505-14,32-55,39-88,41a18.724,18.724,0,0,1-5.4-.093c12.294,6.27,27.9,9.67,46.8,8.9,21.081-.866,38.514-5.119,51.568-12.5,17.9-10.122,27.591-26.113,27.22-47.259A92.685,92.685,0,0,0,350.37,1360.495Z" fill="#b40505" opacity="0.1"/>
            </g>
            <g id="Group_3498" data-name="Group 3498">
              <path id="Path_3007" data-name="Path 3007" d="M247.38,1342.873a11.988,11.988,0,0,1,8.052.4,4.608,4.608,0,0,0,1.83.4,3.5,3.5,0,0,0,3.075-1.721,3.869,3.869,0,0,0,.28-3.087,3.01,3.01,0,0,0-1.633-1.907,19.883,19.883,0,0,0-13.534-1.076,3.332,3.332,0,0,0-2.457,2.424,4.031,4.031,0,0,0,1.045,3.772A3.317,3.317,0,0,0,247.38,1342.873Z" fill="#2d1e07"/>
              <path id="Path_3008" data-name="Path 3008" d="M298.861,1374.431a57.838,57.838,0,0,0-34.288,12.808,3.026,3.026,0,0,0-.485,4.487,4.151,4.151,0,0,0,3.182,1.562,3.719,3.719,0,0,0,2.35-.846,49.27,49.27,0,0,1,29.276-10.758,3.478,3.478,0,0,0,3.039-1.852,4.028,4.028,0,0,0-.1-3.906A3.238,3.238,0,0,0,298.861,1374.431Z" fill="#2d1e07"/>
              <path id="Path_3009" data-name="Path 3009" d="M294.217,1400.031a3.74,3.74,0,0,0-3.783.566c-.155.123-.589.437-1.171.859-1.524,1.1-3.961,2.872-5.242,3.981q-.3-.489-.593-.98c-.635-1.066-1.29-2.221-2.064-3.634a3.24,3.24,0,0,0-2.829-1.8h-.077a4.036,4.036,0,0,0-3.338,1.9,3.415,3.415,0,0,0-.032,3.535c.254.465.526,1.01.82,1.6.394.789.833,1.67,1.322,2.542a72.988,72.988,0,0,1-23.539,14.641c-3.688,1.358-8.923,2.782-11.771-.517a16.931,16.931,0,0,1-2.7-5.576c-.2-.588-.4-1.168-.613-1.719l-3.266-8.587a3.675,3.675,0,0,0-2.908-2.38,3.991,3.991,0,0,0-3.655,1.271,3.051,3.051,0,0,0-.4,3.126q.726,1.91,1.446,3.823c.96,2.546,1.921,5.094,2.91,7.63l.125.321a21.817,21.817,0,0,0,3.893,7.177,13.362,13.362,0,0,0,10.19,4.116,22.515,22.515,0,0,0,4.316-.442c12.364-2.428,23.719-10.958,31.134-17.769a6.3,6.3,0,0,0,1.216.169c1.928-.008,3.443-1.289,4.78-2.419.264-.225.524-.444.781-.648l6.309-5.017a3,3,0,0,0,1.233-2.841A3.924,3.924,0,0,0,294.217,1400.031Z" fill="#2d1e07"/>
              <path id="Path_3010" data-name="Path 3010" d="M371.955,1374.949a186.977,186.977,0,0,0-22.451-8.737,3.217,3.217,0,0,0-3.266.644,4.032,4.032,0,0,0-1.134,3.741,3.481,3.481,0,0,0,2.436,2.6,174.935,174.935,0,0,1,16.968,6.328c-5.416,6.975-11,13.955-16.612,20.754a4.234,4.234,0,0,0-.911,3.445,3.194,3.194,0,0,0,1.7,2.228,33.156,33.156,0,0,0,15.446,3.823h.016a3.311,3.311,0,0,0,2.992-1.652,4.034,4.034,0,0,0,.01-3.913,3.335,3.335,0,0,0-3.014-1.687,25.711,25.711,0,0,1-7.776-1.188c5.73-7.026,11.414-14.205,16.9-21.347a3.168,3.168,0,0,0,.436-2.7A3.425,3.425,0,0,0,371.955,1374.949Z" fill="#2d1e07"/>
              <path id="Path_3011" data-name="Path 3011" d="M310.3,1326.079a3.563,3.563,0,0,0-3.285,1.622,6.2,6.2,0,0,1-8.415,1.534,3.317,3.317,0,0,0-4.756,1.135,3.58,3.58,0,0,0,1.067,5.11,12.921,12.921,0,0,0,6.927,1.981,13.816,13.816,0,0,0,11.4-6.043,3.133,3.133,0,0,0,.322-3.222A4.013,4.013,0,0,0,310.3,1326.079Z" fill="#2d1e07"/>
              <path id="Path_3012" data-name="Path 3012" d="M383.458,1291.11c-9.744-3.156-20.7.679-25.468,8.923-4.946,8.547-3.035,20.052,4.35,26.193a3.666,3.666,0,0,0,3.693.646,3.991,3.991,0,0,0,2.555-2.906,3.06,3.06,0,0,0-1.188-2.931,13.95,13.95,0,0,1-4.864-9.481,12.966,12.966,0,0,1,2.929-9.6,13.745,13.745,0,0,1,9.717-4.65,15.179,15.179,0,0,1,11.179,3.626,14.6,14.6,0,0,1,4.681,12.331,11.826,11.826,0,0,1-6.132,9.265,25.076,25.076,0,0,1-2.754,1.241c-2.2.887-4.477,1.8-5.919,4.116-1.282,2.053-6.1,13.3-3.159,15.56a6.835,6.835,0,0,0,4.318,1.394h.09a3.734,3.734,0,0,0,3.544-3.568c.077-.648.118-1.47.161-2.341.134-2.709.319-6.419,1.782-7.657a11.878,11.878,0,0,1,3.566-1.767,15.444,15.444,0,0,0,3.453-1.609,20.007,20.007,0,0,0,8.081-12.184C400.244,1305.46,393.688,1294.424,383.458,1291.11Z" fill="#2d1e07"/>
              <path id="Path_3013" data-name="Path 3013" d="M153.279,1288.886c-10.092,1.766-17.977,10.277-18.341,19.8-.375,9.868,6.693,19.145,16.093,21.12a3.86,3.86,0,0,0,4.544-3.086,3.088,3.088,0,0,0-2.5-3.869,13.95,13.95,0,0,1-8.733-6.107,12.964,12.964,0,0,1-1.9-9.854,13.747,13.747,0,0,1,6.415-8.654,15.17,15.17,0,0,1,11.578-2.022,14.6,14.6,0,0,1,9.9,8.712,11.828,11.828,0,0,1-1.088,11.057,24.984,24.984,0,0,1-1.854,2.381c-1.531,1.815-3.114,3.691-3.309,6.409-.173,2.414.825,14.609,4.484,15.231a6.848,6.848,0,0,0,1.135.1,7.311,7.311,0,0,0,3.334-.886,3.722,3.722,0,0,0,1.545-4.853c-.235-.609-.584-1.356-.953-2.146-1.149-2.457-2.72-5.822-2.006-7.6a11.89,11.89,0,0,1,2.327-3.23,15.356,15.356,0,0,0,2.3-3.037A20.009,20.009,0,0,0,177.7,1303.8C174.826,1293.721,163.868,1287.034,153.279,1288.886Z" fill="#2d1e07"/>
              <path id="Path_3014" data-name="Path 3014" d="M174.779,1388.535c-.537-.37-1.245-.789-2-1.233-2.333-1.383-5.529-3.278-5.94-5.149a11.871,11.871,0,0,1,.1-3.979,15.4,15.4,0,0,0,.188-3.806,20.009,20.009,0,0,0-7-12.832c-8.055-6.706-20.876-6.058-28.581,1.443-7.341,7.148-9.059,18.622-3.995,26.688a21.393,21.393,0,0,0,17.912,9.8,19.055,19.055,0,0,0,7.283-1.417,3.662,3.662,0,0,0,2.3-2.965,3.991,3.991,0,0,0-1.378-3.615,3.061,3.061,0,0,0-3.146-.318,13.947,13.947,0,0,1-10.655-.123,12.965,12.965,0,0,1-7.123-7.07,13.747,13.747,0,0,1,.422-10.764,15.188,15.188,0,0,1,8.424-8.2,14.613,14.613,0,0,1,13.091,1.615,11.827,11.827,0,0,1,5.333,9.748,25.075,25.075,0,0,1-.189,3.013c-.242,2.361-.493,4.8.878,7.158,1.217,2.092,8.912,11.615,12.288,10.055a6.839,6.839,0,0,0,3.247-3.167A3.724,3.724,0,0,0,174.779,1388.535Z" fill="#2d1e07"/>
            </g>
          </g>
          <path id="Path_3015" data-name="Path 3015" d="M181.524,1394.189a6.1,6.1,0,0,0-3.316,4.734c-.925,5.114,4.363,7.627,6.818,6.845,4.413-1.406,6.267-7.041,2.722-10.381A5.781,5.781,0,0,0,181.524,1394.189Z" fill="#2d1e07" stroke="#2d1e07" stroke-miterlimit="10" stroke-width="1"/>
        </g>
      </g>
    </g>
    <g id="Group_3507" data-name="Group 3507">
      <g id="Group_3506" data-name="Group 3506">
        <g id="Group_3503" data-name="Group 3503">
          <path id="Path_3016" data-name="Path 3016" d="M598.323,1384.879a10.852,10.852,0,0,0,1.274-4.626q.24-2.94.48-6.6c.257-2.613-.154-3.989-1.22-4.1-1.286-.136-6.839-.166-16.508-.088l-.352,0v-3.111l8.164.126a2.974,2.974,0,0,0,2.2-.607,2.636,2.636,0,0,0,.685-1.933c-.319-6.268-.531-10.165-.629-11.562a1.29,1.29,0,0,0-.448-.943c-.543-.46-1.588-.618-3.1-.475-12.2.161-18.9.341-19.941.537-.565.106-1.321.443-1.367,2.127.08,2.135.121,4.342.121,6.539a21.249,21.249,0,0,0,.439,4.958,1.8,1.8,0,0,0,1.974,1.479l7.918-.252v3.106l-.34.008c-8.547.239-13.43.411-14.514.509a.942.942,0,0,0-.693.339,2.975,2.975,0,0,0-.253,2.12c.081,2.327.261,4.611.541,6.819a25.335,25.335,0,0,0,1.551,6.128l1.032.516a2.5,2.5,0,0,0,2.074-.483l.52-1.038-1.605-10.551,11.9-.384,1.334,14.31.967.484a2.457,2.457,0,0,0,1.782-.477l.65-1.41-.736-12.893,13.718-.127-.542,8.2-2.339-1.316a2.433,2.433,0,0,0-1.778.48l-.538,1.076a2.4,2.4,0,0,0,.524,1.838,7.32,7.32,0,0,0,4.036,2.5A2.581,2.581,0,0,0,598.323,1384.879ZM571.8,1362.246l-.267-6.933,17.033-.376.4,7.56Z" fill="#418ca3"/>
          <path id="Path_3017" data-name="Path 3017" d="M601.124,1355.913a2.432,2.432,0,0,0,1.777-.474,11.714,11.714,0,0,0,.9-4.008,24.86,24.86,0,0,1,.61-4.386c.237-1.553.014-2.237-.217-2.533a.836.836,0,0,0-.616-.312c-1.067-.1-4.09-.189-8.983-.269l-.5-.008,2.761-7.194a2.412,2.412,0,0,0-.492-1.994l-1.136-.541a2.445,2.445,0,0,0-1.79.478,27.821,27.821,0,0,0-1.39,3.317,16.641,16.641,0,0,1-1.109,2.642c-.188.329-.335,1.053.037,2.629l.107.45-8.966-.4V1339.5a11.319,11.319,0,0,0-.531-5.275l-1.017-.509a2.423,2.423,0,0,0-1.779.474,9.6,9.6,0,0,0-.719,4.04c.04,1.573.02,3.138-.06,4.652l-.018.331h-8.184l-.058-.276a24.074,24.074,0,0,0-.947-3.256c-.381-1.027-.8-2.052-1.26-3.046l-1.03-.515a2.519,2.519,0,0,0-1.847.479l-.52,1.039a27.927,27.927,0,0,0,1.29,5.231l.158.449-7.8.256a1.337,1.337,0,0,0-1.153.143,2.244,2.244,0,0,0-.431,1.775,34.984,34.984,0,0,1,.36,5.06,8.037,8.037,0,0,0,1.215,4.357l1.054.527a2.815,2.815,0,0,0,1.911-.49l.5-1a20.82,20.82,0,0,1-.816-6.1v-.343l.342-.007c13.085-.279,26.189-.037,38.952.721l.371.023-.644,5.413a4.5,4.5,0,0,0,.619,1.733Z" fill="#418ca3"/>
        </g>
        <path id="Path_3018" data-name="Path 3018" d="M649.33,1377.853a9.385,9.385,0,0,0,3.19,5.531,11.927,11.927,0,0,0,6.716,2.857c2.75.318,7.268.6,13.429.839a1.785,1.785,0,0,0,1.316-.451,1.354,1.354,0,0,0,.243-1.057c-.12-1.221-.161-4.226-.122-8.933l-.51-1.022-1.037-.518a2.38,2.38,0,0,0-1.839.522,2.863,2.863,0,0,0-.6,1.46l.13,6.025-.368-.012c-2.559-.08-5.123-.242-7.621-.481a14.337,14.337,0,0,1-6.066-1.732,5.616,5.616,0,0,1-2.738-3.059,34.37,34.37,0,0,1-.553-6.661l-.009-.371.371.012a47.371,47.371,0,0,0,6.524-.023c.62-.127.778-1.179.8-2.039.4-18.272.62-28.1.661-29.2a3.072,3.072,0,0,0-.746-2.33,2.446,2.446,0,0,0-1.848-.851c-20.712-.1-25.668.069-26.176.225-.229.072-.924.285-.924,1.949.318,18.979.648,29.215.979,30.42a2.2,2.2,0,0,0,2.235,1.726l5.207-.269-.221.516a17.4,17.4,0,0,1-3.553,5.121,40.6,40.6,0,0,1-5.544,4.756,29.127,29.127,0,0,1-6.529,3.538l-.51,1.02a2.412,2.412,0,0,0,.523,1.839,2.836,2.836,0,0,0,1.364.587,48.183,48.183,0,0,0,10.014-5.8,31.225,31.225,0,0,0,5.673-5.79,28.765,28.765,0,0,0,3.205-5.428l.1-.227,4.431.277-.012.339A33.926,33.926,0,0,0,649.33,1377.853Zm-13.737-37.505h21.618l-.135,6.106H635.727Zm.248,10.151h21.242v4.671l-21.242-.373Zm.5,16.073-.4-7.79,20.787.373-.132,7.666Z" fill="#418ca3"/>
        <g id="Group_3504" data-name="Group 3504">
          <path id="Path_3019" data-name="Path 3019" d="M738.469,1387.59a1.088,1.088,0,0,0,.541-.789,23.9,23.9,0,0,0,.651-3.847c.118-1.337.138-17.009.06-46.58a1.843,1.843,0,0,0-.52-1.325,1.065,1.065,0,0,0-.87-.135l-18.017.367c-1.374.174-1.5.854-1.46,1.425.479,11.839.811,18.373.989,19.431.093.564.417,1.31,2.128,1.21h14.007l-.249,25-2.363-1.182a2.806,2.806,0,0,0-1.911.491l-.536,1.072a2.14,2.14,0,0,0,.517,1.82,20.829,20.829,0,0,0,5.145,2.672l.041.017A2.361,2.361,0,0,0,738.469,1387.59Zm-2.615-34.229H723.708l-.414-5.384h12.56Zm0-9.43H722.962v-4.657l12.758-.254.134,3.1Z" fill="#418ca3"/>
          <path id="Path_3020" data-name="Path 3020" d="M692.366,1337.461c.876,30.11,1.36,46.01,1.441,47.243a7.137,7.137,0,0,0,.863,3.061l1.046.523a2.426,2.426,0,0,0,1.787-.48l.528-1.056-.97-30.245h.36q13.335-.058,14.687-.06c.454,0,1.083-.148,1.308-1.423a77.47,77.47,0,0,0,.115-9.722q-.18-8.078-.21-9.22c-.015-.531-.655-.8-1.9-.8H694.9a1.929,1.929,0,0,0-2.533,2.18Zm17.109,14.813-12.743.253-.28-4.91h13.164Zm-13.123-13.007h12.86l.43,4.3h-13.29Z" fill="#418ca3"/>
          <path id="Path_3021" data-name="Path 3021" d="M727.766,1365.031a1.888,1.888,0,0,0-.189-1.389.81.81,0,0,0-.617-.25c-.947-.04-4.33-.123-9.783-.24-2.583-.055-4.468-.077-5.836-.077a21.426,21.426,0,0,0-3.377.126c-.413.11-.642.843-.642,2.064.416,11.99.773,14.318.948,14.638s.506.7,1.541.573l.037,0c10.361-.24,16.07-.337,16.962-.3.244.005.995.05,1.2-1.792Zm-15.837,11.287-.522-9.252,12.369.382.131,8.487Z" fill="#418ca3"/>
        </g>
        <g id="Group_3505" data-name="Group 3505">
          <path id="Path_3022" data-name="Path 3022" d="M787.031,1340.59a2.806,2.806,0,0,0,1.459.6l7.46-.521-2.113,5.214-.267-.033a19.814,19.814,0,0,0-2.413-.17,7.777,7.777,0,0,0-1.872.191c-.541.139-1.255.505-1.209,2.083q.12,6.617.211,14.363c.06,5.108.275,8.276.643,9.417a2.948,2.948,0,0,0,2.548,1.949c8.868-.239,14.1-.44,15.552-.6,1.949-.21,2.058-1.045,2.094-1.319.116-.894-.027-8.979-.423-24.032a1.863,1.863,0,0,0-.527-1.582c-.6-.515-1.738-.617-3.383-.306l-6.571.006,2.5-5.145h7.525l1.023-.511.519-1.037a2.431,2.431,0,0,0-.477-1.782l-1.42-.655H790.73a7.25,7.25,0,0,0-3.7.981l-.524,1.048A2.406,2.406,0,0,0,787.031,1340.59Zm17.924,28.618-11.664.382-.3-3.706,11.961-.256Zm0-7.565-12.263.255-.3-3.47h12.565ZM804.7,1349.9l.143,4.543H792.193l-.142-4.543Z" fill="#418ca3"/>
          <path id="Path_3023" data-name="Path 3023" d="M808.056,1380.586l.531-1.06a2.438,2.438,0,0,0-.489-1.8l-4.1-2.517a2.407,2.407,0,0,0-1.994.484l-.545,1.143a2.144,2.144,0,0,0,.516,1.825,28.413,28.413,0,0,0,4.6,2.521A3.538,3.538,0,0,0,808.056,1380.586Z" fill="#418ca3"/>
          <path id="Path_3024" data-name="Path 3024" d="M809.549,1385.17a2.434,2.434,0,0,0-.48-1.785l-1.06-.53a139.61,139.61,0,0,1-14.549-.723l.033-.7a2.187,2.187,0,0,0,1.458-.52l1.515-1.875.648-1.315a2.534,2.534,0,0,0-.479-1.848l-1.073-.536a2.836,2.836,0,0,0-2.41.972,16.522,16.522,0,0,0-1.719,2.684,2.81,2.81,0,0,0,.539,1.977,4,4,0,0,0,1.376.714l-.142.684c-2.976-.4-5.965-.787-8.885-1.141a56.459,56.459,0,0,1-8.7-1.753l-.245-.07-.26-8.239,7.684-.126a3.692,3.692,0,0,0,1.9-.5l.526-1.05a2.419,2.419,0,0,0-.524-1.839,3.651,3.651,0,0,0-1.58-.6l-8.2.127-.552-5.433.37-.016c1.757-.081,3.562-.1,5.37-.06a13.3,13.3,0,0,0,4.727-.713l.509-1.016a2.428,2.428,0,0,0-.481-1.785l-1.059-.532-21.84.24a6.457,6.457,0,0,0-3.34.859l-.525,1.049a2.729,2.729,0,0,0,.557,1.977l.824.1,10.92,0,.886,16.069-.466-.125a27.822,27.822,0,0,1-5.292-2.008l-.221-.11.63-5.05a2.448,2.448,0,0,0-.473-2.079l-1.076-.538a2.425,2.425,0,0,0-1.754.453c-.626,2.674-1.161,5.365-1.589,8a28.778,28.778,0,0,1-2.465,7.816,2.806,2.806,0,0,0,.489,1.914l1.065.532a2.4,2.4,0,0,0,1.795-.486,16.741,16.741,0,0,0,1.322-2.889q.538-1.555,1.018-3.112l.111-.36.35.137c2.343.913,5.184,1.891,8.446,2.905a68.431,68.431,0,0,0,11.294,2.36c4.243.554,8.58,1.079,12.891,1.559,3.535.039,6.943.039,10.126,0a3.556,3.556,0,0,0,1.532-.608Z" fill="#418ca3"/>
          <path id="Path_3025" data-name="Path 3025" d="M779.348,1336.541c-10.176-.078-15.932-.1-17.138-.059-.365.013-1.476.051-1.584,2.967.08,8.44.276,13.205.584,14.144.273.839,1.074,1.3,2.446,1.411,9.892.16,15.392.151,16.349-.024.84-.154,1.284-.541,1.4-1.216.136-.8.123-6.06-.035-15.643A1.7,1.7,0,0,0,779.348,1336.541Zm-14.736,4.111,12.773-.127v3.229l-12.773-.127Zm12.893,10.25-12.636-.127-.155-3.1,12.791.127Z" fill="#418ca3"/>
        </g>
      </g>
    </g>
  </g>
</svg>
