<svg xmlns="http://www.w3.org/2000/svg" width="176.375" height="152.131" viewBox="0 0 176.375 152.131">
  <g id="Group_268" data-name="Group 268" transform="translate(2091.671 -1780.031)">
    <path id="Path_317" data-name="Path 317" d="M-1916.972,1877.282l-4.755-3.034a2.234,2.234,0,0,1-.771.356c-.377-.373-.75-.8-1.144-1.246-1.584-1.8-3.751-4.289-7.445-3.9l-3.295.311.651,3.243c.285,1.908-1.535,11.848-6.243,19.634l-.271-.25,1.262-9.527a7.444,7.444,0,0,0,1.113-5.286,3.8,3.8,0,0,0-.288-.938l1.576-11.912-5.651-1.138a3.974,3.974,0,0,0-1.076-.832,3.813,3.813,0,0,0-2.772-.312,3.356,3.356,0,0,0-1.2-2.042c-.22-.182-.442-.374-.661-.561l1.962-1.3c.167-.11.328-.222.486-.33.242-.166.47-.33.717-.467a3.684,3.684,0,0,0,1.886-3.959c-.136-.841-.257-1.685-.386-2.572l-.915-6.234-4.832,3.776c-.642.5-1.266.987-1.887,1.477a3.2,3.2,0,0,0-.868,3.959l1.777,3.9-2.08-1.777-1.017,2.023a22.223,22.223,0,0,0-4.511-4.738c0-.083.005-.166.005-.249a8.853,8.853,0,0,0,1.748-.63l.234-.082,2.119,2.111,2.146-4.321c.251-.507.487-.983.74-1.483a3.362,3.362,0,0,0-.446-3.949l-2.893-3.169-5.048,1.7a19.507,19.507,0,0,0,.445-4.449l.282-.146c1.608-.835,7.147-3.766,12.133-6.408-.018.042-.039.087-.053.125a3.231,3.231,0,0,0,.413,2.994l5.188,7.568a3.246,3.246,0,0,0,.414.7,3.1,3.1,0,0,0,.253.276l.511.746.152-.242a3.357,3.357,0,0,0,1.946.416h.072a3.726,3.726,0,0,0,.5.034,3.972,3.972,0,0,0,3.507-2.289c.157-.282.317-.573.46-.877.379-.037.748-.072,1.111-.105a3.634,3.634,0,0,0,2.665-1.5l2.278-3.143-2.1-3.221c.5-.941.994-1.881,1.5-2.821a3.223,3.223,0,0,0-.012-3.273,3.163,3.163,0,0,0-2.891-1.522c-.935.008-1.871.01-2.816,0h-.042a3.406,3.406,0,0,0-3.366,2.5c-.275.915-.564,1.831-.861,2.769a3.333,3.333,0,0,0-3.916-1.739l4.041-2.142c2.554-1.348,3.192-2.566,2.846-5.43q-.618-5.1-1.262-10.2c.55.716,1.088,1.417,1.617,2.117a3.657,3.657,0,0,0,2.949,1.5,3.634,3.634,0,0,0,.428-.025c.684-.075,1.369-.137,2.082-.2l5.208-.489-2.367-4.762c-.435-.874-.858-1.723-1.278-2.577a3.378,3.378,0,0,0-3.108-1.892h-.021c-1,0-2,.005-3.052,0h-1.235l-1.6,3.253c-.048-.382-.093-.764-.142-1.146a3.348,3.348,0,0,0-1.09-2.726,3.3,3.3,0,0,0-2.588-.813l-19.887.077a6.373,6.373,0,0,0-.509-1.82,19.654,19.654,0,0,0-10.441-10.7,9.348,9.348,0,0,0-5.586-.614l-.062.012a15.662,15.662,0,0,0-2.994-7.639l-.213-.247a8.73,8.73,0,0,0-3.407-2.045l-.288-.111c-1.479-.606-8.348-1.263-8.733-1.263h0a21.515,21.515,0,0,0-6.333,1.031l-.279.09a8.383,8.383,0,0,0-3.757,2.092,18.551,18.551,0,0,0-5.049,10.189,24.176,24.176,0,0,0-.278,3.674,21.654,21.654,0,0,0-10.415-5.584c-4.333-.906-7.915-.171-10.948,2.237a28.051,28.051,0,0,0-8.5,10.961,9.929,9.929,0,0,0-.928,4.939l.055.349a15.381,15.381,0,0,0,1.8,4.25,16.335,16.335,0,0,0,2.389,3.218,9.926,9.926,0,0,0-3.54,5.308,25.811,25.811,0,0,0-.566,3.217l-1.947.954q-4.035,1.975-8.064,3.964-3.087,1.527-6.162,3.076l-3.482,1.744-.41.51a3.639,3.639,0,0,0-.253,4.245l.121.318c-.163-.005-.331,0-.493-.013a4.441,4.441,0,0,0-4.566,2.723c-.492,1.054-1.056,2.105-1.653,3.216-.263.49-.529.985-.795,1.491l-2.169,4.13,6.028.334c1.152.062,2.253.12,3.347.2l.062,0a3.417,3.417,0,0,0,1.569,1.853c.579.313,1.153.632,1.756.968l2.083,1.154-3.576,1.246-.761,5.272.659.472c.708.507,1.4,1,2.085,1.493-.181-.1-.355-.187-.538-.285l-4.828-2.573-1.061,5.562c-.289,1.517-.569,3-.864,4.473a3.213,3.213,0,0,0,.822,2.986,3.133,3.133,0,0,0,2.271.932,3.973,3.973,0,0,0,.7-.065c1.025-.187,2.051-.367,3.076-.547l1.353-.238a3.464,3.464,0,0,0,2.9-2.921c.078-.493.186-.982.292-1.47l.163-.767a3.372,3.372,0,0,0-.977-3.186,3.988,3.988,0,0,0,.645.055c.656,0,1.313,0,1.983,0h1.341l2.38-4.827-3.648-4.757a3.285,3.285,0,0,0-1.25-.994v-.584c1.625.179,3.248.366,4.873.547l.964,2.585c.3.8.59,1.583.882,2.355a3.219,3.219,0,0,0,1.24,1.533l-1.93,2.331.855,2.211-3.478,1.615-3.434-.708,2.553,13.226c-.022.058-.043.118-.063.178-.085.262-.171.522-.258.783-.412.127-.838.264-1.282.414a4.358,4.358,0,0,0-2.273,1.753c-1,.469-2,.938-3.005,1.393a3.2,3.2,0,0,0-1.871,2.2,3.2,3.2,0,0,0,.688,2.8c.158.195.311.4.464.595l.347.449c1.238,1.58,2.251,2.274,3.641,2.273a7.261,7.261,0,0,0,2.149-.4,3.249,3.249,0,0,0,2.052-1.353c.583.228,1.16.439,1.67.616l1.211,6.277c-10.38,4.658-29.555-11.27-35.126-17.438l-1.771-1.961-2.169,1.51c-.381.264-3.725,2.771-3.8,9.048-.033,2.615-.582,2.63-2.4,2.68l-2.255,4.879c.249.31,6.332,7.67,25.426,13.617,10.372,3.231,17.124,3.661,24.15,1.3a18.659,18.659,0,0,0,2.984,10.076c4.325,6.606,12.373,9.511,22.082,7.976a36.871,36.871,0,0,0,9.187-2.6,15.577,15.577,0,0,0,4.353-1.654l20.24,4.9,12.185-5.655c3.519,1.1,5.014.81,5.536.708.275-.053.56-.12.839-.2.251-.072.5-.154.761-.248a36.2,36.2,0,0,0,3.657,1.072c10.827,2.567,19.685-.146,24.237-7.273.1.248.2.5.286.749a3.974,3.974,0,0,0,5.166,2.365,3.858,3.858,0,0,0,2.335-4.995,35.434,35.434,0,0,0-4.638-8.7c.01-.273.016-.543.016-.811a22.423,22.423,0,0,0-.289-3.606C-1925.419,1898.675-1919.425,1888.241-1916.972,1877.282Zm-110.437-.908Z" fill="#fff"/>
    <path id="Path_318" data-name="Path 318" d="M-1919.869,1837.483l-3.249,2.064a3.565,3.565,0,0,0-1.382,1.686l-1.434,3.217a3.14,3.14,0,0,0-1.733-.489,3.616,3.616,0,0,0-2.823,1.609l-.177.217a6.167,6.167,0,0,0-1.445,3.869,3.133,3.133,0,0,0-2.571.087,3.208,3.208,0,0,0-1.707,2.388c-.065.4-.142.791-.218,1.185-.343-.148-.677-.287-1.027-.438l-4.926-2.114-.351,5.425c-.06.965-.117,1.894-.2,2.821a3.425,3.425,0,0,0,.92,2.779,3.39,3.39,0,0,0,2.516,1.013c.079,0,.159,0,.241-.006.5-.026,1.037-.014,1.584,0a3.622,3.622,0,0,0,3.209-1.7c.435-.687.889-1.362,1.35-2.034a4.013,4.013,0,0,0,.221-.366,3.246,3.246,0,0,0,.362.027h.029a3.19,3.19,0,0,0,2.649-1.525c.088-.144.189-.285.289-.428.177-.253.378-.556.573-.889l4.152-3.734,1.9-1.762.086.091c.385-.145.759-.3,1.126-.444a16,16,0,0,1,1.891-.679,5.155,5.155,0,0,0,4.13-4.981,22.235,22.235,0,0,1,.348-2.487c.081-.46.164-.929.239-1.413Z" fill="#fff"/>
    <g id="Group_295" data-name="Group 295">
      <g id="Group_292" data-name="Group 292">
        <g id="Group_289" data-name="Group 289">
          <path id="Path_319" data-name="Path 319" d="M-2035.905,1874.621l30.3-15.816,2.745,22.623Z" fill="#602020"/>
          <path id="Path_320" data-name="Path 320" d="M-1983.564,1885.4l32.772-13.729-54.814-12.869,2.745,22.623Z" fill="#441b1b"/>
          <path id="Path_321" data-name="Path 321" d="M-2006.14,1853.784l.534,5.021-30.3,15.816-10.464-2.155Z" fill="#b52c2c"/>
          <path id="Path_322" data-name="Path 322" d="M-1939.923,1867.12l-10.869,4.553-54.814-12.869-.534-5.021Z" fill="#a02a2a"/>
          <g id="Group_287" data-name="Group 287">
            <g id="Group_284" data-name="Group 284">
              <path id="Path_323" data-name="Path 323" d="M-1955.6,1847.42c-2.628-.581-6.388-1.249-8.269,1.251a.892.892,0,0,0,.153,1.229.875.875,0,0,0,.492.178,2.448,2.448,0,0,0,1.169.435,14.811,14.811,0,0,0,2.147.127,6.359,6.359,0,0,0,2.907-.7,4.953,4.953,0,0,0,1.823-.952A.888.888,0,0,0-1955.6,1847.42Z" fill="#70b535"/>
              <path id="Path_324" data-name="Path 324" d="M-1973.88,1843.616c1.732,2.061,4.306,4.881,7.321,4.045a.893.893,0,0,0,.627-1.069.867.867,0,0,0-.282-.44,2.436,2.436,0,0,0-.662-1.057,14.736,14.736,0,0,0-1.625-1.409,6.376,6.376,0,0,0-2.732-1.215,4.947,4.947,0,0,0-2.027-.355A.888.888,0,0,0-1973.88,1843.616Z" fill="#70b535"/>
              <path id="Path_325" data-name="Path 325" d="M-1962.931,1846.662a31.946,31.946,0,0,0,.864-3.183,15.027,15.027,0,0,0,.234-6.722.9.9,0,0,0-.988-.749,12.748,12.748,0,0,0-3.009,2.627,9.6,9.6,0,0,0-1.622,3.5c-.439,2.1.438,4.111,1.429,5.926a.965.965,0,0,0,.139.8.809.809,0,0,0,.765.326.8.8,0,0,0,.595-.015.969.969,0,0,0,.535-.675A5,5,0,0,0-1962.931,1846.662Z" fill="#328230"/>
              <g id="Group_282" data-name="Group 282">
                <path id="Path_326" data-name="Path 326" d="M-1961.255,1848.693a.885.885,0,0,0-.987-.748,11.123,11.123,0,0,0-2.211.758c.12-.459.234-.914.347-1.364a.883.883,0,0,0-.762-.978.9.9,0,0,0-.977.762c-.113.454-.229.914-.35,1.376a13.653,13.653,0,0,1-1.347-2.237c-.429-.891-1.8-.192-1.368.7a15.25,15.25,0,0,0,2.049,3.17.783.783,0,0,0,.165.148l-.262.834c-.066.2-.86,2.478-.932,2.674.437.467.884.88,1.351,1.318.253-.643,1.193-3.326,1.4-3.988.111-.079.222-.159.336-.234a4.8,4.8,0,0,1,.435-.271l.038-.02.106-.058c.088-.047.177-.093.266-.137a9.823,9.823,0,0,1,1.02-.437q.255-.093.513-.171l.135-.039h-.005l.01,0h0l.035-.008c.082-.015.164-.042.243-.061a.948.948,0,0,0,.572-.329A.9.9,0,0,0-1961.255,1848.693Z" fill="#2d1e07"/>
                <path id="Path_327" data-name="Path 327" d="M-1962.29,1849.752c.152-.016.1-.019.044-.01l-.039.008Z" fill="#2d1e07"/>
              </g>
              <path id="Path_328" data-name="Path 328" d="M-1952.023,1872.464c-.592,9.836-7.316,17.7-21.529,14.671-13.22-2.819-18.716-9.61-16.635-19.245,2.394-11.086,10.712-17.067,21.25-15.8A19.218,19.218,0,0,1-1952.023,1872.464Z" fill="#fba71b"/>
              <path id="Path_329" data-name="Path 329" d="M-1982.366,1869.558a.876.876,0,0,0-.208,1.739A.876.876,0,0,0-1982.366,1869.558Z" fill="#2d1e07"/>
              <path id="Path_330" data-name="Path 330" d="M-1985.938,1867.176a.876.876,0,0,0-.209,1.739A.876.876,0,0,0-1985.938,1867.176Z" fill="#2d1e07"/>
              <path id="Path_331" data-name="Path 331" d="M-1986.11,1871.038a.876.876,0,0,0-.208,1.739A.876.876,0,0,0-1986.11,1871.038Z" fill="#2d1e07"/>
              <path id="Path_332" data-name="Path 332" d="M-1958.442,1876.05a.876.876,0,0,0-.208,1.739A.876.876,0,0,0-1958.442,1876.05Z" fill="#2d1e07"/>
              <path id="Path_333" data-name="Path 333" d="M-1957.834,1873.273a.876.876,0,0,0-.209,1.739A.876.876,0,0,0-1957.834,1873.273Z" fill="#2d1e07"/>
              <path id="Path_334" data-name="Path 334" d="M-1961.31,1874.015a.876.876,0,0,0-.209,1.739A.876.876,0,0,0-1961.31,1874.015Z" fill="#2d1e07"/>
              <path id="Path_335" data-name="Path 335" d="M-1969.849,1873.349a.7.7,0,0,1-.578-.3l-1.048-1.525-.95.654a.7.7,0,0,1-.549.107.7.7,0,0,1-.452-.33l-.867-1.479-1.169.734a.7.7,0,0,1-.616.064.7.7,0,0,1-.426-.45l-.671-2.169a.7.7,0,0,1,.462-.877.7.7,0,0,1,.876.463l.4,1.3,1.009-.633a.7.7,0,0,1,.539-.087.7.7,0,0,1,.438.327l.851,1.451.905-.624a.7.7,0,0,1,.525-.111.7.7,0,0,1,.45.291l1.083,1.575,1.265-.711a.7.7,0,0,1,.954.267.7.7,0,0,1-.267.954l-1.823,1.025A.7.7,0,0,1-1969.849,1873.349Z" fill="#2d1e07"/>
              <path id="Path_336" data-name="Path 336" d="M-1966.977,1875.019" fill="none" stroke="#2d1e07" stroke-linecap="round" stroke-miterlimit="10" stroke-width="4"/>
              <path id="Path_337" data-name="Path 337" d="M-1975.907,1860.291a.893.893,0,0,0-1.078-.611.885.885,0,0,0-.611,1.077,14.425,14.425,0,0,1,.6,2.311l-4.568.517a.9.9,0,0,0-.876.876c.02.43.389.931.876.876l5.549-.628c.433-.049.927-.363.876-.876A15.178,15.178,0,0,0-1975.907,1860.291Z" fill="#2d1e07"/>
              <path id="Path_338" data-name="Path 338" d="M-1960.9,1863.96a.9.9,0,0,0-1.2-.314,40.868,40.868,0,0,1-4.194,1.548.883.883,0,0,0-.523,1.287l2.886,3.948a.9.9,0,0,0,1.2.314.885.885,0,0,0,.315-1.2l-2.228-3.048q1.741-.6,3.43-1.339A.878.878,0,0,0-1960.9,1863.96Z" fill="#2d1e07"/>
              <path id="Path_339" data-name="Path 339" d="M-1985.495,1860.859a40.722,40.722,0,0,0-3.74-6.359.9.9,0,0,0-1.2-.314.883.883,0,0,0-.314,1.2,40.841,40.841,0,0,1,3.739,6.359.883.883,0,0,0,1.2.314A.9.9,0,0,0-1985.495,1860.859Z" fill="#2d1e07"/>
              <path id="Path_340" data-name="Path 340" d="M-1944.25,1865.968a.886.886,0,0,0-1.078-.612,44.518,44.518,0,0,0-9.1,4.35c-.953.6-.075,2.114.884,1.512a42.475,42.475,0,0,1,8.681-4.173A.9.9,0,0,0-1944.25,1865.968Z" fill="#2d1e07"/>
              <circle id="Ellipse_17" data-name="Ellipse 17" cx="4.029" cy="4.029" r="4.029" transform="translate(-1988.462 1866.121)" fill="#f22281" opacity="0.41"/>
              <circle id="Ellipse_18" data-name="Ellipse 18" cx="4.029" cy="4.029" r="4.029" transform="translate(-1963.586 1871.026)" fill="#f22281" opacity="0.41"/>
              <path id="Path_341" data-name="Path 341" d="M-1957.446,1861.124l0-.008a2.191,2.191,0,0,0-.421-1.375,3.184,3.184,0,0,0-1.259-1.074.865.865,0,0,0-.442-.12.662.662,0,0,0-.214.03.879.879,0,0,0-.567-.044.894.894,0,0,0-.523.4.882.882,0,0,0-.089.675c.011.034.027.068.041.1a.819.819,0,0,0-.032.546,5.911,5.911,0,0,0,.6,1.357,2.527,2.527,0,0,0,.484.63,1.363,1.363,0,0,0,.979.359c.037,0,.073-.013.11-.018a1.223,1.223,0,0,0,.593-.027,1.144,1.144,0,0,0,.641-.518A1.223,1.223,0,0,0-1957.446,1861.124Z" fill="#ffca85"/>
              <g id="Group_283" data-name="Group 283">
                <path id="Path_342" data-name="Path 342" d="M-1966.852,1851.581s-2.733-2.79-4.306-1.933a2.359,2.359,0,0,0-1.485,2.514c-.075,1.438,1.219,2.279,3.053,1.42a7.5,7.5,0,0,1,2.259-.452c.945-.1.817-.628.817-.628Z" fill="#f43885"/>
                <path id="Path_343" data-name="Path 343" d="M-1965.623,1852.059s4.28-1.337,4.836.226a3.068,3.068,0,0,1-.405,2.918c-1.192,1.326-2.4.561-3.34-.186-1.423-1.124-.82-.866-1.578-1.377s-.339-.92-.339-.92Z" fill="#f43885"/>
                <path id="Path_344" data-name="Path 344" d="M-1968.627,1851.335s1.36.645,1.116,1.016" fill="none" stroke="#ba0d42" stroke-linecap="round" stroke-miterlimit="10" stroke-width="3"/>
                <path id="Path_345" data-name="Path 345" d="M-1969.12,1852.448s1.533-.118,1.575.311" fill="none" stroke="#ba0d42" stroke-linecap="round" stroke-miterlimit="10" stroke-width="3"/>
                <path id="Path_346" data-name="Path 346" d="M-1963.858,1852.9s-1.466-.431-1.61-.022" fill="none" stroke="#ba0d42" stroke-linecap="round" stroke-miterlimit="10" stroke-width="3"/>
                <path id="Path_347" data-name="Path 347" d="M-1964.532,1854.014s-.947-1.062-1.334-.8" fill="none" stroke="#ba0d42" stroke-linecap="round" stroke-miterlimit="10" stroke-width="3"/>
                <path id="Path_348" data-name="Path 348" d="M-1964.878,1852.474c-.2.86-.61,1.816-1.942,1.636-.907-.123-1.786-.558-1.375-1.61.5-1.287.7-1.435,1.616-1.442S-1964.7,1851.7-1964.878,1852.474Z" fill="#f759a9"/>
              </g>
            </g>
            <g id="Group_286" data-name="Group 286">
              <g id="Group_285" data-name="Group 285">
                <path id="Path_349" data-name="Path 349" d="M-2002.232,1837.82a8.719,8.719,0,0,0-4.353,4.557c-.707,1.718-1.086,4.143.026,5.767l-.009.007a4.073,4.073,0,0,0,1.752,1.121,10.205,10.205,0,0,0,1.1-1.2,12.467,12.467,0,0,0,1.8-2.882,12.451,12.451,0,0,0,1.017-6.65A.892.892,0,0,0-2002.232,1837.82Z" fill="#328230"/>
                <path id="Path_350" data-name="Path 350" d="M-1994.674,1847.962a6.552,6.552,0,0,0-4.116-1.6,15.94,15.94,0,0,0-2.415.239,9.174,9.174,0,0,0-2.685.591.615.615,0,0,0-.148.1,5,5,0,0,0-.69.162.883.883,0,0,0-.494,1.3,4.991,4.991,0,0,0,2.569,1.625,8.911,8.911,0,0,0,2.656.453,9.089,9.089,0,0,0,5.193-1.481A.884.884,0,0,0-1994.674,1847.962Z" fill="#70b535"/>
                <path id="Path_351" data-name="Path 351" d="M-2004.14,1846.871a.9.9,0,0,0-1.238.051,17.092,17.092,0,0,0-4.724,7.7c-.925,2.816-.96,6.079.768,8.6.635.928,2.125.007,1.487-.926-1.514-2.213-1.328-4.986-.5-7.421a20.158,20.158,0,0,1,1.684-3.607,11.828,11.828,0,0,1,2.576-3.167A.881.881,0,0,0-2004.14,1846.871Z" fill="#2d1e07"/>
                <path id="Path_352" data-name="Path 352" d="M-1989.45,1873.814c-.945,7.51-7.079,13.079-18.35,13.916a26.879,26.879,0,0,1-9.039-.7c-7.442-2-11.13-7.66-10.986-14.988.011-.484.031-.959.068-1.428q.066-.978.21-1.915c.982-6.607,4.518-11.574,9.8-14.207a19.073,19.073,0,0,1,1.836-.8,21.51,21.51,0,0,1,5.9-1.25c.255-.019.508-.034.76-.042a19.259,19.259,0,0,1,1.956.025,19.172,19.172,0,0,1,17.063,13.456q.267.846.457,1.724.174.781.282,1.583A17.959,17.959,0,0,1-1989.45,1873.814Z" fill="#fba71b"/>
                <path id="Path_353" data-name="Path 353" d="M-2015.536,1865.579a1.966,1.966,0,0,0-1.823-.79,1.071,1.071,0,0,0-.714.2,2.009,2.009,0,0,0-1.152,1.466,1.986,1.986,0,0,0,2.275,2.328,1.973,1.973,0,0,0,1.613-1.061A2.07,2.07,0,0,0-2015.536,1865.579Z" fill="#2d1e07"/>
                <path id="Path_354" data-name="Path 354" d="M-2001.975,1862.888a2.276,2.276,0,0,0-3.445,1.538,1.936,1.936,0,0,0,2.166,2.145,2.024,2.024,0,0,0,1.048-.253A2.066,2.066,0,0,0-2001.975,1862.888Z" fill="#2d1e07"/>
                <path id="Path_355" data-name="Path 355" d="M-2025.625,1869.839a61.49,61.49,0,0,1-7.776-5.235.894.894,0,0,0-1.235.092.885.885,0,0,0,.091,1.235,64.413,64.413,0,0,0,8.151,5.482.886.886,0,0,0,1.172-.4A.892.892,0,0,0-2025.625,1869.839Z" fill="#2d1e07"/>
                <path id="Path_356" data-name="Path 356" d="M-1983.387,1863.618a.882.882,0,0,0-1.119-.531q-4.5,2.085-8.852,4.453a.884.884,0,0,0-.224,1.219.9.9,0,0,0,1.218.224q4.155-2.258,8.447-4.246A.9.9,0,0,0-1983.387,1863.618Z" fill="#2d1e07"/>
                <path id="Path_357" data-name="Path 357" d="M-2008.846,1873.764c-.11.008-.222.013-.339.015-2.56.04-3.509-1.6-3.653-2.475a.7.7,0,0,1,.578-.8.7.7,0,0,1,.8.568c.028.144.326,1.34,2.25,1.311,2.237-.039,2.446-1.683,2.462-1.871a.7.7,0,0,1,.753-.641.7.7,0,0,1,.645.742A3.521,3.521,0,0,1-2008.846,1873.764Z" fill="#2d1e07"/>
                <path id="Path_358" data-name="Path 358" d="M-2022.866,1873.985a.876.876,0,0,0,.13,1.747A.876.876,0,0,0-2022.866,1873.985Z" fill="#2d1e07"/>
                <path id="Path_359" data-name="Path 359" d="M-2020.918,1871.533a.876.876,0,0,0,.13,1.747A.876.876,0,0,0-2020.918,1871.533Z" fill="#2d1e07"/>
                <path id="Path_360" data-name="Path 360" d="M-2019.178,1875.841a.876.876,0,0,0,.13,1.747A.876.876,0,0,0-2019.178,1875.841Z" fill="#2d1e07"/>
                <path id="Path_361" data-name="Path 361" d="M-1999.067,1868.3a.876.876,0,0,0,.13,1.747A.876.876,0,0,0-1999.067,1868.3Z" fill="#2d1e07"/>
                <path id="Path_362" data-name="Path 362" d="M-1995.042,1871.1a.876.876,0,0,0,.13,1.747A.876.876,0,0,0-1995.042,1871.1Z" fill="#2d1e07"/>
                <path id="Path_363" data-name="Path 363" d="M-1998.311,1872.5a.876.876,0,0,0,.13,1.747A.876.876,0,0,0-1998.311,1872.5Z" fill="#2d1e07"/>
                <circle id="Ellipse_19" data-name="Ellipse 19" cx="4.029" cy="4.029" r="4.029" transform="translate(-2024.139 1871.09)" fill="#f9551c" opacity="0.41"/>
                <circle id="Ellipse_20" data-name="Ellipse 20" cx="4.029" cy="4.029" r="4.029" transform="translate(-2001.158 1868.328)" fill="#f9551c" opacity="0.41"/>
                <path id="Path_364" data-name="Path 364" d="M-2015.946,1858.561a1.658,1.658,0,0,0-1.283-.977,2.237,2.237,0,0,0-1.575.312,2.838,2.838,0,0,0-.912,1.008.95.95,0,0,0-.1.274c-.054.042-.106.086-.153.13a1.45,1.45,0,0,0-.433.742,1.164,1.164,0,0,0,.478,1.19,1.321,1.321,0,0,0,.861.241l.028-.005.018,0a1.9,1.9,0,0,0,1.019-.176,3.913,3.913,0,0,0,1.9-1.44A1.545,1.545,0,0,0-2015.946,1858.561Z" fill="#ffca85"/>
              </g>
              <path id="Path_365" data-name="Path 365" d="M-2012.082,1862.66a11.78,11.78,0,0,1-3.784-3.523,11.17,11.17,0,0,1-.8-1.357,11.429,11.429,0,0,1-1.074-3.287,19.073,19.073,0,0,1,1.836-.8,9.664,9.664,0,0,0,4.67,7.235C-2010.177,1861.553-2011.011,1863.283-2012.082,1862.66Z" fill="#2d1e07"/>
              <path id="Path_366" data-name="Path 366" d="M-2007.057,1859a15.129,15.129,0,0,1-1.587-1.505c-.4-.446-1.22-1.208-1.331-1.818-.218-1.2-2.135-1.074-1.915.143.331,1.829,2.209,3.492,3.579,4.635C-2007.361,1861.244-2006.106,1859.791-2007.057,1859Z" fill="#2d1e07"/>
              <path id="Path_367" data-name="Path 367" d="M-2003.2,1858.269a19.712,19.712,0,0,1-2.988-3.5.961.961,0,0,0-1.582,1.09,21.9,21.9,0,0,0,3.317,3.861C-2003.548,1860.565-2002.3,1859.108-2003.2,1858.269Z" fill="#2d1e07"/>
              <path id="Path_368" data-name="Path 368" d="M-1999.921,1857.647a8.714,8.714,0,0,1-1.515-1.537.982.982,0,0,0-1.336-.246.971.971,0,0,0-.246,1.336,10.782,10.782,0,0,0,1.844,1.9.979.979,0,0,0,1.354-.1A.971.971,0,0,0-1999.921,1857.647Z" fill="#2d1e07"/>
            </g>
          </g>
          <g id="Group_288" data-name="Group 288">
            <path id="Path_369" data-name="Path 369" d="M-1963,1919c-.6.373-6.671,2.261-9,4,0,0,4.042,1.633,5.9,1.269A16.1,16.1,0,0,0-1963,1919Z" fill="#af3535"/>
            <path id="Path_370" data-name="Path 370" d="M-2008.331,1925.932l.045.018a17.739,17.739,0,0,0,4.361-1.875L-2014,1921C-2013.153,1922.574-2009.766,1924.786-2008.331,1925.932Z" fill="#af3535"/>
            <path id="Path_371" data-name="Path 371" d="M-2007.685,1880.435l-16.263-3.347-22.423-4.622,8.369,43.354,14.054,3.4,16.263,3.937,24.123,5.841v-43.6Z" fill="#ce3a3a"/>
            <path id="Path_372" data-name="Path 372" d="M-1954.83,1873.367l-16.263,6.81-12.468,5.224V1929l12.468-5.787,16.263-7.555,9.033-4.194,5.875-44.344Z" fill="#ed6969"/>
            <path id="Path_373" data-name="Path 373" d="M-2019.269,1901.9a16.268,16.268,0,0,0-3.424-2.591c-3.69-2.077-7.174-3.814-19.421,2.859s-33.469-11.221-39.384-17.768c0,0-2.455,1.71-2.517,6.626s-2.69,5.568-5.318,5.64c0,0,5.539,6.888,23.981,12.633s23.386,1.608,38.464-7.117a3.452,3.452,0,0,1,.466.191A8.737,8.737,0,0,1-2019.269,1901.9Z" fill="#b51c1c"/>
            <path id="Path_374" data-name="Path 374" d="M-2012.286,1921.62s-1.949-2.08-2.265-8.976a15.83,15.83,0,0,0-4.718-10.746,8.737,8.737,0,0,0-7.153.473c1.049.507,3.57,2.18,4.459,6.835,1.134,5.939,1.856,10.034,3.36,11.568a80.182,80.182,0,0,0,10.272,5.158A38.219,38.219,0,0,1-2012.286,1921.62Z" fill="#911c1c"/>
            <path id="Path_375" data-name="Path 375" d="M-1924.576,1876.767c-2.008-1.973-3.4-4.608-6.209-4.324.583,2.9-2.387,18.629-10.808,27.267-5.05,5.181-12.161,2.417-17.97,7.285-3.053,3.629-3.182,5.782-3.361,8.285,1.016-2.171,2.438-4.031,4.977-4.666.044-.076.068-.031.068-.031s2.193-.368,4.453-.676c2.862-.39,6.227-.8,9.741-1.479,6.287-1.223,19.63-13.232,23.785-31.8C-1919.9,1876.626-1922.568,1878.74-1924.576,1876.767Z" fill="#b51c1c"/>
            <path id="Path_376" data-name="Path 376" d="M-1962.924,1915.28a14.025,14.025,0,0,1-3.174,8.989q.288-.055.595-.142c2.184-.616,4.477-2.388,5.025-3.468a19.176,19.176,0,0,0,2.068-7.005,12.007,12.007,0,0,1,.463-3.04C-1960.486,1911.249-1961.908,1913.109-1962.924,1915.28Z" fill="#911c1c"/>
          </g>
        </g>
        <g id="Group_290" data-name="Group 290">
          <path id="Path_377" data-name="Path 377" d="M-1963.59,1805.87a6.345,6.345,0,0,0-3.61-.14,20.382,20.382,0,0,0-8.05,4.06,11.77,11.77,0,0,1-2.58,1.97c-.56-.23-.3-.64-.17-.97a12.342,12.342,0,0,0,.65-2.12,2.758,2.758,0,0,0-2.52-3.49,6.376,6.376,0,0,0-3.4.48,23.911,23.911,0,0,0-7.93,5.81c0,.11.03.16.11.16a5.524,5.524,0,0,1,5.7,3.3,15,15,0,0,1,1.06,2.17c.14.4.3.79.47,1.18a9.006,9.006,0,0,1,.5,1.68c.49,1.81.91,3.62-.1,5.4a4.938,4.938,0,0,1-2.94,2.2,30.179,30.179,0,0,1-4.69,1.11,23.938,23.938,0,0,0-7.22,2.6,28.9,28.9,0,0,1-8.13,3.23,4.53,4.53,0,0,1-5.25-2.07,21.081,21.081,0,0,1-1.41-2.81,16.648,16.648,0,0,1-.93-5.69,6.274,6.274,0,0,1,3.03-5.52,7.941,7.941,0,0,0-9.23,3.5,4.533,4.533,0,0,0,1.45,6.35,9.6,9.6,0,0,0,2.16,1.05c.34.11.8.12.85.64-.41.4-.95.33-1.45.38a25.892,25.892,0,0,0-9.58,2.79c-2.24,1.18-4.17,2.66-4.84,5.3-.45.25-.72-.06-.98-.34a7.013,7.013,0,0,1-1.15-1.51,17.95,17.95,0,0,1-1.96-7.63,1.512,1.512,0,0,1,.28-.99,26.829,26.829,0,0,1,.65-4.45c.58-2.32,2.29-3.62,4.11-4.85.43-.29.87-.54,1.31-.81.36-.76,1.13-.9,1.8-1.14a20.962,20.962,0,0,1,6.01-1.24,32.369,32.369,0,0,1,10.28,1.04c.01,0,.03.01.04.01a8.257,8.257,0,0,0,5.33-.18c1.29-.48,2.7-.62,4.02-1.03,1.05-.32,1.09-.39.8-1.42-.49-1.74-1.09-3.44-1.62-5.16-.11-.35-.32-.72-.01-1.09-1.38-4.48-2.38-9.01-1.65-13.74a15.535,15.535,0,0,1,4.25-8.57,6.343,6.343,0,0,1,2.81-1.41,18.87,18.87,0,0,1,5.49-.88,73.72,73.72,0,0,1,7.5,1.04,6.978,6.978,0,0,1,2.67,1.46c-.27.52-.68.25-.98.1-2.59-1.24-5.12.34-6.3,2.53a16.9,16.9,0,0,0-1.07,2.47.292.292,0,0,0-.02.09,2.4,2.4,0,0,0-.22-.37,27.684,27.684,0,0,0-.9,7.53c.02,1.21.05,2.43.08,3.65-.15.08-.29-.03-.43-.19a6.086,6.086,0,0,1-.43-.75,1.669,1.669,0,0,0-2.42-.58,5.246,5.246,0,0,0-1.66,1.72,21.284,21.284,0,0,0-3.66,9.84,9.3,9.3,0,0,0,.16,2.11c.05.43.23.57.64.38a32.187,32.187,0,0,1,4.93-1.95c.5-.14.72-.61.95-1.04.6-1.14,1.13-2.31,1.79-3.41.01-.01.01-.03.02-.04a33.524,33.524,0,0,1,5.92-8.47,17.973,17.973,0,0,1,4.86-3.62,1.973,1.973,0,0,1,1.18-.35c1.19-.22,2.31-.69,3.51-.9a6.362,6.362,0,0,1,3.85.4,16.661,16.661,0,0,1,8.89,9.12,3.113,3.113,0,0,1,.31,1.31C-1962.65,1806.22-1962.66,1806.22-1963.59,1805.87Z" fill="#d33535"/>
          <path id="Path_378" data-name="Path 378" d="M-1973.342,1843.5q-13.989,7.4-27.98,14.793a3.414,3.414,0,0,1-.355.142c-.736-.1-.707-.758-.831-1.239q-1.1-4.25-2.2-8.5c-.691-2.677-1.407-5.348-2.085-8.029a5.336,5.336,0,0,1-.268-1.515c.094-.45.49-.563.833-.725,8.869-4.192,17.764-8.329,26.631-12.525a3.946,3.946,0,0,1,.995-.366,1.741,1.741,0,0,1,1.214.213,1.96,1.96,0,0,1,.511,1.117q1.818,7.677,3.611,15.36C-1973.163,1842.649-1972.963,1843.1-1973.342,1843.5Z" fill="#ccc"/>
          <path id="Path_379" data-name="Path 379" d="M-1939.608,1807.385c.662-.122.444.445.476.695q.931,7.313,1.811,14.63c.2,1.651.182,1.652-1.289,2.429-2.529,1.337-18.146,9.626-21.052,11.135q-2.051,1.065-4.1,2.123c-.588-.335-.49-.939-.539-1.46-.473-4.961-.977-9.92-1.46-14.88a5.645,5.645,0,0,0-.265-1.514c-.7-.633-.181-.885.353-1.144,3.383-1.642,6.8-3.2,10.206-4.805,4.535-2.138,9.082-4.25,13.611-6.4A10.333,10.333,0,0,1-1939.608,1807.385Z" fill="#ccc"/>
          <path id="Path_380" data-name="Path 380" d="M-2006.937,1839.1c.56,2.067,1.139,4.128,1.676,6.2,1.045,4.031,2.063,8.068,3.1,12.1a2,2,0,0,0,.482,1.031,10.456,10.456,0,0,1-3.011-.169c-1.3-.094-14.9-1.663-17.4-1.9-.456.02-.464-.381-.572-.649-1.994-4.976-3.791-10.028-5.775-15.008a2.021,2.021,0,0,1-.2-1.31,2.374,2.374,0,0,1,1.965-1c6.011-.031,12.018.231,18.027.248C-2008.043,1838.644-2007.4,1838.564-2006.937,1839.1Z" fill="#b7b7b7"/>
          <path id="Path_381" data-name="Path 381" d="M-2032.3,1855.138c-5.878-.665-11.755-1.337-17.635-1.983a.988.988,0,0,1-.936-.768c-1.641-4.358-3.32-8.7-4.96-13.061-.136-.362-.543-.739-.175-1.2a14.287,14.287,0,0,1,4.6-.242c4.112.1,8.227.1,12.337.259a2.177,2.177,0,0,1,1.035.178c.212.18.137.377.036.576-.185.4.027.756.168,1.106,1.747,4.356,3.34,8.774,5.184,13.094C-2032.382,1853.721-2031.767,1854.354-2032.3,1855.138Z" fill="#b7b7b7"/>
          <path id="Path_382" data-name="Path 382" d="M-2004.63,1805.34c-.22.66-.68.31-1.01.2a11.3,11.3,0,0,0-3.3-.65,4.6,4.6,0,0,0-4.75,3.19,7.666,7.666,0,0,0,.44,5.99c.18.38.57.74.28,1.24-.01,0-.01,0-.02.01-.47.14-.77-.16-1.08-.41-.66-.54-1.28-1.12-1.91-1.7l-.32-.32a1.045,1.045,0,0,0,.51.18,31.583,31.583,0,0,0-9.38-7.22,2.341,2.341,0,0,0-.66-.09l.24.27c-.12-.05-.25-.11-.38-.16a8.9,8.9,0,0,0-4.48-.88,4.732,4.732,0,0,0-4.24,3.53c-.11.36-.01.99-.74.85a7.028,7.028,0,0,1,.7-3.47,24.893,24.893,0,0,1,7.61-9.79c2.58-2.05,5.4-2.29,8.47-1.65,5.14,1.06,8.84,4.23,12.04,8.15A19.8,19.8,0,0,1-2004.63,1805.34Z" fill="#d33535"/>
          <path id="Path_383" data-name="Path 383" d="M-1939.608,1807.385c-2.3,1.116-4.6,2.251-6.916,3.344-4.2,1.984-8.416,3.943-12.624,5.913q-3.353,1.569-6.7,3.149c-.094.045-.463-.01-.221.3.045.057.182.04.277.058-.011.221-.166.306-.347.367-3.145.013-6.288-.115-9.433-.13-2.151-.011-4.3-.073-6.451-.079a1.986,1.986,0,0,1-1.621-.426l-.435-1.573a1.965,1.965,0,0,1,1.195-.561,45.617,45.617,0,0,0,15.679-8.295c.759-.6,1.587-1.1,2.319-1.732a.723.723,0,0,1,.784-.236q5.594-.026,11.187-.05Z" fill="#e8e8e8"/>
          <path id="Path_384" data-name="Path 384" d="M-1965.982,1820.309l.191-.161a13.96,13.96,0,0,1,.564,3.861c.44,4,.787,8.01,1.182,12.015a11.7,11.7,0,0,0,.278,2.373,1.112,1.112,0,0,1-.766,1.234c-2.618,1.328-5.211,2.707-7.805,4.084-.425.226-.8.457-1-.213q-1.146-5.013-2.295-10.026c-.583-2.53-1.18-5.057-1.771-7.585.172-.487.639-.606,1.032-.8,3-1.47,6.039-2.854,9.029-4.34C-1966.905,1820.533-1966.414,1820.526-1965.982,1820.309Z" fill="#c43030"/>
          <path id="Path_385" data-name="Path 385" d="M-2032.3,1855.138a5.947,5.947,0,0,0-.709-2.18c-1.755-4.463-3.537-8.916-5.3-13.377-.09-.229-.4-.49-.047-.765a34.674,34.674,0,0,1,5.256.075,22.576,22.576,0,0,0,2.678.109,2.19,2.19,0,0,1,1.881.468l6.45,16.9c.013.288-.117.389-.4.356q-4.535-.517-9.071-1.018C-2031.943,1855.659-2032.065,1855.338-2032.3,1855.138Z" fill="#b51c1c"/>
          <path id="Path_386" data-name="Path 386" d="M-2011.13,1816.77a58.23,58.23,0,0,0-6.56-.96,22.307,22.307,0,0,0-11.69,2.03,18.9,18.9,0,0,1-4.56-5.04,12.749,12.749,0,0,1-1.49-3.43.481.481,0,0,0,.35-.41c.62-3.68,4.07-5,7.25-4.03a4.69,4.69,0,0,1,2,.83l.24.27a44.152,44.152,0,0,0,9.29,6.86,1.045,1.045,0,0,0,.51.18c.98.62,1.65,1.61,2.67,2.19.04.02.08.04.13.06a2.95,2.95,0,0,1,1.74,1.19A1.226,1.226,0,0,1-2011.13,1816.77Z" fill="#962626"/>
          <path id="Path_387" data-name="Path 387" d="M-1979.22,1795.18c-1.16.75-2.43,1.29-3.53,2.15a29.73,29.73,0,0,0-8.14,10.4.456.456,0,0,1-.29-.11.625.625,0,0,1-.13-.51c.18-1.62-.01-3.25.21-4.86l.06-.24c.02.14.06.22.25.32a35.063,35.063,0,0,0,1.01-9.24,5.933,5.933,0,0,0-.25-2.37,2.4,2.4,0,0,0-.22-.37,10.111,10.111,0,0,1,2.47-4.15,4.615,4.615,0,0,1,5.24-.85c.26.12.53.42.88.18a13.234,13.234,0,0,1,2.46,6.68A9.548,9.548,0,0,1-1979.22,1795.18Z" fill="#962626"/>
          <path id="Path_388" data-name="Path 388" d="M-2011.133,1816.773c-.6-.587-1.449-.845-1.986-1.513-.335-.866-.718-1.716-1-2.6a6.546,6.546,0,0,1,1.836-7.084c1.681-1.361,3.582-1.059,5.5-.742.73.12,1.321.8,2.141.5.451.645.9,1.293,1.355,1.934.132.185.192.512.553.36.689,2.234,1.343,4.48,2.088,6.7.234.694.007.918-.583,1.1-2.324.734-4.73,1.155-7.071,1.844C-2009.119,1817.517-2010.18,1816.963-2011.133,1816.773Z" fill="#af2b2b"/>
          <path id="Path_389" data-name="Path 389" d="M-2037.971,1838.581c-2.835-.215-5.677-.173-8.517-.2-2.052-.018-4.106-.029-6.153-.15a21.849,21.849,0,0,1-3.365-.1c3.015-1.509,6.025-3.028,9.047-4.523q5.746-2.843,11.51-5.653a18.887,18.887,0,0,0,1.947,8.522A9.207,9.207,0,0,1-2037.971,1838.581Z" fill="#e8e8e8"/>
          <path id="Path_390" data-name="Path 390" d="M-1971.5,1812.862a40.044,40.044,0,0,1-12.581,5.445l-.471-1.016a1.271,1.271,0,0,1,.656-.67,20.5,20.5,0,0,0,4.926-4.094c.313-.348.6-.767,1.12-.859,3.094-2.922,6.48-5.344,10.741-6.261a5.635,5.635,0,0,1,4.2.462c.3-.182.093-.533.239-.764a1.078,1.078,0,0,1-.407,1.407C-1963.44,1806.8-1968.9,1811.247-1971.5,1812.862Z" fill="#962626"/>
          <path id="Path_391" data-name="Path 391" d="M-2006.937,1839.1q-5.182-.093-10.365-.188c-1.984-.037-3.972-.023-5.951-.149a23.756,23.756,0,0,1-3.648-.131c-.023-.488.387-.61.7-.784.575-.32,1.159-.627,1.727-.961a10.461,10.461,0,0,1,2-.673,49.651,49.651,0,0,0,9.768-3.765c.354-.186.71-.489,1.157-.2,1.006,1.294,2.164,2.319,3.961,2.111a17.972,17.972,0,0,0,4.823-1.3c2.112-.875,4.118-1.964,6.149-3a26.816,26.816,0,0,1,7.021-2,15.417,15.417,0,0,0,4.231-1.273,3.89,3.89,0,0,0,1.62-1.469,7.623,7.623,0,0,1,5.005.459q-7.268,3.435-14.537,6.871-6.183,2.918-12.372,5.826C-2006.079,1838.677-2006.506,1838.894-2006.937,1839.1Z" fill="#e8e8e8"/>
          <path id="Path_392" data-name="Path 392" d="M-1977.847,1811.668a21.355,21.355,0,0,1-6.7,5.622,14.675,14.675,0,0,0-2.026-3.6,4.577,4.577,0,0,0-4.351-1.737,1.427,1.427,0,0,1-.991-.128,24.132,24.132,0,0,1,4.064-3.808,16.33,16.33,0,0,1,6.034-3.117,5.994,5.994,0,0,1,2.864.135,3.129,3.129,0,0,1,1.893,3.842,11.88,11.88,0,0,1-.784,2.268C-1977.939,1811.321-1978.028,1811.494-1977.847,1811.668Z" fill="#af2b2b"/>
          <path id="Path_393" data-name="Path 393" d="M-1990.789,1802.331c-.032,1.8-.214,3.6-.1,5.4-.675,1.277-1.382,2.539-2.01,3.839a1.572,1.572,0,0,1-1.135.931,21.224,21.224,0,0,0-4.651,1.829c-.988.493-.983.459-1.107-.617-.579-5.025,1.418-9.194,4.276-13.089a3.307,3.307,0,0,1,1.171-.98,1.917,1.917,0,0,1,2.758.875c.17.34.2.754.525,1.013C-1991,1802-1991.039,1802.118-1990.789,1802.331Z" fill="#af2b2b"/>
          <path id="Path_394" data-name="Path 394" d="M-2011.546,1832.248a54.454,54.454,0,0,1-6.887,3c-1.976.671-3.982,1.257-5.974,1.88a26.66,26.66,0,0,1-6.041,1.446c-.425.076-.89.236-1.265-.166.032-2.129,1.419-3.411,2.983-4.463a24.731,24.731,0,0,1,12.9-4.014,4.239,4.239,0,0,1,2.958-.291Z" fill="#962626"/>
          <path id="Path_395" data-name="Path 395" d="M-2012.869,1829.64a10.025,10.025,0,0,1-2.958.291c-.624-.235-1.263-.438-1.87-.711-4.125-1.86-4.778-5.795-1.6-9.047a9.151,9.151,0,0,1,5.392-2.591c1.225-.173,2.4.509,3.641.446-.717.65-1.4,1.217-2.025,1.849-1.416,1.441-1.445,3.3-1.433,5.141A22.088,22.088,0,0,0-2012.869,1829.64Z" fill="#af2b2b"/>
          <path id="Path_396" data-name="Path 396" d="M-1978.736,1825.776l-5.005-.46a5.948,5.948,0,0,0,.316-4.4c-.073-.346-.145-.691-.218-1.036,3.2.042,6.4.023,9.595.144,2.688.1,5.386-.041,8.066.285a47.845,47.845,0,0,1-4.987,2.5c-2.139,1.043-4.292,2.058-6.439,3.085Z" fill="#e24b4b"/>
          <path id="Path_397" data-name="Path 397" d="M-2031.713,1838.408a58.464,58.464,0,0,0,6.089-1.084c.4-.083.811-.131,1.217-.2l-2.493,1.508a5.657,5.657,0,0,0-1.637.832c-2.937-.137-5.874-.27-8.811-.418-.341-.017-.716.043-1-.234l.382-.235,4.468-2.1C-2032.972,1837.182-2032.574,1838.01-2031.713,1838.408Z" fill="#e24b4b"/>
        </g>
        <g id="Group_291" data-name="Group 291">
          <path id="Path_398" data-name="Path 398" d="M-2063.327,1849.625c.88-1.675,1.76-3.224,2.51-4.834a1.5,1.5,0,0,1,1.684-1c1.412.079,2.832.022,4.228.022.107.182-.013.282-.072.389-.962,1.756-1.933,3.507-2.886,5.269a.644.644,0,0,1-.7.426C-2060.1,1849.791-2061.646,1849.719-2063.327,1849.625Z" fill="#8bcfd8"/>
          <path id="Path_399" data-name="Path 399" d="M-2058.083,1867.056c1.5.8,2.911,1.561,4.336,2.3.237.124.234.282.193.48-.161.789-.352,1.573-.478,2.367a.468.468,0,0,1-.461.437c-1.479.263-2.96.518-4.438.787-.291.053-.383.017-.317-.318C-2058.853,1871.129-2058.481,1869.14-2058.083,1867.056Z" fill="#fee74c"/>
          <path id="Path_400" data-name="Path 400" d="M-1918.261,1840.017c-.23,1.49-.539,2.832-.617,4.187a2.173,2.173,0,0,1-1.884,2.247,33.974,33.974,0,0,0-3.323,1.219c.806-1.807,1.568-3.512,2.326-5.219a.745.745,0,0,1,.249-.372Z" fill="#94edc4"/>
          <path id="Path_401" data-name="Path 401" d="M-2055.9,1860.949l4.22-1.471c.15-.052.287-.078.407.079q1.821,2.381,3.648,4.756c-1.143,0-2.226,0-3.309,0a.682.682,0,0,1-.374-.078C-2052.809,1863.165-2054.307,1862.087-2055.9,1860.949Z" fill="#94edc4"/>
          <path id="Path_402" data-name="Path 402" d="M-2041.313,1864.419c1.6.3,3.112.575,4.626.85.244.044.3.215.334.42.167,1.1.323,2.194.509,3.288.046.27-.051.345-.28.385-.9.157-1.8.314-2.695.49a.374.374,0,0,1-.5-.265C-2039.967,1867.892-2040.624,1866.2-2041.313,1864.419Z" fill="#aedcda"/>
          <path id="Path_403" data-name="Path 403" d="M-1939.526,1839.471c-1.28-1.867-2.532-3.695-3.786-5.521-.165-.24-.081-.325.176-.392q1.354-.352,2.7-.745c.28-.082.38.047.49.27q.892,1.812,1.811,3.611a.519.519,0,0,1-.009.595C-1938.607,1837.993-1939.047,1838.711-1939.526,1839.471Z" fill="#afddef"/>
          <path id="Path_404" data-name="Path 404" d="M-1934.382,1808.819c1.514,0,2.906,0,4.3,0a.4.4,0,0,1,.427.217c.555,1.129,1.117,2.254,1.7,3.437-1.047.1-2.019.18-2.989.287a.652.652,0,0,1-.657-.3C-1932.491,1811.273-1933.4,1810.1-1934.382,1808.819Z" fill="#a8d7dd"/>
          <path id="Path_405" data-name="Path 405" d="M-1935,1834.29c.5-1.585.974-3.054,1.419-4.532a.435.435,0,0,1,.5-.369q1.44.019,2.881,0c.331,0,.377.095.225.377q-1.07,1.983-2.117,3.98a.524.524,0,0,1-.474.281C-1933.338,1834.113-1934.114,1834.195-1935,1834.29Z" fill="#fee74c"/>
          <path id="Path_406" data-name="Path 406" d="M-1939.843,1855.195c1.376.59,2.668,1.153,3.968,1.7.31.129.264.259.111.482-.48.7-.954,1.405-1.408,2.122a.591.591,0,0,1-.587.3c-.61-.017-1.222-.03-1.83,0-.421.023-.568-.088-.53-.535C-1940.006,1857.942-1939.936,1856.617-1939.843,1855.195Z" fill="#ef8eb5"/>
          <path id="Path_407" data-name="Path 407" d="M-2049.474,1890.977c.073.233-.026.341-.238.376a.927.927,0,0,0-.128.027c-1.615.524-1.615.524-2.666-.816-.283-.361-.555-.73-.844-1.086-.148-.182-.142-.273.091-.379,1.072-.483,2.136-.982,3.2-1.482.268-.126.353-.019.37.239C-2049.62,1888.9-2049.546,1889.945-2049.474,1890.977Z" fill="#ff99b6"/>
          <path id="Path_408" data-name="Path 408" d="M-2021.41,1879.526c.2,1.332.362,2.541.557,3.746a.7.7,0,0,1-.378.855c-.476.263-.914.593-1.407.92-.478-1.047-.945-2.074-1.415-3.1-.055-.121-.134-.249,0-.353C-2023.191,1880.914-2022.324,1880.24-2021.41,1879.526Z" fill="#f9d8e0"/>
          <path id="Path_409" data-name="Path 409" d="M-1946.41,1850.526c.2,1.332.362,2.541.557,3.746a.7.7,0,0,1-.378.855c-.476.263-.914.593-1.407.92-.478-1.047-.945-2.074-1.415-3.1-.055-.121-.134-.249,0-.353C-1948.191,1851.914-1947.324,1851.24-1946.41,1850.526Z" fill="#f9d8e0"/>
          <path id="Path_410" data-name="Path 410" d="M-2041.79,1857.436c1.328.214,2.532.419,3.739.6a.7.7,0,0,1,.7.618c.108.532.291,1.049.455,1.619-1.143.14-2.262.276-3.382.416-.132.016-.277.053-.336-.105C-2041,1859.552-2041.385,1858.522-2041.79,1857.436Z" fill="#f9d8e0"/>
          <path id="Path_411" data-name="Path 411" d="M-2001.175,1884.85c1.026,1.124,1.96,2.15,2.9,3.173.2.213.072.4-.029.594-.335.66-.661,1.324-1.03,2.068-.7-.7-1.382-1.369-2.049-2.048-.175-.178-.082-.418-.065-.628C-2001.371,1887.009-2001.278,1886.011-2001.175,1884.85Z" fill="#fde74c"/>
          <path id="Path_412" data-name="Path 412" d="M-1956.175,1843.85c1.026,1.124,1.96,2.15,2.9,3.173.2.213.072.4-.029.594-.335.66-.661,1.324-1.03,2.068-.7-.7-1.382-1.369-2.049-2.048-.175-.178-.082-.418-.065-.628C-1956.371,1846.009-1956.278,1845.011-1956.175,1843.85Z" fill="#fde74c"/>
          <path id="Path_413" data-name="Path 413" d="M-2021.543,1889.827c1.1,0,2.1,0,3.092,0a.3.3,0,0,1,.35.282c.267,1.2.552,2.4.852,3.687-.714-.2-1.334-.366-1.948-.55a.585.585,0,0,1-.309-.214C-2020.173,1892-2020.828,1890.955-2021.543,1889.827Z" fill="#fee74c"/>
          <path id="Path_414" data-name="Path 414" d="M-2041.33,1883.816c-.981.884-1.914,1.73-2.854,2.568a2.954,2.954,0,0,1-1.662-.169.6.6,0,0,1,.054-.359c.32-.969.652-1.934.967-2.9.086-.263.15-.4.49-.269.886.354,1.793.654,2.691.978A3.467,3.467,0,0,1-2041.33,1883.816Z" fill="#fee74c"/>
          <path id="Path_415" data-name="Path 415" d="M-2028.225,1891.307c1,.6,1.872,1.139,2.758,1.649a.709.709,0,0,1,.376.632c.053.63.1,1.265.2,1.886.07.4-.084.451-.4.4-.086-.015-.173-.018-.26-.032-.579-.091-1.35.007-1.686-.329-.365-.365-.331-1.133-.462-1.728C-2027.869,1893-2028.032,1892.215-2028.225,1891.307Z" fill="#a2d4db"/>
          <path id="Path_416" data-name="Path 416" d="M-1929.159,1835.467c-.827,1.14-1.558,2.143-2.283,3.15a.637.637,0,0,1-.5.267c-.866.079-1.732.165-2.763.264.774-1.029,1.461-1.946,2.156-2.856a.5.5,0,0,1,.276-.156C-1931.294,1835.92-1930.314,1835.714-1929.159,1835.467Z" fill="#d8a4b8"/>
          <path id="Path_417" data-name="Path 417" d="M-1925.85,1848.867l-3.013,2.711c-.329-1.408-.5-2.663.51-3.881.76-.922.664-1,1.436-.107.328.38.653.762.979,1.144C-1925.91,1848.767-1925.89,1848.807-1925.85,1848.867Z" fill="#cca8e5"/>
          <path id="Path_418" data-name="Path 418" d="M-1995.121,1897.082c.664.566,1.287,1.108,1.922,1.635.188.156.206.273.051.472q-.741.956-1.446,1.937c-.165.231-.3.235-.519.073-.489-.361-1.233-.6-1.421-1.076-.176-.44.42-1.026.668-1.552C-1995.636,1898.084-1995.385,1897.607-1995.121,1897.082Z" fill="#aedcda"/>
          <path id="Path_419" data-name="Path 419" d="M-1951.121,1861.082c.664.566,1.287,1.108,1.922,1.635.188.156.206.273.051.472q-.741.956-1.446,1.937c-.165.231-.3.235-.519.073-.489-.361-1.233-.6-1.421-1.076-.176-.44.42-1.026.668-1.552C-1951.636,1862.084-1951.385,1861.607-1951.121,1861.082Z" fill="#aedcda"/>
          <path id="Path_420" data-name="Path 420" d="M-2055.592,1848.608c.8.9,1.507,1.712,2.231,2.5a.932.932,0,0,1,.225.715c-.01.538,0,1.076,0,1.713-.917-.508-1.746-.975-2.584-1.427-.242-.131-.169-.332-.153-.514C-2055.792,1850.644-2055.7,1849.7-2055.592,1848.608Z" fill="#f7b0c5"/>
          <path id="Path_421" data-name="Path 421" d="M-1933.8,1854.61c.125-.663.259-1.325.369-1.99.036-.218.121-.252.3-.163a2.726,2.726,0,0,1,.339.192c.47.332,1.449.518,1.375.908a7.043,7.043,0,0,1-1.168,2.082.2.2,0,0,1-.146.087A2.425,2.425,0,0,1-1933.8,1854.61Z" fill="#9dcfd6"/>
          <path id="Path_422" data-name="Path 422" d="M-1936.966,1842.113c-.255,0-.408-.012-.559,0-.359.033-.394-.114-.291-.421.241-.719.468-1.444.673-2.174.084-.3.172-.365.485-.237,1.628.665,1.61.642.755,2.18C-1936.182,1841.964-1936.48,1842.253-1936.966,1842.113Z" fill="#f4a4bb"/>
        </g>
      </g>
      <g id="Group_293" data-name="Group 293">
        <path id="Path_423" data-name="Path 423" d="M-2023.48,1897.893a12.185,12.185,0,0,0-5.685-6.32,5.336,5.336,0,0,0-1.873-.538,8.546,8.546,0,0,0-3.913-2.328c-1.176-.361-1.568,1.513-.4,1.873a7.308,7.308,0,0,1,2.16,1.013,2.6,2.6,0,0,0-1.083,2.771,2.841,2.841,0,0,0,2.466,2.188c1.21-.024,1.789-1.326,1.857-2.359a4.341,4.341,0,0,0-.039-.947,9.7,9.7,0,0,1,2.076,1.518,10.537,10.537,0,0,1,2.606,3.709C-2024.831,1899.6-2023,1899.031-2023.48,1897.893Zm-8.489-3.354a.806.806,0,0,1-.034-1.434c.017.049.037.1.052.147a2.085,2.085,0,0,1,.073,1.048l-.052.216Q-2032.083,1894.823-2031.969,1894.539Z" fill="#2d1e07"/>
        <path id="Path_424" data-name="Path 424" d="M-2048.255,1886.063c5.519-1.867,9.8-2.415,13.522,2.072a1.753,1.753,0,0,1,.112,2.233,9.927,9.927,0,0,1-5.844,1.431c-1.6-.162-7.041-2.077-8.006-2.885C-2049.589,1887.978-2049.385,1886.445-2048.255,1886.063Z" fill="#328230"/>
        <path id="Path_425" data-name="Path 425" d="M-2035.727,1888.964c-.265-.6-.493-1.235-.717-1.852a13.115,13.115,0,0,1-.867-3.813c-.011-.254.107-.431.317-.362a10.318,10.318,0,0,1,1.527,1.668,9.448,9.448,0,0,1,1.062,2.075,5.938,5.938,0,0,1,.1,3.262.686.686,0,0,1,.035.443.2.2,0,0,1-.274.137.264.264,0,0,1-.244-.045.868.868,0,0,1-.3-.414A4.829,4.829,0,0,1-2035.727,1888.964Z" fill="#70b535"/>
        <path id="Path_426" data-name="Path 426" d="M-2005.278,1924.037c-2.974,2.171-7.1,3.7-12.22,4.516-9.3,1.473-15.8-1.616-19.1-6.657a15.889,15.889,0,0,1-2.478-9.418,19.181,19.181,0,0,1,18.835-18.495c9.455-.2,18.625,5.6,20.259,17.754A12.39,12.39,0,0,1-2005.278,1924.037Z" fill="#fba71b"/>
        <path id="Path_427" data-name="Path 427" d="M-2015.182,1910.3a.776.776,0,0,0-1.308.206,3.526,3.526,0,0,1-5.327,1.126.765.765,0,0,0-1.2.675.822.822,0,0,0-.05.147c-.462,1.938-.558,4.49.552,6.248,1.149,1.82,3.439,2.1,5.378,1.57a4.823,4.823,0,0,0,3.8-3.936A8.562,8.562,0,0,0-2015.182,1910.3Z" fill="#2d1e07"/>
        <path id="Path_428" data-name="Path 428" d="M-2007.941,1910.612a.874.874,0,0,1,.03,1.746A.874.874,0,0,1-2007.941,1910.612Z" fill="#2d1e07"/>
        <path id="Path_429" data-name="Path 429" d="M-2004.157,1908.611a.874.874,0,0,1,.03,1.746A.874.874,0,0,1-2004.157,1908.611Z" fill="#2d1e07"/>
        <path id="Path_430" data-name="Path 430" d="M-2004.378,1912.458a.874.874,0,0,1,.031,1.746A.874.874,0,0,1-2004.378,1912.458Z" fill="#2d1e07"/>
        <path id="Path_431" data-name="Path 431" d="M-2033.078,1916.683a.874.874,0,0,1,.03,1.746A.874.874,0,0,1-2033.078,1916.683Z" fill="#2d1e07"/>
        <path id="Path_432" data-name="Path 432" d="M-2033.4,1913.867a.874.874,0,0,1,.03,1.746A.874.874,0,0,1-2033.4,1913.867Z" fill="#2d1e07"/>
        <path id="Path_433" data-name="Path 433" d="M-2030.027,1914.955a.874.874,0,0,1,.03,1.746A.874.874,0,0,1-2030.027,1914.955Z" fill="#2d1e07"/>
        <path id="Path_434" data-name="Path 434" d="M-2024.51,1916.525" fill="none" stroke="#2d1e07" stroke-linecap="round" stroke-miterlimit="10" stroke-width="4"/>
        <circle id="Ellipse_21" data-name="Ellipse 21" cx="4.016" cy="4.016" r="4.016" transform="translate(-2009.966 1907.392)" fill="#e028e5" opacity="0.41"/>
        <path id="Path_435" data-name="Path 435" d="M-1999.94,1897.3a80,80,0,0,0-5.265,8.051.9.9,0,0,0,.19,1.22.879.879,0,0,0,1.22-.19,80.038,80.038,0,0,1,5.265-8.051A.874.874,0,0,0-1999.94,1897.3Z" fill="#2d1e07"/>
        <path id="Path_436" data-name="Path 436" d="M-2035.689,1910.488l-8.468-5.8c-.927-.635-1.958.775-1.029,1.411l8.467,5.8C-2035.791,1912.534-2034.761,1911.124-2035.689,1910.488Z" fill="#2d1e07"/>
        <circle id="Ellipse_22" data-name="Ellipse 22" cx="4.016" cy="4.016" r="4.016" transform="translate(-2035.887 1911.793)" fill="#e028e5" opacity="0.41"/>
        <path id="Path_437" data-name="Path 437" d="M-2028.85,1901.08a1.879,1.879,0,0,0-.346-.917,1.283,1.283,0,0,0-1.2-.506,1.667,1.667,0,0,0-.874.43,4.588,4.588,0,0,0-.339.343,1.708,1.708,0,0,0-.188.225c-.014.017-.029.033-.042.051-.064.085-.124.172-.18.263a2.9,2.9,0,0,0-.261.484,1.3,1.3,0,0,0,.184,1.287,1.384,1.384,0,0,0,.951.506,1.511,1.511,0,0,0,.954-.277,1.505,1.505,0,0,0,.424-.11,1.589,1.589,0,0,0,.785-.794A1.878,1.878,0,0,0-2028.85,1901.08Z" fill="#ffca85"/>
        <path id="Path_438" data-name="Path 438" d="M-2012.04,1903.405a2.27,2.27,0,0,0-3.65.908,1.929,1.929,0,0,0,1.751,2.483,2.03,2.03,0,0,0,1.074-.065A2.06,2.06,0,0,0-2012.04,1903.405Z" fill="#2d1e07"/>
        <path id="Path_439" data-name="Path 439" d="M-2025.876,1906.995a2.269,2.269,0,0,0-3.649.908,1.93,1.93,0,0,0,1.751,2.484,2.038,2.038,0,0,0,1.073-.066A2.06,2.06,0,0,0-2025.876,1906.995Z" fill="#2d1e07"/>
        <path id="Path_440" data-name="Path 440" d="M-2016.2,1914.192a.525.525,0,0,0-.788.082,2.4,2.4,0,0,1-3.208.474.452.452,0,0,0-.72.309.393.393,0,0,0-.028.07,3.426,3.426,0,0,0,.413,3.012,3.4,3.4,0,0,0,3.273.824c1.162-.23,2.117-.854,2.249-1.845A3.732,3.732,0,0,0-2016.2,1914.192Z" fill="#ce3a3a"/>
      </g>
      <g id="Group_294" data-name="Group 294">
        <path id="Path_441" data-name="Path 441" d="M-1945.652,1885.08c2.258-1.541,5.367-3.858,4.826-6.988a.906.906,0,0,0-1.016-.742.888.888,0,0,0-.474.241,2.481,2.481,0,0,0-1.134.561,15.018,15.018,0,0,0-1.588,1.5,6.464,6.464,0,0,0-1.5,2.637,5.025,5.025,0,0,0-.563,2.012A.9.9,0,0,0-1945.652,1885.08Z" fill="#548723"/>
        <path id="Path_442" data-name="Path 442" d="M-1947.437,1881.454a37.7,37.7,0,0,0-2.912-2.562,17.687,17.687,0,0,0-6.974-3.732,1.057,1.057,0,0,0-1.3.654,14.994,14.994,0,0,0,1.212,4.538,11.265,11.265,0,0,0,2.85,3.525c1.984,1.55,4.567,1.669,7,1.564a1.137,1.137,0,0,0,.915.267.952.952,0,0,0,.74-.638.94.94,0,0,0,.292-.636,1.138,1.138,0,0,0-.434-.915A5.891,5.891,0,0,0-1947.437,1881.454Z" fill="#225b1e"/>
        <path id="Path_443" data-name="Path 443" d="M-1946.464,1884.1a6.955,6.955,0,0,0-3.412,2.5,12.943,12.943,0,0,0-1.65,4.743c-.168.985,1.349,1.352,1.518.36a13.129,13.129,0,0,1,1.2-3.828,5.032,5.032,0,0,1,2.8-2.28C-1945.1,1885.2-1945.541,1883.706-1946.464,1884.1Z" fill="#2d1e07"/>
        <path id="Path_444" data-name="Path 444" d="M-1937.545,1917.086c-3.221,6.977-10.868,10.484-22.033,7.834a27.313,27.313,0,0,1-8.535-3.453c-6.587-4.225-8.42-10.831-6.029-17.88.158-.465.324-.919.5-1.361.243-.618.509-1.214.791-1.789,2.98-6.093,7.928-9.815,13.851-10.74a19.139,19.139,0,0,1,2.021-.205,21.851,21.851,0,0,1,6.091.6c.252.06.5.124.748.194a19.352,19.352,0,0,1,1.886.624,19.467,19.467,0,0,1,12.382,18.263q0,.9-.087,1.809c-.047.54-.12,1.08-.213,1.619A18.28,18.28,0,0,1-1937.545,1917.086Z" fill="#b24f18"/>
        <path id="Path_445" data-name="Path 445" d="M-1960.263,1901.1a2,2,0,0,0-1.523-1.324,1.091,1.091,0,0,0-.753-.024,2.04,2.04,0,0,0-1.565,1.066,2.017,2.017,0,0,0,1.487,2.952,2.006,2.006,0,0,0,1.887-.532A2.106,2.106,0,0,0-1960.263,1901.1Z" fill="#2d1e07"/>
        <path id="Path_446" data-name="Path 446" d="M-1946.312,1902.665a2.311,2.311,0,0,0-3.807.43,1.966,1.966,0,0,0,1.437,2.741,2.07,2.07,0,0,0,1.093.077A2.1,2.1,0,0,0-1946.312,1902.665Z" fill="#2d1e07"/>
        <path id="Path_447" data-name="Path 447" d="M-1969.939,1906.99a.89.89,0,0,0-.411,1.731A.89.89,0,0,0-1969.939,1906.99Z" fill="#2d1e07"/>
        <path id="Path_448" data-name="Path 448" d="M-1967.3,1905.215a.89.89,0,0,0-.411,1.73A.89.89,0,0,0-1967.3,1905.215Z" fill="#2d1e07"/>
        <path id="Path_449" data-name="Path 449" d="M-1966.94,1909.919a.89.89,0,0,0-.411,1.731A.89.89,0,0,0-1966.94,1909.919Z" fill="#2d1e07"/>
        <path id="Path_450" data-name="Path 450" d="M-1945.159,1908.792a.89.89,0,0,0-.41,1.731A.89.89,0,0,0-1945.159,1908.792Z" fill="#2d1e07"/>
        <path id="Path_451" data-name="Path 451" d="M-1942.125,1912.745a.89.89,0,0,0-.411,1.731A.89.89,0,0,0-1942.125,1912.745Z" fill="#2d1e07"/>
        <path id="Path_452" data-name="Path 452" d="M-1945.718,1913.093a.89.89,0,0,0-.41,1.731A.89.89,0,0,0-1945.718,1913.093Z" fill="#2d1e07"/>
        <circle id="Ellipse_23" data-name="Ellipse 23" cx="4.091" cy="4.091" r="4.091" transform="translate(-1971.711 1904.843)" fill="#f2ac0f" opacity="0.41"/>
        <circle id="Ellipse_24" data-name="Ellipse 24" cx="4.091" cy="4.091" r="4.091" transform="translate(-1948.621 1909.226)" fill="#f2ac0f" opacity="0.41"/>
        <path id="Path_453" data-name="Path 453" d="M-1958.506,1894.186a1.681,1.681,0,0,0-.941-1.339,2.1,2.1,0,0,0-1.621-.182,6.1,6.1,0,0,0-2.2,1.595,1.181,1.181,0,0,0,.1,1.3,1.339,1.339,0,0,0,.759.5l.028,0,.017.01a1.933,1.933,0,0,0,1.04.142,3.969,3.969,0,0,0,2.283-.81A1.564,1.564,0,0,0-1958.506,1894.186Z" fill="#cc805a"/>
        <path id="Path_454" data-name="Path 454" d="M-1972.348,1903.552a20.114,20.114,0,0,1-6-10.949c-.235-1.231-2.1-.655-1.865.569a21.855,21.855,0,0,0,6.523,11.791C-1972.777,1905.823-1971.432,1904.411-1972.348,1903.552Z" fill="#2d1e07"/>
        <path id="Path_455" data-name="Path 455" d="M-1931.065,1919.715a32.435,32.435,0,0,0-6.931-11.2c-.865-.914-2.207.5-1.346,1.411a30.057,30.057,0,0,1,6.412,10.354C-1932.5,1921.458-1930.632,1920.9-1931.065,1919.715Z" fill="#2d1e07"/>
        <path id="Path_456" data-name="Path 456" d="M-1950.147,1909.167a7.137,7.137,0,0,1-3.37,1.506,6.839,6.839,0,0,1-4.233-.129c-.9-.448-1.65.919-.751,1.368a8.178,8.178,0,0,0,5.144.309,8.841,8.841,0,0,0,4.339-1.976C-1948.259,1909.584-1949.4,1908.513-1950.147,1909.167Z" fill="#2d1e07"/>
        <path id="Path_457" data-name="Path 457" d="M-1946.435,1898.539a.786.786,0,0,0-.808-.752l-3.055.453a.8.8,0,0,0-.751.808.783.783,0,0,0,.807.751l3.055-.452A.806.806,0,0,0-1946.435,1898.539Z" fill="#2d1e07"/>
      </g>
    </g>
  </g>
</svg>
