<svg xmlns="http://www.w3.org/2000/svg" xmlns:xlink="http://www.w3.org/1999/xlink" width="1200" height="220" viewBox="0 0 1200 220">
  <defs>
    <clipPath id="clip-path">
      <rect id="Rectangle_597" data-name="Rectangle 597" width="1200" height="220" rx="8" transform="translate(83 116)" fill="none"/>
    </clipPath>
  </defs>
  <g id="Group_2796" data-name="Group 2796" transform="translate(-83 -116)">
    <rect id="Rectangle_822" data-name="Rectangle 822" width="1200" height="220" rx="8" transform="translate(83 116)" fill="#f9f5ed"/>
    <g id="Group_2790" data-name="Group 2790">
      <g id="Group_2789" data-name="Group 2789" clip-path="url(#clip-path)">
        <g id="Group_2779" data-name="Group 2779">
          <circle id="Ellipse_1889" data-name="Ellipse 1889" cx="92.5" cy="92.5" r="92.5" transform="translate(48 -16)" fill="#f4d201"/>
          <path id="Path_2594" data-name="Path 2594" d="M154.2,245.6A66.627,66.627,0,1,1,41.592,316.854C41.4,316.549,154.006,245.3,154.2,245.6Z" fill="#ffed7c"/>
          <rect id="Rectangle_823" data-name="Rectangle 823" width="105" height="78" transform="translate(1234 300)" fill="#ffed7c"/>
          <rect id="Rectangle_824" data-name="Rectangle 824" width="122.19" height="122.19" transform="translate(397.658 304.522) rotate(-30)" fill="#f4d201"/>
          <rect id="Rectangle_825" data-name="Rectangle 825" width="78.888" height="78.888" transform="matrix(0.504, -0.864, 0.864, 0.504, 341.863, 126.255)" fill="#f4d201"/>
          <rect id="Rectangle_826" data-name="Rectangle 826" width="78.888" height="78.888" transform="matrix(0.504, -0.864, 0.864, 0.504, 395.387, 111.624)" fill="#ffed7c"/>
          <circle id="Ellipse_1890" data-name="Ellipse 1890" cx="39.5" cy="39.5" r="39.5" transform="translate(821 269)" fill="#f4d201"/>
          <circle id="Ellipse_1891" data-name="Ellipse 1891" cx="91.5" cy="91.5" r="91.5" transform="translate(938 32)" fill="#f2b50f"/>
          <g id="Group_2690" data-name="Group 2690">
            <circle id="Ellipse_1892" data-name="Ellipse 1892" cx="4.091" cy="4.091" r="4.091" transform="translate(1099 278.273)" fill="#f4d201"/>
            <circle id="Ellipse_1893" data-name="Ellipse 1893" cx="4.091" cy="4.091" r="4.091" transform="translate(1119.455 278.273)" fill="#f4d201"/>
            <circle id="Ellipse_1894" data-name="Ellipse 1894" cx="4.091" cy="4.091" r="4.091" transform="translate(1139.909 278.273)" fill="#f4d201"/>
            <circle id="Ellipse_1895" data-name="Ellipse 1895" cx="4.091" cy="4.091" r="4.091" transform="translate(1160.364 278.273)" fill="#f4d201"/>
            <circle id="Ellipse_1896" data-name="Ellipse 1896" cx="4.091" cy="4.091" r="4.091" transform="translate(1180.818 278.273)" fill="#f4d201"/>
            <circle id="Ellipse_1897" data-name="Ellipse 1897" cx="4.091" cy="4.091" r="4.091" transform="translate(1099 297.091)" fill="#f4d201"/>
            <circle id="Ellipse_1898" data-name="Ellipse 1898" cx="4.091" cy="4.091" r="4.091" transform="translate(1119.455 297.091)" fill="#f4d201"/>
            <circle id="Ellipse_1899" data-name="Ellipse 1899" cx="4.091" cy="4.091" r="4.091" transform="translate(1139.909 297.091)" fill="#f4d201"/>
            <circle id="Ellipse_1900" data-name="Ellipse 1900" cx="4.091" cy="4.091" r="4.091" transform="translate(1160.364 297.091)" fill="#f4d201"/>
            <circle id="Ellipse_1901" data-name="Ellipse 1901" cx="4.091" cy="4.091" r="4.091" transform="translate(1180.818 297.091)" fill="#f4d201"/>
            <circle id="Ellipse_1902" data-name="Ellipse 1902" cx="4.091" cy="4.091" r="4.091" transform="translate(1099 315.909)" fill="#f4d201"/>
            <circle id="Ellipse_1903" data-name="Ellipse 1903" cx="4.091" cy="4.091" r="4.091" transform="translate(1119.455 315.909)" fill="#f4d201"/>
            <circle id="Ellipse_1904" data-name="Ellipse 1904" cx="4.091" cy="4.091" r="4.091" transform="translate(1139.909 315.909)" fill="#f4d201"/>
            <circle id="Ellipse_1905" data-name="Ellipse 1905" cx="4.091" cy="4.091" r="4.091" transform="translate(1160.364 315.909)" fill="#f4d201"/>
            <circle id="Ellipse_1906" data-name="Ellipse 1906" cx="4.091" cy="4.091" r="4.091" transform="translate(1180.818 315.909)" fill="#f4d201"/>
            <circle id="Ellipse_1907" data-name="Ellipse 1907" cx="4.091" cy="4.091" r="4.091" transform="translate(1099 334.727)" fill="#f4d201"/>
            <circle id="Ellipse_1908" data-name="Ellipse 1908" cx="4.091" cy="4.091" r="4.091" transform="translate(1119.455 334.727)" fill="#f4d201"/>
            <circle id="Ellipse_1909" data-name="Ellipse 1909" cx="4.091" cy="4.091" r="4.091" transform="translate(1139.909 334.727)" fill="#f4d201"/>
            <circle id="Ellipse_1910" data-name="Ellipse 1910" cx="4.091" cy="4.091" r="4.091" transform="translate(1160.364 334.727)" fill="#f4d201"/>
            <circle id="Ellipse_1911" data-name="Ellipse 1911" cx="4.091" cy="4.091" r="4.091" transform="translate(1180.818 334.727)" fill="#f4d201"/>
            <circle id="Ellipse_1912" data-name="Ellipse 1912" cx="4.091" cy="4.091" r="4.091" transform="translate(1099 353.545)" fill="#f4d201"/>
            <circle id="Ellipse_1913" data-name="Ellipse 1913" cx="4.091" cy="4.091" r="4.091" transform="translate(1119.455 353.545)" fill="#f4d201"/>
            <circle id="Ellipse_1914" data-name="Ellipse 1914" cx="4.091" cy="4.091" r="4.091" transform="translate(1139.909 353.545)" fill="#f4d201"/>
            <circle id="Ellipse_1915" data-name="Ellipse 1915" cx="4.091" cy="4.091" r="4.091" transform="translate(1160.364 353.545)" fill="#f4d201"/>
            <circle id="Ellipse_1916" data-name="Ellipse 1916" cx="4.091" cy="4.091" r="4.091" transform="translate(1180.818 353.545)" fill="#f4d201"/>
          </g>
          <g id="Group_2717" data-name="Group 2717">
            <g id="Group_2716" data-name="Group 2716">
              <g id="Group_2691" data-name="Group 2691">
                <circle id="Ellipse_1917" data-name="Ellipse 1917" cx="5" cy="5" r="5" transform="translate(1251 96)" fill="#f2b50f"/>
              </g>
              <g id="Group_2692" data-name="Group 2692">
                <circle id="Ellipse_1918" data-name="Ellipse 1918" cx="5" cy="5" r="5" transform="translate(1276 96)" fill="#f2b50f"/>
              </g>
              <g id="Group_2693" data-name="Group 2693">
                <circle id="Ellipse_1919" data-name="Ellipse 1919" cx="5" cy="5" r="5" transform="translate(1301 96)" fill="#f2b50f"/>
              </g>
              <g id="Group_2694" data-name="Group 2694">
                <circle id="Ellipse_1920" data-name="Ellipse 1920" cx="5" cy="5" r="5" transform="translate(1326 96)" fill="#f2b50f"/>
              </g>
              <g id="Group_2695" data-name="Group 2695">
                <circle id="Ellipse_1921" data-name="Ellipse 1921" cx="5" cy="5" r="5" transform="translate(1351 96)" fill="#f2b50f"/>
              </g>
              <g id="Group_2696" data-name="Group 2696">
                <circle id="Ellipse_1922" data-name="Ellipse 1922" cx="5" cy="5" r="5" transform="translate(1251 119)" fill="#f2b50f"/>
              </g>
              <g id="Group_2697" data-name="Group 2697">
                <circle id="Ellipse_1923" data-name="Ellipse 1923" cx="5" cy="5" r="5" transform="translate(1276 119)" fill="#f2b50f"/>
              </g>
              <g id="Group_2698" data-name="Group 2698">
                <circle id="Ellipse_1924" data-name="Ellipse 1924" cx="5" cy="5" r="5" transform="translate(1301 119)" fill="#f2b50f"/>
              </g>
              <g id="Group_2699" data-name="Group 2699">
                <circle id="Ellipse_1925" data-name="Ellipse 1925" cx="5" cy="5" r="5" transform="translate(1326 119)" fill="#f2b50f"/>
              </g>
              <g id="Group_2700" data-name="Group 2700">
                <circle id="Ellipse_1926" data-name="Ellipse 1926" cx="5" cy="5" r="5" transform="translate(1351 119)" fill="#f2b50f"/>
              </g>
              <g id="Group_2701" data-name="Group 2701">
                <circle id="Ellipse_1927" data-name="Ellipse 1927" cx="5" cy="5" r="5" transform="translate(1251 142)" fill="#f2b50f"/>
              </g>
              <g id="Group_2702" data-name="Group 2702">
                <circle id="Ellipse_1928" data-name="Ellipse 1928" cx="5" cy="5" r="5" transform="translate(1276 142)" fill="#f2b50f"/>
              </g>
              <g id="Group_2703" data-name="Group 2703">
                <circle id="Ellipse_1929" data-name="Ellipse 1929" cx="5" cy="5" r="5" transform="translate(1301 142)" fill="#f2b50f"/>
              </g>
              <g id="Group_2704" data-name="Group 2704">
                <circle id="Ellipse_1930" data-name="Ellipse 1930" cx="5" cy="5" r="5" transform="translate(1326 142)" fill="#f2b50f"/>
              </g>
              <g id="Group_2705" data-name="Group 2705">
                <circle id="Ellipse_1931" data-name="Ellipse 1931" cx="5" cy="5" r="5" transform="translate(1351 142)" fill="#f2b50f"/>
              </g>
              <g id="Group_2706" data-name="Group 2706">
                <circle id="Ellipse_1932" data-name="Ellipse 1932" cx="5" cy="5" r="5" transform="translate(1251 165)" fill="#f2b50f"/>
              </g>
              <g id="Group_2707" data-name="Group 2707">
                <circle id="Ellipse_1933" data-name="Ellipse 1933" cx="5" cy="5" r="5" transform="translate(1276 165)" fill="#f2b50f"/>
              </g>
              <g id="Group_2708" data-name="Group 2708">
                <circle id="Ellipse_1934" data-name="Ellipse 1934" cx="5" cy="5" r="5" transform="translate(1301 165)" fill="#f2b50f"/>
              </g>
              <g id="Group_2709" data-name="Group 2709">
                <circle id="Ellipse_1935" data-name="Ellipse 1935" cx="5" cy="5" r="5" transform="translate(1326 165)" fill="#f2b50f"/>
              </g>
              <g id="Group_2710" data-name="Group 2710">
                <circle id="Ellipse_1936" data-name="Ellipse 1936" cx="5" cy="5" r="5" transform="translate(1351 165)" fill="#f2b50f"/>
              </g>
              <g id="Group_2711" data-name="Group 2711">
                <circle id="Ellipse_1937" data-name="Ellipse 1937" cx="5" cy="5" r="5" transform="translate(1251 188)" fill="#f2b50f"/>
              </g>
              <g id="Group_2712" data-name="Group 2712">
                <circle id="Ellipse_1938" data-name="Ellipse 1938" cx="5" cy="5" r="5" transform="translate(1276 188)" fill="#f2b50f"/>
              </g>
              <g id="Group_2713" data-name="Group 2713">
                <circle id="Ellipse_1939" data-name="Ellipse 1939" cx="5" cy="5" r="5" transform="translate(1301 188)" fill="#f2b50f"/>
              </g>
              <g id="Group_2714" data-name="Group 2714">
                <circle id="Ellipse_1940" data-name="Ellipse 1940" cx="5" cy="5" r="5" transform="translate(1326 188)" fill="#f2b50f"/>
              </g>
              <g id="Group_2715" data-name="Group 2715">
                <circle id="Ellipse_1941" data-name="Ellipse 1941" cx="5" cy="5" r="5" transform="translate(1351 188)" fill="#f2b50f"/>
              </g>
            </g>
          </g>
          <g id="Group_2744" data-name="Group 2744">
            <g id="Group_2743" data-name="Group 2743">
              <g id="Group_2718" data-name="Group 2718">
                <circle id="Ellipse_1942" data-name="Ellipse 1942" cx="3.431" cy="3.431" r="3.431" transform="translate(68.51 107)" fill="#f2b50f"/>
              </g>
              <g id="Group_2719" data-name="Group 2719">
                <circle id="Ellipse_1943" data-name="Ellipse 1943" cx="3.431" cy="3.431" r="3.431" transform="translate(85.667 107)" fill="#f2b50f"/>
              </g>
              <g id="Group_2720" data-name="Group 2720">
                <circle id="Ellipse_1944" data-name="Ellipse 1944" cx="3.431" cy="3.431" r="3.431" transform="translate(102.824 107)" fill="#f2b50f"/>
              </g>
              <g id="Group_2721" data-name="Group 2721">
                <circle id="Ellipse_1945" data-name="Ellipse 1945" cx="3.431" cy="3.431" r="3.431" transform="translate(119.98 107)" fill="#f2b50f"/>
              </g>
              <g id="Group_2722" data-name="Group 2722">
                <circle id="Ellipse_1946" data-name="Ellipse 1946" cx="3.431" cy="3.431" r="3.431" transform="translate(137.137 107)" fill="#f2b50f"/>
              </g>
              <g id="Group_2723" data-name="Group 2723">
                <circle id="Ellipse_1947" data-name="Ellipse 1947" cx="3.431" cy="3.431" r="3.431" transform="translate(68.51 122.784)" fill="#f2b50f"/>
              </g>
              <g id="Group_2724" data-name="Group 2724">
                <circle id="Ellipse_1948" data-name="Ellipse 1948" cx="3.431" cy="3.431" r="3.431" transform="translate(85.667 122.784)" fill="#f2b50f"/>
              </g>
              <g id="Group_2725" data-name="Group 2725">
                <circle id="Ellipse_1949" data-name="Ellipse 1949" cx="3.431" cy="3.431" r="3.431" transform="translate(102.824 122.784)" fill="#f2b50f"/>
              </g>
              <g id="Group_2726" data-name="Group 2726">
                <circle id="Ellipse_1950" data-name="Ellipse 1950" cx="3.431" cy="3.431" r="3.431" transform="translate(119.98 122.784)" fill="#f2b50f"/>
              </g>
              <g id="Group_2727" data-name="Group 2727">
                <circle id="Ellipse_1951" data-name="Ellipse 1951" cx="3.431" cy="3.431" r="3.431" transform="translate(137.137 122.784)" fill="#f2b50f"/>
              </g>
              <g id="Group_2728" data-name="Group 2728">
                <circle id="Ellipse_1952" data-name="Ellipse 1952" cx="3.431" cy="3.431" r="3.431" transform="translate(68.51 138.569)" fill="#f2b50f"/>
              </g>
              <g id="Group_2729" data-name="Group 2729">
                <circle id="Ellipse_1953" data-name="Ellipse 1953" cx="3.431" cy="3.431" r="3.431" transform="translate(85.667 138.569)" fill="#f2b50f"/>
              </g>
              <g id="Group_2730" data-name="Group 2730">
                <circle id="Ellipse_1954" data-name="Ellipse 1954" cx="3.431" cy="3.431" r="3.431" transform="translate(102.824 138.569)" fill="#f2b50f"/>
              </g>
              <g id="Group_2731" data-name="Group 2731">
                <circle id="Ellipse_1955" data-name="Ellipse 1955" cx="3.431" cy="3.431" r="3.431" transform="translate(119.98 138.569)" fill="#f2b50f"/>
              </g>
              <g id="Group_2732" data-name="Group 2732">
                <circle id="Ellipse_1956" data-name="Ellipse 1956" cx="3.431" cy="3.431" r="3.431" transform="translate(137.137 138.569)" fill="#f2b50f"/>
              </g>
              <g id="Group_2733" data-name="Group 2733">
                <circle id="Ellipse_1957" data-name="Ellipse 1957" cx="3.431" cy="3.431" r="3.431" transform="translate(68.51 154.353)" fill="#f2b50f"/>
              </g>
              <g id="Group_2734" data-name="Group 2734">
                <circle id="Ellipse_1958" data-name="Ellipse 1958" cx="3.431" cy="3.431" r="3.431" transform="translate(85.667 154.353)" fill="#f2b50f"/>
              </g>
              <g id="Group_2735" data-name="Group 2735">
                <circle id="Ellipse_1959" data-name="Ellipse 1959" cx="3.431" cy="3.431" r="3.431" transform="translate(102.824 154.353)" fill="#f2b50f"/>
              </g>
              <g id="Group_2736" data-name="Group 2736">
                <circle id="Ellipse_1960" data-name="Ellipse 1960" cx="3.431" cy="3.431" r="3.431" transform="translate(119.98 154.353)" fill="#f2b50f"/>
              </g>
              <g id="Group_2737" data-name="Group 2737">
                <circle id="Ellipse_1961" data-name="Ellipse 1961" cx="3.431" cy="3.431" r="3.431" transform="translate(137.137 154.353)" fill="#f2b50f"/>
              </g>
              <g id="Group_2738" data-name="Group 2738">
                <circle id="Ellipse_1962" data-name="Ellipse 1962" cx="3.431" cy="3.431" r="3.431" transform="translate(68.51 170.137)" fill="#f2b50f"/>
              </g>
              <g id="Group_2739" data-name="Group 2739">
                <circle id="Ellipse_1963" data-name="Ellipse 1963" cx="3.431" cy="3.431" r="3.431" transform="translate(85.667 170.137)" fill="#f2b50f"/>
              </g>
              <g id="Group_2740" data-name="Group 2740">
                <circle id="Ellipse_1964" data-name="Ellipse 1964" cx="3.431" cy="3.431" r="3.431" transform="translate(102.824 170.137)" fill="#f2b50f"/>
              </g>
              <g id="Group_2741" data-name="Group 2741">
                <circle id="Ellipse_1965" data-name="Ellipse 1965" cx="3.431" cy="3.431" r="3.431" transform="translate(119.98 170.137)" fill="#f2b50f"/>
              </g>
              <g id="Group_2742" data-name="Group 2742">
                <circle id="Ellipse_1966" data-name="Ellipse 1966" cx="3.431" cy="3.431" r="3.431" transform="translate(137.137 170.137)" fill="#f2b50f"/>
              </g>
            </g>
          </g>
          <g id="Group_2751" data-name="Group 2751">
            <g id="Group_2750" data-name="Group 2750">
              <g id="Group_2745" data-name="Group 2745">
                <circle id="Ellipse_1967" data-name="Ellipse 1967" cx="5" cy="5" r="5" transform="translate(715.047 286.346)" fill="#f2b50f"/>
              </g>
              <g id="Group_2746" data-name="Group 2746">
                <circle id="Ellipse_1968" data-name="Ellipse 1968" cx="5" cy="5" r="5" transform="translate(709.523 308.673)" fill="#f2b50f"/>
              </g>
              <g id="Group_2747" data-name="Group 2747">
                <circle id="Ellipse_1969" data-name="Ellipse 1969" cx="5" cy="5" r="5" transform="translate(704 331)" fill="#f2b50f"/>
              </g>
              <g id="Group_2748" data-name="Group 2748">
                <circle id="Ellipse_1970" data-name="Ellipse 1970" cx="5" cy="5" r="5" transform="translate(698.477 353.327)" fill="#f2b50f"/>
              </g>
              <g id="Group_2749" data-name="Group 2749">
                <circle id="Ellipse_1971" data-name="Ellipse 1971" cx="5" cy="5" r="5" transform="translate(692.953 375.654)" fill="#f2b50f"/>
              </g>
            </g>
          </g>
          <g id="Group_2778" data-name="Group 2778">
            <g id="Group_2777" data-name="Group 2777">
              <g id="Group_2752" data-name="Group 2752">
                <circle id="Ellipse_1972" data-name="Ellipse 1972" cx="3.471" cy="3.471" r="3.471" transform="translate(906.288 114.084)" fill="#ffed7c"/>
              </g>
              <g id="Group_2753" data-name="Group 2753">
                <circle id="Ellipse_1973" data-name="Ellipse 1973" cx="3.471" cy="3.471" r="3.471" transform="translate(922.671 119.816)" fill="#ffed7c"/>
              </g>
              <g id="Group_2754" data-name="Group 2754">
                <circle id="Ellipse_1974" data-name="Ellipse 1974" cx="3.471" cy="3.471" r="3.471" transform="translate(939.055 125.548)" fill="#ffed7c"/>
              </g>
              <g id="Group_2755" data-name="Group 2755">
                <circle id="Ellipse_1975" data-name="Ellipse 1975" cx="3.471" cy="3.471" r="3.471" transform="translate(955.438 131.28)" fill="#ffed7c"/>
              </g>
              <g id="Group_2756" data-name="Group 2756">
                <circle id="Ellipse_1976" data-name="Ellipse 1976" cx="3.471" cy="3.471" r="3.471" transform="translate(971.821 137.011)" fill="#ffed7c"/>
              </g>
              <g id="Group_2757" data-name="Group 2757">
                <circle id="Ellipse_1977" data-name="Ellipse 1977" cx="3.471" cy="3.471" r="3.471" transform="translate(901.015 129.157)" fill="#ffed7c"/>
              </g>
              <g id="Group_2758" data-name="Group 2758">
                <circle id="Ellipse_1978" data-name="Ellipse 1978" cx="3.471" cy="3.471" r="3.471" transform="translate(917.398 134.889)" fill="#ffed7c"/>
              </g>
              <g id="Group_2759" data-name="Group 2759">
                <circle id="Ellipse_1979" data-name="Ellipse 1979" cx="3.471" cy="3.471" r="3.471" transform="translate(933.781 140.621)" fill="#ffed7c"/>
              </g>
              <g id="Group_2760" data-name="Group 2760">
                <circle id="Ellipse_1980" data-name="Ellipse 1980" cx="3.471" cy="3.471" r="3.471" transform="translate(950.165 146.352)" fill="#ffed7c"/>
              </g>
              <g id="Group_2761" data-name="Group 2761">
                <circle id="Ellipse_1981" data-name="Ellipse 1981" cx="3.471" cy="3.471" r="3.471" transform="translate(966.548 152.084)" fill="#ffed7c"/>
              </g>
              <g id="Group_2762" data-name="Group 2762">
                <circle id="Ellipse_1982" data-name="Ellipse 1982" cx="3.471" cy="3.471" r="3.471" transform="translate(895.742 144.23)" fill="#ffed7c"/>
              </g>
              <g id="Group_2763" data-name="Group 2763">
                <circle id="Ellipse_1983" data-name="Ellipse 1983" cx="3.471" cy="3.471" r="3.471" transform="translate(912.125 149.961)" fill="#ffed7c"/>
              </g>
              <g id="Group_2764" data-name="Group 2764">
                <circle id="Ellipse_1984" data-name="Ellipse 1984" cx="3.471" cy="3.471" r="3.471" transform="translate(928.508 155.693)" fill="#ffed7c"/>
              </g>
              <g id="Group_2765" data-name="Group 2765">
                <circle id="Ellipse_1985" data-name="Ellipse 1985" cx="3.471" cy="3.471" r="3.471" transform="translate(944.892 161.425)" fill="#ffed7c"/>
              </g>
              <g id="Group_2766" data-name="Group 2766">
                <circle id="Ellipse_1986" data-name="Ellipse 1986" cx="3.471" cy="3.471" r="3.471" transform="translate(961.275 167.157)" fill="#ffed7c"/>
              </g>
              <g id="Group_2767" data-name="Group 2767">
                <circle id="Ellipse_1987" data-name="Ellipse 1987" cx="3.471" cy="3.471" r="3.471" transform="translate(890.469 159.302)" fill="#ffed7c"/>
              </g>
              <g id="Group_2768" data-name="Group 2768">
                <circle id="Ellipse_1988" data-name="Ellipse 1988" cx="3.471" cy="3.471" r="3.471" transform="translate(906.852 165.034)" fill="#ffed7c"/>
              </g>
              <g id="Group_2769" data-name="Group 2769">
                <circle id="Ellipse_1989" data-name="Ellipse 1989" cx="3.471" cy="3.471" r="3.471" transform="translate(923.235 170.766)" fill="#ffed7c"/>
              </g>
              <g id="Group_2770" data-name="Group 2770">
                <circle id="Ellipse_1990" data-name="Ellipse 1990" cx="3.471" cy="3.471" r="3.471" transform="translate(939.618 176.497)" fill="#ffed7c"/>
              </g>
              <g id="Group_2771" data-name="Group 2771">
                <circle id="Ellipse_1991" data-name="Ellipse 1991" cx="3.471" cy="3.471" r="3.471" transform="translate(956.002 182.229)" fill="#ffed7c"/>
              </g>
              <g id="Group_2772" data-name="Group 2772">
                <circle id="Ellipse_1992" data-name="Ellipse 1992" cx="3.471" cy="3.471" r="3.471" transform="translate(885.195 174.375)" fill="#ffed7c"/>
              </g>
              <g id="Group_2773" data-name="Group 2773">
                <circle id="Ellipse_1993" data-name="Ellipse 1993" cx="3.471" cy="3.471" r="3.471" transform="translate(901.579 180.107)" fill="#ffed7c"/>
              </g>
              <g id="Group_2774" data-name="Group 2774">
                <circle id="Ellipse_1994" data-name="Ellipse 1994" cx="3.471" cy="3.471" r="3.471" transform="translate(917.962 185.838)" fill="#ffed7c"/>
              </g>
              <g id="Group_2775" data-name="Group 2775">
                <circle id="Ellipse_1995" data-name="Ellipse 1995" cx="3.471" cy="3.471" r="3.471" transform="translate(934.345 191.57)" fill="#ffed7c"/>
              </g>
              <g id="Group_2776" data-name="Group 2776">
                <circle id="Ellipse_1996" data-name="Ellipse 1996" cx="3.471" cy="3.471" r="3.471" transform="translate(950.729 197.302)" fill="#ffed7c"/>
              </g>
            </g>
          </g>
          <circle id="Ellipse_1997" data-name="Ellipse 1997" cx="99.5" cy="99.5" r="99.5" transform="translate(860 248)" fill="none" stroke="#f9dc2d" stroke-miterlimit="10" stroke-width="2"/>
          <circle id="Ellipse_1998" data-name="Ellipse 1998" cx="69.5" cy="69.5" r="69.5" transform="translate(890 278)" fill="none" stroke="#f9dc2d" stroke-miterlimit="10" stroke-width="2"/>
          <circle id="Ellipse_1999" data-name="Ellipse 1999" cx="56.5" cy="56.5" r="56.5" transform="translate(1079 77)" fill="#f4d201"/>
          <path id="Path_2595" data-name="Path 2595" d="M1275,132.1V319.9a7.641,7.641,0,0,1-7.893,7.365H98.893A7.641,7.641,0,0,1,91,319.9V132.1a7.641,7.641,0,0,1,7.893-7.365H1267.107A7.641,7.641,0,0,1,1275,132.1Z" fill="none" stroke="#f4d201" stroke-miterlimit="10" stroke-width="1"/>
          <path id="Path_2596" data-name="Path 2596" d="M832.271,138.281l-11.611,25.53,36.513-12.626Z" fill="#f4d201"/>
        </g>
        <g id="Group_2788" data-name="Group 2788">
          <g id="Group_2780" data-name="Group 2780">
            <path id="Path_2597" data-name="Path 2597" d="M305.25,85.888A31.555,31.555,0,0,0,288.8,101.7c-2.822,6.106-4.569,14.817-.8,20.865-.012.006-.021.016-.032.021a14.737,14.737,0,0,0,6.165,4.329,36.961,36.961,0,0,0,4.179-4.18,45.467,45.467,0,0,0,11.666-34.042C309.753,86.117,307.579,84.944,305.25,85.888Z" fill="#328230"/>
            <path id="Path_2598" data-name="Path 2598" d="M331.025,123.741a23.722,23.722,0,0,0-14.643-6.424,57.39,57.39,0,0,0-8.773.491c-3.366.291-6.637.452-9.8,1.722a2.126,2.126,0,0,0-.55.324,17.939,17.939,0,0,0-2.521.481c-1.861.51-3.164,2.869-1.99,4.637,2.123,3.2,5.561,4.917,9.042,6.275a32.33,32.33,0,0,0,9.538,2.047,32.9,32.9,0,0,0,19.013-4.554A3.2,3.2,0,0,0,331.025,123.741Z" fill="#70b535"/>
            <path id="Path_2599" data-name="Path 2599" d="M296.952,118.335a3.253,3.253,0,0,0-4.485-.008c-8.575,6.637-14.512,17.123-18.281,27.139-3.779,10.042-4.409,21.84,1.452,31.241,2.153,3.454,7.685.351,5.521-3.121-5.136-8.238-4.034-18.24-.672-26.922a73.308,73.308,0,0,1,6.649-12.787,42.9,42.9,0,0,1,9.808-11.056C298.3,121.772,298.052,119.441,296.952,118.335Z" fill="#2d1e07"/>
            <path id="Path_2600" data-name="Path 2600" d="M346.69,211a57.325,57.325,0,0,1-2.12,13.06q-.735,2.58-1.71,5.04c-7.6,18.99-26.15,32.46-55.4,35.75q-4.83.555-10.05.72c-.89.03-1.76.05-2.63.05a94.916,94.916,0,0,1-29.97-3.98c-20.45-6.46-32.55-20.38-36.29-38.51-.37-1.76-.66-3.57-.87-5.41-.21-1.86-.33-3.75-.38-5.68-.06-2.06-.02-4.17.12-6.31.11-1.75.26-3.46.47-5.15v-.01q.39-3.525,1.05-6.89c4.58-23.75,18.13-41.17,37.66-49.87a67.51,67.51,0,0,1,6.76-2.6,77.851,77.851,0,0,1,21.52-3.61c.93-.03,1.84-.05,2.75-.03h.01a69.153,69.153,0,0,1,63.99,43.6,69.376,69.376,0,0,1,2.72,8.1q.84,3.1,1.39,6.3c.34,1.91.59,3.83.77,5.77.09.95.15,1.9.2,2.84A62.088,62.088,0,0,1,346.69,211Z" fill="#fba71b"/>
            <path id="Path_2601" data-name="Path 2601" d="M254.231,184.2a7.13,7.13,0,0,0-6.474-3.138,3.885,3.885,0,0,0-2.614.621,7.268,7.268,0,0,0-4.393,5.126,7.541,7.541,0,0,0,13.868,5.182A7.5,7.5,0,0,0,254.231,184.2Z" fill="#2d1e07"/>
            <path id="Path_2602" data-name="Path 2602" d="M302.333,177.3c-4.511-3.729-11.449-.355-12.7,5.03-1.074,4.619,3.274,8.3,7.5,8.1a7.379,7.379,0,0,0,3.833-.755A7.481,7.481,0,0,0,302.333,177.3Z" fill="#2d1e07"/>
            <path id="Path_2603" data-name="Path 2603" d="M225.028,213.522c-4.079.129-3.886,6.468.2,6.339S229.114,213.393,225.028,213.522Z" fill="#2d1e07"/>
            <path id="Path_2604" data-name="Path 2604" d="M232.452,204.952c-4.079.129-3.885,6.468.2,6.339S236.538,204.824,232.452,204.952Z" fill="#2d1e07"/>
            <path id="Path_2605" data-name="Path 2605" d="M238.082,220.8c-4.079.129-3.886,6.468.2,6.339S242.167,220.676,238.082,220.8Z" fill="#2d1e07"/>
            <path id="Path_2606" data-name="Path 2606" d="M311.993,196.62c-4.079.128-3.886,6.468.2,6.339S316.078,196.491,311.993,196.62Z" fill="#2d1e07"/>
            <path id="Path_2607" data-name="Path 2607" d="M326.119,207.4c-4.079.129-3.886,6.468.2,6.339S330.2,207.266,326.119,207.4Z" fill="#2d1e07"/>
            <path id="Path_2608" data-name="Path 2608" d="M314.079,211.943c-4.079.129-3.886,6.468.2,6.339S318.165,211.814,314.079,211.943Z" fill="#2d1e07"/>
            <circle id="Ellipse_2000" data-name="Ellipse 2000" cx="14.587" cy="14.587" r="14.587" transform="translate(220.235 203.462)" fill="#f9551c" opacity="0.41"/>
            <circle id="Ellipse_2001" data-name="Ellipse 2001" cx="14.587" cy="14.587" r="14.587" transform="translate(303.79 197.02)" fill="#f9551c" opacity="0.41"/>
            <path id="Path_2609" data-name="Path 2609" d="M252.44,158.8a5.992,5.992,0,0,0-4.489-3.73,8.1,8.1,0,0,0-5.747.883,10.281,10.281,0,0,0-3.454,3.507,3.438,3.438,0,0,0-.392.976c-.2.144-.4.292-.573.444a5.28,5.28,0,0,0-1.684,2.617,4.216,4.216,0,0,0,1.549,4.381,4.764,4.764,0,0,0,3.076,1c.034,0,.066-.01.1-.014s.044.015.067.019a6.869,6.869,0,0,0,3.711-.48c2.8-1.091,5.551-2.5,7.1-4.914A5.58,5.58,0,0,0,252.44,158.8Z" fill="#ffca85"/>
            <path id="Path_2610" data-name="Path 2610" d="M265.785,174.219a42.673,42.673,0,0,1-13.144-13.325,40.88,40.88,0,0,1-2.7-5.035,41.3,41.3,0,0,1-3.378-12.053,68.175,68.175,0,0,1,6.764-2.593,34.992,34.992,0,0,0,15.776,26.89C272.847,170.511,269.562,176.639,265.785,174.219Z" fill="#2d1e07"/>
            <path id="Path_2611" data-name="Path 2611" d="M284.526,161.748a55.107,55.107,0,0,1-5.506-5.691c-1.382-1.676-4.229-4.559-4.534-6.78-.6-4.389-7.558-4.217-6.95.219.916,6.668,7.45,12.975,12.231,17.321C283.079,169.828,287.845,164.764,284.526,161.748Z" fill="#2d1e07"/>
            <path id="Path_2612" data-name="Path 2612" d="M298.577,159.708a71.42,71.42,0,0,1-10.27-13.107c-2.337-3.815-8.234-.129-5.89,3.7a79.33,79.33,0,0,0,11.4,14.481C296.978,167.959,301.729,162.882,298.577,159.708Z" fill="#2d1e07"/>
            <path id="Path_2613" data-name="Path 2613" d="M310.549,157.965a31.518,31.518,0,0,1-5.243-5.792,3.554,3.554,0,0,0-4.794-1.1,3.515,3.515,0,0,0-1.1,4.794,39,39,0,0,0,6.375,7.164,3.476,3.476,0,0,0,4.759-5.069Z" fill="#2d1e07"/>
          </g>
          <path id="Path_2614" data-name="Path 2614" d="M344.57,224.06q-.735,2.58-1.71,5.04c-7.6,18.99-26.15,32.46-55.4,35.75q-4.83.555-10.05.72c-.89.03-1.76.05-2.63.05a94.916,94.916,0,0,1-29.97-3.98c-20.45-6.46-32.55-20.38-36.29-38.51-.37-1.76-.66-3.57-.87-5.41,2.67.34,5.28.79,7.86,1.35.54.12,1.08.23,1.61.36.19.05.38.09.58.14,2,.49,3.99,1.04,5.94,1.65a88.25,88.25,0,0,1,11.69,4.62.01.01,0,0,0,.01.01c.1.05.21.1.31.16.51.24,1.02.5,1.54.77a78,78,0,0,1,7.26,4.22c5.31,3.47,20.84,3.55,24.2-.61A9.322,9.322,0,0,1,281,228.75a8.187,8.187,0,0,1,3.35,4.22,9.463,9.463,0,0,1,11.41,2.42c2.92,3.47,20.87-.39,28.47-4.24a80.159,80.159,0,0,1,10.29-4.35A84.414,84.414,0,0,1,344.57,224.06Z" fill="#ce6719" opacity="0.5"/>
          <g id="Group_2782" data-name="Group 2782">
            <path id="Path_2615" data-name="Path 2615" d="M187.452,240.029c-4.077-9.554-11.277-18.283-20.808-22.813a19.322,19.322,0,0,0-6.819-1.907c-3.591-4.073-9.047-6.8-14.269-8.36-4.28-1.282-5.659,5.536-1.393,6.814a26.539,26.539,0,0,1,7.872,3.626,9.429,9.429,0,0,0-3.865,10.093c1.008,3.823,4.759,8,9.012,7.885,4.394-.12,6.464-4.861,6.688-8.615a15.967,15.967,0,0,0-.166-3.439,35.255,35.255,0,0,1,7.579,5.462,38.3,38.3,0,0,1,9.558,13.407C182.586,246.271,189.211,244.151,187.452,240.029Zm-30.918-11.972c-2.464-.987-1.94-4.068-.161-5.207.064.178.136.35.192.534a7.58,7.58,0,0,1,.292,3.8l-.185.785Q156.126,229.1,156.534,228.057Z" fill="#2d1e07"/>
            <path id="Path_2616" data-name="Path 2616" d="M97.166,197.677c20-6.919,35.544-9.015,49.165,7.19,2.058,2.449,2.325,6.129.466,8.106-.705.75-10.689,6.344-21.193,5.346-5.8-.551-25.627-7.37-29.154-10.281C92.368,204.668,93.071,199.094,97.166,197.677Z" fill="#328230"/>
            <path id="Path_2617" data-name="Path 2617" d="M142.742,207.9c-.978-2.194-1.821-4.475-2.651-6.709a47.666,47.666,0,0,1-3.242-13.829c-.049-.924.377-1.569,1.14-1.325a37.335,37.335,0,0,1,5.589,6.022,34.284,34.284,0,0,1,3.908,7.512,21.567,21.567,0,0,1,.437,11.845,2.512,2.512,0,0,1,.138,1.607.739.739,0,0,1-.992.505.953.953,0,0,1-.888-.157,3.136,3.136,0,0,1-1.084-1.5A17.618,17.618,0,0,1,142.742,207.9Z" fill="#70b535"/>
            <path id="Path_2618" data-name="Path 2618" d="M254.218,334.538c-10.746,7.96-25.71,13.633-44.274,16.709-33.748,5.581-57.44-5.478-69.555-23.7a57.716,57.716,0,0,1-9.238-34.147c1.245-35.991,29.536-66.58,67.952-67.652,34.339-.951,67.792,19.879,74.031,63.985C275.778,308.4,268.954,323.618,254.218,334.538Z" fill="#fba71b"/>
            <path id="Path_2619" data-name="Path 2619" d="M240.368,285.009c4.08-.1,4.242,6.24.155,6.34S236.282,285.109,240.368,285.009Z" fill="#2d1e07"/>
            <path id="Path_2620" data-name="Path 2620" d="M254.063,277.648c4.079-.1,4.241,6.24.155,6.34S249.977,277.747,254.063,277.648Z" fill="#2d1e07"/>
            <path id="Path_2621" data-name="Path 2621" d="M253.357,291.625c4.08-.1,4.242,6.241.155,6.34S249.271,291.725,253.357,291.625Z" fill="#2d1e07"/>
            <path id="Path_2622" data-name="Path 2622" d="M153.057,308.52c4.079-.1,4.241,6.24.154,6.34S148.97,308.62,153.057,308.52Z" fill="#2d1e07"/>
            <path id="Path_2623" data-name="Path 2623" d="M151.82,298.3c4.079-.1,4.241,6.24.155,6.34S147.733,298.4,151.82,298.3Z" fill="#2d1e07"/>
            <path id="Path_2624" data-name="Path 2624" d="M164.1,302.168c4.079-.1,4.241,6.24.155,6.34S160.008,302.268,164.1,302.168Z" fill="#2d1e07"/>
            <path id="Path_2625" data-name="Path 2625" d="M184.173,307.731" fill="none" stroke="#2d1e07" stroke-linecap="round" stroke-miterlimit="10" stroke-width="4"/>
            <circle id="Ellipse_2002" data-name="Ellipse 2002" cx="14.587" cy="14.587" r="14.587" transform="translate(233.032 273.263)" fill="#e028e5" opacity="0.41"/>
            <circle id="Ellipse_2003" data-name="Ellipse 2003" cx="14.587" cy="14.587" r="14.587" transform="translate(142.831 290.727)" fill="#e028e5" opacity="0.41"/>
            <path id="Path_2626" data-name="Path 2626" d="M168.026,251.737a6.854,6.854,0,0,0-1.28-3.321,4.67,4.67,0,0,0-4.386-1.808,6.045,6.045,0,0,0-3.164,1.586,16.843,16.843,0,0,0-1.223,1.254,5.951,5.951,0,0,0-.678.822c-.048.063-.1.121-.153.185q-.345.464-.646.959a10.474,10.474,0,0,0-.934,1.767,4.71,4.71,0,0,0,.7,4.667,5.029,5.029,0,0,0,3.469,1.817,5.511,5.511,0,0,0,3.458-1.03,5.507,5.507,0,0,0,1.538-.412,5.78,5.78,0,0,0,2.832-2.9A6.863,6.863,0,0,0,168.026,251.737Z" fill="#ffca85"/>
            <path id="Path_2627" data-name="Path 2627" d="M222.779,291.856c-2.545-4.266-5.875-12.165-11.882-9.913-3.279,1.229-6.236,2.7-9.723,3.371a40.075,40.075,0,0,1-10.768.349,5.115,5.115,0,0,0-5.825,4.424c-1.373,12.278-2.291,27.4,9.05,35.557,8.7,6.253,21.525,4.549,29.451-2.2C232.9,315.08,228.419,301.31,222.779,291.856Z" fill="#2d1e07"/>
            <path id="Path_2628" data-name="Path 2628" d="M221.345,308.274c-.258-3.174-2.521-12.763-7.477-13.551-2.3-.366-3.958,1.012-5.663,2.093a12.106,12.106,0,0,1-7.592,1.753c-3.886-.2-8.425-1.562-9.667,2.766-1.591,5.545,2.81,17.239,9.094,20.07,6.045,2.724,14.929,2.318,19.1-2.708C221.629,315.7,221.633,311.811,221.345,308.274Z" fill="#ce3a3a"/>
            <g id="Group_2781" data-name="Group 2781">
              <path id="Path_2629" data-name="Path 2629" d="M185.235,268.183c-.305-.146-.613-.276-.922-.4a3.531,3.531,0,0,0-2.013-.838,15.38,15.38,0,0,0-1.756-.067c-7.417-.741-15.045,4.113-19.707,8.91a3.088,3.088,0,0,0-.83,3.153,3.8,3.8,0,0,0,2.534,2.469,3.7,3.7,0,0,0,2.622,1.951,3.038,3.038,0,0,0,.482.038,3.148,3.148,0,0,0,2.375-1.139c3.832-4.325,8.139-8.492,14.852-7.7a3.94,3.94,0,0,0,4.1-2.788A2.938,2.938,0,0,0,185.235,268.183Z" fill="#2d1e07"/>
              <path id="Path_2630" data-name="Path 2630" d="M233.034,260.24a3.294,3.294,0,0,0-.948-1c-3.476-2.347-7.82-3.145-12.955-2.368l-.819.129a16.6,16.6,0,0,0-4.188.873,12.118,12.118,0,0,0-6.27,3.638,3.179,3.179,0,0,0-.494,3.45,3.6,3.6,0,0,0,1.993,2.847,3.019,3.019,0,0,0,1.313.308,2.947,2.947,0,0,0,1.72-.566,15.441,15.441,0,0,1,9.495-3.052,8.79,8.79,0,0,1,1.377.15c.9.243,1.781.511,2.6.763l.133.04a1.839,1.839,0,0,0,.359.07,12.668,12.668,0,0,0,5.163.917,3.394,3.394,0,0,0,1.519-6.2Z" fill="#2d1e07"/>
            </g>
          </g>
          <g id="Group_2787" data-name="Group 2787">
            <path id="Path_2631" data-name="Path 2631" d="M346.171,194.477c9.285,2.963,22.268,7.708,23.614,18.954A3.23,3.23,0,0,1,367.069,217a3.142,3.142,0,0,1-1.864-.34,8.815,8.815,0,0,1-4.448-.762,53.385,53.385,0,0,1-6.954-3.507,23.009,23.009,0,0,1-7.825-7.479,17.91,17.91,0,0,1-3.978-6.3A3.216,3.216,0,0,1,346.171,194.477Z" fill="#70b535"/>
            <path id="Path_2632" data-name="Path 2632" d="M410.3,215.8c-9.169,3.307-22.356,7.452-30.274-.648a3.231,3.231,0,0,1-.021-4.486,3.159,3.159,0,0,1,1.685-.866,8.828,8.828,0,0,1,3.993-2.1,53.483,53.483,0,0,1,7.651-1.455,23.013,23.013,0,0,1,10.762,1.166,17.9,17.9,0,0,1,6.99,2.572A3.215,3.215,0,0,1,410.3,215.8Z" fill="#70b535"/>
            <path id="Path_2633" data-name="Path 2633" d="M370.488,205.431a115.809,115.809,0,0,1,3.084-11.538c2.393-7.9,5.87-15.337,11.492-21.469a3.255,3.255,0,0,1,4.452-.549c.85.664,4.307,9.907,4.645,13.7a34.706,34.706,0,0,1-1.282,13.9c-2.434,7.36-8.846,12.076-15.25,15.955a3.5,3.5,0,0,1-1.888,2.247,6.092,6.092,0,0,1-4.819-1.5,3.5,3.5,0,0,1-.449-3.086A18.111,18.111,0,0,1,370.488,205.431Z" fill="#328230"/>
            <g id="Group_2783" data-name="Group 2783">
              <path id="Path_2634" data-name="Path 2634" d="M361.547,208.74c1.03-1.207,3.16-1.764,4.451-.548a40.431,40.431,0,0,1,5.543,6.393c.459-1.652.929-3.287,1.4-4.9.477-1.647,2.722-2.287,4.162-1.675a3.252,3.252,0,0,1,1.674,4.162c-.471,1.626-.944,3.277-1.4,4.945a49.723,49.723,0,0,0,8.285-4.554c2.962-2.011,5.974,2.667,3.007,4.68a55.2,55.2,0,0,1-12.18,6.2,2.885,2.885,0,0,1-.785.162l-.7,3.085c-.155.744-1.814,9.323-1.947,10.069-2.215.667-4.367,1.147-6.624,1.668.377-2.471,2.313-12.582,2.866-15.029-.2-.451-.4-.9-.622-1.343a18.527,18.527,0,0,0-.869-1.641c-.023-.036-.045-.068-.084-.133-.075-.124-.15-.248-.226-.371q-.285-.462-.585-.916a35.521,35.521,0,0,0-2.4-3.223q-.627-.75-1.294-1.466c-.116-.124-.233-.246-.35-.369l.013.01c-.01-.007-.018-.018-.028-.025l-.009-.01a1.23,1.23,0,0,0-.1-.088c-.226-.2-.434-.432-.647-.632a3.421,3.421,0,0,1-1.191-2.073A3.238,3.238,0,0,1,361.547,208.74Z" fill="#2d1e07"/>
              <path id="Path_2635" data-name="Path 2635" d="M362.864,213.937c-.449-.327-.284-.244-.122-.113.036.032.07.069.107.1Z" fill="#2d1e07"/>
            </g>
            <path id="Path_2636" data-name="Path 2636" d="M426.473,303.113c-1.021,35.663-24.456,64.893-76.233,55.548-48.163-8.692-68.826-32.64-62.395-67.746,7.4-40.39,36.815-62.982,75.1-59.614S427.5,267.119,426.473,303.113Z" fill="#fba71b"/>
            <path id="Path_2637" data-name="Path 2637" d="M316.339,296.061c-4.065-.358-4.628,5.959-.556,6.317S320.411,296.419,316.339,296.061Z" fill="#2d1e07"/>
            <path id="Path_2638" data-name="Path 2638" d="M303.138,287.847c-4.065-.357-4.628,5.96-.556,6.318S307.21,288.2,303.138,287.847Z" fill="#2d1e07"/>
            <path id="Path_2639" data-name="Path 2639" d="M302.958,301.841c-4.065-.357-4.628,5.96-.556,6.318S307.03,302.2,302.958,301.841Z" fill="#2d1e07"/>
            <path id="Path_2640" data-name="Path 2640" d="M403.655,316.823c-4.065-.357-4.628,5.96-.556,6.318S407.727,317.182,403.655,316.823Z" fill="#2d1e07"/>
            <path id="Path_2641" data-name="Path 2641" d="M405.536,306.7c-4.065-.358-4.628,5.959-.556,6.318S409.608,307.061,405.536,306.7Z" fill="#2d1e07"/>
            <path id="Path_2642" data-name="Path 2642" d="M393.041,309.786c-4.065-.358-4.628,5.959-.556,6.317S397.113,310.144,393.041,309.786Z" fill="#2d1e07"/>
            <path id="Path_2643" data-name="Path 2643" d="M372.651,314.067" fill="none" stroke="#2d1e07" stroke-linecap="round" stroke-miterlimit="10" stroke-width="4"/>
            <g id="Group_2784" data-name="Group 2784">
              <path id="Path_2644" data-name="Path 2644" d="M339.118,261.608h0a3.721,3.721,0,0,0-4.6-2.379,4.077,4.077,0,0,0-2.286,2.107,3.213,3.213,0,0,0-.1,2.513,51.281,51.281,0,0,1,2.309,7.7l-15.946,2.313a3.747,3.747,0,0,0-3.5,3.8,4.2,4.2,0,0,0,1.522,2.855,3.02,3.02,0,0,0,1.9.7,3.107,3.107,0,0,0,.418-.03l20.009-2.9c1.9-.276,3.772-1.712,3.493-3.83A55.64,55.64,0,0,0,339.118,261.608Z" fill="#2d1e07"/>
              <path id="Path_2645" data-name="Path 2645" d="M393.794,273.067a3.774,3.774,0,0,0-5-1.168,147.828,147.828,0,0,1-14.948,6.062,4.076,4.076,0,0,0-2.476,2.647,3.087,3.087,0,0,0,.5,2.849l10.9,13.959a4.252,4.252,0,0,0,3.221,1.682,3.18,3.18,0,0,0,1.829-.577,4.178,4.178,0,0,0,1.69-2.719,3.019,3.019,0,0,0-.578-2.373l-7.994-10.241c3.842-1.476,7.763-3.161,11.665-5.012a3.168,3.168,0,0,0,1.62-2.09A3.742,3.742,0,0,0,393.794,273.067Z" fill="#2d1e07"/>
            </g>
            <g id="Group_2785" data-name="Group 2785">
              <path id="Path_2646" data-name="Path 2646" d="M215.954,197.673a223.191,223.191,0,0,1-27.261-20.091,3.659,3.659,0,0,0-6.146,2.939,3.415,3.415,0,0,0,1.153,2.443A234.555,234.555,0,0,0,212.4,204.1a3.169,3.169,0,0,0,1.692.474,3.711,3.711,0,0,0,.941-.124,3.827,3.827,0,0,0,2.372-1.809A3.735,3.735,0,0,0,215.954,197.673Z" fill="#2d1e07"/>
              <path id="Path_2647" data-name="Path 2647" d="M341.334,198.187q2.289-1.094,4.588-2.161c5.825-2.711,11.8-5.359,17.752-7.871q1.747-.736,3.508-1.462l.356-.147a4.528,4.528,0,0,0,1.066-.621,3.607,3.607,0,0,0,1.306-3.959l-.054-.153a3.913,3.913,0,0,0-2.086-2.167,3.171,3.171,0,0,0-2.5-.086c-3.023,1.247-6.126,2.561-9.221,3.9-4,1.737-8.022,3.536-11.939,5.348-2.175,1-4.343,2.024-6.507,3.052-1.693.814-3.379,1.625-5.066,2.451a3.1,3.1,0,0,0-1.582,1.992,3.951,3.951,0,0,0,.382,3.095,3.485,3.485,0,0,0,3.022,1.67,4.571,4.571,0,0,0,1.994-.483Q338.84,199.374,341.334,198.187Zm28.052-16.2h0Z" fill="#2d1e07"/>
              <path id="Path_2648" data-name="Path 2648" d="M274.848,210.755a13.96,13.96,0,0,0,1.61-.093,13.073,13.073,0,0,0,11.474-10.425,3.227,3.227,0,0,0-2.64-3.9,3.009,3.009,0,0,0-3.747,2.384A6.479,6.479,0,0,1,276,204.157a6.931,6.931,0,0,1-7.039-4.22,2.691,2.691,0,0,0-2.222-1.674,3.577,3.577,0,0,0-3.089,1.578,3.411,3.411,0,0,0-.307,3.475A12.468,12.468,0,0,0,274.848,210.755Z" fill="#2d1e07"/>
              <path id="Path_2649" data-name="Path 2649" d="M275.729,235.509a3.381,3.381,0,0,0-3.193,1.469h0A292.954,292.954,0,0,0,253.58,266.4a3.759,3.759,0,0,0,.865,5.078,3.819,3.819,0,0,0,2.206.668,4.109,4.109,0,0,0,.877-.094A3.072,3.072,0,0,0,259.6,270.6a291.982,291.982,0,0,1,18.891-29.326,3.344,3.344,0,0,0,.441-3.432A4.08,4.08,0,0,0,275.729,235.509Z" fill="#2d1e07"/>
              <path id="Path_2650" data-name="Path 2650" d="M143.7,285.669,112.8,264.8a3.606,3.606,0,0,0-5.15,1.086,3.374,3.374,0,0,0,.885,4.891l30.9,20.866a3.636,3.636,0,0,0,2.045.662,3.466,3.466,0,0,0,1.528-.364,4.078,4.078,0,0,0,2.243-3.259A3.278,3.278,0,0,0,143.7,285.669Z" fill="#2d1e07"/>
              <path id="Path_2651" data-name="Path 2651" d="M369.191,298.948a3.008,3.008,0,0,0-2.3.351l-4.106,2.483-3.827-5.207a3.022,3.022,0,0,0-1.987-1.2,3.06,3.06,0,0,0-2.261.557l-2.773,2.041-2.958-4.7a3.047,3.047,0,0,0-1.938-1.354,3.012,3.012,0,0,0-2.327.449l-3.038,2.043-1.39-4.035a3.037,3.037,0,0,0-5.743,1.978l2.677,7.772a3.053,3.053,0,0,0,1.905,1.891,3.014,3.014,0,0,0,2.661-.359l3.72-2.5,3.029,4.816a3.036,3.036,0,0,0,4.37.83l2.959-2.177,3.672,4.994a3.034,3.034,0,0,0,2.448,1.238h.1a3.04,3.04,0,0,0,1.473-.438l6.48-3.918a3.038,3.038,0,0,0-.845-5.548Z" fill="#2d1e07"/>
              <path id="Path_2652" data-name="Path 2652" d="M290.16,242.049a3.728,3.728,0,0,0-5.034-1.12,3.933,3.933,0,0,0-1.682,2.582,3.161,3.161,0,0,0,.55,2.517A147.532,147.532,0,0,1,298.2,268.537a3.19,3.19,0,0,0,2.048,1.591,4.068,4.068,0,0,0,1.075.144,3.638,3.638,0,0,0,3.141-5.562A148.494,148.494,0,0,0,290.16,242.049Z" fill="#2d1e07"/>
              <path id="Path_2653" data-name="Path 2653" d="M454.337,278.572a3.825,3.825,0,0,0-1.979-2.244,3.3,3.3,0,0,0-2.646-.166,161.8,161.8,0,0,0-32.534,16.829,3.51,3.51,0,0,0-1.617,3.2,4.077,4.077,0,0,0,2.175,3.306,3.163,3.163,0,0,0,1.4.333,3.515,3.515,0,0,0,1.968-.641,153.685,153.685,0,0,1,30.839-16.039A3.743,3.743,0,0,0,454.337,278.572Z" fill="#2d1e07"/>
            </g>
            <circle id="Ellipse_2004" data-name="Ellipse 2004" cx="14.587" cy="14.587" r="14.587" transform="translate(294.336 283.85)" fill="#f71e9a" opacity="0.41"/>
            <circle id="Ellipse_2005" data-name="Ellipse 2005" cx="14.587" cy="14.587" r="14.587" transform="translate(384.918 298.761)" fill="#f71e9a" opacity="0.41"/>
            <path id="Path_2654" data-name="Path 2654" d="M405.553,262.694l-.009-.027a7.922,7.922,0,0,0-1.684-4.927,11.491,11.491,0,0,0-4.675-3.745,3.158,3.158,0,0,0-1.613-.382,2.4,2.4,0,0,0-.773.134,3.18,3.18,0,0,0-2.057-.1,3.238,3.238,0,0,0-1.848,1.516,3.2,3.2,0,0,0-.242,2.453c.043.121.1.243.16.364a2.97,2.97,0,0,0-.055,1.978A21.535,21.535,0,0,0,395.1,264.8a9.248,9.248,0,0,0,1.825,2.224,4.923,4.923,0,0,0,3.582,1.185c.135-.015.265-.052.4-.077a4.367,4.367,0,0,0,2.141-.165,4.135,4.135,0,0,0,2.26-1.948A4.43,4.43,0,0,0,405.553,262.694Z" fill="#ffca85"/>
            <g id="Group_2786" data-name="Group 2786">
              <path id="Path_2655" data-name="Path 2655" d="M373.128,229.168s13.628-3.767,17,1.776,1.426,7.94.077,10.57c-2.38,4.64-7.959,4.922-12.14-1.105-1.255-1.81-3.472-3.5-6.251-5.521s-1.415-3.451-1.415-3.451Z" fill="#f43885"/>
              <path id="Path_2656" data-name="Path 2656" d="M368.412,228.428s-10.967-11.968-15.554-8.086c-3.042,2.576-4.687,6.757-4.036,9.871,1.319,6.318,6.478,6.111,10.8,5.492,6.5-.931,4.141-1.222,7.442-1.441S369.8,232,369.8,232Z" fill="#f43885"/>
              <path id="Path_2657" data-name="Path 2657" d="M379.134,231.626s-5.432-.456-5.343,1.149" fill="none" stroke="#ba0d42" stroke-linecap="round" stroke-miterlimit="10" stroke-width="3"/>
              <path id="Path_2658" data-name="Path 2658" d="M378.652,236.008s-4.585-3.159-5.495-1.893" fill="none" stroke="#ba0d42" stroke-linecap="round" stroke-miterlimit="10" stroke-width="3"/>
              <path id="Path_2659" data-name="Path 2659" d="M361.36,227.844s5.376,1.315,5.081,2.858" fill="none" stroke="#ba0d42" stroke-linecap="round" stroke-miterlimit="10" stroke-width="3"/>
              <path id="Path_2660" data-name="Path 2660" d="M361.441,232.565s4.9-1.6,5.623-.069" fill="none" stroke="#ba0d42" stroke-linecap="round" stroke-miterlimit="10" stroke-width="3"/>
              <path id="Path_2661" data-name="Path 2661" d="M365.324,228.373c-.951,3.047-1.394,6.794,3.1,8.653,3.064,1.265,6.607,1.5,7.233-2.54.765-4.942.418-5.766-2.436-7.454S366.178,225.636,365.324,228.373Z" fill="#f759a9"/>
            </g>
          </g>
        </g>
      </g>
    </g>
    <g id="Group_2795" data-name="Group 2795">
      <g id="Group_2791" data-name="Group 2791">
        <path id="Path_2662" data-name="Path 2662" d="M579.1,251.738a3.012,3.012,0,0,0,1.544.652l27.44.36a3.743,3.743,0,0,0,1.643-.655l.56-1.123a2.566,2.566,0,0,0-.53-1.946l-1.122-.561h-5.615l.422-1.69a2.891,2.891,0,0,0-.537-2.317l-1.125-.562a2.551,2.551,0,0,0-1.943.527,37.3,37.3,0,0,0-1.417,3.781l-.045.147-6.372-.253-.034-.148a11.754,11.754,0,0,0-1.506-3.616l-1.117-.558a2.56,2.56,0,0,0-1.948.53l-.566,1.132a4.168,4.168,0,0,0,.464,2.256l.145.291h-4.588a10.3,10.3,0,0,0-3.76.678l-.549,1.1A2.589,2.589,0,0,0,579.1,251.738Z" fill="#9b6b1e"/>
        <path id="Path_2663" data-name="Path 2663" d="M580.666,227.773a3.014,3.014,0,0,0,1.543.65l25.035-.12a3.716,3.716,0,0,0,1.647-.655l.561-1.123a2.576,2.576,0,0,0-.531-1.947l-1.123-.56-24.881-.12a3.348,3.348,0,0,0-2.241.765l-.565,1.132A2.567,2.567,0,0,0,580.666,227.773Z" fill="#9b6b1e"/>
        <path id="Path_2664" data-name="Path 2664" d="M579.993,205.765c.28,8.64.541,13.527.777,14.491.215.879,1.108,1.234,2.73,1.08h.019l25.048.06a2.194,2.194,0,0,0,1.768-.421,1.609,1.609,0,0,0,.315-1.34c.079-8.429.079-13.324,0-14.574a1.869,1.869,0,0,0-.5-1.324,1.306,1.306,0,0,0-1-.262c-1.066.082-3.3.14-6.83.181l-.242,0,.042-.238a4.837,4.837,0,0,0-.545-3.416l-1.115-.558a2.523,2.523,0,0,0-1.956.539,5.089,5.089,0,0,0-.733,3.447l.026.223H592.67l.14-1.54a3.15,3.15,0,0,0-.532-2.466l-1.126-.563a2.519,2.519,0,0,0-1.952.535,6.246,6.246,0,0,0-.8,3.934l.022.221H588.2a62.673,62.673,0,0,0-7.107.206C580.51,204.1,580.139,204.7,579.993,205.765Zm22.126.973h4l.133,3.885h-4.131Zm-.108,7.035,4.353-.132v4.37h-4.618Zm-4.608,4.232-4.474.132v-4.37h4.738Zm.372-11.267v3.885h-4.959l-.134-3.885Zm-9.131,11.513h-3.758l-.132-4.357,3.89-.134Zm-.248-11.4.135,3.764-3.883.134-.135-3.765Z" fill="#9b6b1e"/>
        <path id="Path_2665" data-name="Path 2665" d="M583.777,241.6c.039.286.153,1.168,2.425.938h.024c11.387.238,17.534.28,18.275.125.669-.14,1.01-.425,1.043-.87.038-.534.236-2.061.6-4.669.358-2.544.559-4.326.6-5.3.013-.316.052-1.279-2.038-1.444-13.164-.078-20.176-.07-20.827.029-.543.082-.8.812-.761,2.168C583.435,237.662,583.657,240.7,583.777,241.6Zm18.288-6.929-.408,3.4-.176,0-13.7.121-.271-3.646Z" fill="#9b6b1e"/>
        <path id="Path_2666" data-name="Path 2666" d="M572.767,240.526a3.006,3.006,0,0,0,1.5.63,3.692,3.692,0,0,0,1.645-.655l.556-1.11c-.081-2.705-.223-5.434-.419-8.111a29.738,29.738,0,0,0-1.584-7.68l-1.1-.547a2.557,2.557,0,0,0-1.946.53l-.551,1.1a45.633,45.633,0,0,1,.952,8.015A42.918,42.918,0,0,0,572.767,240.526Z" fill="#9b6b1e"/>
        <path id="Path_2667" data-name="Path 2667" d="M577.39,214.132a11.889,11.889,0,0,0-3.561-.867c-1.3-.119-5.786-.22-13.318-.3a7.044,7.044,0,0,0-4.171.785l-.556,1.112a2.57,2.57,0,0,0,.531,1.947l1.121.559,6.884-.123,0,.206c-.236,19.714-.381,30.725-.421,31.841a4.822,4.822,0,0,0,.721,2.782l1.116.559a2.7,2.7,0,0,0,2-.524,13.565,13.565,0,0,0,.691-5.631l.241-29.247,6.825.62a4.649,4.649,0,0,0,1.87-.662l.557-1.117A2.608,2.608,0,0,0,577.39,214.132Z" fill="#9b6b1e"/>
        <path id="Path_2668" data-name="Path 2668" d="M557.155,206.177l1.125.562,13.012.242a7.954,7.954,0,0,0,4.63-.672l.553-1.108a2.613,2.613,0,0,0-.525-1.939,9.742,9.742,0,0,0-3.838-.628c-1.451.041-5.875-.061-13.167-.3a2.846,2.846,0,0,0-1.875.647l-.565,1.13A2.687,2.687,0,0,0,557.155,206.177Z" fill="#9b6b1e"/>
        <path id="Path_2669" data-name="Path 2669" d="M556.845,242.9a2.618,2.618,0,0,0,1.942-.527,33.538,33.538,0,0,0,1.713-4.913,88.921,88.921,0,0,0,1.375-11.618,2.593,2.593,0,0,0-.527-1.986l-1.131-.565a2.187,2.187,0,0,0-2.749,2.11c-.324,6.068-.681,9.641-1.089,10.91q-.6,1.861-1.2,3.782a2.715,2.715,0,0,0,.538,2.244Z" fill="#9b6b1e"/>
      </g>
      <g id="Group_2792" data-name="Group 2792">
        <path id="Path_2670" data-name="Path 2670" d="M656.475,251.788l8.41.242a61.156,61.156,0,0,0,6.521.18,1.992,1.992,0,0,0,1.893-1.684c.294-1.117.444-4.414.444-9.8s.02-8.573.06-9.441c.033-.727-.732-1.152-2.277-1.262l-16.627-.24c-1.191.258-1.846,1.142-1.96,2.7.4,11,.738,17.044,1.013,17.947C654.206,251.268,655.032,251.713,656.475,251.788Zm12.418-4.044L657.83,247.5l-.129-5.321h11.272l.13,5.57Zm.19-13.308.272,3.4h-12l-.134-3.77Z" fill="#9b6b1e"/>
        <path id="Path_2671" data-name="Path 2671" d="M629.069,251.432a2.586,2.586,0,0,0,1.949-.532,11.973,11.973,0,0,0,1.163-3.216,15.527,15.527,0,0,1,1.081-3.316,2.581,2.581,0,0,0-.533-1.953l-1.132-.622a2.827,2.827,0,0,0-2.071.6,11.117,11.117,0,0,0-1.339,3.275c-.281,1.2-.581,2.365-.893,3.455a3.823,3.823,0,0,0,.653,1.749Z" fill="#9b6b1e"/>
        <path id="Path_2672" data-name="Path 2672" d="M641.375,248.385a3.035,3.035,0,0,0,1.514.639,3.738,3.738,0,0,0,1.646-.654l.551-1.1c-.177-1.539-1.362-3.594-3.523-6.11l-1.132-.565a2.576,2.576,0,0,0-1.945.529l-.56,1.176a4.571,4.571,0,0,0,1.437,3.061A7.956,7.956,0,0,1,641.375,248.385Z" fill="#9b6b1e"/>
        <path id="Path_2673" data-name="Path 2673" d="M627.067,237.505a3.07,3.07,0,0,0,2.084,1.188l12.169-.419c1.381.286,2.321.2,2.854-.255a2.009,2.009,0,0,0,.557-1.7l-.24-33.584c-.255-1.072-.826-1.65-1.739-1.724H630.815c-.314-.02-.609-.029-.887-.029-1.932,0-3.008.461-3.212,1.375-.256,1.135-.183,12.294.215,33.168l-.007.056A2.4,2.4,0,0,0,627.067,237.505Zm13.379-3.52-9.224.126-.251-9.295,9.475.126Zm-9.59-13.454v-5.2l9.349-.126v5.452Zm.005-15.234h9.344v5.563l-9.474.126Z" fill="#9b6b1e"/>
        <path id="Path_2674" data-name="Path 2674" d="M676.746,207.538c-.22-1.119-.774-1.745-1.689-1.873a20.116,20.116,0,0,0-4.575.151l-.289.034,1.034-4.006a3.131,3.131,0,0,0-.538-2.436l-1.126-.562a2.533,2.533,0,0,0-1.944.528,14.416,14.416,0,0,0-1.018,3.1c-.223,1.09-.5,2.167-.816,3.2l-.043.142h-4.255l-.046-.135a20.818,20.818,0,0,0-2.948-5.435l-1.123-.561a2.557,2.557,0,0,0-1.948.53l-.564,1.131a2.994,2.994,0,0,0,.564,2.107l1.382,2.483h-6.347c-1.639.224-2.487,1.42-2.563,3.651.692,13.1,1.167,16.4,1.443,16.859a1.989,1.989,0,0,0,1.731,1.014c.826.042,8.04-.04,21.43-.24h.085l.127.127c2.493.179,3.772-.4,3.917-1.75Zm-24.581,2.689,8.216-.127.134,3.947h-8.082Zm8.583,12.716-7.591-.252-.4-4.36h7.987Zm11.342-.006h-7.056v-4.726h7.318Zm.371-9.01H664.8l-.134-3.824h7.795Z" fill="#9b6b1e"/>
      </g>
      <g id="Group_2793" data-name="Group 2793">
        <path id="Path_2675" data-name="Path 2675" d="M743.4,206.017a7.781,7.781,0,0,0-4.419-.8l-19.758-.242.019-.214a11.217,11.217,0,0,0-.68-5.065l-1.1-.548a2.557,2.557,0,0,0-1.943.527,9.738,9.738,0,0,0-.687,5.2l.028.217-.219.008c-7.416.239-12.44.36-14.934.36a23.043,23.043,0,0,0-6.975,1.046l-.546,1.092a2.594,2.594,0,0,0,.556,1.977,3,3,0,0,0,1.528.649,48.222,48.222,0,0,1,6.4-.539c2.156-.038,4.447-.139,6.808-.3l.2-.014.379,8.462h-.209c-6.76,0-10.642.129-11.538.383-.822.232-1.147,1.1-1,2.641.557,5.134.941,10.4,1.142,15.659.2,5.193.616,10.376,1.247,15.406l1.013.534a2.579,2.579,0,0,0,1.945-.531l.559-1.119c-.08-2.453-.14-4.913-.179-7.312-.039-2.44-.18-5.316-.419-8.548l-.015-.189.189-.023a31.017,31.017,0,0,0,3.789-.716,8.205,8.205,0,0,0,3.778-2.556,9.417,9.417,0,0,0,2.443-4.5c.337-1.623.711-3.263,1.113-4.873l.039-.152h.158l11.98.122-.009.207a25.987,25.987,0,0,0,.3,5.3,12.794,12.794,0,0,0,1.775,4.733l.042.067.373.228a10.83,10.83,0,0,0,4.718,1.533c1.748.159,3.581.239,5.449.239h.2v.2c0,2.077-.041,4.121-.12,6.075s-.2,3.96-.362,5.955l-.028.362-.771-.578-1.326-.806a2.56,2.56,0,0,0-1.938.532l-.558,1.117a5.065,5.065,0,0,0,1.85,3.591,7.917,7.917,0,0,0,4.095,2.353c.987-.008,1.7-.6,2.166-1.795a15.771,15.771,0,0,0,.8-5.247c.039-2.242.176-6.949.419-14.389.239-7.263.173-11.388-.194-12.258-.349-.827-1.275-1.342-2.754-1.532l-10.635,0,.378-8.452.2,0,13.334.24a4.637,4.637,0,0,0,1.885-.661l.558-1.117A2.57,2.57,0,0,0,743.4,206.017Zm-35.836,16.278c-.237,1.185-.521,2.4-.844,3.616a8.215,8.215,0,0,1-1.97,3.449l-.065.046a15.992,15.992,0,0,1-4.076,1.1l-.216.032-.013-.217-.493-8.015,7.727-.255Zm15.792-4.462-11.074-.124-.378-8.327h11.83Zm4.955,4.343h8.626l.126,7.981-.215-.013c-1.311-.079-2.621-.119-3.893-.119a4.334,4.334,0,0,1-3.331-1.448c-.883-.967-1.313-3-1.313-6.2Z" fill="#9b6b1e"/>
        <path id="Path_2676" data-name="Path 2676" d="M727.106,244.9a89.019,89.019,0,0,0-.837-12.094l-.024-.117-1.129-.323H711.449c-1.314.147-1.962.947-1.962,2.443.238,6.2.519,9.966.834,11.182a1.956,1.956,0,0,0,2.256,1.593c8.647-.239,13.31-.391,13.867-.45C726.87,247.089,727.106,246.3,727.106,244.9Zm-12.9-1.719-.511-6.531h8.937l.256,6.4Z" fill="#9b6b1e"/>
      </g>
      <g id="Group_2794" data-name="Group 2794">
        <path id="Path_2677" data-name="Path 2677" d="M792.148,248.785l15.066-.36c2.205.228,3.366-.078,3.471-.9.118-.952.179-7.067.179-18.176.045-.6-.075-1.4-1.621-1.543-1.27-.119-4.71-.2-10.224-.239q-1.369-.011-2.543-.01a47.671,47.671,0,0,0-6.8.242c-.636.178-.98.807-1.055,1.924.995,10.762,1.6,16.716,1.8,17.665A1.686,1.686,0,0,0,792.148,248.785Zm14.432-16.753-.124,12.1-12.093.248-1.118-12.724Z" fill="#9b6b1e"/>
        <path id="Path_2678" data-name="Path 2678" d="M796.822,202.694h-23.18c-.107-.007-.21-.01-.31-.01a2.057,2.057,0,0,0-1.49.481,2.348,2.348,0,0,0-.522,1.843q1.379,14.342,1.53,15.968c.089.968.858,1.44,2.351,1.44l19.939-.6c2.353.164,2.423-.7,2.449-.99.079-.893.363-6.459.84-16.54a1.423,1.423,0,0,0-.256-1.122A1.819,1.819,0,0,0,796.822,202.694Zm-2.678,4.5-.611,10.094-.184,0-16.04.364-.021-.18-1.228-10.495h18.1Z" fill="#9b6b1e"/>
        <path id="Path_2679" data-name="Path 2679" d="M760.927,230.2c.955,11.8,1.539,18.118,1.733,18.761.169.557,1.038.871,2.512.908,11.185-.318,17.274-.509,18.1-.569.725-.054,1.178-.571,1.38-1.582a92.647,92.647,0,0,0,.507-10.056c.12-5.594.16-8.761.121-9.415-.034-.555-.688-.968-1.944-1.227q-4.932-.03-8.715-.03c-7.248,0-11.3.081-12.077.241C761.583,227.426,761.04,228.426,760.927,230.2Zm19.645,1.108-.124,13.79-14.14.494-.013-.193-.976-13.968Z" fill="#9b6b1e"/>
      </g>
    </g>
  </g>
</svg>
