<svg xmlns="http://www.w3.org/2000/svg" xmlns:xlink="http://www.w3.org/1999/xlink" width="1200" height="220" viewBox="0 0 1200 220">
  <defs>
    <clipPath id="clip-path">
      <rect id="Rectangle_597" data-name="Rectangle 597" width="1200" height="220" rx="8" transform="translate(83 1837)" fill="none"/>
    </clipPath>
  </defs>
  <g id="Group_2931" data-name="Group 2931" transform="translate(-83 -1837)">
    <rect id="Rectangle_827" data-name="Rectangle 827" width="1200" height="220" rx="8" transform="translate(83 1837)" fill="#f7efe8"/>
    <g id="Group_2927" data-name="Group 2927">
      <g id="Group_2926" data-name="Group 2926" clip-path="url(#clip-path)">
        <g id="Group_2919" data-name="Group 2919">
          <circle id="Ellipse_2006" data-name="Ellipse 2006" cx="40" cy="40" r="40" transform="translate(180 1921)" fill="#dc8f29"/>
          <path id="Path_2680" data-name="Path 2680" d="M159.2,1803.6a66.627,66.627,0,1,1-112.606,71.249C46.4,1874.549,159.006,1803.3,159.2,1803.6Z" fill="#bb700d"/>
          <rect id="Rectangle_828" data-name="Rectangle 828" width="105" height="78" transform="translate(1246 1991)" fill="#e6a44e"/>
          <rect id="Rectangle_829" data-name="Rectangle 829" width="105" height="78" transform="translate(18 1961)" fill="#e6a44e"/>
          <rect id="Rectangle_830" data-name="Rectangle 830" width="122.19" height="122.19" transform="translate(402.658 2034.522) rotate(-30)" fill="#ea982c"/>
          <rect id="Rectangle_831" data-name="Rectangle 831" width="122.19" height="122.19" transform="translate(909.658 1799.522) rotate(-30)" fill="#ea982c"/>
          <rect id="Rectangle_832" data-name="Rectangle 832" width="72.919" height="72.919" transform="translate(1036.658 1820.522) rotate(-30)" fill="#eecda2"/>
          <rect id="Rectangle_833" data-name="Rectangle 833" width="78.888" height="78.888" transform="matrix(0.504, -0.864, 0.864, 0.504, 311.863, 1856.255)" fill="#e88b11"/>
          <rect id="Rectangle_834" data-name="Rectangle 834" width="45.921" height="45.921" transform="matrix(0.504, -0.864, 0.864, 0.504, 370.008, 1857.153)" fill="#e9b26b"/>
          <circle id="Ellipse_2007" data-name="Ellipse 2007" cx="39.5" cy="39.5" r="39.5" transform="translate(314 1943)" fill="#e0b67f"/>
          <g id="Group_2823" data-name="Group 2823">
            <g id="Group_2822" data-name="Group 2822">
              <g id="Group_2797" data-name="Group 2797">
                <circle id="Ellipse_2008" data-name="Ellipse 2008" cx="3.727" cy="3.727" r="3.727" transform="translate(1205 2013.691)" fill="#ac660c"/>
              </g>
              <g id="Group_2798" data-name="Group 2798">
                <circle id="Ellipse_2009" data-name="Ellipse 2009" cx="3.727" cy="3.727" r="3.727" transform="translate(1223.636 2013.691)" fill="#ac660c"/>
              </g>
              <g id="Group_2799" data-name="Group 2799">
                <circle id="Ellipse_2010" data-name="Ellipse 2010" cx="3.727" cy="3.727" r="3.727" transform="translate(1242.273 2013.691)" fill="#ac660c"/>
              </g>
              <g id="Group_2800" data-name="Group 2800">
                <circle id="Ellipse_2011" data-name="Ellipse 2011" cx="3.727" cy="3.727" r="3.727" transform="translate(1260.909 2013.691)" fill="#ac660c"/>
              </g>
              <g id="Group_2801" data-name="Group 2801">
                <circle id="Ellipse_2012" data-name="Ellipse 2012" cx="3.727" cy="3.727" r="3.727" transform="translate(1279.545 2013.691)" fill="#ac660c"/>
              </g>
              <g id="Group_2802" data-name="Group 2802">
                <circle id="Ellipse_2013" data-name="Ellipse 2013" cx="3.727" cy="3.727" r="3.727" transform="translate(1205 2030.836)" fill="#ac660c"/>
              </g>
              <g id="Group_2803" data-name="Group 2803">
                <circle id="Ellipse_2014" data-name="Ellipse 2014" cx="3.727" cy="3.727" r="3.727" transform="translate(1223.636 2030.836)" fill="#ac660c"/>
              </g>
              <g id="Group_2804" data-name="Group 2804">
                <circle id="Ellipse_2015" data-name="Ellipse 2015" cx="3.727" cy="3.727" r="3.727" transform="translate(1242.273 2030.836)" fill="#ac660c"/>
              </g>
              <g id="Group_2805" data-name="Group 2805">
                <circle id="Ellipse_2016" data-name="Ellipse 2016" cx="3.727" cy="3.727" r="3.727" transform="translate(1260.909 2030.836)" fill="#ac660c"/>
              </g>
              <g id="Group_2806" data-name="Group 2806">
                <circle id="Ellipse_2017" data-name="Ellipse 2017" cx="3.727" cy="3.727" r="3.727" transform="translate(1279.545 2030.836)" fill="#ac660c"/>
              </g>
              <g id="Group_2807" data-name="Group 2807">
                <circle id="Ellipse_2018" data-name="Ellipse 2018" cx="3.727" cy="3.727" r="3.727" transform="translate(1205 2047.982)" fill="#ac660c"/>
              </g>
              <g id="Group_2808" data-name="Group 2808">
                <circle id="Ellipse_2019" data-name="Ellipse 2019" cx="3.727" cy="3.727" r="3.727" transform="translate(1223.636 2047.982)" fill="#ac660c"/>
              </g>
              <g id="Group_2809" data-name="Group 2809">
                <circle id="Ellipse_2020" data-name="Ellipse 2020" cx="3.727" cy="3.727" r="3.727" transform="translate(1242.273 2047.982)" fill="#ac660c"/>
              </g>
              <g id="Group_2810" data-name="Group 2810">
                <circle id="Ellipse_2021" data-name="Ellipse 2021" cx="3.727" cy="3.727" r="3.727" transform="translate(1260.909 2047.982)" fill="#ac660c"/>
              </g>
              <g id="Group_2811" data-name="Group 2811">
                <circle id="Ellipse_2022" data-name="Ellipse 2022" cx="3.727" cy="3.727" r="3.727" transform="translate(1279.545 2047.982)" fill="#ac660c"/>
              </g>
              <g id="Group_2812" data-name="Group 2812">
                <circle id="Ellipse_2023" data-name="Ellipse 2023" cx="3.727" cy="3.727" r="3.727" transform="translate(1205 2065.127)" fill="#ac660c"/>
              </g>
              <g id="Group_2813" data-name="Group 2813">
                <circle id="Ellipse_2024" data-name="Ellipse 2024" cx="3.727" cy="3.727" r="3.727" transform="translate(1223.636 2065.127)" fill="#ac660c"/>
              </g>
              <g id="Group_2814" data-name="Group 2814">
                <circle id="Ellipse_2025" data-name="Ellipse 2025" cx="3.727" cy="3.727" r="3.727" transform="translate(1242.273 2065.127)" fill="#ac660c"/>
              </g>
              <g id="Group_2815" data-name="Group 2815">
                <circle id="Ellipse_2026" data-name="Ellipse 2026" cx="3.727" cy="3.727" r="3.727" transform="translate(1260.909 2065.127)" fill="#ac660c"/>
              </g>
              <g id="Group_2816" data-name="Group 2816">
                <circle id="Ellipse_2027" data-name="Ellipse 2027" cx="3.727" cy="3.727" r="3.727" transform="translate(1279.545 2065.127)" fill="#ac660c"/>
              </g>
              <g id="Group_2817" data-name="Group 2817">
                <circle id="Ellipse_2028" data-name="Ellipse 2028" cx="3.727" cy="3.727" r="3.727" transform="translate(1205 2082.273)" fill="#ac660c"/>
              </g>
              <g id="Group_2818" data-name="Group 2818">
                <circle id="Ellipse_2029" data-name="Ellipse 2029" cx="3.727" cy="3.727" r="3.727" transform="translate(1223.636 2082.273)" fill="#ac660c"/>
              </g>
              <g id="Group_2819" data-name="Group 2819">
                <circle id="Ellipse_2030" data-name="Ellipse 2030" cx="3.727" cy="3.727" r="3.727" transform="translate(1242.273 2082.273)" fill="#ac660c"/>
              </g>
              <g id="Group_2820" data-name="Group 2820">
                <circle id="Ellipse_2031" data-name="Ellipse 2031" cx="3.727" cy="3.727" r="3.727" transform="translate(1260.909 2082.273)" fill="#ac660c"/>
              </g>
              <g id="Group_2821" data-name="Group 2821">
                <circle id="Ellipse_2032" data-name="Ellipse 2032" cx="3.727" cy="3.727" r="3.727" transform="translate(1279.545 2082.273)" fill="#ac660c"/>
              </g>
            </g>
          </g>
          <g id="Group_2850" data-name="Group 2850">
            <g id="Group_2849" data-name="Group 2849">
              <g id="Group_2824" data-name="Group 2824">
                <circle id="Ellipse_2033" data-name="Ellipse 2033" cx="5" cy="5" r="5" transform="translate(1251 1817)" fill="#ec9a2c"/>
              </g>
              <g id="Group_2825" data-name="Group 2825">
                <circle id="Ellipse_2034" data-name="Ellipse 2034" cx="5" cy="5" r="5" transform="translate(1276 1817)" fill="#ec9a2c"/>
              </g>
              <g id="Group_2826" data-name="Group 2826">
                <circle id="Ellipse_2035" data-name="Ellipse 2035" cx="5" cy="5" r="5" transform="translate(1301 1817)" fill="#ec9a2c"/>
              </g>
              <g id="Group_2827" data-name="Group 2827">
                <circle id="Ellipse_2036" data-name="Ellipse 2036" cx="5" cy="5" r="5" transform="translate(1326 1817)" fill="#ec9a2c"/>
              </g>
              <g id="Group_2828" data-name="Group 2828">
                <circle id="Ellipse_2037" data-name="Ellipse 2037" cx="5" cy="5" r="5" transform="translate(1351 1817)" fill="#ec9a2c"/>
              </g>
              <g id="Group_2829" data-name="Group 2829">
                <circle id="Ellipse_2038" data-name="Ellipse 2038" cx="5" cy="5" r="5" transform="translate(1251 1840)" fill="#ec9a2c"/>
              </g>
              <g id="Group_2830" data-name="Group 2830">
                <circle id="Ellipse_2039" data-name="Ellipse 2039" cx="5" cy="5" r="5" transform="translate(1276 1840)" fill="#ec9a2c"/>
              </g>
              <g id="Group_2831" data-name="Group 2831">
                <circle id="Ellipse_2040" data-name="Ellipse 2040" cx="5" cy="5" r="5" transform="translate(1301 1840)" fill="#ec9a2c"/>
              </g>
              <g id="Group_2832" data-name="Group 2832">
                <circle id="Ellipse_2041" data-name="Ellipse 2041" cx="5" cy="5" r="5" transform="translate(1326 1840)" fill="#ec9a2c"/>
              </g>
              <g id="Group_2833" data-name="Group 2833">
                <circle id="Ellipse_2042" data-name="Ellipse 2042" cx="5" cy="5" r="5" transform="translate(1351 1840)" fill="#ec9a2c"/>
              </g>
              <g id="Group_2834" data-name="Group 2834">
                <circle id="Ellipse_2043" data-name="Ellipse 2043" cx="5" cy="5" r="5" transform="translate(1251 1863)" fill="#ec9a2c"/>
              </g>
              <g id="Group_2835" data-name="Group 2835">
                <circle id="Ellipse_2044" data-name="Ellipse 2044" cx="5" cy="5" r="5" transform="translate(1276 1863)" fill="#ec9a2c"/>
              </g>
              <g id="Group_2836" data-name="Group 2836">
                <circle id="Ellipse_2045" data-name="Ellipse 2045" cx="5" cy="5" r="5" transform="translate(1301 1863)" fill="#ec9a2c"/>
              </g>
              <g id="Group_2837" data-name="Group 2837">
                <circle id="Ellipse_2046" data-name="Ellipse 2046" cx="5" cy="5" r="5" transform="translate(1326 1863)" fill="#ec9a2c"/>
              </g>
              <g id="Group_2838" data-name="Group 2838">
                <circle id="Ellipse_2047" data-name="Ellipse 2047" cx="5" cy="5" r="5" transform="translate(1351 1863)" fill="#ec9a2c"/>
              </g>
              <g id="Group_2839" data-name="Group 2839">
                <circle id="Ellipse_2048" data-name="Ellipse 2048" cx="5" cy="5" r="5" transform="translate(1251 1886)" fill="#ec9a2c"/>
              </g>
              <g id="Group_2840" data-name="Group 2840">
                <circle id="Ellipse_2049" data-name="Ellipse 2049" cx="5" cy="5" r="5" transform="translate(1276 1886)" fill="#ec9a2c"/>
              </g>
              <g id="Group_2841" data-name="Group 2841">
                <circle id="Ellipse_2050" data-name="Ellipse 2050" cx="5" cy="5" r="5" transform="translate(1301 1886)" fill="#ec9a2c"/>
              </g>
              <g id="Group_2842" data-name="Group 2842">
                <circle id="Ellipse_2051" data-name="Ellipse 2051" cx="5" cy="5" r="5" transform="translate(1326 1886)" fill="#ec9a2c"/>
              </g>
              <g id="Group_2843" data-name="Group 2843">
                <circle id="Ellipse_2052" data-name="Ellipse 2052" cx="5" cy="5" r="5" transform="translate(1351 1886)" fill="#ec9a2c"/>
              </g>
              <g id="Group_2844" data-name="Group 2844">
                <circle id="Ellipse_2053" data-name="Ellipse 2053" cx="5" cy="5" r="5" transform="translate(1251 1909)" fill="#ec9a2c"/>
              </g>
              <g id="Group_2845" data-name="Group 2845">
                <circle id="Ellipse_2054" data-name="Ellipse 2054" cx="5" cy="5" r="5" transform="translate(1276 1909)" fill="#ec9a2c"/>
              </g>
              <g id="Group_2846" data-name="Group 2846">
                <circle id="Ellipse_2055" data-name="Ellipse 2055" cx="5" cy="5" r="5" transform="translate(1301 1909)" fill="#ec9a2c"/>
              </g>
              <g id="Group_2847" data-name="Group 2847">
                <circle id="Ellipse_2056" data-name="Ellipse 2056" cx="5" cy="5" r="5" transform="translate(1326 1909)" fill="#ec9a2c"/>
              </g>
              <g id="Group_2848" data-name="Group 2848">
                <circle id="Ellipse_2057" data-name="Ellipse 2057" cx="5" cy="5" r="5" transform="translate(1351 1909)" fill="#ec9a2c"/>
              </g>
            </g>
          </g>
          <g id="Group_2877" data-name="Group 2877">
            <g id="Group_2876" data-name="Group 2876">
              <g id="Group_2851" data-name="Group 2851">
                <circle id="Ellipse_2058" data-name="Ellipse 2058" cx="3.431" cy="3.431" r="3.431" transform="translate(70.51 1930)" fill="#cb790e"/>
              </g>
              <g id="Group_2852" data-name="Group 2852">
                <circle id="Ellipse_2059" data-name="Ellipse 2059" cx="3.431" cy="3.431" r="3.431" transform="translate(87.667 1930)" fill="#cb790e"/>
              </g>
              <g id="Group_2853" data-name="Group 2853">
                <circle id="Ellipse_2060" data-name="Ellipse 2060" cx="3.431" cy="3.431" r="3.431" transform="translate(104.824 1930)" fill="#cb790e"/>
              </g>
              <g id="Group_2854" data-name="Group 2854">
                <circle id="Ellipse_2061" data-name="Ellipse 2061" cx="3.431" cy="3.431" r="3.431" transform="translate(121.98 1930)" fill="#cb790e"/>
              </g>
              <g id="Group_2855" data-name="Group 2855">
                <circle id="Ellipse_2062" data-name="Ellipse 2062" cx="3.431" cy="3.431" r="3.431" transform="translate(139.137 1930)" fill="#cb790e"/>
              </g>
              <g id="Group_2856" data-name="Group 2856">
                <circle id="Ellipse_2063" data-name="Ellipse 2063" cx="3.431" cy="3.431" r="3.431" transform="translate(70.51 1945.784)" fill="#cb790e"/>
              </g>
              <g id="Group_2857" data-name="Group 2857">
                <circle id="Ellipse_2064" data-name="Ellipse 2064" cx="3.431" cy="3.431" r="3.431" transform="translate(87.667 1945.784)" fill="#cb790e"/>
              </g>
              <g id="Group_2858" data-name="Group 2858">
                <circle id="Ellipse_2065" data-name="Ellipse 2065" cx="3.431" cy="3.431" r="3.431" transform="translate(104.824 1945.784)" fill="#cb790e"/>
              </g>
              <g id="Group_2859" data-name="Group 2859">
                <circle id="Ellipse_2066" data-name="Ellipse 2066" cx="3.431" cy="3.431" r="3.431" transform="translate(121.98 1945.784)" fill="#cb790e"/>
              </g>
              <g id="Group_2860" data-name="Group 2860">
                <circle id="Ellipse_2067" data-name="Ellipse 2067" cx="3.431" cy="3.431" r="3.431" transform="translate(139.137 1945.784)" fill="#cb790e"/>
              </g>
              <g id="Group_2861" data-name="Group 2861">
                <circle id="Ellipse_2068" data-name="Ellipse 2068" cx="3.431" cy="3.431" r="3.431" transform="translate(70.51 1961.569)" fill="#cb790e"/>
              </g>
              <g id="Group_2862" data-name="Group 2862">
                <circle id="Ellipse_2069" data-name="Ellipse 2069" cx="3.431" cy="3.431" r="3.431" transform="translate(87.667 1961.569)" fill="#cb790e"/>
              </g>
              <g id="Group_2863" data-name="Group 2863">
                <circle id="Ellipse_2070" data-name="Ellipse 2070" cx="3.431" cy="3.431" r="3.431" transform="translate(104.824 1961.569)" fill="#cb790e"/>
              </g>
              <g id="Group_2864" data-name="Group 2864">
                <circle id="Ellipse_2071" data-name="Ellipse 2071" cx="3.431" cy="3.431" r="3.431" transform="translate(121.98 1961.569)" fill="#cb790e"/>
              </g>
              <g id="Group_2865" data-name="Group 2865">
                <circle id="Ellipse_2072" data-name="Ellipse 2072" cx="3.431" cy="3.431" r="3.431" transform="translate(139.137 1961.569)" fill="#cb790e"/>
              </g>
              <g id="Group_2866" data-name="Group 2866">
                <circle id="Ellipse_2073" data-name="Ellipse 2073" cx="3.431" cy="3.431" r="3.431" transform="translate(70.51 1977.353)" fill="#cb790e"/>
              </g>
              <g id="Group_2867" data-name="Group 2867">
                <circle id="Ellipse_2074" data-name="Ellipse 2074" cx="3.431" cy="3.431" r="3.431" transform="translate(87.667 1977.353)" fill="#cb790e"/>
              </g>
              <g id="Group_2868" data-name="Group 2868">
                <circle id="Ellipse_2075" data-name="Ellipse 2075" cx="3.431" cy="3.431" r="3.431" transform="translate(104.824 1977.353)" fill="#cb790e"/>
              </g>
              <g id="Group_2869" data-name="Group 2869">
                <circle id="Ellipse_2076" data-name="Ellipse 2076" cx="3.431" cy="3.431" r="3.431" transform="translate(121.98 1977.353)" fill="#cb790e"/>
              </g>
              <g id="Group_2870" data-name="Group 2870">
                <circle id="Ellipse_2077" data-name="Ellipse 2077" cx="3.431" cy="3.431" r="3.431" transform="translate(139.137 1977.353)" fill="#cb790e"/>
              </g>
              <g id="Group_2871" data-name="Group 2871">
                <circle id="Ellipse_2078" data-name="Ellipse 2078" cx="3.431" cy="3.431" r="3.431" transform="translate(70.51 1993.137)" fill="#cb790e"/>
              </g>
              <g id="Group_2872" data-name="Group 2872">
                <circle id="Ellipse_2079" data-name="Ellipse 2079" cx="3.431" cy="3.431" r="3.431" transform="translate(87.667 1993.137)" fill="#cb790e"/>
              </g>
              <g id="Group_2873" data-name="Group 2873">
                <circle id="Ellipse_2080" data-name="Ellipse 2080" cx="3.431" cy="3.431" r="3.431" transform="translate(104.824 1993.137)" fill="#cb790e"/>
              </g>
              <g id="Group_2874" data-name="Group 2874">
                <circle id="Ellipse_2081" data-name="Ellipse 2081" cx="3.431" cy="3.431" r="3.431" transform="translate(121.98 1993.137)" fill="#cb790e"/>
              </g>
              <g id="Group_2875" data-name="Group 2875">
                <circle id="Ellipse_2082" data-name="Ellipse 2082" cx="3.431" cy="3.431" r="3.431" transform="translate(139.137 1993.137)" fill="#cb790e"/>
              </g>
            </g>
          </g>
          <g id="Group_2884" data-name="Group 2884">
            <g id="Group_2883" data-name="Group 2883">
              <g id="Group_2878" data-name="Group 2878">
                <circle id="Ellipse_2083" data-name="Ellipse 2083" cx="5" cy="5" r="5" transform="translate(715.047 2007.346)" fill="#e3932b"/>
              </g>
              <g id="Group_2879" data-name="Group 2879">
                <circle id="Ellipse_2084" data-name="Ellipse 2084" cx="5" cy="5" r="5" transform="translate(709.523 2029.673)" fill="#e3932b"/>
              </g>
              <g id="Group_2880" data-name="Group 2880">
                <circle id="Ellipse_2085" data-name="Ellipse 2085" cx="5" cy="5" r="5" transform="translate(704 2052)" fill="#e3932b"/>
              </g>
              <g id="Group_2881" data-name="Group 2881">
                <circle id="Ellipse_2086" data-name="Ellipse 2086" cx="5" cy="5" r="5" transform="translate(698.477 2074.327)" fill="#e3932b"/>
              </g>
              <g id="Group_2882" data-name="Group 2882">
                <circle id="Ellipse_2087" data-name="Ellipse 2087" cx="5" cy="5" r="5" transform="translate(692.953 2096.654)" fill="#e3932b"/>
              </g>
            </g>
          </g>
          <g id="Group_2891" data-name="Group 2891">
            <g id="Group_2890" data-name="Group 2890">
              <g id="Group_2885" data-name="Group 2885">
                <circle id="Ellipse_2088" data-name="Ellipse 2088" cx="5" cy="5" r="5" transform="translate(252.164 1801.158)" fill="#e3932b"/>
              </g>
              <g id="Group_2886" data-name="Group 2886">
                <circle id="Ellipse_2089" data-name="Ellipse 2089" cx="5" cy="5" r="5" transform="translate(241.582 1821.579)" fill="#e3932b"/>
              </g>
              <g id="Group_2887" data-name="Group 2887">
                <circle id="Ellipse_2090" data-name="Ellipse 2090" cx="5" cy="5" r="5" transform="translate(231 1842)" fill="#e3932b"/>
              </g>
              <g id="Group_2888" data-name="Group 2888">
                <circle id="Ellipse_2091" data-name="Ellipse 2091" cx="5" cy="5" r="5" transform="translate(220.418 1862.421)" fill="#e3932b"/>
              </g>
              <g id="Group_2889" data-name="Group 2889">
                <circle id="Ellipse_2092" data-name="Ellipse 2092" cx="5" cy="5" r="5" transform="translate(209.836 1882.842)" fill="#e3932b"/>
              </g>
            </g>
          </g>
          <g id="Group_2918" data-name="Group 2918">
            <g id="Group_2917" data-name="Group 2917">
              <g id="Group_2892" data-name="Group 2892">
                <circle id="Ellipse_2093" data-name="Ellipse 2093" cx="3.471" cy="3.471" r="3.471" transform="translate(581.288 1792.084)" fill="#efb76d"/>
              </g>
              <g id="Group_2893" data-name="Group 2893">
                <circle id="Ellipse_2094" data-name="Ellipse 2094" cx="3.471" cy="3.471" r="3.471" transform="translate(597.671 1797.816)" fill="#efb76d"/>
              </g>
              <g id="Group_2894" data-name="Group 2894">
                <circle id="Ellipse_2095" data-name="Ellipse 2095" cx="3.471" cy="3.471" r="3.471" transform="translate(614.055 1803.548)" fill="#efb76d"/>
              </g>
              <g id="Group_2895" data-name="Group 2895">
                <circle id="Ellipse_2096" data-name="Ellipse 2096" cx="3.471" cy="3.471" r="3.471" transform="translate(630.438 1809.28)" fill="#efb76d"/>
              </g>
              <g id="Group_2896" data-name="Group 2896">
                <circle id="Ellipse_2097" data-name="Ellipse 2097" cx="3.471" cy="3.471" r="3.471" transform="translate(646.821 1815.011)" fill="#efb76d"/>
              </g>
              <g id="Group_2897" data-name="Group 2897">
                <circle id="Ellipse_2098" data-name="Ellipse 2098" cx="3.471" cy="3.471" r="3.471" transform="translate(576.015 1807.157)" fill="#efb76d"/>
              </g>
              <g id="Group_2898" data-name="Group 2898">
                <circle id="Ellipse_2099" data-name="Ellipse 2099" cx="3.471" cy="3.471" r="3.471" transform="translate(592.398 1812.889)" fill="#efb76d"/>
              </g>
              <g id="Group_2899" data-name="Group 2899">
                <circle id="Ellipse_2100" data-name="Ellipse 2100" cx="3.471" cy="3.471" r="3.471" transform="translate(608.781 1818.62)" fill="#efb76d"/>
              </g>
              <g id="Group_2900" data-name="Group 2900">
                <circle id="Ellipse_2101" data-name="Ellipse 2101" cx="3.471" cy="3.471" r="3.471" transform="translate(625.165 1824.352)" fill="#efb76d"/>
              </g>
              <g id="Group_2901" data-name="Group 2901">
                <circle id="Ellipse_2102" data-name="Ellipse 2102" cx="3.471" cy="3.471" r="3.471" transform="translate(641.548 1830.084)" fill="#efb76d"/>
              </g>
              <g id="Group_2902" data-name="Group 2902">
                <circle id="Ellipse_2103" data-name="Ellipse 2103" cx="3.471" cy="3.471" r="3.471" transform="translate(570.742 1822.23)" fill="#efb76d"/>
              </g>
              <g id="Group_2903" data-name="Group 2903">
                <circle id="Ellipse_2104" data-name="Ellipse 2104" cx="3.471" cy="3.471" r="3.471" transform="translate(587.125 1827.961)" fill="#efb76d"/>
              </g>
              <g id="Group_2904" data-name="Group 2904">
                <circle id="Ellipse_2105" data-name="Ellipse 2105" cx="3.471" cy="3.471" r="3.471" transform="translate(603.508 1833.693)" fill="#efb76d"/>
              </g>
              <g id="Group_2905" data-name="Group 2905">
                <circle id="Ellipse_2106" data-name="Ellipse 2106" cx="3.471" cy="3.471" r="3.471" transform="translate(619.892 1839.425)" fill="#efb76d"/>
              </g>
              <g id="Group_2906" data-name="Group 2906">
                <circle id="Ellipse_2107" data-name="Ellipse 2107" cx="3.471" cy="3.471" r="3.471" transform="translate(636.275 1845.156)" fill="#efb76d"/>
              </g>
              <g id="Group_2907" data-name="Group 2907">
                <circle id="Ellipse_2108" data-name="Ellipse 2108" cx="3.471" cy="3.471" r="3.471" transform="translate(565.469 1837.302)" fill="#efb76d"/>
              </g>
              <g id="Group_2908" data-name="Group 2908">
                <circle id="Ellipse_2109" data-name="Ellipse 2109" cx="3.471" cy="3.471" r="3.471" transform="translate(581.852 1843.034)" fill="#efb76d"/>
              </g>
              <g id="Group_2909" data-name="Group 2909">
                <circle id="Ellipse_2110" data-name="Ellipse 2110" cx="3.471" cy="3.471" r="3.471" transform="translate(598.235 1848.766)" fill="#efb76d"/>
              </g>
              <g id="Group_2910" data-name="Group 2910">
                <circle id="Ellipse_2111" data-name="Ellipse 2111" cx="3.471" cy="3.471" r="3.471" transform="translate(614.618 1854.497)" fill="#efb76d"/>
              </g>
              <g id="Group_2911" data-name="Group 2911">
                <circle id="Ellipse_2112" data-name="Ellipse 2112" cx="3.471" cy="3.471" r="3.471" transform="translate(631.002 1860.229)" fill="#efb76d"/>
              </g>
              <g id="Group_2912" data-name="Group 2912">
                <circle id="Ellipse_2113" data-name="Ellipse 2113" cx="3.471" cy="3.471" r="3.471" transform="translate(560.195 1852.375)" fill="#efb76d"/>
              </g>
              <g id="Group_2913" data-name="Group 2913">
                <circle id="Ellipse_2114" data-name="Ellipse 2114" cx="3.471" cy="3.471" r="3.471" transform="translate(576.579 1858.107)" fill="#efb76d"/>
              </g>
              <g id="Group_2914" data-name="Group 2914">
                <circle id="Ellipse_2115" data-name="Ellipse 2115" cx="3.471" cy="3.471" r="3.471" transform="translate(592.962 1863.838)" fill="#efb76d"/>
              </g>
              <g id="Group_2915" data-name="Group 2915">
                <circle id="Ellipse_2116" data-name="Ellipse 2116" cx="3.471" cy="3.471" r="3.471" transform="translate(609.345 1869.57)" fill="#efb76d"/>
              </g>
              <g id="Group_2916" data-name="Group 2916">
                <circle id="Ellipse_2117" data-name="Ellipse 2117" cx="3.471" cy="3.471" r="3.471" transform="translate(625.729 1875.302)" fill="#efb76d"/>
              </g>
            </g>
          </g>
          <circle id="Ellipse_2118" data-name="Ellipse 2118" cx="99.5" cy="99.5" r="99.5" transform="translate(169.5 1952.5)" fill="none" stroke="#e48810" stroke-miterlimit="10" stroke-width="1"/>
          <circle id="Ellipse_2119" data-name="Ellipse 2119" cx="69.5" cy="69.5" r="69.5" transform="translate(199.5 1982.5)" fill="none" stroke="#e48810" stroke-miterlimit="10" stroke-width="1"/>
          <path id="Path_2681" data-name="Path 2681" d="M1275,1853.1v187.8a7.641,7.641,0,0,1-7.893,7.365H98.893A7.641,7.641,0,0,1,91,2040.9V1853.1a7.641,7.641,0,0,1,7.893-7.365H1267.107A7.641,7.641,0,0,1,1275,1853.1Z" fill="none" stroke="#ec8d11" stroke-miterlimit="10" stroke-width="1"/>
          <path id="Path_2682" data-name="Path 2682" d="M280.271,1876.281l-11.611,25.53,36.513-12.626Z" fill="#e4942b"/>
        </g>
        <g id="Group_2925" data-name="Group 2925">
          <g id="Group_2920" data-name="Group 2920">
            <path id="Path_2683" data-name="Path 2683" d="M1234.674,1826.019a37.735,37.735,0,0,0-25.654,9.286c-6.05,5.3-12.192,13.968-11.01,22.408-.016,0-.03.007-.045.008a17.619,17.619,0,0,0,4.633,7.724,44.088,44.088,0,0,0,6.6-2.536,54.37,54.37,0,0,0,29.286-31.525C1239.482,1828.457,1237.677,1826.12,1234.674,1826.019Z" fill="#328230"/>
            <path id="Path_2684" data-name="Path 2684" d="M1242.78,1879.068a28.359,28.359,0,0,0-12.877-14.133,68.567,68.567,0,0,0-9.823-3.726c-3.819-1.318-7.471-2.731-11.547-2.882a2.578,2.578,0,0,0-.758.087,21.526,21.526,0,0,0-2.989-.7c-2.281-.348-4.85,1.6-4.426,4.1.766,4.524,3.686,8.074,6.83,11.25a38.668,38.668,0,0,0,9.426,6.869,39.344,39.344,0,0,0,22.986,4.263A3.829,3.829,0,0,0,1242.78,1879.068Z" fill="#70b535"/>
            <path id="Path_2685" data-name="Path 2685" d="M1209.844,1857.439c-.8-2.109-2.9-2.678-4.9-2.189-12.593,3.086-24.174,11.658-33.159,20.77-9.008,9.135-15.428,21.719-13.592,34.838.674,4.819,8.226,4.118,7.548-.727-1.608-11.5,4.455-21.889,12.347-29.741a87.757,87.757,0,0,1,13.476-10.741,51.309,51.309,0,0,1,16.088-7.313C1209.646,1861.848,1210.508,1859.181,1209.844,1857.439Z" fill="#2d1e07"/>
            <path id="Path_2686" data-name="Path 2686" d="M1247.477,1971.118c-6.493,32.117-34.76,54.19-83.688,54.19-15.015,0-27.943-2.079-38.8-5.919-31.485-11.041-45.593-36.64-42.617-68.233.2-2.087.441-4.132.748-6.144.4-2.8.915-5.537,1.522-8.2,5.1-22.639,16.977-40.2,33.7-51.231a72.123,72.123,0,0,1,7.674-4.439c1.787-.915,3.633-1.746,5.512-2.52a82.123,82.123,0,0,1,8.181-2.843,93.079,93.079,0,0,1,25.856-3.508c1.106,0,2.2.016,3.293.066a82.341,82.341,0,0,1,8.438.732c34.977,4.814,61.631,30.878,69.346,63.568q.887,3.741,1.422,7.591.5,3.429.707,6.925A77.861,77.861,0,0,1,1247.477,1971.118Z" fill="#fba71b"/>
            <path id="Path_2687" data-name="Path 2687" d="M1091.514,1957.808c-4.88,0-4.888,7.583,0,7.583S1096.4,1957.808,1091.514,1957.808Z" fill="#2d1e07"/>
            <path id="Path_2688" data-name="Path 2688" d="M1100.71,1947.845c-4.88,0-4.888,7.584,0,7.584S1105.6,1947.845,1100.71,1947.845Z" fill="#2d1e07"/>
            <path id="Path_2689" data-name="Path 2689" d="M1106.84,1967c-4.879,0-4.888,7.584,0,7.584S1111.728,1967,1106.84,1967Z" fill="#2d1e07"/>
            <path id="Path_2690" data-name="Path 2690" d="M1180.288,1946.7c-4.879,0-4.888,7.584,0,7.584S1185.176,1946.7,1180.288,1946.7Z" fill="#2d1e07"/>
            <path id="Path_2691" data-name="Path 2691" d="M1196.764,1960.115c-4.88,0-4.888,7.583,0,7.583S1201.652,1960.115,1196.764,1960.115Z" fill="#2d1e07"/>
            <path id="Path_2692" data-name="Path 2692" d="M1182.2,1965.1c-4.88,0-4.888,7.584,0,7.584S1187.092,1965.1,1182.2,1965.1Z" fill="#2d1e07"/>
            <circle id="Ellipse_2120" data-name="Ellipse 2120" cx="17.442" cy="17.442" r="17.442" transform="translate(1085.607 1946.145)" fill="#f9551c" opacity="0.41"/>
            <circle id="Ellipse_2121" data-name="Ellipse 2121" cx="17.442" cy="17.442" r="17.442" transform="translate(1169.079 1941.595)" fill="#f9551c" opacity="0.41"/>
            <path id="Path_2693" data-name="Path 2693" d="M1137.977,1896.761c-.607-2.263-2.757-3.942-5.224-4.626a9.686,9.686,0,0,0-6.9.839,12.276,12.276,0,0,0-4.26,4.06,4.08,4.08,0,0,0-.506,1.152c-.245.165-.484.335-.7.51a6.3,6.3,0,0,0-2.11,3.064,5.038,5.038,0,0,0,1.686,5.294,5.7,5.7,0,0,0,3.638,1.315c.041,0,.08-.011.121-.013s.052.019.079.024a8.213,8.213,0,0,0,4.454-.433c3.387-1.2,6.728-2.78,8.672-5.606A6.676,6.676,0,0,0,1137.977,1896.761Z" fill="#ffca85"/>
            <path id="Path_2694" data-name="Path 2694" d="M1139.213,1916.529a51.031,51.031,0,0,1-15.206-16.42,49.969,49.969,0,0,1-5.67-14.525,72.123,72.123,0,0,1,7.674-4.439,41.622,41.622,0,0,0,17.4,28.2C1147.793,1912.363,1143.636,1919.563,1139.213,1916.529Z" fill="#2d1e07"/>
            <path id="Path_2695" data-name="Path 2695" d="M1162.078,1902.33a66.024,66.024,0,0,1-6.366-7.008c-1.588-2.056-4.882-5.608-5.163-8.275-.554-5.267-8.874-5.324-8.313,0,.843,8,8.414,15.788,13.963,21.162C1160.045,1911.932,1165.931,1906.06,1162.078,1902.33Z" fill="#2d1e07"/>
            <path id="Path_2696" data-name="Path 2696" d="M1178.948,1900.422a85.42,85.42,0,0,1-11.78-16.052c-2.649-4.648-9.835-.464-7.179,4.2a94.9,94.9,0,0,0,13.08,17.735C1176.726,1910.222,1182.6,1904.334,1178.948,1900.422Z" fill="#2d1e07"/>
            <path id="Path_2697" data-name="Path 2697" d="M1193.322,1898.79a37.69,37.69,0,0,1-6.049-7.12,4.248,4.248,0,0,0-5.687-1.492,4.2,4.2,0,0,0-1.491,5.688,46.565,46.565,0,0,0,7.348,8.8,4.157,4.157,0,0,0,5.879-5.879Z" fill="#2d1e07"/>
            <path id="Path_2698" data-name="Path 2698" d="M1174.234,1928.2a8.527,8.527,0,0,0-7.62-3.994,4.644,4.644,0,0,0-3.147.644,8.686,8.686,0,0,0-5.442,5.96,9.016,9.016,0,0,0,16.378,6.716A8.965,8.965,0,0,0,1174.234,1928.2Z" fill="#2d1e07"/>
            <path id="Path_2699" data-name="Path 2699" d="M1123.519,1931.524a8.527,8.527,0,0,0-7.619-3.995,4.652,4.652,0,0,0-3.148.644,8.69,8.69,0,0,0-5.442,5.96,9.016,9.016,0,0,0,16.378,6.716A8.962,8.962,0,0,0,1123.519,1931.524Z" fill="#2d1e07"/>
            <path id="Path_2700" data-name="Path 2700" d="M1157.412,1952.436c-7.187,9.764-20.986,9.89-28.983,1.17-2.9-3.161-7.593,1.552-4.7,4.7,11.141,12.148,29.827,10.529,39.429-2.516C1165.695,1952.343,1159.925,1949.022,1157.412,1952.436Z" fill="#2d1e07"/>
            <path id="Path_2701" data-name="Path 2701" d="M1199,2005c-21,5-39.075-.472-50.925-6-19.115-8.918-23.26-28.839-38.075-56-2.708-4.965-10-13-23.485-13.23-.694,2.294-1.331,4.634-1.874,7.044-.608,2.661-1.123,5.4-1.522,8.2-.307,2.012-.548,4.057-.748,6.144-2.976,31.593,11.132,57.192,42.617,68.232,10.858,3.841,23.786,5.92,38.8,5.92,48.928,0,77.2-22.073,83.688-54.19a77.861,77.861,0,0,0,1.289-19.962c-.032-.521-.085-1.038-.126-1.558-.559.5-1.55.724-1.64,1.4C1245,1966,1233.1,1996.88,1199,2005Z" fill="#b40505" opacity="0.1"/>
          </g>
          <g id="Group_2924" data-name="Group 2924">
            <g id="Group_2921" data-name="Group 2921">
              <path id="Path_2702" data-name="Path 2702" d="M1060.965,1898.878a23.671,23.671,0,0,0-5.375,16.249c.266,5.038,2.157,11.428,6.776,14.12-.006.008-.008.017-.014.025a11.059,11.059,0,0,0,5.6.713,27.578,27.578,0,0,0,1.308-4.236,34.094,34.094,0,0,0-4.179-26.666A2.422,2.422,0,0,0,1060.965,1898.878Z" fill="#328230"/>
              <path id="Path_2703" data-name="Path 2703" d="M1091.315,1914.964a17.8,17.8,0,0,0-11.962.865,43.114,43.114,0,0,0-5.647,3.4,24.94,24.94,0,0,0-5.9,4.574,1.623,1.623,0,0,0-.252.408,13.529,13.529,0,0,0-1.5,1.2,2.4,2.4,0,0,0,.3,3.772c2.527,1.377,5.41,1.315,8.195,1a24.26,24.26,0,0,0,7.043-1.981,24.687,24.687,0,0,0,11.018-9.678A2.4,2.4,0,0,0,1091.315,1914.964Z" fill="#70b535"/>
              <path id="Path_2704" data-name="Path 2704" d="M999.242,2019.533c5.363,7.027,13.078,12.567,23.177,16.109,8.164,2.885,17.892,4.448,29.182,4.448,30.716,0,50.594-11.569,59.176-29.432C1079.443,2030.525,1035.931,2028.761,999.242,2019.533Z" fill="#a2b552"/>
              <path id="Path_2705" data-name="Path 2705" d="M1115.518,1984.32q-.148-2.631-.523-5.212-.413-2.894-1.073-5.712a62.457,62.457,0,0,0-51.1-47.655c-.35-.059-.707-.108-1.056-.158a63.515,63.515,0,0,0-6.344-.549c-.316-.017-.632-.025-.948-.033-.507-.017-1.014-.017-1.529-.017a74.354,74.354,0,0,0-11.54.881c-.075.009-.158.025-.233.042a67.168,67.168,0,0,0-7.682,1.712c-.091.026-.183.05-.274.084s-.158.05-.241.074c-1.938.582-3.808,1.239-5.637,1.987-17.792,7.267-30.479,22.548-35.26,43.765-.457,2-.848,4.057-1.147,6.169-.233,1.513-.416,3.051-.565,4.622-1.283,13.627,1.67,25.766,8.881,35.213,36.689,9.228,80.2,10.992,111.535-8.875a48.141,48.141,0,0,0,3.777-11.323A58.527,58.527,0,0,0,1115.518,1984.32Z" fill="#fba71b"/>
              <path id="Path_2706" data-name="Path 2706" d="M1003.763,1999.71c-4.88,0-4.888,7.584,0,7.584S1008.651,1999.71,1003.763,1999.71Z" fill="#2d1e07"/>
              <path id="Path_2707" data-name="Path 2707" d="M1009.633,1993.074c-4.879,0-4.887,7.583,0,7.583S1014.521,1993.074,1009.633,1993.074Z" fill="#2d1e07"/>
              <path id="Path_2708" data-name="Path 2708" d="M1012.438,2003.087c-4.879,0-4.888,7.583,0,7.583S1017.326,2003.087,1012.438,2003.087Z" fill="#2d1e07"/>
              <path id="Path_2709" data-name="Path 2709" d="M1092.537,1987.776c-4.879,0-4.887,7.583,0,7.583S1097.425,1987.776,1092.537,1987.776Z" fill="#2d1e07"/>
              <path id="Path_2710" data-name="Path 2710" d="M1103.194,1995.366c-4.88,0-4.888,7.584,0,7.584S1108.081,1995.366,1103.194,1995.366Z" fill="#2d1e07"/>
              <path id="Path_2711" data-name="Path 2711" d="M1092.79,1998.685c-4.879,0-4.887,7.583,0,7.583S1097.678,1998.685,1092.79,1998.685Z" fill="#2d1e07"/>
              <circle id="Ellipse_2122" data-name="Ellipse 2122" cx="13.872" cy="13.872" r="13.872" transform="translate(995.605 1988.292)" fill="#f9551c" opacity="0.41"/>
              <circle id="Ellipse_2123" data-name="Ellipse 2123" cx="13.872" cy="13.872" r="13.872" transform="translate(1082.07 1984.966)" fill="#f9551c" opacity="0.41"/>
              <path id="Path_2712" data-name="Path 2712" d="M1028.02,1948.592a5.523,5.523,0,0,0-4.028-3.566,7.466,7.466,0,0,0-5.32.646,9.475,9.475,0,0,0-3.284,3.131,3.107,3.107,0,0,0-.39.888c-.189.127-.374.258-.542.392a4.857,4.857,0,0,0-1.626,2.363,3.884,3.884,0,0,0,1.3,4.081,4.4,4.4,0,0,0,2.8,1.014c.032,0,.061-.008.093-.01s.04.014.061.019a6.331,6.331,0,0,0,3.434-.335c2.611-.923,5.187-2.143,6.685-4.321A5.144,5.144,0,0,0,1028.02,1948.592Z" fill="#ffca85"/>
              <path id="Path_2713" data-name="Path 2713" d="M1051.46,1950.948a51,51,0,0,1-15.206-16.42,48.624,48.624,0,0,1-3.035-6.119c-.083-.208-.175-.415-.249-.632.083-.024.158-.05.241-.074s.183-.058.274-.084a67.168,67.168,0,0,1,7.682-1.712,40.989,40.989,0,0,0,14.491,17.858C1060.04,1946.783,1055.883,1953.983,1051.46,1950.948Z" fill="#2d1e07"/>
              <path id="Path_2714" data-name="Path 2714" d="M1068.445,1946.783c-5.545-5.371-13.119-13.153-13.959-21.159a3.21,3.21,0,0,1-.017-.623c.316.008.632.016.948.033a63.515,63.515,0,0,1,6.344.549c.349.05.706.1,1.056.158.365,2.652,3.583,6.135,5.146,8.156a65.219,65.219,0,0,0,6.368,7.008C1078.181,1944.638,1072.294,1950.508,1068.445,1946.783Z" fill="#2d1e07"/>
              <path id="Path_2715" data-name="Path 2715" d="M1035.943,1969.6c-1.36-3.979-4.756-6.87-8.86-6.76-4.082-.746-8.205,2.394-10.18,6.056-2.535,4.7-3.583,10.315-.439,14.451,3.45,4.538,12.339,4.429,16.339.943C1037.005,1980.623,1037.676,1974.667,1035.943,1969.6Z" fill="#2d1e07"/>
              <path id="Path_2716" data-name="Path 2716" d="M1086.425,1967.7c-2.038-3.509-8.238-7.884-13.91-5.327s-5.334,9.363-4.965,12.717c.938,8.524,7.214,14.309,14.8,10.81C1089.386,1982.657,1091.162,1975.851,1086.425,1967.7Z" fill="#2d1e07"/>
              <path id="Path_2717" data-name="Path 2717" d="M1031.569,1967.4a3.831,3.831,0,0,0-1.521-2.083c-.036-.035-.065-.075-.1-.108a3.753,3.753,0,0,0-3.622-.753,3.52,3.52,0,0,0-2.258,3.734,4.367,4.367,0,0,0,2.218,3.415,3.906,3.906,0,0,0,3.821-.226A3.547,3.547,0,0,0,1031.569,1967.4Z" fill="#fff"/>
              <path id="Path_2718" data-name="Path 2718" d="M1023.927,1978.368a3.642,3.642,0,0,0-1.454-2.5,2.641,2.641,0,0,0-2.072-.526c-.707.127-2.871.564-1.912,4.137a4.761,4.761,0,0,0,1.189,1.75,2.52,2.52,0,0,0,3.374-.143A3.472,3.472,0,0,0,1023.927,1978.368Z" fill="#fff"/>
              <path id="Path_2719" data-name="Path 2719" d="M1033.981,1979.261a1.872,1.872,0,0,0-.325-.883,1.774,1.774,0,0,0-.649-.655,1.726,1.726,0,0,0-.856-.389l-.637-.036a2.357,2.357,0,0,0-1.153.425l-.463.423a2.58,2.58,0,0,0-.563,1.171l-.108.465a1.953,1.953,0,0,0,.013.982,1.89,1.89,0,0,0,.326.883,1.774,1.774,0,0,0,.649.655,1.719,1.719,0,0,0,.856.389l.637.035a2.358,2.358,0,0,0,1.153-.424l.463-.423a2.584,2.584,0,0,0,.563-1.171l.108-.465A1.943,1.943,0,0,0,1033.981,1979.261Z" fill="#fff"/>
              <path id="Path_2720" data-name="Path 2720" d="M1080.439,1966.208c-.009-.023-.013-.046-.022-.068a4.786,4.786,0,0,0-2.967-2.418,2.678,2.678,0,0,0-1.126-.127,3.744,3.744,0,0,0-1.108.052,3.6,3.6,0,0,0-3.014,3.679,4.053,4.053,0,0,0,2.692,3.465,6.385,6.385,0,0,0,1.033.359,2.786,2.786,0,0,0,.293.133,3.655,3.655,0,0,0,4.508-2.191A3.289,3.289,0,0,0,1080.439,1966.208Z" fill="#fff"/>
              <path id="Path_2721" data-name="Path 2721" d="M1077.577,1979.868a3.345,3.345,0,0,0-1.476-2.18,3.047,3.047,0,0,0-3.693.123,2.959,2.959,0,0,0-.415,3.77,5.277,5.277,0,0,0,1.975,2.1,2.658,2.658,0,0,0,3.609-3.818Z" fill="#fff"/>
              <path id="Path_2722" data-name="Path 2722" d="M1086.926,1976.115a1.715,1.715,0,0,0-.658-.622l-.573-.251a2.714,2.714,0,0,0-1.314-.056l-.644.212a2.607,2.607,0,0,0-.979.8c-.043.059-.086.118-.13.176a1.716,1.716,0,0,0-.367.828,1.9,1.9,0,0,0,.348,1.736,1.71,1.71,0,0,0,.659.622l.572.252a2.717,2.717,0,0,0,1.315.056l.644-.213a2.587,2.587,0,0,0,.978-.8c.044-.058.087-.117.13-.175a1.708,1.708,0,0,0,.367-.828,1.908,1.908,0,0,0-.348-1.737Z" fill="#fff"/>
            </g>
            <path id="Path_2723" data-name="Path 2723" d="M1142.466,1988.186h-11.123a16.494,16.494,0,0,0-16.142,12.835l-2.224,9.613H991.268a8.075,8.075,0,0,0-7.869,9.891l4.74,20.526.13.517a25.183,25.183,0,0,0,24.4,18.949h88.768l-.192.832h-91.835a3.325,3.325,0,1,0,0,6.651h97.122l15.152-65.48a9.872,9.872,0,0,1,9.661-7.683h11.123a3.326,3.326,0,1,0,0-6.651Zm-147.543,52.439c-.068-.227-.145-.451-.2-.681l-1.8-7.775q7.375-.273,14.75-.492,1.173,4.2,2.312,8.413Q1002.455,2040.364,994.923,2040.625Zm94.024-3.345q-6.459.225-12.911.457c-.109-2.3-.2-4.614-.291-6.925q6.508.024,13.028.083Q1088.872,2034.087,1088.947,2037.28Zm-.416-13.045c-4.339-.033-8.679-.066-13.019-.074-.067-2.292-.113-4.584-.163-6.876h12.889Q1088.4,2020.761,1088.531,2024.235Zm-19.138,13.744-13.386.473c-.091-1.122-.182-2.244-.282-3.367q-.175-2.119-.366-4.24c4.581-.033,9.154-.041,13.735-.05C1069.185,2033.19,1069.276,2035.584,1069.393,2037.979Zm-.532-13.835q-7.033,0-14.067.05l-.595-6.909h14.5C1068.748,2019.572,1068.794,2021.86,1068.861,2024.144Zm-19.48,14.549q-5.637.2-11.282.4l-1.33-8.047q5.974-.089,11.947-.15.249,2.906.5,5.811C1049.273,2037.363,1049.331,2038.028,1049.381,2038.693Zm-1.239-14.441q-6.235.063-12.479.158-.586-3.562-1.184-7.125h13.067Q1047.844,2020.768,1048.142,2024.252Zm-19.163.274q-8.156.162-16.3.375-1.084-3.812-2.187-7.616h17.289Q1028.376,2020.907,1028.979,2024.526Zm1.1,6.635c.449,2.719.907,5.446,1.356,8.164l-14.633.524q-1.11-4.178-2.27-8.347Q1022.3,2031.3,1030.076,2031.161Zm-11.581,15.281,14.034-.5,1.318,7.923h-13.581Q1019.413,2050.149,1018.495,2046.442Zm20.7-.74q5.375-.187,10.749-.382.369,4.272.777,8.546h-10.167Q1039.873,2049.785,1039.2,2045.7Zm17.367-.615,13.17-.474q.257,4.623.574,9.253h-12.951Q1056.936,2049.482,1056.564,2045.087Zm19.8-.707q6.373-.225,12.729-.457.094,4.971.142,9.943h-12.28Q1076.639,2049.125,1076.368,2044.38Zm19.38-.69q4.1-.15,8.209-.293l-2.416,10.469h-5.649Q1095.845,2048.781,1095.748,2043.69Zm-.15-6.643c-.058-2.028-.108-4.057-.174-6.086q5.681.067,11.361.18l-1.281,5.548Q1100.551,2036.866,1095.6,2037.047Zm12.716-12.533q-6.562-.123-13.131-.2c-.091-2.341-.2-4.683-.3-7.025h15.1Zm-118.161-6.691a1.4,1.4,0,0,1,1.115-.538h12.3l2.238,7.8q-7.209.224-14.412.5l-1.516-6.551A1.4,1.4,0,0,1,990.153,2017.823Zm8.249,29.332q6.647-.235,13.292-.472.912,3.582,1.752,7.183h-.779A18.444,18.444,0,0,1,998.4,2047.155Z" fill="#8f6a44"/>
            <g id="Group_2923" data-name="Group 2923">
              <path id="Path_2724" data-name="Path 2724" d="M1054.015,2019.779c-17.362-.158-25.676-5.489-24.014-16.691a17.723,17.723,0,0,1,6.93-12.079,6.544,6.544,0,0,1,6.179-.8,31.492,31.492,0,0,0,20.541-.07,6.494,6.494,0,0,1,6.121.726c3.616,2.63,6.012,6.592,6.787,12.224C1078.222,2015.139,1071.377,2019.937,1054.015,2019.779Z" fill="#548969"/>
              <path id="Path_2725" data-name="Path 2725" d="M1057.582,2013.459h-8.6a7.338,7.338,0,0,1-7.338-7.338h0c0-4.053,4.049-9,11.639-9s11.64,4.948,11.64,9h0A7.338,7.338,0,0,1,1057.582,2013.459Z" fill="#79bc94"/>
              <path id="Path_2726" data-name="Path 2726" d="M1036.423,1995.568s2.724-5.045,6.049-3.383-2.052,8.01-4.351,6.5S1036.423,1995.568,1036.423,1995.568Z" fill="#66a381"/>
              <path id="Path_2727" data-name="Path 2727" d="M1070.063,1995.568s-2.724-5.045-6.05-3.383,2.052,8.01,4.352,6.5S1070.063,1995.568,1070.063,1995.568Z" fill="#66a381"/>
              <path id="Path_2728" data-name="Path 2728" d="M1048.292,2004.656v4.157s-16.616,17.989,5.625,19.02c20.148.934,10.726-18.188,3.52-19.851l.832-3.326s12.471,2.494,14.134,14.965c1.525,11.443-5.82,16.787-17.46,16.787s-23.361-6.979-20.272-17.623S1048.292,2004.656,1048.292,2004.656Z" fill="#fff2cf"/>
              <path id="Path_2729" data-name="Path 2729" d="M1048.442,2003.151s-2.927,5.118.956,6.221,9.791.37,9.7-1.39,0-4.988-2.494-5.82A10.215,10.215,0,0,0,1048.442,2003.151Z" fill="#ffea94"/>
              <g id="Group_2922" data-name="Group 2922">
                <path id="Path_2730" data-name="Path 2730" d="M999.436,1992.351q-1.844-1.593-3.675-3.2c-2.5-2.18-5.08-4.435-7.669-6.594-3.382-2.821-6.425-4.844-10.286-5.549a3.852,3.852,0,0,0-3.717,1.311,4.22,4.22,0,0,0-.842,4,3.23,3.23,0,0,0,2.61,2.083c3.442.629,5.915,2.769,8.534,5.034l.451.39q3.081,2.656,6.158,5.318l3.078,2.662a3.8,3.8,0,0,0,3.815.754,4.232,4.232,0,0,0,2.749-3.043A3.284,3.284,0,0,0,999.436,1992.351Z" fill="#2d1e07"/>
                <path id="Path_2731" data-name="Path 2731" d="M1125.634,1971.113a4.126,4.126,0,0,0-2.6-3.1,3.983,3.983,0,0,0-4.039.551,60.442,60.442,0,0,0-15.589,18.154,3.593,3.593,0,0,0-.309,3.069,4.2,4.2,0,0,0,3.839,2.661,3.6,3.6,0,0,0,.7-.068,3.508,3.508,0,0,0,2.389-1.816,55.138,55.138,0,0,1,14.291-16.507A3.128,3.128,0,0,0,1125.634,1971.113Z" fill="#2d1e07"/>
                <path id="Path_2732" data-name="Path 2732" d="M1079.407,2001.564a27.113,27.113,0,0,1,.044-3.422l.025-.334a3.42,3.42,0,0,1,.139-.85,1.645,1.645,0,0,0,.114-.376c.023-.044.047-.087.073-.13l.078-.082a2.48,2.48,0,0,0-.074-3.618,2.451,2.451,0,0,0-3.577-.024c-2.195,2.223-2.078,5.905-2,8.341a29.81,29.81,0,0,0,1.544,8.59,2.652,2.652,0,0,0,2.488,1.866,2.6,2.6,0,0,0,.676-.091,2.684,2.684,0,0,0,1.609-1.323,2.358,2.358,0,0,0,.183-1.877A24.652,24.652,0,0,1,1079.407,2001.564Z" fill="#2d1e07"/>
                <path id="Path_2733" data-name="Path 2733" d="M1027.294,1991.7a2.761,2.761,0,0,0-1.238,1.779,2.227,2.227,0,0,0,.34,1.79,11.88,11.88,0,0,1,.485,13.36,2.306,2.306,0,0,0-.145,2.381,2.847,2.847,0,0,0,2.352,1.453c.035,0,.069,0,.1,0a2.475,2.475,0,0,0,2.124-1.2,17.036,17.036,0,0,0-.519-18.675A2.622,2.622,0,0,0,1027.294,1991.7Z" fill="#2d1e07"/>
              </g>
            </g>
            <rect id="Rectangle_835" data-name="Rectangle 835" width="27.436" height="14.965" rx="5.096" transform="translate(1136.611 1984.029)" fill="#d63232"/>
            <path id="Path_2734" data-name="Path 2734" d="M984.5,1923.338l.267,6.974a12.555,12.555,0,0,1-11.5,12.993h0a18.826,18.826,0,0,1,14.492,12.568l2.457,7.372-.343-6.166a14.235,14.235,0,0,1,10.8-14.608h0a16.9,16.9,0,0,1-14.985-13.406Z" fill="#f4cc4d"/>
            <path id="Path_2735" data-name="Path 2735" d="M1098.142,1963.8l1.407-5.611c1.354-5.4,6.074-8.987,10.712-8.143h0c-4.278-2.283-6.925-7.193-6.906-12.81l.023-6.349-1.173,4.981c-1.3,5.519-5.755,9.537-10.607,9.566h0c4.831,1.974,7.691,7.481,7.049,13.572Z" fill="#f4cc4d"/>
            <path id="Path_2736" data-name="Path 2736" d="M1116.658,1947.448l.392,4.318a7.724,7.724,0,0,1-3.718,7.322h0a7.112,7.112,0,0,1,5.4,4.883l2.079,6.756-.547-7.1a5.532,5.532,0,0,1,3.041-5.37h0a8.991,8.991,0,0,1-5.335-5.982Z" fill="#f4cc4d"/>
            <path id="Path_2737" data-name="Path 2737" d="M964.133,1956.315l2.411,3.6a7.721,7.721,0,0,1,.24,8.208h0a7.112,7.112,0,0,1,7.082,1.7l5.059,4.937-3.879-5.974a5.529,5.529,0,0,1,.1-6.17h0a8.989,8.989,0,0,1-7.548-2.7Z" fill="#f4cc4d"/>
          </g>
          <path id="Path_2738" data-name="Path 2738" d="M1199.905,1962.777a3.675,3.675,0,0,0-5.361-.112,64.982,64.982,0,0,1-22.019,14.518,69.729,69.729,0,0,1-8.25,2.477c-1.132.29-2.268.581-3.408.9-3.878,1.076-4.584,4.157-5.333,7.418l-.191.828a3.782,3.782,0,0,0,2.975,4.646,4.223,4.223,0,0,0,.968.113,3.39,3.39,0,0,0,3.443-2.76c.058-.246.1-.534.152-.836a5.365,5.365,0,0,1,.4-1.562l.125-.223-.108-.233a1.557,1.557,0,0,1-.061-.146c.038,0,.083,0,.139.01l.078.01.077-.014c.451-.087.9-.184,1.342-.288,1.763-.4,3.538-.874,5.276-1.415a74.582,74.582,0,0,0,10.924-4.4,73.327,73.327,0,0,0,18.881-13.625,3.534,3.534,0,0,0,1.128-2.808A3.966,3.966,0,0,0,1199.905,1962.777Z" fill="#2d1e07"/>
        </g>
      </g>
    </g>
    <g id="Group_2930" data-name="Group 2930">
      <g id="Group_2928" data-name="Group 2928">
        <path id="Path_2739" data-name="Path 2739" d="M590.144,1933.485a2.963,2.963,0,0,0,1.542.651l18.982-.119,1.1-.551.555-1.166a3,3,0,0,0-.537-2.072l-1.116-.559-16.952-.119a6.4,6.4,0,0,0-3.572.785l-.556,1.113A2.687,2.687,0,0,0,590.144,1933.485Z" fill="#bc6139"/>
        <path id="Path_2740" data-name="Path 2740" d="M592.712,1922.078a2.6,2.6,0,0,0,.522,1.936,23.154,23.154,0,0,0,5.754,1.173,23.546,23.546,0,0,1,5.883,1.2,2.6,2.6,0,0,0,1.96-.529l.564-1.131a3.011,3.011,0,0,0-.529-2.061,28.036,28.036,0,0,0-5.4-1.349c-1.919-.283-3.851-.587-5.74-.9a3.1,3.1,0,0,0-2.452.535Z" fill="#bc6139"/>
        <path id="Path_2741" data-name="Path 2741" d="M638.9,1974.8a4.071,4.071,0,0,0,1.98-.761,69.237,69.237,0,0,0,2.556-11.766c.516-4.038.658-14.75.419-31.837a2.617,2.617,0,0,0-.52-2,16.677,16.677,0,0,0-5.647-.931l-15.732.122.107-.275a48.943,48.943,0,0,0,1.8-5.5,3,3,0,0,0-.54-2.074l-1.125-.562a2.564,2.564,0,0,0-1.931.519,41.62,41.62,0,0,1-3.664,8.722,94.974,94.974,0,0,1-5.238,8.278l-.567,1.141a2.992,2.992,0,0,0,.537,2.07l1.125.562a3.335,3.335,0,0,0,2.008-.46l.3-.165v1.9l-.241,19.823a5.03,5.03,0,0,0,.792,3.168,2.858,2.858,0,0,0,1.892.654h10.691a3.689,3.689,0,0,0,1.686-.684l1.138-1.139a25.372,25.372,0,0,0,.7-5.965c0-2.123.081-7.3.24-15.381a3.911,3.911,0,0,0-.534-3.084l-1.114-.557h-9.925c-1.428.081-2.916.242-4.413.478l-.433.068.232-.371c.8-1.279,1.5-2.468,2.1-3.535s1.222-2.162,1.866-3.248l.057-.1h19.951l.005.2c.319,14.878.3,24.072-.06,27.325s-.866,6.479-1.505,9.6l-.055.263-1.762-.949a2.563,2.563,0,0,0-1.943.531l-.565,1.131a2.693,2.693,0,0,0,.675,2.095A9.021,9.021,0,0,0,638.9,1974.8Zm-11.891-13.714h-8.2v-7.611l8.456.126Zm-8.078-18.056,8.321-.126.128,6.413-8.577-.126Z" fill="#bc6139"/>
        <path id="Path_2742" data-name="Path 2742" d="M602.883,1938.8c-1.372.033-4.4-.061-9-.3l-1.094.548-.554,1.108a2.688,2.688,0,0,0,.65,2.066l1.127.563,8.568.361a5.988,5.988,0,0,0,4.023-.664l.556-1.115a2.579,2.579,0,0,0-.525-1.941A9.539,9.539,0,0,0,602.883,1938.8Z" fill="#bc6139"/>
        <path id="Path_2743" data-name="Path 2743" d="M606.825,1946.669l-10.7.12a6.176,6.176,0,0,0-3.335.667l-.555,1.112a2.59,2.59,0,0,0,.557,1.976,3,3,0,0,0,1.538.651c5.855-.241,9.415-.321,10.577-.24a5.206,5.206,0,0,0,3.017-.665l.558-1.113a2.581,2.581,0,0,0-.532-1.947Z" fill="#bc6139"/>
        <path id="Path_2744" data-name="Path 2744" d="M609.26,1956.848a18.347,18.347,0,0,0-5.482-.808c-1.978,0-3.955-.081-5.873-.241h-.053c-1.078,0-2.234-.02-3.421-.059a4.381,4.381,0,0,0-2.99.975,3,3,0,0,0-.649,1.552c.16,2.437.281,4.975.362,7.507a30.854,30.854,0,0,0,1.057,7.19,3.013,3.013,0,0,0,1.531.638l10.495.478c3.469.151,4.563-.453,4.864-.981a4.113,4.113,0,0,0,.815-2.083v-10.972A5.7,5.7,0,0,0,609.26,1956.848Zm-3.63,12.969-.221-.023c-1.513-.158-3.095-.279-4.7-.359s-3.235-.12-4.826-.12h-.19l-.5-9.238,10.444.375Z" fill="#bc6139"/>
      </g>
      <g id="Group_2929" data-name="Group 2929">
        <path id="Path_2745" data-name="Path 2745" d="M708.928,1970.941a60.691,60.691,0,0,0-7.116-4.634,3.134,3.134,0,0,0-2.136.537l-.562,1.125a2.6,2.6,0,0,0,.538,1.955l7.321,4.762a2.559,2.559,0,0,0,1.936-.531l.565-1.131A3.015,3.015,0,0,0,708.928,1970.941Z" fill="#bc6139"/>
        <path id="Path_2746" data-name="Path 2746" d="M681.858,1973.838a3.728,3.728,0,0,0,1.687-.682l4.523-3.333.562-1.124a3,3,0,0,0-.537-2.07l-1.127-.564a3.9,3.9,0,0,0-3.058.8l-3.452,3.094-.685,1.254a2.6,2.6,0,0,0,.557,1.974A3.005,3.005,0,0,0,681.858,1973.838Z" fill="#bc6139"/>
        <path id="Path_2747" data-name="Path 2747" d="M712.129,1930.271a1.375,1.375,0,0,0-1.326-.127l-8.428.253.134-3.89h5.478a3.715,3.715,0,0,0,1.647-.655l.56-1.122a2.575,2.575,0,0,0-.53-1.947l-1.122-.561c-12.541.081-20.2.182-22.771.3a52.789,52.789,0,0,0-7.5.879l-.539,1.079a2.989,2.989,0,0,0,.538,2.069l1.121.561a23.645,23.645,0,0,0,3.712-.062c1.247-.12,3.157-.219,5.839-.3l.213-.005-.134,3.768-10.762.122a1.958,1.958,0,0,0-.407-.049.755.755,0,0,0-.54.184c-.358.327-.461,1.137-.3,2.341-.077,3.446-.118,5.854-.118,6.994,0,1.012.432,1.482,1.361,1.482,1.033,0,4.062-.081,9-.24h23.133a1.872,1.872,0,0,0,1.6-.363,1.812,1.812,0,0,0,.243-1.566l.118-6.645C712.6,1931.464,712.52,1930.635,712.129,1930.271Zm-23.223,7.985-7.482.127-.132-4.6,7.614-.127Zm4.532-11.749h4.726l-.134,3.878-4.725.133Zm-.247,11.753v-4.6l4.834-.132.263,4.73Zm14.756,0h-5.314l-.262-4.721,5.576-.129Z" fill="#bc6139"/>
        <path id="Path_2748" data-name="Path 2748" d="M683.553,1964.469c14.464,0,22.185-.019,22.953-.059.664-.034,1.1-.9,1.282-2.586-.2-10.6-.3-16.4-.3-17.217,0-.667-.843-1.024-2.508-1.061l-21.742-.3c-1.445,0-2.185.744-2.259,2.273.238,11.22.41,17.244.507,17.89C681.569,1963.964,682.265,1964.322,683.553,1964.469Zm19.95-3.381-17.992-.246-.136-3.278.207,0,17.921-.121Zm-18.24-14.7,17.367.246.431,2.443-17.8-.124Zm0,5.649h.2l17.786.122.146,2.2-.212,0-17.921.121Z" fill="#bc6139"/>
        <path id="Path_2749" data-name="Path 2749" d="M671.643,1921.7l-1.131-.566a2.777,2.777,0,0,0-2.118.642,105.748,105.748,0,0,1-5.759,13.16,91.191,91.191,0,0,0-5.62,13.233,4.622,4.622,0,0,0,.657,1.868l1.117.558a2.573,2.573,0,0,0,1.941-.527l2.752-6.331.016.924c.247,15.212.381,23.076.421,24.746a14.865,14.865,0,0,0,.869,4.751,3.026,3.026,0,0,0,1.516.639,3.868,3.868,0,0,0,1.763-.654l.556-1.112-.961-38.381.022-.044c.893-1.83,1.73-3.627,2.489-5.34a47.56,47.56,0,0,0,2-5.383A2.565,2.565,0,0,0,671.643,1921.7Z" fill="#bc6139"/>
      </g>
      <path id="Path_2750" data-name="Path 2750" d="M775.932,1966.3a2.58,2.58,0,0,0-.537-1.952l-1.366-.8-17.613-.363-.262-4.9,10.366.183c1.875.11,2.852-.231,2.921-1.018.079-.924.14-2.153.179-3.652.041-1.538.142-3.783.3-6.672s.33-5.208.511-6.859c.167-1.518-.107-2.375-.811-2.547-.8-.2-5.307-.376-13.381-.535l-.187,0-.258-5.985.212,0,14.116.24a11.791,11.791,0,0,0,5.737-.678l.551-1.1a2.581,2.581,0,0,0-.524-1.938,11.079,11.079,0,0,0-4.08-.629c-1.533.042-6.74-.018-15.927-.18l-.228,0,.033-.226a6,6,0,0,0-.664-4.023l-1.114-.557a2.982,2.982,0,0,0-2.07.536l-.556,1.113.126,3.04-20.4.121-1.1.549-.553,1.108a2.594,2.594,0,0,0,.555,1.977,3.013,3.013,0,0,0,1.555.653l20.05-.123.257,5.989-15.107-.122a2.374,2.374,0,0,0-1.959.542,2.629,2.629,0,0,0-.784,1.564c.558,10.551,1.029,16.537,1.4,17.757.353,1.154,1.427,1.669,3.254,1.6l13.3-.122.132,4.668H751.8l-17.6-.12a11.388,11.388,0,0,0-5.382.559l-.548,1.1a3,3,0,0,0,.526,2.054,17.471,17.471,0,0,0,4.954.694h18.491v5.245a2.974,2.974,0,0,0,.648,1.522l1.13.565a2.614,2.614,0,0,0,1.946-.53l.56-1.123v-5.447l15.766.609a4.383,4.383,0,0,0,3.08-.659Zm-37.426-20.824v-4.128h13.255v3.88Zm13.375,8.523-12.637.125-.4-4.363,13.033-.248Zm13.316-.121-9.032.126v-4.49l9.431.126Zm-9.152-12.415,10.034.251-.4,3.64-9.63-.125Z" fill="#bc6139"/>
    </g>
  </g>
</svg>
