<svg id="Group_250" data-name="Group 250" xmlns="http://www.w3.org/2000/svg" width="30" height="30" viewBox="0 0 30 30">
  <rect id="Rectangle_640" data-name="Rectangle 640" width="30" height="30" fill="none"/>
  <g id="Group_245" data-name="Group 245" transform="translate(2.955 0.174)">
    <path id="Path_276" data-name="Path 276" d="M-212.384,1629.033a6.485,6.485,0,0,1-.839-.291,2.58,2.58,0,0,1-1.534-2.222c-.123-1.876-.2-3.756-.288-5.634q-.225-4.638-.445-9.277-.028-.593-.055-1.185c-.011-.248.1-.384.356-.38h20.256c.493,0,.542.061.518.553-.107,2.2-.207,4.393-.312,6.589-.148,3.083-.281,6.166-.455,9.247a2.689,2.689,0,0,1-2.279,2.553.509.509,0,0,0-.1.046Zm1.852-10.655v2.084c0,1.312,0,2.624,0,3.936a.925.925,0,0,0,.828.925.929.929,0,0,0,1-.735,1.854,1.854,0,0,0,.021-.374q0-5.832,0-11.664a2.342,2.342,0,0,0,0-.26.905.905,0,0,0-.59-.792.922.922,0,0,0-1.257.917Q-210.536,1615.4-210.531,1618.378Zm4.632-.026q0,1.23,0,2.46c0,1.2,0,2.392,0,3.589a.925.925,0,0,0,.83.923.93.93,0,0,0,1-.737,1.892,1.892,0,0,0,.021-.375q0-5.832,0-11.664a2.3,2.3,0,0,0,0-.26.905.905,0,0,0-.592-.79.922.922,0,0,0-1.255.92Q-205.9,1615.385-205.9,1618.352Zm4.631,0v2.46c0,1.2,0,2.392,0,3.589a.925.925,0,0,0,.83.923.93.93,0,0,0,1-.737,1.894,1.894,0,0,0,.021-.375q0-5.832,0-11.664a2.3,2.3,0,0,0,0-.26.905.905,0,0,0-.592-.79.922.922,0,0,0-1.255.92Q-201.273,1615.385-201.268,1618.352Z" transform="translate(217.021 -1599.382)" fill="#c5c5c5"/>
    <path id="Path_277" data-name="Path 277" d="M-214.914,1564.934c.027-.5.014-.971.085-1.425a2.718,2.718,0,0,1,2.591-2.271c1.321-.025,2.644-.027,3.965,0a2.756,2.756,0,0,1,2.643,2.642c.012.337,0,.674,0,1.053h.321q2.33,0,4.66,0a2.317,2.317,0,0,1,2.432,2.438c0,.56,0,1.119,0,1.679a.922.922,0,0,1-.984.976q-11.056,0-22.113,0a.92.92,0,0,1-.982-.977,17.236,17.236,0,0,1,.052-2.195,2.23,2.23,0,0,1,2.263-1.92c1.582-.009,3.164,0,4.747,0Zm1.882-.02h5.553c0-.337.014-.655,0-.971a.9.9,0,0,0-.892-.857q-1.88-.015-3.76,0a.907.907,0,0,0-.894.856C-213.047,1564.257-213.033,1564.575-213.033,1564.913Z" transform="translate(222.304 -1561.218)" fill="#c5c5c5"/>
  </g>
</svg>
