<svg xmlns="http://www.w3.org/2000/svg" width="24" height="24" viewBox="0 0 24 24">
  <g id="Group_109" data-name="Group 109" transform="translate(-946.223 -3383.175)">
    <rect id="Rectangle_37" data-name="Rectangle 37" width="24" height="24" transform="translate(946.223 3383.175)" fill="none"/>
    <g id="Group_108" data-name="Group 108" transform="translate(941.621 3376.333)">
      <path id="Subtraction_1" data-name="Subtraction 1" d="M10.055,20.459c-.19,0-.31-.145-.31-.378a2.494,2.494,0,0,1,.035-.4c.018-.128.038-.259.061-.391l.006-.035c.038-.245.08-.5.094-.748.048-.682-.114-.931-.721-1.109a5.787,5.787,0,0,0-.71-.156c-.1-.018-.193-.034-.285-.052a10.983,10.983,0,0,1-5.6-2.748A7.619,7.619,0,0,1,0,8.968,18.041,18.041,0,0,1,.214,6.941,8.1,8.1,0,0,1,3.171,2.522,11.721,11.721,0,0,1,10.18.012C10.353,0,10.529,0,10.7,0a12.449,12.449,0,0,1,2.69.3A10.9,10.9,0,0,1,18.76,3.075,7.565,7.565,0,0,1,21.3,9.194a6.9,6.9,0,0,1-.726,2.679A10.928,10.928,0,0,1,18.28,14.86a29.721,29.721,0,0,1-4.33,3.436c-.828.56-1.7,1.084-2.552,1.592l-.392.236a3.338,3.338,0,0,1-.814.315A.484.484,0,0,1,10.055,20.459ZM16.583,6.09c-.454,0-.915.009-1.359.018a.535.535,0,0,0-.477.43,1.966,1.966,0,0,0-.034.38c0,.649,0,1.306,0,1.942v.458c0,.527,0,1.072,0,1.607,0,.491.238.752.675.756.288,0,.584,0,.868,0,.387,0,.787,0,1.179,0a.632.632,0,0,0,.672-.622.625.625,0,0,0-.68-.606c-.211,0-.473,0-.728,0-.2,0-.369,0-.533,0h-.03a.174.174,0,0,1-.2-.223,3.323,3.323,0,0,0,0-.472.247.247,0,0,1,.038-.2.264.264,0,0,1,.206-.06H16.2l.414,0c.262,0,.608,0,.948-.033a.6.6,0,0,0,.417-.208.59.59,0,0,0,.13-.433.607.607,0,0,0-.641-.553h-.9l-.448,0h-.014a.178.178,0,0,1-.138-.042.184.184,0,0,1-.037-.142c.006-.2.006-.4,0-.595a.2.2,0,0,1,.037-.159.231.231,0,0,1,.174-.049c.2,0,.409,0,.686,0h.68a.556.556,0,0,0,.547-.369.613.613,0,0,0-.042-.567.535.535,0,0,0-.435-.251C17.277,6.1,16.949,6.09,16.583,6.09Zm-12.51,0a.659.659,0,0,0-.227.04.6.6,0,0,0-.4.595c-.006.451-.006.91-.006,1.353l0,.266V9.589c0,.441,0,.941,0,1.42a.621.621,0,0,0,.649.668c.352.008.71.008,1.055.008s.7,0,1.055-.008a.644.644,0,0,0,.462-.192.612.612,0,0,0-.488-1.032l-.385,0H5.025c-.35,0-.35,0-.35-.342v-.7l0-.316c0-.738,0-1.5-.008-2.248a1.167,1.167,0,0,0-.155-.537A.5.5,0,0,0,4.073,6.087Zm5.971.01a.6.6,0,0,0-.624.674c0,.781,0,1.562,0,2.318v1.156c0,.088,0,.177,0,.265l0,.072c0,.149,0,.3,0,.454a.633.633,0,0,0,.6.641.623.623,0,0,0,.254-.058.639.639,0,0,0,.368-.645V8.492c.03.042.053.071.069.092l.008.012.008.011c0,.008.011.016.016.023.651.891,1.35,1.845,2.042,2.783a.587.587,0,0,0,.481.263.658.658,0,0,0,.213-.037.591.591,0,0,0,.408-.607V9.6c0-.892,0-1.9,0-2.871A.581.581,0,0,0,13.3,6.1a.566.566,0,0,0-.6.622V9.294l-.123-.154-.6-.815c-.131-.18-.264-.36-.4-.541q-.5-.678-1-1.355a.653.653,0,0,0-.472-.33ZM8,6.1a.6.6,0,0,0-.632.649c0,.441-.006.929,0,1.537V9.447c0,.62,0,1.118,0,1.566a.629.629,0,0,0,.595.664.61.61,0,0,0,.28-.069.628.628,0,0,0,.353-.63V8.235c0-.459,0-.978,0-1.478A.6.6,0,0,0,8.015,6.1Z" transform="translate(5.947 8.612)" fill="#fff" stroke="rgba(0,0,0,0)" stroke-miterlimit="10" stroke-width="1"/>
    </g>
  </g>
</svg>
