<svg xmlns="http://www.w3.org/2000/svg" width="28" height="28" viewBox="0 0 28 28">
  <g id="Group_68" data-name="Group 68" transform="translate(-111 -2406.5)">
    <rect id="Rectangle_34" data-name="Rectangle 34" width="28" height="28" transform="translate(111 2406.5)" fill="none"/>
    <path id="Path_75" data-name="Path 75" d="M34.589-64.764a6.364,6.364,0,0,0-4.2-1.512A6.332,6.332,0,0,0,26.2-64.764a9.9,9.9,0,0,0-1.814,2.614c-.247.46-.5.964-.751,1.49-.2.417-.395.833-.592,1.277l-.2.444-.2-.444c-.18-.411-.356-.784-.52-1.145l-.023-.044c-.247-.526-.5-1.036-.756-1.5a10.26,10.26,0,0,0-1.847-2.691,6.373,6.373,0,0,0-4.2-1.512,6.339,6.339,0,0,0-4.2,1.512,4.787,4.787,0,0,0-1.72,3.628,4.771,4.771,0,0,0,1.72,3.611,3.709,3.709,0,0,0,.6.427,16.267,16.267,0,0,0,1.474.762c1.041.471,2.4,1,3.917,1.534l.406.137L12.113-51.51a.2.2,0,0,0,.072.362l1.769.241a.566.566,0,0,1,.4.252.506.506,0,0,1,.06.444L13.989-48.8a.2.2,0,0,0,.315.2l6.034-5.2.29.082a7.649,7.649,0,0,0,2.22.329,7.644,7.644,0,0,0,2.2-.324l.065-.005c.064.014,5.053,4.237,6.671,5.608a.2.2,0,0,0,.312-.207l-.43-1.435a.513.513,0,0,1,.06-.444.554.554,0,0,1,.4-.247l1.769-.241a.2.2,0,0,0,.081-.357l-5.652-3.713.4-.132c1.534-.526,2.811-1.019,3.8-1.463a13.758,13.758,0,0,0,1.473-.762,4.1,4.1,0,0,0,.592-.422,4.777,4.777,0,0,0,1.726-3.616A4.787,4.787,0,0,0,34.589-64.764ZM18.037-56.632c-.806-.274-1.507-.527-2.093-.751A12.782,12.782,0,0,1,12.76-58.89,2.988,2.988,0,0,1,11.7-61.142a2.969,2.969,0,0,1,1.063-2.252,3.794,3.794,0,0,1,2.531-.915,3.832,3.832,0,0,1,2.537.915c.761.674,1.912,3.057,2.739,4.948L21.8-55.477C20.99-55.712,18.173-56.583,18.037-56.632ZM32.923-58.89a12.654,12.654,0,0,1-3.177,1.507c-.668.257-1.375.509-2.11.751-.367.126-3.233,1.008-3.748,1.156,0,0,1.167-2.833,1.244-3.013,1.172-2.679,2.115-4.372,2.718-4.9a3.866,3.866,0,0,1,2.543-.915,3.815,3.815,0,0,1,2.531.915,2.955,2.955,0,0,1,1.068,2.252A2.974,2.974,0,0,1,32.923-58.89Z" transform="translate(102.16 2477.664)" fill="#d34242"/>
  </g>
</svg>
