<svg xmlns="http://www.w3.org/2000/svg" width="347" height="344" viewBox="0 0 347 344">
  <g id="Group_2688" data-name="Group 2688" transform="translate(-467 -2083)">
    <rect id="Rectangle_693" data-name="Rectangle 693" width="347" height="344" transform="translate(467 2083)" fill="none"/>
    <g id="Group_553" data-name="Group 553" transform="translate(405.151 1676.685)">
      <path id="Path_1142" data-name="Path 1142" d="M140.747,505.11c13.659-3.146,33.2-6.8,43.116,6.125a4.645,4.645,0,0,1-.74,6.409,4.522,4.522,0,0,1-2.555.947,12.687,12.687,0,0,1-6.062,2.321,76.811,76.811,0,0,1-11.175.763,33.115,33.115,0,0,1-15.167-3.512,25.752,25.752,0,0,1-9.54-4.873C135.44,510.591,136.835,506.011,140.747,505.11Z" fill="#70b535"/>
      <path id="Path_1143" data-name="Path 1143" d="M235.728,484.444c-8.917,10.815-22.189,25.617-37.926,21.406a4.645,4.645,0,0,1-3.316-5.534,4.531,4.531,0,0,1,1.449-2.308,12.7,12.7,0,0,1,3.394-5.533,76.952,76.952,0,0,1,8.4-7.412A33.112,33.112,0,0,1,221.9,478.61a25.753,25.753,0,0,1,10.534-1.946C236.6,476.865,238.281,481.347,235.728,484.444Z" fill="#70b535"/>
      <path id="Path_1144" data-name="Path 1144" d="M178.864,500.822a167.1,167.1,0,0,1-4.649-16.534c-2.833-11.527-3.989-23.281-1.533-34.99a4.682,4.682,0,0,1,5.1-3.945c1.538.2,12.6,9.1,15.792,13.535a49.89,49.89,0,0,1,8.609,18.131c2.388,10.889-2.084,21.429-7.16,30.924a5.034,5.034,0,0,1-.688,4.165,4.2,4.2,0,0,1-3.964,1.729,4.161,4.161,0,0,1-3.1-.05,5.04,5.04,0,0,1-2.82-3.488A26.041,26.041,0,0,1,178.864,500.822Z" fill="#328230"/>
      <g id="Group_551" data-name="Group 551">
        <path id="Path_1145" data-name="Path 1145" d="M170.231,511.475c.389-2.25,2.615-4.5,5.1-3.943a58.126,58.126,0,0,1,11.547,3.842c-.643-2.38-1.262-4.747-1.868-7.086-.617-2.387,1.69-4.826,3.92-5.125,2.684-.359,4.5,1.526,5.124,3.92.61,2.358,1.237,4.747,1.889,7.148a71.443,71.443,0,0,0,6.909-11.71c2.189-4.661,9.346-1.084,7.154,3.583a79.423,79.423,0,0,1-10.519,16.606,4.135,4.135,0,0,1-.852.776l1.4,4.329c.353,1.033,4.6,12.863,4.979,13.883-2.251,2.45-4.562,4.623-6.971,6.923-1.346-3.334-6.369-17.262-7.48-20.695-.579-.41-1.159-.819-1.755-1.2a26.21,26.21,0,0,0-2.279-1.392c-.055-.028-.105-.052-.2-.1q-.274-.148-.552-.293-.691-.363-1.4-.7A51.672,51.672,0,0,0,179.053,518q-1.326-.468-2.677-.864c-.234-.068-.469-.134-.7-.2l.022,0c-.017,0-.035-.009-.052-.011l-.019-.005a1.814,1.814,0,0,0-.185-.037c-.423-.077-.854-.215-1.264-.307a4.919,4.919,0,0,1-2.994-1.69A4.656,4.656,0,0,1,170.231,511.475Z" fill="#2d1e07"/>
        <path id="Path_1146" data-name="Path 1146" d="M175.673,516.938c-.795-.076-.531-.094-.234-.051.068.013.137.035.2.042Z" fill="#2d1e07"/>
      </g>
      <path id="Path_1147" data-name="Path 1147" d="M307,692c-16.387,10.07-32.677,16.008-59.659,18.108-49.049,3.8-81.62-14.989-96.715-42.61-8.109-14.841-11.165-32.261-8.991-50.075,6.257-51.414,50.6-91.727,105.773-88.488C296.729,531.842,339.543,563.028,343,627,344.468,654.088,329.471,678.186,307,692Z" fill="#fba71b"/>
      <path id="Path_1148" data-name="Path 1148" d="M301.444,616.528c5.858.364,5.3,9.468-.566,9.1S295.577,616.163,301.444,616.528Z" fill="#2d1e07"/>
      <path id="Path_1149" data-name="Path 1149" d="M321.981,607.682c5.858.365,5.3,9.469-.566,9.1S316.114,607.317,321.981,607.682Z" fill="#2d1e07"/>
      <path id="Path_1150" data-name="Path 1150" d="M319.233,627.622c5.857.364,5.3,9.469-.567,9.1S313.365,627.257,319.233,627.622Z" fill="#2d1e07"/>
      <path id="Path_1151" data-name="Path 1151" d="M174.963,650.542c5.858.364,5.3,9.468-.566,9.1S169.1,650.177,174.963,650.542Z" fill="#2d1e07"/>
      <path id="Path_1152" data-name="Path 1152" d="M174.461,635.746c5.858.364,5.3,9.468-.566,9.1S168.593,635.381,174.461,635.746Z" fill="#2d1e07"/>
      <path id="Path_1153" data-name="Path 1153" d="M191.568,642.813c5.858.364,5.3,9.468-.566,9.1S185.7,642.448,191.568,642.813Z" fill="#2d1e07"/>
      <path id="Path_1154" data-name="Path 1154" d="M215.825,644.553" fill="none" stroke="#2d1e07" stroke-linecap="round" stroke-miterlimit="10" stroke-width="4"/>
      <circle id="Ellipse_112" data-name="Ellipse 112" cx="20.979" cy="20.979" r="20.979" transform="translate(290.501 600.52)" fill="#f22281" opacity="0.41"/>
      <path id="Path_1155" data-name="Path 1155" d="M351.77,554.632a418.894,418.894,0,0,0-30.765,39.739c-1.387,2.034-1.529,4.7.484,6.433,1.7,1.467,5.037,1.561,6.432-.484a418.773,418.773,0,0,1,30.766-39.739C362.561,556.153,355.637,550.213,351.77,554.632Z" fill="#2d1e07"/>
      <path id="Path_1156" data-name="Path 1156" d="M160.122,620.469l-41.684-33.738c-4.564-3.694-10.518,3.218-5.949,6.916l41.684,33.738C158.738,631.08,164.692,624.167,160.122,620.469Z" fill="#2d1e07"/>
      <circle id="Ellipse_113" data-name="Ellipse 113" cx="20.979" cy="20.979" r="20.979" transform="translate(160.632 625.511)" fill="#f22281" opacity="0.41"/>
      <path id="Path_1157" data-name="Path 1157" d="M199.649,562.317a9.847,9.847,0,0,0-1.421-4.918,6.718,6.718,0,0,0-6.059-3.137,8.708,8.708,0,0,0-4.732,1.88,23.908,23.908,0,0,0-1.907,1.645,8.468,8.468,0,0,0-1.073,1.093c-.078.084-.167.161-.243.246-.368.414-.717.847-1.044,1.294a15.011,15.011,0,0,0-1.558,2.416,6.773,6.773,0,0,0,.419,6.774,7.229,7.229,0,0,0,4.745,3.034,7.921,7.921,0,0,0,5.082-1.046,7.905,7.905,0,0,0,2.256-.4,8.317,8.317,0,0,0,4.418-3.808A9.866,9.866,0,0,0,199.649,562.317Z" fill="#ffca85"/>
      <g id="Group_552" data-name="Group 552">
        <path id="Path_1158" data-name="Path 1158" d="M199.543,528.25s14.1-14.657,22.328-10.272,7.589,8.776,7.849,13.021c.46,7.486-6.235,11.927-15.829,7.537-2.879-1.317-6.86-1.778-11.782-2.243s-4.282-3.231-4.282-3.231Z" fill="#f43885"/>
        <path id="Path_1159" data-name="Path 1159" d="M193.166,530.794s-22.347-6.76-25.172,1.407c-1.875,5.418-.842,11.8,2.247,15.172,6.268,6.848,12.5,2.808,17.383-1.124,7.359-5.921,4.227-4.551,8.149-7.243S197.5,534.2,197.5,534.2Z" fill="#f43885"/>
        <path id="Path_1160" data-name="Path 1160" d="M208.775,526.885s-7.054,3.42-5.766,5.341" fill="none" stroke="#ba0d42" stroke-linecap="round" stroke-miterlimit="10" stroke-width="3"/>
        <path id="Path_1161" data-name="Path 1161" d="M211.394,532.658s-7.989-.544-8.187,1.69" fill="none" stroke="#ba0d42" stroke-linecap="round" stroke-miterlimit="10" stroke-width="3"/>
        <path id="Path_1162" data-name="Path 1162" d="M184.014,535.244s7.615-2.315,8.382-.191" fill="none" stroke="#ba0d42" stroke-linecap="round" stroke-miterlimit="10" stroke-width="3"/>
        <path id="Path_1163" data-name="Path 1163" d="M187.578,541.026s4.879-5.576,6.9-4.211" fill="none" stroke="#ba0d42" stroke-linecap="round" stroke-miterlimit="10" stroke-width="3"/>
        <path id="Path_1164" data-name="Path 1164" d="M189.306,532.992c1.059,4.466,3.259,9.426,10.189,8.425,4.718-.682,9.273-2.99,7.084-8.447-2.679-6.675-3.713-7.44-8.482-7.434S188.354,528.979,189.306,532.992Z" fill="#f759a9"/>
      </g>
      <path id="Path_1165" data-name="Path 1165" d="M213.766,598.793l-27.737-6.115c-5.017-1.106-7.16,6.605-2.126,7.714l20.592,4.54a84.541,84.541,0,0,0-14.745,20.692c-2.32,4.583,4.58,8.638,6.907,4.038a78.694,78.694,0,0,1,18.874-24.183C217.767,603.54,216.6,599.417,213.766,598.793Z" fill="#2d1e07"/>
      <path id="Path_1166" data-name="Path 1166" d="M298.126,599.4a60.084,60.084,0,0,0-24.481-10.922c1.6-1.744,3.363-3.416,4.768-5.023l8.247-9.424c3.378-3.86-2.259-9.54-5.657-5.657l-12.687,14.5c-2.328,2.66-7.316,6.523-4.086,10.381,1.342,1.6,3.222,1.7,5.163,2.1a62,62,0,0,1,24.7,10.954C298.286,609.3,302.285,602.368,298.126,599.4Z" fill="#2d1e07"/>
      <path id="Path_1167" data-name="Path 1167" d="M268.356,613.84c-1.594-4.872-9.321-2.786-7.714,2.126,4.633,14.164-20.217,20.785-24.7,8-1.692-4.827-9.423-2.75-7.714,2.127C236.126,648.62,276.191,637.791,268.356,613.84Z" fill="#2d1e07"/>
    </g>
  </g>
</svg>
