<svg xmlns="http://www.w3.org/2000/svg" width="347" height="344" viewBox="0 0 347 344">
  <g id="Group_2689" data-name="Group 2689" transform="translate(-834 -2083)">
    <rect id="Rectangle_694" data-name="Rectangle 694" width="347" height="344" transform="translate(834 2083)" fill="none"/>
    <g id="Group_554" data-name="Group 554" transform="translate(770.413 1276.184)">
      <path id="Path_1168" data-name="Path 1168" d="M285.545,850.213A45.388,45.388,0,0,0,261.183,872.2c-4.334,8.648-7.24,21.092-2.093,29.957-.018.008-.031.021-.048.029,2.459,2.781,5.074,5.215,8.667,6.5a53.017,53.017,0,0,0,6.2-5.819,65.384,65.384,0,0,0,18.314-48.406C292.007,850.747,288.936,848.962,285.545,850.213Z" fill="#328230"/>
      <path id="Path_1169" data-name="Path 1169" d="M320.88,905.8a34.121,34.121,0,0,0-20.758-9.9c-4.178-.418-8.455.081-12.633.309-4.852.265-9.562.349-14.17,2.03a3.091,3.091,0,0,0-.8.441,26,26,0,0,0-3.646.577c-2.7.649-4.678,3.982-3.071,6.576,2.907,4.691,7.771,7.32,12.714,9.431a46.535,46.535,0,0,0,13.617,3.374,47.333,47.333,0,0,0,27.539-5.684A4.607,4.607,0,0,0,320.88,905.8Z" fill="#70b535"/>
      <path id="Path_1170" data-name="Path 1170" d="M272.146,896.481c-1.853-1.985-4.445-1.667-6.447-.216-12.627,9.152-21.637,23.957-27.51,38.185-5.887,14.263-7.327,31.194.672,44.974,2.938,5.062,11.031.853,8.077-4.236-7.009-12.076-4.972-26.4.256-38.732a105.419,105.419,0,0,1,10.136-18.079,61.69,61.69,0,0,1,14.6-15.449C273.927,901.481,273.677,898.12,272.146,896.481Z" fill="#2d1e07"/>
      <path id="Path_1171" data-name="Path 1171" d="M338.03,1042.06c-7.81,38.63-41.81,65.18-100.66,65.18-18.06,0-33.61-2.5-46.67-7.12-37.87-13.28-54.84-44.07-51.26-82.07.24-2.51.53-4.97.9-7.39.48-3.37,1.1-6.66,1.83-9.86,7.65-33.93,27.93-58.36,56.39-69.99a98.384,98.384,0,0,1,9.84-3.42,111.948,111.948,0,0,1,31.1-4.22c1.33,0,2.65.02,3.96.08a99.165,99.165,0,0,1,10.15.88c42.07,5.79,74.13,37.14,83.41,76.46q1.065,4.5,1.71,9.13.6,4.125.85,8.33A93.625,93.625,0,0,1,338.03,1042.06Z" fill="#fba71b"/>
      <path id="Path_1172" data-name="Path 1172" d="M151.715,1007.453a320.116,320.116,0,0,1-38.362-30.183,4.659,4.659,0,0,0-6.45,0,4.61,4.61,0,0,0,0,6.45,335.848,335.848,0,0,0,40.209,31.609,4.561,4.561,0,0,0,4.6-7.876Z" fill="#2d1e07"/>
      <path id="Path_1173" data-name="Path 1173" d="M367.455,967.705c-1.072-2.027-4.094-3.247-6.167-1.893q-21.6,14.106-42.273,29.578c-1.972,1.476-1.793,4.776-.244,6.446,1.82,1.962,4.466,1.725,6.446.244q19.717-14.75,40.345-28.208A4.687,4.687,0,0,0,367.455,967.705Z" fill="#2d1e07"/>
      <path id="Path_1174" data-name="Path 1174" d="M164.44,1030.051c-5.869,0-5.879,9.121,0,9.121S170.319,1030.051,164.44,1030.051Z" fill="#2d1e07"/>
      <path id="Path_1175" data-name="Path 1175" d="M175.5,1018.069c-5.869,0-5.879,9.121,0,9.121S181.38,1018.069,175.5,1018.069Z" fill="#2d1e07"/>
      <path id="Path_1176" data-name="Path 1176" d="M182.875,1041.112c-5.869,0-5.879,9.121,0,9.121S188.754,1041.112,182.875,1041.112Z" fill="#2d1e07"/>
      <path id="Path_1177" data-name="Path 1177" d="M296.218,1009.7c-5.869,0-5.879,9.121,0,9.121S302.1,1009.7,296.218,1009.7Z" fill="#2d1e07"/>
      <path id="Path_1178" data-name="Path 1178" d="M316.035,1025.826c-5.869,0-5.878,9.121,0,9.121S321.914,1025.826,316.035,1025.826Z" fill="#2d1e07"/>
      <path id="Path_1179" data-name="Path 1179" d="M298.522,1031.818c-5.869,0-5.878,9.121,0,9.121S304.4,1031.818,298.522,1031.818Z" fill="#2d1e07"/>
      <circle id="Ellipse_114" data-name="Ellipse 114" cx="20.979" cy="20.979" r="20.979" transform="translate(157.335 1016.023)" fill="#f9551c" opacity="0.41"/>
      <circle id="Ellipse_115" data-name="Ellipse 115" cx="20.979" cy="20.979" r="20.979" transform="translate(282.736 1003.551)" fill="#f9551c" opacity="0.41"/>
      <path id="Path_1180" data-name="Path 1180" d="M206.326,952.625c-.73-2.723-3.316-4.743-6.284-5.565a11.649,11.649,0,0,0-8.3,1.009,14.762,14.762,0,0,0-5.124,4.884,4.888,4.888,0,0,0-.608,1.385c-.295.2-.583.4-.845.613a7.583,7.583,0,0,0-2.538,3.686,6.065,6.065,0,0,0,2.028,6.368,6.86,6.86,0,0,0,4.376,1.581c.049,0,.1-.013.145-.016.033.008.063.023.1.03a9.874,9.874,0,0,0,5.357-.522c4.074-1.441,8.093-3.343,10.43-6.742A8.022,8.022,0,0,0,206.326,952.625Z" fill="#ffca85"/>
      <path id="Path_1181" data-name="Path 1181" d="M224.81,975.4a61.362,61.362,0,0,1-18.29-19.75,58.56,58.56,0,0,1-3.65-7.36,59.353,59.353,0,0,1-4.31-17.48,98.384,98.384,0,0,1,9.84-3.42,50.33,50.33,0,0,0,21.46,39.37C235.13,970.39,230.13,979.05,224.81,975.4Z" fill="#2d1e07"/>
      <path id="Path_1182" data-name="Path 1182" d="M252.315,958.322a79.291,79.291,0,0,1-7.657-8.429c-1.91-2.472-5.872-6.746-6.21-9.953-.667-6.335-10.674-6.4-10,0,1.014,9.627,10.121,18.99,16.8,25.454C249.87,969.872,256.949,962.809,252.315,958.322Z" fill="#2d1e07"/>
      <path id="Path_1183" data-name="Path 1183" d="M272.606,956.028a102.75,102.75,0,0,1-14.169-19.308c-3.187-5.59-11.83-.558-8.635,5.047A114.167,114.167,0,0,0,265.535,963.1C269.934,967.815,276.994,960.732,272.606,956.028Z" fill="#2d1e07"/>
      <path id="Path_1184" data-name="Path 1184" d="M289.895,954.065a45.314,45.314,0,0,1-7.275-8.565,5.11,5.11,0,0,0-6.841-1.793,5.054,5.054,0,0,0-1.794,6.841,56.047,56.047,0,0,0,8.839,10.588,5,5,0,0,0,7.071-7.071Z" fill="#2d1e07"/>
      <path id="Path_1185" data-name="Path 1185" d="M216.684,1005.433c-2.642-8.091-9.38-14.891-18.463-14.094-8.713.765-13.569,8.447-14.868,16.432-.82,5.037,6.888,7.2,7.714,2.127.689-4.231,2.193-9.4,6.973-10.452,5.418-1.19,9.414,3.471,10.93,8.113C210.561,1012.432,218.289,1010.346,216.684,1005.433Z" fill="#2d1e07"/>
      <path id="Path_1186" data-name="Path 1186" d="M274.653,1025.6c.062,12.911-22.393,16.41-31.728,16.987-12.79.792-29.485-.859-35.276-14.123-2.055-4.707-8.95-.639-6.908,4.038,7.4,16.946,29.456,19.594,45.719,17.777,13.551-1.515,36.276-7.34,36.193-24.679C282.629,1020.456,274.629,1020.445,274.653,1025.6Z" fill="#2d1e07"/>
      <path id="Path_1187" data-name="Path 1187" d="M286.936,989.437a10.256,10.256,0,0,0-9.165-4.8,5.588,5.588,0,0,0-3.785.775,10.45,10.45,0,0,0-6.546,7.169,10.845,10.845,0,0,0,19.7,8.078A10.782,10.782,0,0,0,286.936,989.437Z" fill="#2d1e07"/>
    </g>
  </g>
</svg>
