<svg xmlns="http://www.w3.org/2000/svg" width="347" height="344" viewBox="0 0 347 344">
  <g id="Group_2686" data-name="Group 2686" transform="translate(-100 -2606)">
    <rect id="Rectangle_695" data-name="Rectangle 695" width="347" height="344" transform="translate(100 2606)" fill="none"/>
    <g id="Group_557" data-name="Group 557" transform="translate(-9.973 1391.539)">
      <path id="Path_1188" data-name="Path 1188" d="M278.153,1299.764c8.443-11.189,19.75-27.542,11.991-41.866a4.644,4.644,0,0,0-6.153-1.938,4.524,4.524,0,0,0-1.907,1.947,12.685,12.685,0,0,0-4.591,4.588,76.985,76.985,0,0,0-5.255,9.892,33.112,33.112,0,0,0-2.978,15.281,25.749,25.749,0,0,0,.559,10.7C270.985,1302.374,275.735,1302.968,278.153,1299.764Z" fill="#548723"/>
      <path id="Path_1189" data-name="Path 1189" d="M263.533,1285.074a193.244,193.244,0,0,0-18.351-7.676c-12.849-4.883-26.2-7.87-40-6.7a5.421,5.421,0,0,0-5.254,5.311c.011,1.8,8.679,15.761,13.33,20.063,5.688,5.26,12.283,9.871,19.628,12.453,12.18,4.282,24.925.627,36.557-3.868a5.832,5.832,0,0,0,4.884-.2,4.868,4.868,0,0,0,2.546-4.313,4.817,4.817,0,0,0,.38-3.568,5.835,5.835,0,0,0-3.612-3.733A30.147,30.147,0,0,0,263.533,1285.074Z" fill="#225b1e"/>
      <path id="Path_1190" data-name="Path 1190" d="M272.6,1296.358c-5.634,5.077-10.6,10.171-12.482,17.73-2.055,8.254-1.548,17.443-.24,25.749.8,5.061,8.769,4.359,7.966-.738a67.231,67.231,0,0,1-.442-20.57c1.046-6.833,4.876-11.178,9.856-15.666C281.043,1299.457,276.435,1292.906,272.6,1296.358Z" fill="#2d1e07"/>
      <path id="Path_1191" data-name="Path 1191" d="M357.03,1452.06c-7.81,38.63-41.81,65.18-100.66,65.18-18.06,0-33.61-2.5-46.67-7.12-37.87-13.28-54.84-44.07-51.26-82.07.24-2.51.53-4.97.9-7.39.48-3.37,1.1-6.66,1.83-9.86,7.65-33.93,27.93-58.36,56.39-69.99a98.369,98.369,0,0,1,9.84-3.42,111.948,111.948,0,0,1,31.1-4.22c1.33,0,2.65.02,3.96.08a99.181,99.181,0,0,1,10.15.88c42.07,5.79,74.13,37.14,83.41,76.46q1.065,4.5,1.71,9.13.6,4.125.85,8.33A93.625,93.625,0,0,1,357.03,1452.06Z" fill="#b24f18"/>
      <path id="Path_1192" data-name="Path 1192" d="M250.749,1399.225a10.254,10.254,0,0,0-9.165-4.8,5.586,5.586,0,0,0-3.785.774,10.452,10.452,0,0,0-6.547,7.169,10.845,10.845,0,0,0,19.7,8.078A10.78,10.78,0,0,0,250.749,1399.225Z" fill="#2d1e07"/>
      <path id="Path_1193" data-name="Path 1193" d="M314.207,1390.488c-6.315-5.565-16.441-1.03-18.486,6.655-1.753,6.59,4.33,12.077,10.418,11.978a10.615,10.615,0,0,0,5.545-.912A10.759,10.759,0,0,0,314.207,1390.488Z" fill="#2d1e07"/>
      <path id="Path_1194" data-name="Path 1194" d="M279.327,1444.312c-.573,0-1.159-.017-1.763-.053-13.311-.782-17.6-9.672-18.014-14.263a3.649,3.649,0,0,1,7.264-.695c.094.759,1.177,7.085,11.179,7.675,11.631.661,13.352-7.8,13.509-8.765a3.649,3.649,0,0,1,7.219,1.065C297.957,1434.617,292.912,1444.312,279.327,1444.312Z" fill="#2d1e07"/>
      <path id="Path_1195" data-name="Path 1195" d="M214.44,1440.051c-5.869,0-5.879,9.121,0,9.121S220.319,1440.051,214.44,1440.051Z" fill="#2d1e07"/>
      <path id="Path_1196" data-name="Path 1196" d="M225.5,1428.069c-5.869,0-5.879,9.121,0,9.121S231.38,1428.069,225.5,1428.069Z" fill="#2d1e07"/>
      <path id="Path_1197" data-name="Path 1197" d="M232.875,1451.112c-5.869,0-5.879,9.121,0,9.121S238.754,1451.112,232.875,1451.112Z" fill="#2d1e07"/>
      <path id="Path_1198" data-name="Path 1198" d="M326.218,1421.7c-5.869,0-5.879,9.121,0,9.121S332.1,1421.7,326.218,1421.7Z" fill="#2d1e07"/>
      <path id="Path_1199" data-name="Path 1199" d="M337.035,1432.826c-5.869,0-5.878,9.121,0,9.121S342.914,1432.826,337.035,1432.826Z" fill="#2d1e07"/>
      <path id="Path_1200" data-name="Path 1200" d="M319.522,1438.818c-5.869,0-5.878,9.121,0,9.121S325.4,1438.818,319.522,1438.818Z" fill="#2d1e07"/>
      <circle id="Ellipse_116" data-name="Ellipse 116" cx="20.979" cy="20.979" r="20.979" transform="translate(207.335 1426.023)" fill="#f2ac0f" opacity="0.41"/>
      <circle id="Ellipse_117" data-name="Ellipse 117" cx="20.979" cy="20.979" r="20.979" transform="translate(310.236 1416.051)" fill="#f2ac0f" opacity="0.41"/>
      <path id="Path_1201" data-name="Path 1201" d="M225.326,1362.625c-.73-2.723-3.316-4.743-6.284-5.565a11.649,11.649,0,0,0-8.3,1.009,14.762,14.762,0,0,0-5.124,4.884,4.888,4.888,0,0,0-.608,1.385c-.295.2-.583.4-.845.613a7.583,7.583,0,0,0-2.538,3.686,6.065,6.065,0,0,0,2.028,6.368,6.861,6.861,0,0,0,4.376,1.581c.049,0,.1-.013.145-.016.033.008.063.023.1.03a9.874,9.874,0,0,0,5.357-.522c4.074-1.441,8.093-3.343,10.43-6.742A8.022,8.022,0,0,0,225.326,1362.625Z" fill="#cc805a"/>
      <path id="Path_1202" data-name="Path 1202" d="M267.332,1482.541a152.21,152.21,0,0,1-70.919-56.151c-2.884-4.229-9.819-.231-6.908,4.037a161.478,161.478,0,0,0,75.7,59.828C270.016,1492.1,272.1,1484.37,267.332,1482.541Z" fill="#2d1e07"/>
      <path id="Path_1203" data-name="Path 1203" d="M371.706,1441.26a226.319,226.319,0,0,0-15.493-25.4c-2.941-4.178-9.881-.185-6.908,4.037a226.416,226.416,0,0,1,15.493,25.4C367.185,1449.861,374.092,1445.822,371.706,1441.26Z" fill="#2d1e07"/>
      <g id="Group_556" data-name="Group 556">
        <path id="Path_1204" data-name="Path 1204" d="M398.688,1426.364c-18.417-.055-76.109-.193-79.88-.89-11.987.25-14.711,2.81-17.4,14.43a365.191,365.191,0,0,1-9.52,40.228c-1.173,6.267-2.933,11.857-6.914,14.868h-34.2a5.776,5.776,0,0,0-5.776,5.775v3.015a8.712,8.712,0,0,0-.334,1.494c-.16,1.287-.028-.459.334.7v1.237a5.776,5.776,0,0,0,5.776,5.776H381.5a10.493,10.493,0,0,0,9.5-6.047c.886-1.537,1.536-.606,2.148-3.386q7.3-33.159,14.437-66.332C409.153,1429.915,406.3,1426.364,398.688,1426.364Z" fill="#2cb7c6"/>
        <g id="Group_555" data-name="Group 555">
          <path id="Path_1205" data-name="Path 1205" d="M374.537,1464.219a49.377,49.377,0,0,0-6.018,4.464c-1.284-9.468-5.829-15-14.966-15.208a15.137,15.137,0,0,1,4.991-5.789c1.057-.721.058-2.455-1.009-1.727a17.149,17.149,0,0,0-6.132,7.551c-10.208.556-14.934,6.39-16.733,14.86l-.536-.785q-1.881-2.761-3.764-5.522A1.024,1.024,0,0,0,329,1461.7a1.01,1.01,0,0,0-.359,1.368q2.118,3.1,4.235,6.212l1.317,1.932c-.643,6.067,2.755,11.182,14.972,12.057,12.314.882,19.8-5.151,19.574-12.141a46.719,46.719,0,0,1,6.806-5.187C376.635,1465.264,375.632,1463.533,374.537,1464.219Z" fill="#f6fdfe"/>
          <path id="Path_1206" data-name="Path 1206" d="M354.656,1450.322s-5.4-8.528-.036-14.031C354.62,1436.291,362.669,1442.525,354.656,1450.322Z" fill="#f6fdfe"/>
          <path id="Path_1207" data-name="Path 1207" d="M354.5,1447.855s5.208-4.7,10.179,1.033C364.68,1448.888,358.123,1454.225,354.5,1447.855Z" fill="#f6fdfe"/>
        </g>
      </g>
    </g>
  </g>
</svg>
