<svg xmlns="http://www.w3.org/2000/svg" width="347" height="344" viewBox="0 0 347 344">
  <g id="Group_2687" data-name="Group 2687" transform="translate(-100 -2083)">
    <rect id="Rectangle_692" data-name="Rectangle 692" width="347" height="344" transform="translate(100 2083)" fill="none"/>
    <g id="Group_550" data-name="Group 550" transform="translate(13.166 2047.214)">
      <path id="Path_1124" data-name="Path 1124" d="M273.346,172.968a54.918,54.918,0,0,1,9.687-21.542,50.556,50.556,0,0,1,9.132-9.809,22.837,22.837,0,0,0,.731,4.884c1.367,5.219,5.609,11.308,11.824,10.246,6.017-1.028,10.122-7.96,10.468-13.622a13.524,13.524,0,0,0-8.268-13.115,38.084,38.084,0,0,1,10.058-7.309c5.645-2.994,1.793-12.2-3.87-9.2-6.908,3.664-13.821,9.025-17.731,15.763a27.717,27.717,0,0,0-9.058,4.594c-12.139,9.047-19.821,23.346-22.879,37.931C262.121,178.086,272.037,179.211,273.346,172.968ZM303.365,146.2l-.481-1.052a10.86,10.86,0,0,1-.656-5.434c.027-.274.08-.537.121-.8,2.821,1.1,4.423,5.291,1.234,7.37Q304.447,147.629,303.365,146.2Z" fill="#2d1e07"/>
      <path id="Path_1125" data-name="Path 1125" d="M378.588,86.891c-30.076-4.126-52.534-2.716-67.154,23.9-2.209,4.022-1.553,9.275,1.618,11.536,1.2.857,16.817,5.928,31.315,1.578,8-2.4,33.989-17.554,38.134-22.639C387.3,95.382,384.747,87.736,378.588,86.891Z" fill="#328230"/>
      <path id="Path_1126" data-name="Path 1126" d="M317.334,114.058c.762-3.36,1.307-6.807,1.849-10.182,1.131-7.04,1.61-13.972.684-20.365-.191-1.314-.971-2.1-1.975-1.544-.6.332-4.92,7.029-6.175,10.039a49.192,49.192,0,0,0-3.392,11.665c-.956,6.609.757,12.041,2.707,16.787a3.6,3.6,0,0,0,.257,2.3,1.059,1.059,0,0,0,1.537.431,1.363,1.363,0,0,0,1.205-.469,4.5,4.5,0,0,0,1.1-2.41A25.242,25.242,0,0,0,317.334,114.058Z" fill="#70b535"/>
      <path id="Path_1127" data-name="Path 1127" d="M196.008,323.479c17.351,8.186,39.994,11.972,66.974,11.094,49.045-1.612,79.277-23.813,91.212-52.853,6.412-15.6,7.53-33.208,3.422-50.632C345.772,180.8,297.391,145.7,243.043,154.962c-48.579,8.292-89.8,46.978-86.213,110.78C158.347,292.758,172.214,312.249,196.008,323.479Z" fill="#fba71b"/>
      <path id="Path_1128" data-name="Path 1128" d="M193.593,251.513c-4.249,4.028,2,10.638,6.259,6.6S197.849,247.479,193.593,251.513Z" fill="#2d1e07"/>
      <path id="Path_1129" data-name="Path 1129" d="M172.219,257.889c-4.248,4.028,2,10.637,6.26,6.6S176.475,253.855,172.219,257.889Z" fill="#2d1e07"/>
      <path id="Path_1130" data-name="Path 1130" d="M187.084,271.386c-4.249,4.028,2,10.637,6.259,6.6S191.339,267.351,187.084,271.386Z" fill="#2d1e07"/>
      <path id="Path_1131" data-name="Path 1131" d="M325.061,264.65c-3.238-4.877-10.823.147-7.58,5.032S328.3,269.536,325.061,264.65Z" fill="#2d1e07"/>
      <path id="Path_1132" data-name="Path 1132" d="M338.09,257.7c-3.237-4.877-10.823.147-7.58,5.032S341.334,262.586,338.09,257.7Z" fill="#2d1e07"/>
      <path id="Path_1133" data-name="Path 1133" d="M323.45,246.452c-3.238-4.878-10.824.147-7.58,5.032S326.693,251.337,323.45,246.452Z" fill="#2d1e07"/>
      <path id="Path_1134" data-name="Path 1134" d="M287.038,266.124" fill="none" stroke="#2d1e07" stroke-linecap="round" stroke-miterlimit="10" stroke-width="4"/>
      <path id="Path_1135" data-name="Path 1135" d="M338.3,224.239l37.626-38.021c4.12-4.163,10.781,2.037,6.657,6.205l-37.626,38.021C340.841,234.607,334.18,228.407,338.3,224.239Z" fill="#2d1e07"/>
      <path id="Path_1136" data-name="Path 1136" d="M294.054,182.819a9.845,9.845,0,0,1,.869-5.032,6.7,6.7,0,0,1,5.664-3.774,8.685,8.685,0,0,1,4.9,1.344,23.82,23.82,0,0,1,2.071,1.422,8.391,8.391,0,0,1,1.184.966c.087.075.183.141.268.217q.617.556,1.177,1.168a14.943,14.943,0,0,1,1.81,2.225,6.752,6.752,0,0,1,.327,6.762,7.207,7.207,0,0,1-4.371,3.528,7.906,7.906,0,0,1-5.153-.479,7.9,7.9,0,0,1-2.281-.149,8.288,8.288,0,0,1-4.8-3.291A9.843,9.843,0,0,1,294.054,182.819Z" fill="#ffca85"/>
      <path id="Path_1137" data-name="Path 1137" d="M223.426,213.817a10.256,10.256,0,0,0-9.165-4.805,5.582,5.582,0,0,0-3.785.775,10.45,10.45,0,0,0-6.547,7.169,10.845,10.845,0,0,0,19.7,8.077A10.783,10.783,0,0,0,223.426,213.817Z" fill="#2d1e07"/>
      <path id="Path_1138" data-name="Path 1138" d="M298.885,211.08c-6.316-5.564-16.442-1.03-18.487,6.655-1.753,6.591,4.331,12.078,10.418,11.978a10.614,10.614,0,0,0,5.545-.911A10.76,10.76,0,0,0,298.885,211.08Z" fill="#2d1e07"/>
      <g id="Group_549" data-name="Group 549">
        <path id="Path_1139" data-name="Path 1139" d="M255.134,269.519c-5.683,4.587-4.71-14.708-4.692-17.069a3.97,3.97,0,0,0-.381-1.775c.54-.284,1.071-.581,1.576-.9.383-.245.9-.681,1.43-1.108a13.841,13.841,0,0,0,1.155,1.532,11.661,11.661,0,0,0,4.15,2.729c.128.047.258.074.387.115q-.467,3.484-.936,6.971C257.47,262.611,257.444,267.654,255.134,269.519Z" fill="#ce3a3a"/>
        <path id="Path_1140" data-name="Path 1140" d="M271.735,233.873c-2.138-4.677-9.035-.616-6.908,4.037,1.749,3.828-1.286,10.315-5.546,5.842-1.723-1.809-2.605-4-5.465-4.123-2.619-.111-4.215,1.954-6.216,3.234-1.088.695-2.982,2.028-4.376,1.952-5.235-.282-1.376-4.54-.01-6.511,2.939-4.241-3.992-8.245-6.908-4.037-3.652,5.27-6.366,13.925.9,17.7a9.9,9.9,0,0,0,5.226,1.008c-.115,8.727-1.33,26.817,12.257,25.238,11.042-1.282,11.421-16.724,12.262-26.088.273-.151.547-.3.81-.475C273.792,247.684,274.515,239.957,271.735,233.873Zm-16.6,35.646c-5.683,4.587-4.71-14.708-4.692-17.069a3.97,3.97,0,0,0-.381-1.775c.54-.284,1.071-.581,1.576-.9.383-.245.9-.681,1.43-1.108a13.841,13.841,0,0,0,1.155,1.532,11.661,11.661,0,0,0,4.15,2.729c.128.047.258.074.387.115q-.467,3.484-.936,6.971C257.47,262.611,257.444,267.654,255.134,269.519Z" fill="#2d1e07"/>
      </g>
      <path id="Path_1141" data-name="Path 1141" d="M171.737,223.267a97.183,97.183,0,0,0-17.248,6.125c-4.406,2.054-10.27,4.482-13.479,8.276-3.36,3.975-1.636,8.744.966,12.579,2.628,3.875,5.473,7.627,8.3,11.378a67.143,67.143,0,0,0-11.768,3.449c-4.73,1.875-2.668,9.615,2.127,7.714a62.848,62.848,0,0,1,16.795-4.23c2.665-.276,5.442-3.315,3.454-6.019l-7.639-10.392c-1.373-1.869-3.347-3.86-4.365-5.938-1.384-2.828-1.465-3.757,1.264-5.417a85.848,85.848,0,0,1,23.716-9.811C178.851,229.718,176.738,222,171.737,223.267Z" fill="#2d1e07"/>
      <circle id="Ellipse_110" data-name="Ellipse 110" cx="20.926" cy="20.926" r="20.926" transform="translate(303.075 234.295)" fill="#e028e5" opacity="0.41"/>
      <circle id="Ellipse_111" data-name="Ellipse 111" cx="20.926" cy="20.926" r="20.926" transform="translate(168.159 240.593)" fill="#e028e5" opacity="0.41"/>
    </g>
  </g>
</svg>
