<svg xmlns="http://www.w3.org/2000/svg" width="347.245" height="344" viewBox="0 0 347.245 344">
  <g id="Group_2685" data-name="Group 2685" transform="translate(-467 -2606)">
    <rect id="Rectangle_696" data-name="Rectangle 696" width="347" height="344" transform="translate(467 2606)" fill="none"/>
    <g id="Group_561" data-name="Group 561" transform="translate(411.348 970.493)">
      <g id="Group_558" data-name="Group 558">
        <path id="Path_1208" data-name="Path 1208" d="M319.243,1721.77a28.471,28.471,0,0,0-6.465,19.544c.32,6.06,2.594,13.746,8.15,16.983-.007.01-.01.021-.017.031a13.3,13.3,0,0,0,6.742.857,33.341,33.341,0,0,0,1.574-5.1,41.019,41.019,0,0,0-5.027-32.073A2.913,2.913,0,0,0,319.243,1721.77Z" fill="#328230"/>
        <path id="Path_1209" data-name="Path 1209" d="M355.748,1741.118a21.4,21.4,0,0,0-14.388,1.041,51.707,51.707,0,0,0-6.793,4.086c-2.563,1.649-5.1,3.156-7.1,5.5a1.95,1.95,0,0,0-.3.491,16.128,16.128,0,0,0-1.809,1.445,2.887,2.887,0,0,0,.365,4.538c3.04,1.656,6.508,1.581,9.858,1.2a29.166,29.166,0,0,0,8.471-2.384A29.682,29.682,0,0,0,357.3,1745.4,2.889,2.889,0,0,0,355.748,1741.118Z" fill="#70b535"/>
        <path id="Path_1210" data-name="Path 1210" d="M245,1866.894c6.451,8.452,15.73,15.115,27.877,19.376,9.82,3.47,21.52,5.35,35.1,5.35,36.945,0,60.854-13.915,71.176-35.4C341.469,1880.115,289.132,1877.993,245,1866.894Z" fill="#a2b552"/>
        <path id="Path_1211" data-name="Path 1211" d="M384.86,1824.54q-.18-3.165-.63-6.27-.5-3.48-1.29-6.87c-6.89-29.17-30.46-52.52-61.47-57.32-.42-.07-.85-.13-1.27-.19a76.427,76.427,0,0,0-7.63-.66c-.38-.02-.76-.03-1.14-.04-.61-.02-1.22-.02-1.84-.02a89.45,89.45,0,0,0-13.88,1.06,2.739,2.739,0,0,0-.28.05,80.589,80.589,0,0,0-9.24,2.06c-.11.03-.22.06-.33.1s-.19.06-.29.09c-2.33.7-4.58,1.49-6.78,2.39-21.4,8.74-36.66,27.12-42.41,52.64-.55,2.41-1.02,4.88-1.38,7.42-.28,1.82-.5,3.67-.68,5.56-1.543,16.39,2.01,30.991,10.683,42.354,44.129,11.1,96.466,13.221,134.153-10.675A57.88,57.88,0,0,0,383.7,1842.6,70.421,70.421,0,0,0,384.86,1824.54Z" fill="#fba71b"/>
        <path id="Path_1212" data-name="Path 1212" d="M289.336,1807.167a8.79,8.79,0,0,0-7.854-4.117,4.783,4.783,0,0,0-3.243.664,8.955,8.955,0,0,0-5.61,6.143,9.293,9.293,0,0,0,16.881,6.921A9.241,9.241,0,0,0,289.336,1807.167Z" fill="#2d1e07"/>
        <path id="Path_1213" data-name="Path 1213" d="M346.336,1807.167a8.79,8.79,0,0,0-7.854-4.117,4.783,4.783,0,0,0-3.243.664,8.955,8.955,0,0,0-5.61,6.143,9.293,9.293,0,0,0,16.881,6.921A9.241,9.241,0,0,0,346.336,1807.167Z" fill="#2d1e07"/>
        <path id="Path_1214" data-name="Path 1214" d="M250.44,1846.051c-5.869,0-5.879,9.121,0,9.121S256.319,1846.051,250.44,1846.051Z" fill="#2d1e07"/>
        <path id="Path_1215" data-name="Path 1215" d="M257.5,1838.069c-5.869,0-5.879,9.121,0,9.121S263.38,1838.069,257.5,1838.069Z" fill="#2d1e07"/>
        <path id="Path_1216" data-name="Path 1216" d="M260.875,1850.112c-5.869,0-5.879,9.121,0,9.121S266.754,1850.112,260.875,1850.112Z" fill="#2d1e07"/>
        <path id="Path_1217" data-name="Path 1217" d="M360.218,1832.7c-5.869,0-5.879,9.121,0,9.121S366.1,1832.7,360.218,1832.7Z" fill="#2d1e07"/>
        <path id="Path_1218" data-name="Path 1218" d="M373.035,1841.826c-5.869,0-5.878,9.121,0,9.121S378.914,1841.826,373.035,1841.826Z" fill="#2d1e07"/>
        <path id="Path_1219" data-name="Path 1219" d="M360.522,1845.818c-5.869,0-5.878,9.121,0,9.121S366.4,1845.818,360.522,1845.818Z" fill="#2d1e07"/>
        <circle id="Ellipse_118" data-name="Ellipse 118" cx="16.686" cy="16.686" r="16.686" transform="translate(240.628 1832.317)" fill="#f9551c" opacity="0.41"/>
        <circle id="Ellipse_119" data-name="Ellipse 119" cx="16.686" cy="16.686" r="16.686" transform="translate(348.628 1830.317)" fill="#f9551c" opacity="0.41"/>
        <path id="Path_1220" data-name="Path 1220" d="M279.617,1781.566a6.645,6.645,0,0,0-4.845-4.29,8.98,8.98,0,0,0-6.4.778,11.4,11.4,0,0,0-3.951,3.765,3.762,3.762,0,0,0-.468,1.068c-.228.153-.45.311-.652.473a5.842,5.842,0,0,0-1.956,2.841,4.672,4.672,0,0,0,1.563,4.909,5.284,5.284,0,0,0,3.373,1.219c.038,0,.074-.009.113-.012s.048.018.073.023a7.617,7.617,0,0,0,4.13-.4c3.141-1.111,6.239-2.578,8.041-5.2A6.19,6.19,0,0,0,279.617,1781.566Z" fill="#ffca85"/>
        <path id="Path_1221" data-name="Path 1221" d="M307.81,1784.4a61.362,61.362,0,0,1-18.29-19.75,58.57,58.57,0,0,1-3.65-7.36c-.1-.25-.21-.5-.3-.76.1-.03.19-.06.29-.09s.22-.07.33-.1a80.589,80.589,0,0,1,9.24-2.06,49.3,49.3,0,0,0,17.43,21.48C318.13,1779.39,313.13,1788.05,307.81,1784.4Z" fill="#2d1e07"/>
        <path id="Path_1222" data-name="Path 1222" d="M328.24,1779.39c-6.67-6.46-15.78-15.82-16.79-25.45a3.8,3.8,0,0,1-.02-.75c.38.01.76.02,1.14.04a76.427,76.427,0,0,1,7.63.66c.42.06.85.12,1.27.19.44,3.19,4.31,7.38,6.19,9.81a78.4,78.4,0,0,0,7.66,8.43C339.95,1776.81,332.87,1783.87,328.24,1779.39Z" fill="#2d1e07"/>
        <path id="Path_1223" data-name="Path 1223" d="M310.883,1867.19C290,1867,280,1860.587,282,1847.114a21.313,21.313,0,0,1,8.334-14.529,7.871,7.871,0,0,1,7.433-.963,37.892,37.892,0,0,0,24.707-.085,7.811,7.811,0,0,1,7.362.873c4.349,3.165,7.231,7.929,8.164,14.7C340,1861.609,331.766,1867.38,310.883,1867.19Z" fill="#548969"/>
        <path id="Path_1224" data-name="Path 1224" d="M315.174,1859.588H304.826a8.827,8.827,0,0,1-8.826-8.826h0c0-4.875,4.87-10.826,14-10.826s14,5.951,14,10.826h0A8.827,8.827,0,0,1,315.174,1859.588Z" fill="#79bc94"/>
        <path id="Path_1225" data-name="Path 1225" d="M244.466,1827.447a148.727,148.727,0,0,1-15.81-31.262c-2.233-6.042-11.235-1.676-9.018,4.321a158.905,158.905,0,0,0,17.2,33.409C240.419,1839.265,248.008,1832.738,244.466,1827.447Z" fill="#2d1e07"/>
        <path id="Path_1226" data-name="Path 1226" d="M393.407,1790.286l-20.579,30.706c-3.593,5.361,5.065,10.372,8.634,5.047l20.58-30.706C405.635,1789.972,396.976,1784.961,393.407,1790.286Z" fill="#2d1e07"/>
        <path id="Path_1227" data-name="Path 1227" d="M289.723,1838.069S293,1832,297,1834s-2.468,9.635-5.234,7.817S289.723,1838.069,289.723,1838.069Z" fill="#66a381"/>
        <path id="Path_1228" data-name="Path 1228" d="M330.186,1838.069S326.91,1832,322.91,1834s2.468,9.635,5.234,7.817S330.186,1838.069,330.186,1838.069Z" fill="#66a381"/>
        <path id="Path_1229" data-name="Path 1229" d="M304,1849v5s-19.986,21.637,6.766,22.877C335,1878,323.667,1855,315,1853l1-4s15,3,17,18c1.835,13.763-7,20.19-21,20.19s-28.1-8.393-24.383-21.2S304,1849,304,1849Z" fill="#fff2cf"/>
        <path id="Path_1230" data-name="Path 1230" d="M304.181,1847.19s-3.521,6.155,1.149,7.483,11.776.444,11.67-1.673,0-6-3-7A12.284,12.284,0,0,0,304.181,1847.19Z" fill="#ffea94"/>
        <path id="Path_1231" data-name="Path 1231" d="M342.446,1853.5a30.348,30.348,0,0,1-1.621-8.184,32.621,32.621,0,0,1,.054-4.2,6.016,6.016,0,0,1,.224-1.566s.146-.436.144-.477c.053-.106.111-.209.174-.31.03-.031.074-.076.145-.154,2.263-2.292-1.27-5.829-3.536-3.535-2.383,2.413-2.334,6.419-2.232,9.592a35.372,35.372,0,0,0,1.826,10.158,2.559,2.559,0,0,0,3.076,1.746A2.524,2.524,0,0,0,342.446,1853.5Z" fill="#2d1e07"/>
        <path id="Path_1232" data-name="Path 1232" d="M282.468,1834.833a2.573,2.573,0,0,0-3.421-.9,2.519,2.519,0,0,0-.9,3.42,14.923,14.923,0,0,1,.605,16.743c-1.723,2.729,2.6,5.24,4.317,2.524A19.928,19.928,0,0,0,282.468,1834.833Z" fill="#2d1e07"/>
      </g>
      <g id="Group_560" data-name="Group 560">
        <path id="Path_1233" data-name="Path 1233" d="M156.243,1724.77a28.471,28.471,0,0,0-6.465,19.544c.32,6.06,2.594,13.746,8.15,16.983-.007.01-.01.021-.017.031a13.3,13.3,0,0,0,6.742.857,33.342,33.342,0,0,0,1.574-5.1,41.019,41.019,0,0,0-5.027-32.073A2.913,2.913,0,0,0,156.243,1724.77Z" fill="#328230"/>
        <path id="Path_1234" data-name="Path 1234" d="M195.748,1744.118a21.4,21.4,0,0,0-14.388,1.041,51.7,51.7,0,0,0-6.793,4.086c-2.563,1.649-5.1,3.156-7.1,5.5a1.95,1.95,0,0,0-.3.491,16.13,16.13,0,0,0-1.809,1.445,2.887,2.887,0,0,0,.365,4.538c3.04,1.656,6.508,1.581,9.858,1.2a29.166,29.166,0,0,0,8.471-2.384A29.682,29.682,0,0,0,197.3,1748.4,2.889,2.889,0,0,0,195.748,1744.118Z" fill="#70b535"/>
        <path id="Path_1235" data-name="Path 1235" d="M133.859,1735.972a21.4,21.4,0,0,0,4.764,13.617,51.774,51.774,0,0,0,5.718,5.489c2.262,2.043,4.38,4.1,7.165,5.412a1.925,1.925,0,0,0,.552.164,16.214,16.214,0,0,0,1.868,1.369,2.887,2.887,0,0,0,4.285-1.538c.8-3.367-.174-6.695-1.418-9.828a29.176,29.176,0,0,0-4.514-7.555,29.691,29.691,0,0,0-14.7-9.751A2.89,2.89,0,0,0,133.859,1735.972Z" fill="#70b535"/>
        <path id="Path_1236" data-name="Path 1236" d="M84.787,1869.615c6.459,8.585,15.811,15.347,28.093,19.655,9.82,3.47,21.52,5.35,35.1,5.35,32.172,0,54.457-10.554,66.5-27.467C172.421,1879.3,127.6,1879.015,84.787,1869.615Z" fill="#a2b552"/>
        <path id="Path_1237" data-name="Path 1237" d="M224.86,1827.54q-.18-3.165-.63-6.27-.5-3.48-1.29-6.87c-6.98-29.57-31.1-53.15-62.74-57.51a76.427,76.427,0,0,0-7.63-.66c-.99-.05-1.98-.06-2.98-.06a89.45,89.45,0,0,0-13.88,1.06,80.8,80.8,0,0,0-9.52,2.11c-.11.03-.22.06-.33.1a73.74,73.74,0,0,0-7.07,2.48c-21.4,8.74-36.66,27.12-42.41,52.64-.55,2.41-1.02,4.88-1.38,7.42-.28,1.82-.5,3.67-.68,5.56-1.53,16.255,1.949,30.752,10.467,42.075,42.813,9.4,87.634,9.68,129.69-2.462A56.018,56.018,0,0,0,223.7,1845.6,70.422,70.422,0,0,0,224.86,1827.54Z" fill="#fba71b"/>
        <path id="Path_1238" data-name="Path 1238" d="M129.336,1810.167a8.79,8.79,0,0,0-7.854-4.117,4.783,4.783,0,0,0-3.243.664,8.955,8.955,0,0,0-5.61,6.143,9.293,9.293,0,0,0,16.881,6.921A9.241,9.241,0,0,0,129.336,1810.167Z" fill="#2d1e07"/>
        <path id="Path_1239" data-name="Path 1239" d="M186.336,1810.167a8.79,8.79,0,0,0-7.854-4.117,4.783,4.783,0,0,0-3.243.664,8.955,8.955,0,0,0-5.61,6.143,9.293,9.293,0,0,0,16.881,6.921A9.241,9.241,0,0,0,186.336,1810.167Z" fill="#2d1e07"/>
        <path id="Path_1240" data-name="Path 1240" d="M94.44,1855.051c-5.869,0-5.879,9.121,0,9.121S100.319,1855.051,94.44,1855.051Z" fill="#2d1e07"/>
        <path id="Path_1241" data-name="Path 1241" d="M94.5,1845.069c-5.869,0-5.879,9.121,0,9.121S100.38,1845.069,94.5,1845.069Z" fill="#2d1e07"/>
        <path id="Path_1242" data-name="Path 1242" d="M103.875,1846.112c-5.869,0-5.879,9.121,0,9.121S109.754,1846.112,103.875,1846.112Z" fill="#2d1e07"/>
        <path id="Path_1243" data-name="Path 1243" d="M200.218,1835.7c-5.869,0-5.879,9.121,0,9.121S206.1,1835.7,200.218,1835.7Z" fill="#2d1e07"/>
        <path id="Path_1244" data-name="Path 1244" d="M207.035,1848.826c-5.869,0-5.878,9.121,0,9.121S212.914,1848.826,207.035,1848.826Z" fill="#2d1e07"/>
        <path id="Path_1245" data-name="Path 1245" d="M216.522,1838.818c-5.869,0-5.878,9.121,0,9.121S222.4,1838.818,216.522,1838.818Z" fill="#2d1e07"/>
        <path id="Path_1246" data-name="Path 1246" d="M119.617,1784.566a6.645,6.645,0,0,0-4.845-4.29,8.98,8.98,0,0,0-6.4.778,11.4,11.4,0,0,0-3.951,3.765,3.763,3.763,0,0,0-.468,1.068c-.228.153-.45.311-.652.473a5.842,5.842,0,0,0-1.956,2.841,4.672,4.672,0,0,0,1.563,4.909,5.284,5.284,0,0,0,3.373,1.219c.038,0,.074-.009.113-.012s.048.018.073.023a7.617,7.617,0,0,0,4.13-.4c3.141-1.111,6.239-2.578,8.041-5.2A6.19,6.19,0,0,0,119.617,1784.566Z" fill="#ffca85"/>
        <path id="Path_1247" data-name="Path 1247" d="M150.883,1870.19C130,1870,120,1863.587,122,1850.114a21.313,21.313,0,0,1,8.334-14.529,7.871,7.871,0,0,1,7.433-.963,37.892,37.892,0,0,0,24.707-.085,7.811,7.811,0,0,1,7.362.873c4.349,3.165,7.231,7.929,8.164,14.7C180,1864.609,171.766,1870.38,150.883,1870.19Z" fill="#e13b6b"/>
        <path id="Path_1248" data-name="Path 1248" d="M155.174,1862.588H144.826a8.827,8.827,0,0,1-8.826-8.826h0c0-4.875,4.87-10.826,14-10.826s14,5.951,14,10.826h0A8.827,8.827,0,0,1,155.174,1862.588Z" fill="#f586aa"/>
        <path id="Path_1249" data-name="Path 1249" d="M129.723,1841.069S133,1835,137,1837s-2.468,9.635-5.234,7.817S129.723,1841.069,129.723,1841.069Z" fill="#f47da8"/>
        <path id="Path_1250" data-name="Path 1250" d="M170.186,1841.069S166.91,1835,162.91,1837s2.468,9.635,5.234,7.817S170.186,1841.069,170.186,1841.069Z" fill="#f47da8"/>
        <path id="Path_1251" data-name="Path 1251" d="M144,1852v5s-19.986,21.637,6.766,22.877C175,1881,163.667,1858,155,1856l1-4s15,3,17,18c1.835,13.763-7,20.19-21,20.19s-28.1-8.393-24.383-21.2S144,1852,144,1852Z" fill="#fff2cf"/>
        <path id="Path_1252" data-name="Path 1252" d="M144.181,1850.19s-3.521,6.155,1.149,7.483,11.776.444,11.67-1.673,0-6-3-7A12.284,12.284,0,0,0,144.181,1850.19Z" fill="#ffc1d1"/>
        <path id="Path_1253" data-name="Path 1253" d="M182.446,1856.5a30.35,30.35,0,0,1-1.621-8.184,32.626,32.626,0,0,1,.054-4.2,6.017,6.017,0,0,1,.224-1.566s.146-.436.144-.477c.053-.106.111-.209.174-.31.03-.031.074-.076.145-.154,2.263-2.292-1.27-5.829-3.536-3.535-2.383,2.413-2.334,6.419-2.232,9.592a35.372,35.372,0,0,0,1.826,10.158,2.559,2.559,0,0,0,3.076,1.746A2.524,2.524,0,0,0,182.446,1856.5Z" fill="#2d1e07"/>
        <path id="Path_1254" data-name="Path 1254" d="M122.468,1837.833a2.573,2.573,0,0,0-3.421-.9,2.519,2.519,0,0,0-.9,3.42,14.923,14.923,0,0,1,.6,16.743c-1.723,2.729,2.6,5.24,4.317,2.524A19.928,19.928,0,0,0,122.468,1837.833Z" fill="#2d1e07"/>
        <path id="Path_1255" data-name="Path 1255" d="M91.522,1826.478A174.622,174.622,0,0,0,64.34,1792.5c-4.608-4.47-11.831,2.451-7.193,6.949a163.88,163.88,0,0,1,25.637,31.894C86.14,1836.805,94.906,1831.982,91.522,1826.478Z" fill="#2d1e07"/>
        <path id="Path_1256" data-name="Path 1256" d="M228.623,1797.754a131.7,131.7,0,0,1-16.786,29.347c-3.884,5.11,3.713,11.617,7.616,6.48a141.915,141.915,0,0,0,18.182-31.49C240.1,1796.158,231.094,1791.8,228.623,1797.754Z" fill="#2d1e07"/>
        <g id="Group_559" data-name="Group 559">
          <path id="Path_1257" data-name="Path 1257" d="M159.112,1756.817s-11.749-10.734-17.957-6.893-5.483,7.237-5.472,10.565c.019,5.87,5.472,9,12.743,5.087,2.182-1.175,5.268-1.736,9.089-2.348s3.181-2.739,3.181-2.739Z" fill="#f23b44"/>
          <path id="Path_1258" data-name="Path 1258" d="M164.221,1758.482s17.111-6.409,19.73-.173c1.738,4.137,1.253,9.171-.989,11.963-4.548,5.664-9.618,2.823-13.632,0-6.046-4.253-3.531-3.34-6.73-5.245s-1.592-3.668-1.592-3.668Z" fill="#f23b44"/>
          <path id="Path_1259" data-name="Path 1259" d="M151.833,1756.218s5.682,2.314,4.773,3.88" fill="none" stroke="#ba0d42" stroke-linecap="round" stroke-miterlimit="10" stroke-width="3"/>
          <path id="Path_1260" data-name="Path 1260" d="M150.079,1760.859s6.212-.829,6.479.906" fill="none" stroke="#ba0d42" stroke-linecap="round" stroke-miterlimit="10" stroke-width="3"/>
          <path id="Path_1261" data-name="Path 1261" d="M171.593,1761.495s-6.064-1.424-6.556.274" fill="none" stroke="#ba0d42" stroke-linecap="round" stroke-miterlimit="10" stroke-width="3"/>
          <path id="Path_1262" data-name="Path 1262" d="M169.1,1766.191s-4.092-4.109-5.606-2.941" fill="none" stroke="#ba0d42" stroke-linecap="round" stroke-miterlimit="10" stroke-width="3"/>
          <path id="Path_1263" data-name="Path 1263" d="M167.347,1760c-.6,3.542-2.069,7.527-7.532,7.095-3.72-.294-7.394-1.866-5.959-6.239,1.755-5.349,2.523-6,6.248-6.235S167.887,1756.821,167.347,1760Z" fill="#f45b5b"/>
        </g>
        <circle id="Ellipse_120" data-name="Ellipse 120" cx="16.686" cy="16.686" r="16.686" transform="translate(188.628 1833.317)" fill="#f22281" opacity="0.41"/>
        <circle id="Ellipse_121" data-name="Ellipse 121" cx="16.686" cy="16.686" r="16.686" transform="translate(80.628 1835.317)" fill="#f22281" opacity="0.41"/>
      </g>
    </g>
  </g>
</svg>
