<svg id="Group_7" data-name="Group 7" xmlns="http://www.w3.org/2000/svg" width="150" height="36" viewBox="0 0 150 36">
  <rect id="Rectangle_8" data-name="Rectangle 8" width="150" height="36" fill="none"/>
  <g id="Group_4" data-name="Group 4" transform="translate(1.466 0.097)">
    <g id="Group_3" data-name="Group 3">
      <g id="Group_1" data-name="Group 1" transform="translate(0)">
        <rect id="Rectangle_1" data-name="Rectangle 1" width="14.898" height="13.042" rx="2.153" transform="translate(3.603 3.92)" fill="#ffa35f"/>
        <rect id="Rectangle_2" data-name="Rectangle 2" width="13.545" height="13.042" rx="2.153" transform="translate(3.91 21.375)" fill="#00a8b5"/>
        <rect id="Rectangle_3" data-name="Rectangle 3" width="13.545" height="13.042" rx="2.153" transform="translate(20.723 21.375)" fill="#e2bf91"/>
        <path id="Path_1" data-name="Path 1" d="M37.949-60.182H23.725a1.56,1.56,0,0,1-1.559-1.558v-14.5a.831.831,0,0,0-.831-.831H4.723a.831.831,0,0,0-.831.831v33.774a.832.832,0,0,0,.831.831H37.949a.832.832,0,0,0,.831-.831V-59.351A.832.832,0,0,0,37.949-60.182ZM20.5-44.859A1.559,1.559,0,0,1,18.947-43.3H7.117a1.56,1.56,0,0,1-1.558-1.558v-12.1a1.56,1.56,0,0,1,1.558-1.558h11.83A1.559,1.559,0,0,1,20.5-56.963Zm0-16.882a1.559,1.559,0,0,1-1.558,1.558H7.117A1.56,1.56,0,0,1,5.559-61.74v-12.1A1.56,1.56,0,0,1,7.117-75.4H18.947A1.559,1.559,0,0,1,20.5-73.844ZM37.113-44.859A1.56,1.56,0,0,1,35.554-43.3H23.725a1.56,1.56,0,0,1-1.559-1.558v-12.1a1.56,1.56,0,0,1,1.559-1.558H35.554a1.56,1.56,0,0,1,1.559,1.558Z" transform="translate(-3.892 77.069)" fill="#4c3530"/>
        <path id="Path_2" data-name="Path 2" d="M59.778-56.478H55.751a1.56,1.56,0,0,1-1.558-1.558V-73.844A1.56,1.56,0,0,1,55.751-75.4H57.39a1.56,1.56,0,0,1,1.558,1.559v2.405a.832.832,0,0,0,.831.831.832.832,0,0,0,.831-.831v-4.8a.832.832,0,0,0-.831-.831H46.4a.832.832,0,0,0-.831.831v6.926a.832.832,0,0,0,.831.831.832.832,0,0,0,.831-.831v-4.531A1.56,1.56,0,0,1,48.787-75.4h2.186a1.56,1.56,0,0,1,1.558,1.559v31.379a.832.832,0,0,0,.831.831.832.832,0,0,0,.831-.831V-53.253a1.56,1.56,0,0,1,1.558-1.559H57.39a1.56,1.56,0,0,1,1.558,1.559v10.788a.832.832,0,0,0,.831.831.832.832,0,0,0,.831-.831V-55.647A.832.832,0,0,0,59.778-56.478Z" transform="translate(-15.258 77.069)" fill="#4c3530"/>
        <path id="Path_3" data-name="Path 3" d="M34.589-64.764a6.364,6.364,0,0,0-4.2-1.512A6.332,6.332,0,0,0,26.2-64.764a9.9,9.9,0,0,0-1.814,2.614c-.247.46-.5.964-.751,1.49-.2.417-.395.833-.592,1.277l-.2.444-.2-.444c-.18-.411-.356-.784-.52-1.145l-.023-.044c-.247-.526-.5-1.036-.756-1.5a10.26,10.26,0,0,0-1.847-2.691,6.373,6.373,0,0,0-4.2-1.512,6.339,6.339,0,0,0-4.2,1.512,4.787,4.787,0,0,0-1.72,3.628,4.771,4.771,0,0,0,1.72,3.611,3.709,3.709,0,0,0,.6.427,16.267,16.267,0,0,0,1.474.762c1.041.471,2.4,1,3.917,1.534l.406.137L12.113-51.51a.2.2,0,0,0,.072.362l1.769.241a.566.566,0,0,1,.4.252.506.506,0,0,1,.06.444L13.989-48.8a.2.2,0,0,0,.315.2l6.034-5.2.29.082a7.649,7.649,0,0,0,2.22.329,7.644,7.644,0,0,0,2.2-.324l.065-.005c.064.014,5.053,4.237,6.671,5.608a.2.2,0,0,0,.312-.207l-.43-1.435a.513.513,0,0,1,.06-.444.554.554,0,0,1,.4-.247l1.769-.241a.2.2,0,0,0,.081-.357l-5.652-3.713.4-.132c1.534-.526,2.811-1.019,3.8-1.463a13.758,13.758,0,0,0,1.473-.762,4.1,4.1,0,0,0,.592-.422,4.777,4.777,0,0,0,1.726-3.616A4.787,4.787,0,0,0,34.589-64.764ZM18.037-56.632c-.806-.274-1.507-.527-2.093-.751A12.782,12.782,0,0,1,12.76-58.89,2.988,2.988,0,0,1,11.7-61.142a2.969,2.969,0,0,1,1.063-2.252,3.794,3.794,0,0,1,2.531-.915,3.832,3.832,0,0,1,2.537.915c.761.674,1.912,3.057,2.739,4.948L21.8-55.477C20.99-55.712,18.173-56.583,18.037-56.632ZM32.923-58.89a12.654,12.654,0,0,1-3.177,1.507c-.668.257-1.375.509-2.11.751-.367.126-3.233,1.008-3.748,1.156,0,0,1.167-2.833,1.244-3.013,1.172-2.679,2.115-4.372,2.718-4.9a3.866,3.866,0,0,1,2.543-.915,3.815,3.815,0,0,1,2.531.915,2.955,2.955,0,0,1,1.068,2.252A2.974,2.974,0,0,1,32.923-58.89Z" transform="translate(-5.387 74.125)" fill="#d34242"/>
      </g>
      <g id="Group_2" data-name="Group 2" transform="translate(57.968 1.596)">
        <path id="Path_4" data-name="Path 4" d="M94.41-63.555H91.131l.009.185c.046.863.07,1.674.07,2.41s-.024,1.545-.07,2.409l-.009.185H94.41l-.01-.185c-.045-.844-.069-1.654-.069-2.409s.024-1.567.069-2.41ZM92.525-59.5V-62.42h.489V-59.5Z" transform="translate(-85.652 71.787)" fill="#44302a"/>
        <path id="Path_5" data-name="Path 5" d="M89.358-63.555H86.4l.009.186c.041.76.063,1.535.063,2.3s-.021,1.614-.063,2.516l-.009.185h2.959l-.007-.184c-.042-.935-.063-1.78-.063-2.518s.021-1.51.063-2.3Zm-1.7,4.056V-62.42H88.1V-59.5Z" transform="translate(-84.361 71.787)" fill="#44302a"/>
        <path id="Path_6" data-name="Path 6" d="M95.022-67.215l.225.065a5.378,5.378,0,0,1,1.1.482l.17.095.076-.179c.288-.67.54-1.307.751-1.9.2-.548.388-1.118.569-1.7h3.554c-.113.427-.2.8-.263,1.105-.071.357-.179.8-.317,1.3l-.054.2.2.026a9.628,9.628,0,0,1,1.117.21l.179.045.036-.181c.143-.711.26-1.292.356-1.742s.236-1.1.426-1.955l.047-.214H98.241c.161-.5.3-.988.426-1.452a3.2,3.2,0,0,1,.4-1.041l.14-.185-.217-.084c-.6-.233-1.087-.4-1.438-.5l-.2-.057-.027.2c-.1.71-.227,1.421-.388,2.118s-.343,1.382-.531,2.019-.392,1.232-.6,1.764a8.261,8.261,0,0,1-.662,1.359Z" transform="translate(-86.714 74.874)" fill="#44302a"/>
        <path id="Path_7" data-name="Path 7" d="M92.416-66.975c-.047-.79-.071-1.54-.071-2.23s.024-1.391.071-2.087l.013-.188H87.215l.012.187c.047.719.071,1.422.071,2.089s-.024,1.417-.071,2.231l-.01.185h5.211Zm-3.771-.947v-2.424H91v2.424Z" transform="translate(-84.584 73.948)" fill="#44302a"/>
        <path id="Path_8" data-name="Path 8" d="M99.2-60.1a8.674,8.674,0,0,1-1.22-1.535,8.641,8.641,0,0,1-.836-1.743,5.929,5.929,0,0,1-.346-1.657c-.024-.5-.036-.961-.036-1.379a10.185,10.185,0,0,1,.14-1.5l.031-.2h-.205c-.424,0-.872-.023-1.334-.07l-.2-.021.009.2c.047,1.039.058,1.824.036,2.332a12.9,12.9,0,0,1-.211,1.719,8.92,8.92,0,0,1-.559,1.849,9.119,9.119,0,0,1-1.151,1.918,6.029,6.029,0,0,1-.965,1.007v-1.122l-.187.011c-.745.048-1.532.072-2.337.072H85.026v-12.6H89.9c.785,0,1.546.023,2.265.071l.188.012v-1.3l-.188.012c-.7.047-1.466.07-2.265.07H83.6l.009.185c.047.9.071,1.714.071,2.411v9.25c0,.8-.023,1.752-.071,2.911l-.007.183h6.231c.767,0,1.515.022,2.227.064a6.016,6.016,0,0,1-.607.389l-.289.164.3.148a7.1,7.1,0,0,1,1.249.832l.117.094.111-.1a10.9,10.9,0,0,0,2.314-2.857,11,11,0,0,0,.847-1.975,9.279,9.279,0,0,0,.8,1.732,14.523,14.523,0,0,0,2.485,2.955l.133.127.121-.139c.324-.372.68-.753,1.059-1.129l.167-.167-.207-.112A6.442,6.442,0,0,1,99.2-60.1Z" transform="translate(-83.598 74.646)" fill="#44302a"/>
        <path id="Path_9" data-name="Path 9" d="M126.9-63.088l.446-8.392H124.98l.446,8.392Z" transform="translate(-94.884 73.948)" fill="#44302a"/>
        <rect id="Rectangle_4" data-name="Rectangle 4" width="1.917" height="1.917" transform="translate(30.32 13.071)" fill="#44302a"/>
        <path id="Path_10" data-name="Path 10" d="M155.807-72.242c.047.615.07,1.257.07,1.908v1.21c0,.555-.023,1.2-.07,1.909l-.012.187h9.055l-.012-.188c-.047-.7-.071-1.342-.071-1.908v-1.21c0-.706.023-1.348.071-1.906l.015-.191h-2.5c.005-.417.028-.856.07-1.3l.017-.193H160.7l.017.191c.041.467.065.894.069,1.3h-.927c.006-.385.029-.821.07-1.3l.016-.191h-1.735l.016.19c.041.5.064.931.069,1.3h-2.5Zm7.4,3.151v.787h-.859v-.787Zm0-2.063v.786h-.859v-.786Zm-2.42,2.063v.787h-.929v-.787Zm0-2.063v.786h-.929v-.786Zm-2.49,2.063v.787h-.857v-.787Zm0-2.063v.786h-.857v-.786Z" transform="translate(-103.287 74.615)" fill="#44302a"/>
        <path id="Path_11" data-name="Path 11" d="M150.651-58.981v-3.713c.148.183.28.353.393.508q.283.392.781,1.1l.12.17.148-.147a9.847,9.847,0,0,1,1.048-.91l.142-.1-.106-.142q-.427-.568-.89-1.175a10.7,10.7,0,0,0-.9-1.049l-.116-.114-.123.105q-.276.236-.492.456v-.5q.419-.9.836-1.777c.287-.6.577-1.261.859-1.968l.1-.241H148.91c-.609,0-1.276-.023-1.98-.07l-.188-.012v1.583l.187-.011c.766-.048,1.457-.071,2.053-.071h1.169a14.732,14.732,0,0,1-.649,1.416,13.083,13.083,0,0,1-1.018,1.649,14.582,14.582,0,0,1-1.16,1.405,7.592,7.592,0,0,1-1.077.974l-.207.148.212.142a11.543,11.543,0,0,1,1.191.911l.143.125.114-.151c.277-.371.562-.727.846-1.059a7.8,7.8,0,0,0,.545-.72v3.238c0,.7-.024,1.555-.071,2.553l-.009.184h1.72l-.008-.184C150.675-57.411,150.651-58.271,150.651-58.981Z" transform="translate(-100.627 73.152)" fill="#44302a"/>
        <path id="Path_12" data-name="Path 12" d="M157.739-62.308h5.052c.65,0,1.368.023,2.195.071l.186.011v-1.441l-.186.011c-.8.047-1.538.071-2.195.071h-5.052c-.847,0-1.73-.024-2.624-.071l-.185-.009v1.438l.185-.009C156.026-62.285,156.909-62.308,157.739-62.308Z" transform="translate(-103.052 71.818)" fill="#44302a"/>
        <path id="Path_13" data-name="Path 13" d="M164.968-54.114v-1.622l-.193.019c-.468.046-1.18.069-2.118.069h-.137a6.151,6.151,0,0,1,.767-1.132l.161-.185-.225-.093c-.572-.238-1.079-.43-1.506-.573l-.039-.013h2.08v-3.269h-7.609v3.269h1.927l-.043.019c-.425.188-.875.379-1.345.566l-.2.079.111.178a6.19,6.19,0,0,1,.543,1.154h-.535c-.61,0-1.277-.023-1.98-.071l-.188-.012v1.518l.191-.017c.515-.046,1.18-.069,1.977-.069h6.048a11.116,11.116,0,0,1,2.1.137ZM162.2-59.637v.716H157.71v-.716Zm-.7,2.111c-.142.379-.26.685-.355.921l-.383.956h-1.814a8.879,8.879,0,0,0-.361-1,6.144,6.144,0,0,1-.311-.864l-.037-.132h3.305Z" transform="translate(-102.919 71.067)" fill="#44302a"/>
        <path id="Path_14" data-name="Path 14" d="M150.287-71.661c.26.452.463.795.606,1.034l.116.193.16-.161a4.211,4.211,0,0,1,1.093-.75l.167-.084-.095-.161c-.321-.553-.623-1.046-.894-1.467-.263-.4-.513-.775-.752-1.109l-.09-.127-.137.076a7.035,7.035,0,0,0-1.168.8l-.125.107.1.132A15.543,15.543,0,0,1,150.287-71.661Z" transform="translate(-101.48 74.715)" fill="#44302a"/>
        <path id="Path_15" data-name="Path 15" d="M191.869-62.968H184.95l.011.187c.048.759.071,2.037.071,3.8s-.024,3.084-.071,3.939l-.009.185h1.713v-1.281h3.491v1.21h1.71l-.007-.181c-.047-1.408-.071-2.867-.071-4.335s.023-2.585.07-3.333Zm-1.714,1.561v3.7h-3.491v-3.7Z" transform="translate(-111.239 71.627)" fill="#44302a"/>
        <path id="Path_16" data-name="Path 16" d="M196.4-54.86h1.713v-1.281h3.633v1h1.716l-.013-.188c-.047-.7-.07-1.929-.07-3.651s.024-3,.071-3.8l.01-.185H196.4l.01.185c.047.817.071,2.105.071,3.832s-.024,3.041-.071,3.9Zm5.346-6.546v3.7h-3.633v-3.7Z" transform="translate(-114.361 71.627)" fill="#44302a"/>
        <path id="Path_17" data-name="Path 17" d="M188.473-67.1h10.12l-.01-.187c-.047-.794-.071-1.736-.071-2.8s.024-2.03.071-2.872l.01-.185h-10.12l.011.185c.047.807.071,1.762.071,2.836s-.024,2.028-.071,2.836Zm8.407-4.484v2.922h-6.693v-2.922Z" transform="translate(-112.2 74.402)" fill="#44302a"/>
        <path id="Path_18" data-name="Path 18" d="M90.758-44.891a3.406,3.406,0,0,0-1.234-.86,4.5,4.5,0,0,0-1.751-.311,4.459,4.459,0,0,0-1.736.311,3.358,3.358,0,0,0-1.228.861,3.516,3.516,0,0,0-.719,1.288,5.233,5.233,0,0,0-.23,1.573v2.075a5.249,5.249,0,0,0,.23,1.575,3.5,3.5,0,0,0,.719,1.285,3.349,3.349,0,0,0,1.228.862,4.473,4.473,0,0,0,1.736.31,4.517,4.517,0,0,0,1.751-.31,3.421,3.421,0,0,0,1.234-.86,3.444,3.444,0,0,0,.727-1.287,5.219,5.219,0,0,0,.231-1.575v-2.075a5.219,5.219,0,0,0-.231-1.575A3.473,3.473,0,0,0,90.758-44.891Zm-1.129,2.863v2.09a2.182,2.182,0,0,1-.479,1.6,1.923,1.923,0,0,1-1.377.462,1.924,1.924,0,0,1-1.362-.465,2.13,2.13,0,0,1-.493-1.6v-2.09a2.135,2.135,0,0,1,.493-1.6,1.926,1.926,0,0,1,1.362-.464,1.916,1.916,0,0,1,1.377.463A2.178,2.178,0,0,1,89.629-42.028Z" transform="translate(-83.67 67.016)" fill="#44302a"/>
        <path id="Path_19" data-name="Path 19" d="M102.2-35.009a1.094,1.094,0,0,0-.756.258.807.807,0,0,0-.295.609v.353a.8.8,0,0,0,.295.609,1.089,1.089,0,0,0,.756.258,1.044,1.044,0,0,0,.735-.26.81.81,0,0,0,.287-.607v-.353a.812.812,0,0,0-.287-.607A1.048,1.048,0,0,0,102.2-35.009Z" transform="translate(-88.385 64.002)" fill="#44302a"/>
        <path id="Path_20" data-name="Path 20" d="M102.2-46.061a1.09,1.09,0,0,0-.756.261.808.808,0,0,0-.295.612v5.516a.812.812,0,0,0,.294.612,1.087,1.087,0,0,0,.757.261,1.037,1.037,0,0,0,.735-.263.82.82,0,0,0,.286-.611v-5.516a.819.819,0,0,0-.287-.612A1.043,1.043,0,0,0,102.2-46.061Z" transform="translate(-88.385 67.016)" fill="#44302a"/>
        <path id="Path_21" data-name="Path 21" d="M116.554-42.132a3.157,3.157,0,0,0-1.137-.785,4.079,4.079,0,0,0-1.581-.289,4.386,4.386,0,0,0-1.491.233,3.065,3.065,0,0,0-1.092.661,2.762,2.762,0,0,0-.665,1.005,3.466,3.466,0,0,0-.22,1.242V-32.9a.8.8,0,0,0,.305.614,1.118,1.118,0,0,0,.761.26,1.04,1.04,0,0,0,.735-.263.82.82,0,0,0,.286-.611v-2.913a2.746,2.746,0,0,0,.629.424,2.539,2.539,0,0,0,1.123.233,3.427,3.427,0,0,0,1.47-.29,2.809,2.809,0,0,0,1.012-.793,3.325,3.325,0,0,0,.58-1.143,4.9,4.9,0,0,0,.185-1.361v-.875a4.14,4.14,0,0,0-.225-1.369A3.333,3.333,0,0,0,116.554-42.132Zm-2.719.895a1.456,1.456,0,0,1,1.1.421,1.54,1.54,0,0,1,.417,1.137v.993a1.533,1.533,0,0,1-.417,1.137,1.454,1.454,0,0,1-1.1.423,1.454,1.454,0,0,1-1-.343,1.347,1.347,0,0,1-.385-1.068v-1.587a.935.935,0,0,1,.371-.833A1.721,1.721,0,0,1,113.835-41.237Z" transform="translate(-90.899 66.237)" fill="#44302a"/>
        <path id="Path_22" data-name="Path 22" d="M129.648-43.206a3.445,3.445,0,0,0-2.527.816,3.139,3.139,0,0,0-.807,2.3v4.078a.8.8,0,0,0,.3.614,1.113,1.113,0,0,0,.761.258,1.036,1.036,0,0,0,.736-.262.825.825,0,0,0,.286-.61v-4.137a1.683,1.683,0,0,1,.084-.591.641.641,0,0,1,.22-.305.9.9,0,0,1,.377-.148,4.117,4.117,0,0,1,1.008-.02,2.411,2.411,0,0,0,.481,0,.877.877,0,0,0,.443-.167.734.734,0,0,0,.26-.491.979.979,0,0,0-.372-1A2.055,2.055,0,0,0,129.648-43.206Z" transform="translate(-95.247 66.237)" fill="#44302a"/>
        <path id="Path_23" data-name="Path 23" d="M143.821-42.159a3.014,3.014,0,0,0-1.031-.755,3.582,3.582,0,0,0-1.513-.292,3.508,3.508,0,0,0-1.374.265,3.405,3.405,0,0,0-1.079.721,3.351,3.351,0,0,0-.712,1.063,3.322,3.322,0,0,0-.259,1.3v1.572a2.884,2.884,0,0,0,.269,1.224,3.047,3.047,0,0,0,.747,1,3.633,3.633,0,0,0,1.129.669,4,4,0,0,0,1.442.249,4.2,4.2,0,0,0,1.076-.132,3.978,3.978,0,0,0,.876-.334,2.157,2.157,0,0,0,.612-.47.891.891,0,0,0,.252-.6.893.893,0,0,0-.225-.57.8.8,0,0,0-1.028-.11c-.127.068-.259.137-.391.2a1.79,1.79,0,0,1-.48.127,4.545,4.545,0,0,1-.708.051,1.534,1.534,0,0,1-1.115-.38,1.347,1.347,0,0,1-.385-1.017v-.21h3.339a1.336,1.336,0,0,0,1.017-.336,1.551,1.551,0,0,0,.315-1.1,3.522,3.522,0,0,0-.187-1.11A3.027,3.027,0,0,0,143.821-42.159Zm-2.557.743a1.472,1.472,0,0,1,.976.315,1.016,1.016,0,0,1,.36.829v.047h-2.65a1.562,1.562,0,0,1,.383-.825A1.2,1.2,0,0,1,141.263-41.416Z" transform="translate(-98.395 66.237)" fill="#44302a"/>
        <path id="Path_24" data-name="Path 24" d="M157.7-39.522a3.419,3.419,0,0,0-.9-.42c-.307-.1-.591-.183-.852-.268a2.928,2.928,0,0,1-.616-.265.307.307,0,0,1-.174-.286.577.577,0,0,1,.188-.442.859.859,0,0,1,.6-.183,1.917,1.917,0,0,1,.708.1c.169.071.292.127.36.161a2.072,2.072,0,0,0,.5.2.854.854,0,0,0,.7-.153.717.717,0,0,0,.3-.551,1.043,1.043,0,0,0-.1-.566,1.145,1.145,0,0,0-.251-.343,1.725,1.725,0,0,0-.479-.324,3.629,3.629,0,0,0-.726-.243,4.631,4.631,0,0,0-1.018-.1,3.084,3.084,0,0,0-2.119.689,2.322,2.322,0,0,0-.786,1.815,1.974,1.974,0,0,0,.3,1.139,2.361,2.361,0,0,0,.729.681,4.04,4.04,0,0,0,.913.4c.309.095.6.188.868.28a2.36,2.36,0,0,1,.628.316.467.467,0,0,1,.2.4.465.465,0,0,1-.216.405,1.115,1.115,0,0,1-.661.176,2.089,2.089,0,0,1-1.247-.294c-.068-.048-.135-.1-.2-.15a1.209,1.209,0,0,0-.263-.159.966.966,0,0,0-.773.036.67.67,0,0,0-.31.243,1.025,1.025,0,0,0-.141.3.878.878,0,0,0-.029.334.815.815,0,0,0,.079.283l.005.011a1.631,1.631,0,0,0,.449.467,3.118,3.118,0,0,0,.665.36,4.265,4.265,0,0,0,.836.241,5.2,5.2,0,0,0,.929.084,3.185,3.185,0,0,0,2.1-.648,2.211,2.211,0,0,0,.789-1.782,2.33,2.33,0,0,0-.284-1.2A2.351,2.351,0,0,0,157.7-39.522Z" transform="translate(-102.48 66.237)" fill="#44302a"/>
        <path id="Path_25" data-name="Path 25" d="M172.551-42.159a3.017,3.017,0,0,0-1.031-.755,3.581,3.581,0,0,0-1.512-.292,3.511,3.511,0,0,0-1.375.265,3.393,3.393,0,0,0-1.078.721,3.338,3.338,0,0,0-.712,1.063,3.309,3.309,0,0,0-.259,1.3v1.572a2.873,2.873,0,0,0,.269,1.224,3.035,3.035,0,0,0,.746,1,3.645,3.645,0,0,0,1.129.669,4,4,0,0,0,1.442.249,4.19,4.19,0,0,0,1.075-.132,3.979,3.979,0,0,0,.876-.334,2.161,2.161,0,0,0,.612-.47.894.894,0,0,0,.252-.6.9.9,0,0,0-.224-.57.8.8,0,0,0-1.028-.11c-.127.068-.259.137-.391.2a1.806,1.806,0,0,1-.48.127,4.559,4.559,0,0,1-.708.051,1.535,1.535,0,0,1-1.116-.38,1.346,1.346,0,0,1-.384-1.017v-.21h3.339a1.333,1.333,0,0,0,1.017-.336,1.55,1.55,0,0,0,.316-1.1,3.522,3.522,0,0,0-.187-1.11A3.051,3.051,0,0,0,172.551-42.159Zm-2.558.743a1.474,1.474,0,0,1,.977.315,1.018,1.018,0,0,1,.36.829v.047h-2.65a1.556,1.556,0,0,1,.383-.825A1.2,1.2,0,0,1,169.993-41.416Z" transform="translate(-106.23 66.237)" fill="#44302a"/>
        <path id="Path_26" data-name="Path 26" d="M188.011-42.3a3,3,0,0,0-1.094-.671,4.4,4.4,0,0,0-1.491-.233,4.046,4.046,0,0,0-1.5.257,3.065,3.065,0,0,0-1.094.726,3.019,3.019,0,0,0-.661,1.1,4.127,4.127,0,0,0-.217,1.354v3.753a.8.8,0,0,0,.3.614,1.113,1.113,0,0,0,.761.258,1.039,1.039,0,0,0,.737-.262.826.826,0,0,0,.285-.61v-3.812a1.333,1.333,0,0,1,.384-1.068,1.452,1.452,0,0,1,1-.342,1.427,1.427,0,0,1,.988.34,1.366,1.366,0,0,1,.379,1.07v3.812a.811.811,0,0,0,.3.612,1.067,1.067,0,0,0,.74.26,1.131,1.131,0,0,0,.753-.257.8.8,0,0,0,.313-.615v-3.9a3.953,3.953,0,0,0-.217-1.334A2.765,2.765,0,0,0,188.011-42.3Z" transform="translate(-110.423 66.237)" fill="#44302a"/>
        <path id="Path_27" data-name="Path 27" d="M201.682-37.919a2.066,2.066,0,0,0-.517.058,1.993,1.993,0,0,1-.461.045.377.377,0,0,1-.333-.151,1.331,1.331,0,0,1-.129-.74v-3.413h.921a.8.8,0,0,0,.567-.235.848.848,0,0,0,.247-.637.813.813,0,0,0-.247-.609.8.8,0,0,0-.567-.235h-.921v-1.351a.818.818,0,0,0-.287-.612,1.042,1.042,0,0,0-.735-.262,1.11,1.11,0,0,0-.77.261.808.808,0,0,0-.3.612v1.351h-.417a.794.794,0,0,0-.566.235.807.807,0,0,0-.247.609.844.844,0,0,0,.247.637.794.794,0,0,0,.567.235h.417v3.354a3.252,3.252,0,0,0,.578,2.185,2.33,2.33,0,0,0,1.823.659,5.206,5.206,0,0,0,.7-.045,2.291,2.291,0,0,0,.611-.17,1.26,1.26,0,0,0,.455-.337.862.862,0,0,0,.19-.572.952.952,0,0,0-.2-.625A.791.791,0,0,0,201.682-37.919Z" transform="translate(-114.505 67.016)" fill="#44302a"/>
      </g>
    </g>
  </g>
</svg>
