<svg xmlns="http://www.w3.org/2000/svg" width="28" height="28" viewBox="0 0 28 28">
  <g id="Group_178" data-name="Group 178" transform="translate(997.021 -1443.756)">
    <path id="Path_208" data-name="Path 208" d="M14,0A14,14,0,1,1,0,14,14,14,0,0,1,14,0Z" transform="translate(-997.021 1443.756)" fill="#d34242"/>
    <g id="Group_177" data-name="Group 177" transform="translate(-989.929 1448.686)">
      <path id="Path_204" data-name="Path 204" d="M-982.072,1449.038a1.208,1.208,0,0,1,.906.939.147.147,0,0,0,.175.126c.272-.006.543,0,.815,0a1.068,1.068,0,0,1,1.114,1.115c0,.142,0,.284,0,.425a.537.537,0,0,1-.584.584q-1.921,0-3.842,0c-.455,0-.909,0-1.364,0a.537.537,0,0,1-.584-.584c0-.159,0-.318,0-.478a1.06,1.06,0,0,1,1.06-1.06c.277-.008.555-.009.832,0a.188.188,0,0,0,.225-.159,1.14,1.14,0,0,1,.567-.776c.1-.052.216-.088.324-.132Z" transform="translate(989.156 -1449.038)" fill="#fff"/>
      <path id="Path_205" data-name="Path 205" d="M-986.752,1451.316a5.943,5.943,0,0,0,0,.683,1.561,1.561,0,0,0,1.586,1.436q2.646.017,5.294,0a1.585,1.585,0,0,0,1.6-1.613c0-.16,0-.319,0-.508.161,0,.317,0,.474,0a5.2,5.2,0,0,1,.968.059,1.557,1.557,0,0,1,1.213,1.579c.006.549,0,1.1,0,1.647q0,5.471,0,10.942a1.7,1.7,0,0,1-.893,1.595,1.553,1.553,0,0,1-.782.187q-3.612,0-7.224,0c-1.063,0-2.126-.021-3.187.006a1.69,1.69,0,0,1-1.727-1.717v-2.072q0-5.258,0-10.518a1.567,1.567,0,0,1,.9-1.535,1.867,1.867,0,0,1,.662-.163C-987.5,1451.3-987.148,1451.316-986.752,1451.316Zm1.054,5.11c-.248-.253-.461-.482-.687-.7a.522.522,0,0,0-.76,0,.521.521,0,0,0,.01.748q.518.533,1.052,1.051a.511.511,0,0,0,.759,0q1.064-1.05,2.115-2.115a.517.517,0,0,0,.009-.747.521.521,0,0,0-.76,0c-.419.408-.83.823-1.241,1.238C-985.362,1456.067-985.517,1456.236-985.7,1456.426Zm-.012,3.711c-.236-.243-.445-.467-.665-.68a.524.524,0,0,0-.761-.02.522.522,0,0,0,0,.76q.518.533,1.052,1.051a.507.507,0,0,0,.746.006c.715-.7,1.422-1.415,2.129-2.126a.5.5,0,0,0,.139-.5.527.527,0,0,0-.9-.234c-.37.356-.728.724-1.09,1.087C-985.265,1459.688-985.476,1459.9-985.71,1460.137Zm.013,3.733c-.255-.261-.467-.491-.692-.707a.52.52,0,0,0-.747-.006.516.516,0,0,0-.006.747c.347.361.7.716,1.063,1.064a.506.506,0,0,0,.746,0q1.072-1.057,2.129-2.127a.5.5,0,0,0,.138-.5.529.529,0,0,0-.911-.219c-.413.4-.82.814-1.227,1.225C-985.365,1463.509-985.518,1463.68-985.7,1463.87Zm5.838-7.243h1.522a.54.54,0,0,0,.6-.531.539.539,0,0,0-.6-.531h-3.045a.54.54,0,0,0-.6.531.539.539,0,0,0,.6.531Zm-.015,3.719c.513,0,1.027,0,1.541,0a.539.539,0,0,0,.6-.534.539.539,0,0,0-.6-.527q-1.522,0-3.045,0a.538.538,0,0,0-.6.534.54.54,0,0,0,.6.527C-980.877,1460.347-980.375,1460.346-979.874,1460.346Zm0,3.718h1.522a.543.543,0,0,0,.614-.536.541.541,0,0,0-.6-.526h-3.045a.538.538,0,0,0-.6.535.541.541,0,0,0,.6.527Z" transform="translate(989.422 -1449.189)" fill="#fff"/>
    </g>
  </g>
</svg>
