<svg xmlns="http://www.w3.org/2000/svg" width="28" height="28" viewBox="0 0 28 28">
  <g id="Group_176" data-name="Group 176" transform="translate(997.258 -1481.754)">
    <circle id="Ellipse_15" data-name="Ellipse 15" cx="14" cy="14" r="14" transform="translate(-997.258 1481.754)" fill="#00a8b5"/>
    <g id="Group_175" data-name="Group 175" transform="translate(-993.701 1485.313)">
      <path id="Path_201" data-name="Path 201" d="M-982.635,1506.451h-.734a.169.169,0,0,0-.051-.03,3.788,3.788,0,0,1-1.8-.756,7.341,7.341,0,0,0-3.133-1.3,3.5,3.5,0,0,1-2.974-2.875,8.254,8.254,0,0,0-1.482-3.491,2.6,2.6,0,0,1-.27-.454,3.433,3.433,0,0,1,.363-3.672,7.7,7.7,0,0,0,1.357-3.239,3.489,3.489,0,0,1,2.889-2.959,8.432,8.432,0,0,0,3.506-1.5,3.223,3.223,0,0,1,1.828-.609,3.459,3.459,0,0,1,2.231.7,7.718,7.718,0,0,0,3.289,1.388,3.477,3.477,0,0,1,2.941,2.884,8.706,8.706,0,0,0,1.48,3.493,5.7,5.7,0,0,1,.531,1.157,2.5,2.5,0,0,1,.1.451v.734a.17.17,0,0,0-.026.054,3.811,3.811,0,0,1-.77,1.814,7.31,7.31,0,0,0-1.285,3.115,3.508,3.508,0,0,1-2.873,2.974,8.293,8.293,0,0,0-3.391,1.409,4.412,4.412,0,0,1-.891.482A6.436,6.436,0,0,1-982.635,1506.451Zm-7.831-10.462a7.477,7.477,0,0,0,7.435,7.482,7.477,7.477,0,0,0,7.492-7.446,7.476,7.476,0,0,0-7.455-7.482A7.476,7.476,0,0,0-990.465,1495.989Z" transform="translate(993.447 -1485.567)" fill="#fff"/>
      <path id="Path_202" data-name="Path 202" d="M-976.462,1496.305a6.252,6.252,0,0,1-6.236,6.244,6.253,6.253,0,0,1-6.243-6.239,6.252,6.252,0,0,1,6.237-6.243A6.25,6.25,0,0,1-976.462,1496.305Zm-8.52.559c-.026.074-.048.138-.07.2-.269.74-.541,1.479-.8,2.221a.837.837,0,0,0-.048.415.6.6,0,0,0,.943.367q1.05-.644,2.09-1.307a.271.271,0,0,1,.343,0c.676.431,1.356.854,2.036,1.279a.624.624,0,0,0,.776.008.628.628,0,0,0,.167-.773c-.27-.747-.539-1.493-.816-2.238a.21.21,0,0,1,.074-.288c.506-.4,1-.814,1.5-1.224a.622.622,0,0,0,.249-.733.625.625,0,0,0-.662-.4c-.632,0-1.264-.005-1.9,0a.261.261,0,0,1-.305-.206c-.219-.642-.457-1.278-.691-1.915a.633.633,0,0,0-.6-.491.633.633,0,0,0-.616.5c-.235.644-.472,1.287-.7,1.935a.228.228,0,0,1-.262.179c-.632-.008-1.265,0-1.9,0a.639.639,0,0,0-.7.412.629.629,0,0,0,.273.743Z" transform="translate(993.147 -1485.867)" fill="#fff"/>
      <path id="Path_203" data-name="Path 203" d="M-983.789,1498.331q.182-.5.365-1.007a.669.669,0,0,0-.259-.939l-.578-.476h.819a.645.645,0,0,0,.716-.5c.1-.287.207-.572.333-.919.1.256.173.459.246.664.265.731.307.761,1.086.761h.541c-.246.2-.448.368-.648.535a.615.615,0,0,0-.218.793c.108.306.222.611.332.917.022.062.037.124.071.235-.343-.214-.649-.387-.936-.587a.736.736,0,0,0-.938,0c-.287.2-.594.376-.893.563Z" transform="translate(992.835 -1486.162)" fill="#fff"/>
    </g>
  </g>
</svg>
