<svg xmlns="http://www.w3.org/2000/svg" width="48" height="48" viewBox="0 0 48 48">
  <g id="Group_42" data-name="Group 42" transform="translate(1210.443 -704.557)">
    <circle id="Ellipse_1" data-name="Ellipse 1" cx="20" cy="20" r="20" transform="translate(-1206.443 708.557)" fill="#f1ab33"/>
    <g id="Group_152" data-name="Group 152">
      <g id="Group_43" data-name="Group 43" transform="translate(-1201.746 720.719)">
        <path id="Path_70" data-name="Path 70" d="M-1186,759.389a1.216,1.216,0,0,1,.881-.866,1.138,1.138,0,0,1,.244-.031q1.774,0,3.548,0c.037,0,.074.005.124.008l4.7,13.509h11.645a1.131,1.131,0,0,1,1.209.969,1.127,1.127,0,0,1-.947,1.282,3.042,3.042,0,0,1-.381.018q-6.434,0-12.868.006a.333.333,0,0,1-.375-.271q-2.245-6.493-4.5-12.983c-.068-.2-.152-.282-.374-.273-.5.02-1,.006-1.5.006a1.209,1.209,0,0,1-1.4-.924Z" transform="translate(1186 -758.491)" fill="#fff"/>
        <path id="Path_71" data-name="Path 71" d="M-1141.458,774.941h7.646c.1,0,.194,0,.291,0a.5.5,0,0,1,.515.7c-.25.9-.513,1.794-.773,2.691q-.678,2.333-1.359,4.666a1.068,1.068,0,0,1-1.135.867q-5.067,0-10.134,0a1.074,1.074,0,0,1-1.114-.8q-1.218-3.561-2.431-7.123c-.215-.632.049-1,.716-1Q-1145.347,774.939-1141.458,774.941Z" transform="translate(1158.554 -772.393)" fill="#fff"/>
        <path id="Path_72" data-name="Path 72" d="M-1148.9,832.633a2.009,2.009,0,0,1-2.012-1.987,2.019,2.019,0,0,1,2-2.023,2.011,2.011,0,0,1,2.01,2.014A2,2,0,0,1-1148.9,832.633Z" transform="translate(1159.231 -811.997)" fill="#fff"/>
        <path id="Path_73" data-name="Path 73" d="M-1111.089,830.756a2.005,2.005,0,0,1-1.989,2.009,2.015,2.015,0,0,1-2.023-2,2.006,2.006,0,0,1,1.993-2A2,2,0,0,1-1111.089,830.756Z" transform="translate(1131.909 -812.101)" fill="#fff"/>
      </g>
      <g id="Ellipse_2" data-name="Ellipse 2" transform="translate(-1183.848 716.497)" fill="#fff" stroke="#f1ab33" stroke-miterlimit="10" stroke-width="2">
        <circle cx="5.097" cy="5.097" r="5.097" stroke="none"/>
        <circle cx="5.097" cy="5.097" r="6.097" fill="none"/>
      </g>
      <path id="Path_74" data-name="Path 74" d="M-1095.1,756.361h-1.81v-1.81a.679.679,0,0,0-.678-.679.679.679,0,0,0-.679.679v1.81h-1.81a.679.679,0,0,0-.678.679.679.679,0,0,0,.678.679h1.81v1.81a.679.679,0,0,0,.679.679.679.679,0,0,0,.678-.679v-1.81h1.81a.679.679,0,0,0,.679-.679A.679.679,0,0,0-1095.1,756.361Z" transform="translate(-81.164 -35.445)" fill="#f1ab33"/>
    </g>
    <g id="Ellipse_3" data-name="Ellipse 3" transform="translate(-1210.443 704.557)" fill="none" stroke="#f1ab33" stroke-width="2">
      <circle cx="24" cy="24" r="24" stroke="none"/>
      <circle cx="24" cy="24" r="23" fill="none"/>
    </g>
  </g>
</svg>
