<svg xmlns="http://www.w3.org/2000/svg" width="42" height="42.001" viewBox="0 0 42 42.001">
  <path id="Path_52" data-name="Path 52" d="M-830,229h0a21.016,21.016,0,0,0-21,21.033h0A21,21,0,0,0-831.282,271v-8.048c0-2.171-.005-4.341.006-6.512,0-.306-.066-.413-.393-.408-1.151.021-2.3.014-3.452.006-.958-.006-1.125-.179-1.125-1.124q0-2.292,0-4.583c0-.856.209-1.065,1.07-1.067,1.137,0,2.275-.024,3.411.01.427.014.491-.127.494-.513.005-1.46-.065-2.919.059-4.379a7.282,7.282,0,0,1,6.864-6.891c1.7-.141,3.4-.046,5.095-.053.527,0,.783.237.79.761q.03,2.431,0,4.864c-.006.5-.213.707-.723.726-1.109.042-2.22.046-3.33.065-1.278.022-1.778.515-1.789,1.781-.01,1.085,0,2.172-.017,3.256-.006.308.09.381.385.378,1.378-.015,2.756-.007,4.134-.005a3.231,3.231,0,0,1,.44.02c.494.067.686.263.688.767q.013,2.612,0,5.226c0,.506-.2.723-.7.731-1.485.027-2.969.041-4.454.022-.412,0-.507.109-.506.513.01,2.818.012,8.835.01,13.726A21.021,21.021,0,0,0-809,250.033h0A21.016,21.016,0,0,0-830,229Z" transform="translate(851 -229)" fill="#436b98"/>
</svg>
