<svg xmlns="http://www.w3.org/2000/svg" width="42" height="42" viewBox="0 0 42 42">
  <g id="Group_29" data-name="Group 29" transform="translate(0.001 0)">
    <path id="Path_52" data-name="Path 52" d="M-831.407,177.7h0a21,21,0,0,0-21,21h0a21,21,0,0,0,21,21h0a21,21,0,0,0,21-21h0A21,21,0,0,0-831.407,177.7Zm15.109,21.631a9.741,9.741,0,0,1-1.024,3.8,15.692,15.692,0,0,1-3.247,4.228,42.541,42.541,0,0,1-6.132,4.87c-1.359.909-2.769,1.744-4.173,2.584a4.771,4.771,0,0,1-1.151.449c-.389.11-.631-.106-.631-.51a4.39,4.39,0,0,1,.048-.558c.076-.555.194-1.108.231-1.665.061-.933-.132-1.307-1.022-1.572-.46-.137-.941-.2-1.413-.292a15.659,15.659,0,0,1-7.937-3.889,10.894,10.894,0,0,1-3.714-7.763,26.17,26.17,0,0,1,.309-2.868,11.552,11.552,0,0,1,4.183-6.256,16.7,16.7,0,0,1,9.93-3.556,17.132,17.132,0,0,1,4.549.411,15.516,15.516,0,0,1,7.6,3.928A10.777,10.777,0,0,1-816.3,199.335Z" transform="translate(852.406 -177.704)" fill="#439848"/>
    <path id="Path_53" data-name="Path 53" d="M-828.624,194.038a.8.8,0,0,0-.845.882q0,1.571,0,3.139v.51c-.091-.114-.135-.165-.175-.219l-2.823-3.841a.921.921,0,0,0-.669-.464.859.859,0,0,0-.978.952c0,1.64,0,3.28,0,4.92,0,.372-.011.746,0,1.117a.862.862,0,0,0,1.213.825.9.9,0,0,0,.524-.909c0-1.145,0-2.29,0-3.518l.14.194c.964,1.314,1.924,2.63,2.893,3.939a.825.825,0,0,0,.985.322.843.843,0,0,0,.575-.86q0-3.049,0-6.1A.818.818,0,0,0-828.624,194.038Z" transform="translate(853.402 -176.792)" fill="#439848"/>
    <path id="Path_54" data-name="Path 54" d="M-823.133,200.207c-.594,0-1.189-.01-1.781,0-.243.006-.355-.059-.333-.32a3.591,3.591,0,0,0,0-.664c-.031-.3.1-.372.38-.369.643.007,1.289.012,1.929-.04a.82.82,0,0,0,.77-.908.863.863,0,0,0-.907-.785c-.634,0-1.268-.005-1.9,0-.191,0-.276-.061-.269-.262.01-.281.014-.564,0-.845-.012-.232.086-.293.3-.29.644.01,1.288,0,1.932,0a.79.79,0,0,0,.774-.522.811.811,0,0,0-.673-1.16c-1.115-.041-2.232-.019-3.347,0a.758.758,0,0,0-.667.612,2.778,2.778,0,0,0-.052.538c-.005.916,0,1.832,0,2.748,0,.976-.006,1.953,0,2.929.006.69.341,1.063.959,1.068q1.451.015,2.9,0a.889.889,0,0,0,.952-.881A.892.892,0,0,0-823.133,200.207Z" transform="translate(853.76 -176.793)" fill="#439848"/>
    <path id="Path_55" data-name="Path 55" d="M-838.258,200.208c-.544,0-1.087,0-1.631,0-.5,0-.5,0-.5-.482,0-1.54.01-3.081-.009-4.62a1.575,1.575,0,0,0-.218-.76.789.789,0,0,0-.947-.264.859.859,0,0,0-.565.846c-.006,1.017,0,2.034,0,3.051s0,2.013,0,3.019a.881.881,0,0,0,.916.948q1.5.022,2.99,0a.873.873,0,0,0,.891-.908A.864.864,0,0,0-838.258,200.208Z" transform="translate(852.954 -176.793)" fill="#439848"/>
    <path id="Path_56" data-name="Path 56" d="M-835.9,194.043a.846.846,0,0,0-.919.921c-.007,1,0,1.993,0,2.989,0,1.016-.008,2.034,0,3.05a.861.861,0,0,0,1.239.844.909.909,0,0,0,.5-.9q0-1.418,0-2.838c0-1.046.005-2.093,0-3.139A.85.85,0,0,0-835.9,194.043Z" transform="translate(853.202 -176.792)" fill="#439848"/>
  </g>
</svg>
