<svg id="Component_4_5" data-name="Component 4 – 5" xmlns="http://www.w3.org/2000/svg" width="42" height="42.001" viewBox="0 0 42 42.001">
  <g id="Group_30" data-name="Group 30" transform="translate(0 0)">
    <path id="Path_59" data-name="Path 59" d="M-830.79,345.241a6.925,6.925,0,0,0-6.96,6.9,6.928,6.928,0,0,0,6.9,6.965,6.927,6.927,0,0,0,6.948-6.915A6.926,6.926,0,0,0-830.79,345.241Zm-.041,11.078a4.132,4.132,0,0,1-4.129-4.143,4.127,4.127,0,0,1,4.154-4.144,4.131,4.131,0,0,1,4.117,4.155A4.134,4.134,0,0,1-830.831,356.319Z" transform="translate(851.827 -331.173)" fill="#cf4b6f"/>
    <path id="Path_60" data-name="Path 60" d="M-823.677,342.9a1.794,1.794,0,0,0-1.8,1.8,1.8,1.8,0,0,0,1.8,1.8,1.793,1.793,0,0,0,1.794-1.8A1.788,1.788,0,0,0-823.677,342.9Z" transform="translate(852.336 -331.43)" fill="#cf4b6f"/>
    <path id="Path_61" data-name="Path 61" d="M-830,332h0a21,21,0,0,0-21,21h0a21,21,0,0,0,21,21h0a21,21,0,0,0,21-21h0A21,21,0,0,0-830,332Zm11.545,27.37a5.119,5.119,0,0,1-4.135,5.094,5.337,5.337,0,0,1-1.074.1q-6.333.009-12.666,0a5.121,5.121,0,0,1-5.113-4.141,5.168,5.168,0,0,1-.1-1.05q-.01-6.371,0-12.743a5.12,5.12,0,0,1,4.134-5.095,5.342,5.342,0,0,1,1.074-.1q6.333-.01,12.667,0a5.113,5.113,0,0,1,5.11,4.143,6.029,6.029,0,0,1,.1,1.184c.009,2.078,0,4.157,0,6.236C-818.453,355.122-818.445,357.246-818.455,359.37Z" transform="translate(851 -332)" fill="#cf4b6f"/>
  </g>
</svg>
