<svg xmlns="http://www.w3.org/2000/svg" width="42" height="42.001" viewBox="0 0 42 42.001">
  <path id="Path_53" data-name="Path 53" d="M-814.9,287.463a20.9,20.9,0,0,0-14.847-6.153,20.9,20.9,0,0,0-14.847,6.153,20.935,20.935,0,0,0-6.153,14.847,20.994,20.994,0,0,0,21,21,20.9,20.9,0,0,0,14.847-6.153,20.9,20.9,0,0,0,6.153-14.847A20.935,20.935,0,0,0-814.9,287.463Zm-27.426,8.064a2.018,2.018,0,0,1,.021-.252l7.077,7.014-7.088,7.014c0-.073-.01-.147-.01-.231l.01-5.733Zm25.158,13.839-7.1-7.035,7.1-7.014Zm-2.331-15.11-9.818,9.839a.515.515,0,0,1-.85.01l-10.458-10.49a.446.446,0,0,1,.115-.021.729.729,0,0,1,.231,0l21.063-.011c.115,0,.241.011.367.021C-819.072,293.826-819.292,294.036-819.5,294.257Zm-14.038,9.755,1.785,1.774a2.786,2.786,0,0,0,3.223.567,3.4,3.4,0,0,0,.829-.609c.441-.43.882-.871,1.323-1.313l.42-.43,7.087,7.014c-.031.01-.073.01-.1.021a1.919,1.919,0,0,1-.263,0h-21.031c-.115,0-.231,0-.346-.011Z" transform="translate(850.75 -281.31)" fill="#439898"/>
</svg>
