<svg id="stepImg5" xmlns="http://www.w3.org/2000/svg" width="99.998" height="99.998" viewBox="0 0 99.998 99.998">
  <ellipse id="Ellipse_1881" data-name="Ellipse 1881" cx="49.999" cy="49.999" rx="49.999" ry="49.999" fill="#fbe9c5"/>
  <ellipse id="Ellipse_1882" data-name="Ellipse 1882" cx="2.5" cy="2.5" rx="2.5" ry="2.5" transform="translate(48.673 32.306)" fill="#f4be22"/>
  <rect id="Rectangle_805" data-name="Rectangle 805" width="48.666" height="14" rx="7" transform="translate(28.007 59.639)" fill="#f4be22"/>
  <g id="Group_2602" data-name="Group 2602" transform="translate(19.914 21.71)">
    <g id="Group_2601" data-name="Group 2601">
      <path id="Path_2488" data-name="Path 2488" d="M1871.671,1289.755v-5.891a3.115,3.115,0,0,0-3.112-3.112h-8.241a3.115,3.115,0,0,0-3.112,3.112v3.583h-3.131v-3.583a3.115,3.115,0,0,0-3.112-3.112h-8.241a3.115,3.115,0,0,0-3.112,3.112v3.583h-3.131v-3.583a3.115,3.115,0,0,0-3.112-3.112h-8.241a3.115,3.115,0,0,0-3.112,3.112v5.891a12.313,12.313,0,0,0-4.663,13.914,12.586,12.586,0,0,0,4.209,6.184,12.41,12.41,0,0,0,7.685,2.615h35.193a12.418,12.418,0,0,0,7.686-2.616,12.583,12.583,0,0,0,4.208-6.184A12.312,12.312,0,0,0,1871.671,1289.755Zm-28.153-2.308v-2.277a.511.511,0,0,1,.51-.51h5.629a.511.511,0,0,1,.511.51v2.277ZM1873,1299.958a8.454,8.454,0,0,1-8.562,8.6h-35.179a8.6,8.6,0,0,1-.008-17.208h35.183A8.455,8.455,0,0,1,1873,1299.958Zm-11.883-12.506v-2.282a.511.511,0,0,1,.51-.51h5.629a.511.511,0,0,1,.51.51v2.726a13.293,13.293,0,0,0-3.767-.454c-.312,0-.63,0-.955.009C1862.436,1287.46,1861.811,1287.469,1861.114,1287.451Zm-28.541,0c-.7.017-1.326.008-1.933,0a15.323,15.323,0,0,0-4.717.445v-2.726a.511.511,0,0,1,.51-.51h5.629a.511.511,0,0,1,.51.51Z" transform="translate(-1816.758 -1257.546)" fill="#1e1e1e"/>
      <path id="Path_2489" data-name="Path 2489" d="M1848.931,1321.136a5.845,5.845,0,1,0,5.845,5.845A5.852,5.852,0,0,0,1848.931,1321.136Zm0,7.793a1.948,1.948,0,1,1,1.948-1.948A1.951,1.951,0,0,1,1848.931,1328.929Z" transform="translate(-1834.311 -1284.469)" fill="#1e1e1e"/>
      <path id="Path_2490" data-name="Path 2490" d="M1894.549,1321.136a5.845,5.845,0,1,0,5.845,5.845A5.851,5.851,0,0,0,1894.549,1321.136Zm0,7.793a1.948,1.948,0,1,1,1.948-1.948A1.951,1.951,0,0,1,1894.549,1328.929Z" transform="translate(-1864.723 -1284.469)" fill="#1e1e1e"/>
      <path id="Path_2491" data-name="Path 2491" d="M1940.167,1321.136a5.845,5.845,0,1,0,5.845,5.845A5.852,5.852,0,0,0,1940.167,1321.136Zm0,7.793a1.948,1.948,0,1,1,1.948-1.948A1.95,1.95,0,0,1,1940.167,1328.929Z" transform="translate(-1895.135 -1284.469)" fill="#1e1e1e"/>
      <path id="Path_2492" data-name="Path 2492" d="M1854.418,1215.029H1868.7v1.781a5.868,5.868,0,0,0-3.71,4.044l-.7.234a10.374,10.374,0,0,0-6.561,6.561h0a1.948,1.948,0,0,0,1.232,2.464h0a1.948,1.948,0,0,0,2.464-1.232l.049-.147a6.167,6.167,0,0,1,3.9-3.9,5.856,5.856,0,0,0,10.552,0h0a6.165,6.165,0,0,1,3.9,3.9l.049.147a1.949,1.949,0,0,0,2.465,1.232h0a1.948,1.948,0,0,0,1.232-2.464h0a10.374,10.374,0,0,0-6.561-6.561l-.7-.234a5.869,5.869,0,0,0-3.71-4.044v-1.781h14.285a1.948,1.948,0,0,0,1.948-1.948h0a1.947,1.947,0,0,0-1.947-1.948h-32.469a1.948,1.948,0,0,0-1.947,1.948h0A1.948,1.948,0,0,0,1854.418,1215.029Zm18.181,7.291a1.948,1.948,0,1,1-3.9,0A1.951,1.951,0,0,1,1872.6,1222.319Z" transform="translate(-1840.566 -1211.132)" fill="#1e1e1e"/>
    </g>
  </g>
</svg>
