<svg id="step4Img" xmlns="http://www.w3.org/2000/svg" width="99.998" height="99.998" viewBox="0 0 99.998 99.998">
  <ellipse id="Ellipse_1883" data-name="Ellipse 1883" cx="49.999" cy="49.999" rx="49.999" ry="49.999" fill="#fbe9c5"/>
  <path id="Path_2493" data-name="Path 2493" d="M2496.161,1285.531l2.667-4.667,17.666-17.333s2.667-2.667,4.333,1-20,21-20,21Z" transform="translate(-2436.546 -1223.731)" fill="#f4be22"/>
  <path id="Path_2494" data-name="Path 2494" d="M2456.495,1286.737h-18.333v-12.667l1.333-4.667h15.333l1.667,4.667Z" transform="translate(-2397.88 -1228.27)" fill="#f4be22"/>
  <g id="Group_2608" data-name="Group 2608" transform="translate(23.144 18.819)">
    <g id="Group_2607" data-name="Group 2607">
      <path id="Path_2495" data-name="Path 2495" d="M2448.564,1219.423a5.829,5.829,0,0,0-8.234,0l-5.839,5.844,0-11.5a5.783,5.783,0,0,0-1.706-4.116l-5.488-5.489a5.785,5.785,0,0,0-4.117-1.705h-30.607a5.828,5.828,0,0,0-5.822,5.822l0,50.716a5.829,5.829,0,0,0,5.822,5.822h36.1a5.829,5.829,0,0,0,5.822-5.822v-17.255l14.072-14.085A5.818,5.818,0,0,0,2448.564,1219.423Zm-25.719-13.083a2.118,2.118,0,0,1,1.705.568l5.489,5.489a2.118,2.118,0,0,1,.569,1.705h-7.763ZM2430.61,1259h0a1.943,1.943,0,0,1-1.941,1.941h-36.1a1.943,1.943,0,0,1-1.941-1.941l0-50.716a1.943,1.943,0,0,1,1.941-1.941h26.394v9.7a1.94,1.94,0,0,0,1.94,1.941h9.7l0,11.168-5.726,5.731-.034.034v-5.89a1.927,1.927,0,0,0-.1-.614l-2.329-6.987a1.939,1.939,0,0,0-1.841-1.327h-18.63a1.939,1.939,0,0,0-1.841,1.327l-2.329,6.987a1.941,1.941,0,0,0-.1.614v13.866a2.865,2.865,0,0,0,2.862,2.862h18.672l-.288.863a1.941,1.941,0,0,0,2.454,2.455l8.234-2.745a1.937,1.937,0,0,0,.759-.469l.235-.235Zm-10.035-17.319a.975.975,0,0,1-.587.2h-17.445a.982.982,0,0,1-.98-.981v-8.945a.982.982,0,0,1,.98-.981h3.289v4.464a1.943,1.943,0,0,0,1.941,1.941h6.986a1.943,1.943,0,0,0,1.941-1.941v-4.464h3.288a.982.982,0,0,1,.981.981v8.547Zm-10.861-8.243v-2.411a.056.056,0,0,1,.056-.056h2.993a.056.056,0,0,1,.056.056v2.411a.056.056,0,0,1-.056.056h-2.993A.056.056,0,0,1,2409.714,1233.433Zm10.354-6.475a.322.322,0,0,1-.257.127h-17.088a.324.324,0,0,1-.313-.408l.855-3.165a.472.472,0,0,1,.454-.347h15.1a.471.471,0,0,1,.454.347l.855,3.165A.323.323,0,0,1,2420.067,1226.958Zm5.142,13.088,1.049-1.048,2.744,2.745-1.048,1.048-4.117,1.372Zm6.537-1.049-2.745-2.744,9.329-9.337,2.745,2.745Zm14.073-14.084-2,2-2.744-2.745,2-2a1.941,1.941,0,1,1,2.744,2.745Z" transform="translate(-2386.749 -1202.458)" fill="#1e1e1e"/>
      <path id="Path_2496" data-name="Path 2496" d="M2462.055,1354.609h-11.644a1.941,1.941,0,1,0,0,3.881h11.644a1.941,1.941,0,1,0,0-3.881Z" transform="translate(-2427.897 -1303.893)" fill="#1e1e1e"/>
    </g>
  </g>
</svg>
