<svg id="stepImg6" xmlns="http://www.w3.org/2000/svg" width="100.001" height="100.001" viewBox="0 0 100.001 100.001">
  <ellipse id="Ellipse_1876" data-name="Ellipse 1876" cx="50" cy="50" rx="50" ry="50" fill="#fbe9c5"/>
  <g id="Group_2579" data-name="Group 2579" transform="translate(27.733 39.808)">
    <ellipse id="Ellipse_1877" data-name="Ellipse 1877" cx="4.333" cy="4.333" rx="4.333" ry="4.333" transform="translate(4 23.333)" fill="#f4be22"/>
    <ellipse id="Ellipse_1878" data-name="Ellipse 1878" cx="4.333" cy="4.333" rx="4.333" ry="4.333" transform="translate(39 23.333)" fill="#f4be22"/>
    <path id="Path_2446" data-name="Path 2446" d="M1344.379,1275.089v-5.333h-13v-2.686a1.647,1.647,0,0,0-1.647-1.647h-29.373a1.647,1.647,0,0,0-1.647,1.647v22.373a1.647,1.647,0,0,0,1.647,1.647l5.353-7.333,7.8,7.333h16.216a1.647,1.647,0,0,0,1.647-1.647v-.687l2,.333,7.333-4.333,9,3v-12.667Z" transform="translate(-1298.712 -1265.422)" fill="#f4be22"/>
  </g>
  <g id="Group_2581" data-name="Group 2581" transform="translate(19.046 27.704)">
    <g id="Group_2580" data-name="Group 2580">
      <path id="Path_2447" data-name="Path 2447" d="M1330.159,1248.705h-.569l-2.24-9.889a3.183,3.183,0,0,0-3.12-2.493h-8.994v-2.811a4.407,4.407,0,0,0-4.4-4.4h-33.781a4.407,4.407,0,0,0-4.4,4.4v29.573a4.407,4.407,0,0,0,4.4,4.4h3.252a8.761,8.761,0,0,0,17.059,0h16.992a8.761,8.761,0,0,0,17.1-.2,4.417,4.417,0,0,0,3.1-4.206v-9.978A4.407,4.407,0,0,0,1330.159,1248.705Zm-14.923,0v-8.388h8.358l1.9,8.388Zm15.33,4.4v8.172a8.756,8.756,0,0,0-15.33-.054V1252.7h14.923a.406.406,0,0,1,.407.407Zm-3.242,14.115a4.761,4.761,0,0,1-8.372.948,4.689,4.689,0,0,1-.5-4.412,4.76,4.76,0,0,1,8.375-.946A4.745,4.745,0,0,1,1327.323,1267.222Zm-42.234-23.474a2,2,0,0,0,1.863.2l6.99-2.807,6.991,2.807a2,2,0,0,0,2.741-1.854V1233.1h7.158a.407.407,0,0,1,.407.407v29.98h-13.877a8.76,8.76,0,0,0-17.059,0h-3.252a.408.408,0,0,1-.407-.407v-29.573a.408.408,0,0,1,.407-.407h7.158v8.989A2,2,0,0,0,1285.089,1243.748Zm14.591-4.608-4.993-2.005a1.987,1.987,0,0,0-1.489,0l-4.993,2.005V1233.1h11.475Zm-15.287,24.618a4.607,4.607,0,0,1,4.407-3.016,5.008,5.008,0,0,1,.933.087,4.593,4.593,0,0,1,3.865,4.662,4.762,4.762,0,0,1-8.7,2.682A4.7,4.7,0,0,1,1284.393,1263.757Z" transform="translate(-1272.651 -1229.11)" fill="#1e1e1e"/>
      <path id="Path_2448" data-name="Path 2448" d="M1346.666,1287.727h7.3a2,2,0,0,0,0-3.995h-7.3a2,2,0,0,0,0,3.995Z" transform="translate(-1320.663 -1265.525)" fill="#1e1e1e"/>
      <path id="Path_2449" data-name="Path 2449" d="M1358.759,1308.349h-4.9a2,2,0,1,0,0,3.994h4.9a2,2,0,1,0,0-3.994Z" transform="translate(-1325.455 -1281.936)" fill="#1e1e1e"/>
    </g>
  </g>
</svg>
