<svg id="step1Img" xmlns="http://www.w3.org/2000/svg" width="100" height="100" viewBox="0 0 100 100">
  <circle id="Ellipse_1874" data-name="Ellipse 1874" cx="50" cy="50" r="50" fill="#fbe9c5"/>
  <path id="Path_2431" data-name="Path 2431" d="M812.907,564.284l-1.659-4.312H806.6l-8.624,7.579V558.06a2.068,2.068,0,0,0-2.068-2.068H762.567a2.068,2.068,0,0,0-2.068,2.068v39.979a2.068,2.068,0,0,0,2.068,2.068h33.345a2.068,2.068,0,0,0,2.068-2.068V578.647Z" transform="translate(-728.757 -521.498)" fill="#f4be22"/>
  <g id="Group_2567" data-name="Group 2567" transform="translate(22.085 18.202)">
    <g id="Group_2566" data-name="Group 2566">
      <g id="Group_2564" data-name="Group 2564">
        <g id="Group_2563" data-name="Group 2563">
          <path id="Path_2432" data-name="Path 2432" d="M793.372,526.523a5.8,5.8,0,0,0-8.194-.012l-3.662,3.652.021-13.827a5.805,5.805,0,0,0-5.785-5.812l-7.252-.011a10.393,10.393,0,0,0-7.87-3.624l-8.24-.012a10.4,10.4,0,0,0-7.882,3.6l-7.251-.011a5.805,5.805,0,0,0-5.8,5.8l-.071,47.863a5.807,5.807,0,0,0,5.785,5.814l38.494.057a5.807,5.807,0,0,0,5.8-5.8l.026-17.64,11.867-11.842A5.79,5.79,0,0,0,793.372,526.523Zm-40.987-15.777,8.24.012a6.584,6.584,0,0,1,6.269,4.653L746.1,515.38A6.584,6.584,0,0,1,752.385,510.746ZM777.6,564.193a1.935,1.935,0,0,1-1.934,1.932l-38.494-.057a1.935,1.935,0,0,1-1.928-1.938l.071-47.863a1.936,1.936,0,0,1,1.934-1.932l5.13.008a10.412,10.412,0,0,0-.436,2.967,1.934,1.934,0,0,0,1.928,1.938l25.234.037a1.934,1.934,0,0,0,1.934-1.932,10.416,10.416,0,0,0-.427-2.968l5.13.008a1.937,1.937,0,0,1,1.928,1.938l-.026,17.694-2.157,2.152-5.707,5.695-2.733,2.726a1.932,1.932,0,0,0-.468.754l-2.743,8.189a1.933,1.933,0,0,0,2.44,2.447l8.2-2.72a1.922,1.922,0,0,0,.755-.465l.235-.234,2.157-2.152Zm-3.731-15.49-1.044,1.041-4.1,1.36,1.371-4.095,1.045-1.041Zm7.628-7.61-3.868,3.859-1.025,1.023-2.727-2.735,3.76-3.752,3.868-3.86,1.668-1.665L785.9,536.7Zm9.131-9.112-1.994,1.989-2.727-2.735,1.993-1.99a1.931,1.931,0,1,1,2.727,2.736Z" transform="translate(-731.385 -506.876)" fill="#1e1e1e"/>
        </g>
      </g>
      <g id="Group_2565" data-name="Group 2565" transform="translate(12.13 17.835)">
        <path id="Path_2433" data-name="Path 2433" d="M793.916,562.616a1.932,1.932,0,0,1-1.934,1.931l-22.015-.032a1.934,1.934,0,0,1,.005-3.869l22.015.033A1.933,1.933,0,0,1,793.916,562.616Z" transform="translate(-768.01 -560.645)" fill="#1e1e1e"/>
        <path id="Path_2434" data-name="Path 2434" d="M785.377,590.58a1.934,1.934,0,0,1-1.934,1.932l-13.518-.02a1.935,1.935,0,0,1,.006-3.87l13.518.02A1.933,1.933,0,0,1,785.377,590.58Z" transform="translate(-767.983 -579.342)" fill="#1e1e1e"/>
        <path id="Path_2435" data-name="Path 2435" d="M785.335,618.557a1.933,1.933,0,0,1-1.934,1.932l-13.518-.02a1.935,1.935,0,0,1,.006-3.87l13.518.02A1.933,1.933,0,0,1,785.335,618.557Z" transform="translate(-767.955 -598.039)" fill="#1e1e1e"/>
        <path id="Path_2436" data-name="Path 2436" d="M816.214,659.754l-11.844-.018a1.935,1.935,0,0,0-.006,3.87l11.844.018a1.935,1.935,0,0,0,.006-3.87Z" transform="translate(-790.999 -626.868)" fill="#1e1e1e"/>
      </g>
    </g>
  </g>
</svg>
