<?xml version="1.0" encoding="utf-8"?>
<!-- Generator: Adobe Illustrator 25.2.1, SVG Export Plug-In . SVG Version: 6.00 Build 0)  -->
<svg version="1.1" id="圖層_1" xmlns="http://www.w3.org/2000/svg" xmlns:xlink="http://www.w3.org/1999/xlink" x="0px" y="0px"
	 viewBox="0 0 51 75" style="enable-background:new 0 0 51 75;" xml:space="preserve">
<style type="text/css">
	.st0{fill:none;}
	.st1{enable-background:new    ;}
	.st2{fill:#272727;}
</style>
<g id="step2" transform="translate(15636 1820)">
	<rect id="Rectangle_826" x="-15636" y="-1820" class="st0" width="50" height="75"/>
	<g id="Group_2694">
		<g class="st1">
			<path class="st2" d="M-15631.2-1803.4v-2.5c0.5,0.4,0.9,0.7,1.5,0.9s1.1,0.3,1.6,0.3c0.3,0,0.6,0,0.8-0.1
				c0.2-0.1,0.4-0.1,0.6-0.2c0.2-0.1,0.3-0.2,0.4-0.4s0.1-0.3,0.1-0.4c0-0.2-0.1-0.4-0.2-0.6s-0.3-0.3-0.5-0.5
				c-0.2-0.1-0.5-0.3-0.8-0.4s-0.6-0.3-1-0.4c-0.9-0.4-1.5-0.8-2-1.3s-0.6-1.2-0.6-1.9c0-0.6,0.1-1.1,0.4-1.5s0.6-0.8,1-1
				c0.4-0.3,0.9-0.5,1.4-0.6s1.1-0.2,1.7-0.2c0.6,0,1.1,0,1.6,0.1c0.5,0.1,0.9,0.2,1.2,0.3v2.3c-0.2-0.1-0.4-0.2-0.6-0.3
				c-0.2-0.1-0.4-0.2-0.7-0.2s-0.5-0.1-0.7-0.1c-0.2,0-0.5,0-0.7,0c-0.3,0-0.5,0-0.8,0.1s-0.4,0.1-0.6,0.2c-0.2,0.1-0.3,0.2-0.4,0.4
				c-0.1,0.1-0.1,0.3-0.1,0.5c0,0.2,0,0.4,0.1,0.5c0.1,0.1,0.2,0.3,0.4,0.4c0.2,0.1,0.4,0.3,0.7,0.4c0.3,0.1,0.6,0.3,0.9,0.4
				c0.4,0.2,0.8,0.4,1.2,0.6c0.4,0.2,0.7,0.4,0.9,0.7c0.3,0.3,0.5,0.6,0.6,0.9c0.1,0.3,0.2,0.7,0.2,1.2c0,0.6-0.1,1.1-0.4,1.6
				c-0.2,0.4-0.6,0.8-1,1s-0.9,0.5-1.4,0.6s-1.1,0.2-1.7,0.2c-0.6,0-1.2-0.1-1.8-0.2S-15630.8-1803.2-15631.2-1803.4z"/>
			<path class="st2" d="M-15612.3-1812.1h-3.2v9.1h-2.5v-9.1h-3.2v-2.1h8.9V-1812.1z"/>
			<path class="st2" d="M-15602.5-1803h-6.7v-11.2h6.5v2.1h-3.9v2.5h3.7v2h-3.7v2.6h4.2V-1803z"/>
			<path class="st2" d="M-15596.5-1806.9v3.9h-2.5v-11.2h4c2.8,0,4.2,1.2,4.2,3.6c0,1.1-0.4,2-1.2,2.7s-1.9,1-3.2,1H-15596.5z
				 M-15596.5-1812.3v3.5h1c1.3,0,2-0.6,2-1.8c0-1.2-0.7-1.7-2-1.7H-15596.5z"/>
		</g>
		<g class="st1">
			<path class="st2" d="M-15624.7-1754.5c-6.7,0-10-4.7-10-14c0-4.9,0.9-8.6,2.7-11.1c1.8-2.5,4.4-3.8,7.8-3.8
				c6.5,0,9.8,4.8,9.8,14.3c0,4.7-0.9,8.4-2.7,10.9S-15621.3-1754.5-15624.7-1754.5z M-15624.4-1778.8c-2.7,0-4,3.4-4,10.1
				c0,6.3,1.3,9.5,3.9,9.5c2.6,0,3.8-3.3,3.8-9.8S-15621.9-1778.8-15624.4-1778.8z"/>
			<path class="st2" d="M-15600.6-1760.1h11.9v5.1h-18.6v-2.1c0-1.4,0.2-2.7,0.7-3.9c0.5-1.1,1.1-2.2,1.8-3.1
				c0.7-0.9,1.5-1.7,2.4-2.4c0.9-0.7,1.7-1.3,2.5-1.9c0.8-0.6,1.5-1.1,2.2-1.7c0.6-0.5,1.1-1.1,1.6-1.6c0.4-0.5,0.7-1.1,0.9-1.6
				c0.2-0.5,0.3-1.1,0.3-1.7c0-1.2-0.3-2.1-1-2.7c-0.7-0.6-1.7-0.9-3.1-0.9c-2.4,0-4.7,1-6.9,2.9v-5.4c2.4-1.6,5.2-2.4,8.2-2.4
				c1.4,0,2.7,0.2,3.8,0.6c1.1,0.4,2.1,0.9,2.9,1.6s1.4,1.5,1.8,2.5s0.6,2.1,0.6,3.3c0,1.3-0.2,2.4-0.6,3.4c-0.4,1-0.9,1.9-1.6,2.7
				c-0.7,0.8-1.4,1.6-2.3,2.3s-1.8,1.3-2.7,2c-0.6,0.4-1.2,0.9-1.8,1.3c-0.6,0.4-1.1,0.9-1.5,1.3c-0.4,0.4-0.8,0.8-1.1,1.2
				C-15600.5-1760.9-15600.6-1760.5-15600.6-1760.1z"/>
		</g>
	</g>
</g>
</svg>
