<svg id="step2Img" xmlns="http://www.w3.org/2000/svg" width="99.997" height="99.997" viewBox="0 0 99.997 99.997">
  <ellipse id="Ellipse_1875" data-name="Ellipse 1875" cx="49.999" cy="49.999" rx="49.999" ry="49.999" fill="#fbe9c5"/>
  <g id="Group_2574" data-name="Group 2574" transform="translate(15.908 22.426)">
    <path id="Path_2438" data-name="Path 2438" d="M1373.985,557.659l24.666-2.667.333,3.667Z" transform="translate(-1336.887 -543.089)" fill="#f4be22"/>
    <rect id="Rectangle_791" data-name="Rectangle 791" width="53.999" height="24.999" rx="5.941" transform="translate(11.765 25.236)" fill="#f4be22"/>
    <g id="Group_2573" data-name="Group 2573">
      <g id="Group_2572" data-name="Group 2572">
        <path id="Path_2439" data-name="Path 2439" d="M1357.394,600.018a1.058,1.058,0,1,1,1.058-1.058,1.363,1.363,0,1,0,2.726,0,3.784,3.784,0,0,0-2.421-3.531v-.5a1.363,1.363,0,0,0-2.726,0v.5a3.785,3.785,0,0,0,1.363,7.315,1.058,1.058,0,1,1-1.058,1.058,1.363,1.363,0,0,0-2.726,0,3.785,3.785,0,0,0,2.421,3.531v.5a1.363,1.363,0,1,0,2.726,0v-.5a3.785,3.785,0,0,0-1.363-7.315Z" transform="translate(-1323.304 -568.802)" fill="#1e1e1e"/>
        <path id="Path_2440" data-name="Path 2440" d="M1339.8,579.274a12.582,12.582,0,1,0,12.582,12.582A12.6,12.6,0,0,0,1339.8,579.274Zm0,22.046a9.464,9.464,0,1,1,9.464-9.464A9.475,9.475,0,0,1,1339.8,601.32Z" transform="translate(-1305.707 -559.277)" fill="#1e1e1e"/>
        <path id="Path_2441" data-name="Path 2441" d="M1327.539,533.375l-.565-4.523a4.074,4.074,0,0,0-4.611-3.53l-.632.09-.761-3.043a4.074,4.074,0,0,0-5.033-2.942l-49.495,13.881a4.09,4.09,0,0,0-3.755,4.063v28.98a4.08,4.08,0,0,0,4.075,4.076h60.031a4.08,4.08,0,0,0,4.076-4.076V537.37A4.074,4.074,0,0,0,1327.539,533.375ZM1296.665,529l20.336-5.7.017,0a.064.064,0,0,1,.062.049l.66,2.642Zm-1.721,4.3,27.977-4a.058.058,0,0,1,.048.013.061.061,0,0,1,.025.044l.493,3.946Zm30.193,33.12h-56.716a1.722,1.722,0,0,1-1.722-1.722V538.9a1.6,1.6,0,0,1,1.6-1.6h56.84a1.722,1.722,0,0,1,1.722,1.722v25.666A1.722,1.722,0,0,1,1325.137,566.415Z" transform="translate(-1262.688 -519.281)" fill="#1e1e1e"/>
        <path id="Path_2442" data-name="Path 2442" d="M1410.718,582.1a1.413,1.413,0,0,1-1.412-1.411,1.387,1.387,0,0,0-1.385-1.385h-11.472a1.385,1.385,0,1,0,0,2.77h10.322a4.185,4.185,0,0,0,2.561,2.561v14.481a4.183,4.183,0,0,0-2.561,2.561h-10.322a1.385,1.385,0,1,0,0,2.77h11.472a1.387,1.387,0,0,0,1.385-1.385,1.413,1.413,0,0,1,1.412-1.411,1.387,1.387,0,0,0,1.385-1.385v-16.78A1.387,1.387,0,0,0,1410.718,582.1Z" transform="translate(-1350.94 -559.298)" fill="#1e1e1e"/>
        <path id="Path_2443" data-name="Path 2443" d="M1299.4,601.678h-10.323a4.184,4.184,0,0,0-2.561-2.561V584.636a4.185,4.185,0,0,0,2.561-2.561H1299.4a1.385,1.385,0,0,0,0-2.77h-11.472a1.387,1.387,0,0,0-1.385,1.385,1.413,1.413,0,0,1-1.411,1.411,1.387,1.387,0,0,0-1.385,1.385v16.78a1.387,1.387,0,0,0,1.385,1.385,1.413,1.413,0,0,1,1.411,1.412,1.387,1.387,0,0,0,1.385,1.385H1299.4a1.385,1.385,0,1,0,0-2.77Z" transform="translate(-1276.726 -559.298)" fill="#1e1e1e"/>
        <path id="Path_2444" data-name="Path 2444" d="M1300.639,611.428a2.8,2.8,0,1,0,2.8-2.8A2.8,2.8,0,0,0,1300.639,611.428Zm3.729,0a.932.932,0,1,1-.932-.932A.933.933,0,0,1,1304.368,611.428Z" transform="translate(-1287.989 -578.849)" fill="#1e1e1e"/>
        <path id="Path_2445" data-name="Path 2445" d="M1418.1,611.428a2.8,2.8,0,1,0-2.8,2.8A2.8,2.8,0,0,0,1418.1,611.428Zm-3.729,0a.932.932,0,1,1,.932.932A.933.933,0,0,1,1414.37,611.428Z" transform="translate(-1362.568 -578.849)" fill="#1e1e1e"/>
      </g>
    </g>
  </g>
</svg>
