<svg id="step3Img" xmlns="http://www.w3.org/2000/svg" width="99.997" height="99.997" viewBox="0 0 99.997 99.997">
  <ellipse id="Ellipse_1879" data-name="Ellipse 1879" cx="49.999" cy="49.999" rx="49.999" ry="49.999" fill="#fbe9c5"/>
  <rect id="Rectangle_798" data-name="Rectangle 798" width="7.682" height="47.332" rx="3.841" transform="translate(32.249 40.444) rotate(-45)" fill="#f4be22"/>
  <path id="Path_2454" data-name="Path 2454" d="M1856.817,600.465l4-8.333,23.288-22.392a3.714,3.714,0,0,1,5.283.137h0a3.713,3.713,0,0,1-.049,5.132l-22.856,23.457Z" transform="translate(-1826.485 -529.803)" fill="#f4be22"/>
  <g id="Group_2590" data-name="Group 2590" transform="translate(24.66 24.661)">
    <path id="Path_2455" data-name="Path 2455" d="M1889.116,564.56l-13.24-13.24,12.377-12.376a7.592,7.592,0,0,0-10.737-10.737l-5.36,5.361-.029.029-6.987,6.987L1851.9,527.345a4.656,4.656,0,0,0-6.578,0l-4.159,4.159a4.657,4.657,0,0,0,0,6.577L1854.4,551.32l-10.179,10.18-.014.014a1.766,1.766,0,0,0-.411.691l-3.917,12.223a1.708,1.708,0,0,0,2.15,2.15l12.241-3.922a1.748,1.748,0,0,0,.687-.419l10.179-10.18,13.24,13.24a4.656,4.656,0,0,0,6.577,0l4.159-4.16a4.656,4.656,0,0,0,0-6.578Zm-26.4-4.922-7.489,7.489a8.791,8.791,0,0,0-5.9-5.9l7.489-7.489ZM1867.557,543l7-7a4.172,4.172,0,0,1,5.9,5.9l-7,7Zm13.007,22.987a1.71,1.71,0,1,0-2.418-2.418l-3.329,3.329-2.518-2.517,1.657-1.657a1.71,1.71,0,1,0-2.418-2.418l-1.657,1.657-2.323-2.324.87-.871a1.71,1.71,0,1,0-2.418-2.418l-.871.871-2.129-2.13,2.95-2.95a1.71,1.71,0,0,0-2.418-2.418l-2.95,2.95-2.194-2.194.871-.87a1.71,1.71,0,0,0-2.418-2.418l-.871.871-1.806-1.806,2.95-2.95a1.71,1.71,0,1,0-2.418-2.418l-2.95,2.95-2.065-2.065.871-.871a1.71,1.71,0,0,0-2.418-2.418l-.871.871-3.691-3.691a1.233,1.233,0,0,1,0-1.741l4.16-4.159a1.233,1.233,0,0,1,1.741,0l37.215,37.214a1.233,1.233,0,0,1,0,1.741l-4.159,4.159a1.233,1.233,0,0,1-1.741,0l-3.562-3.562Zm-.631-35.363a4.172,4.172,0,0,1,5.9,5.9l-.895.894a7.591,7.591,0,0,0-5.9-5.9Zm-27.755,39.118-5.417,1.979a4.871,4.871,0,0,0-1.9-2.024l1.857-5.417a5.365,5.365,0,0,1,5.458,5.462Z" transform="translate(-1839.799 -525.985)" fill="#1e1e1e"/>
  </g>
</svg>
