<svg xmlns="http://www.w3.org/2000/svg" xmlns:xlink="http://www.w3.org/1999/xlink" width="60" height="60" viewBox="0 0 60 60">
  <defs>
    <clipPath id="clip-path">
      <circle id="Ellipse_1969" data-name="Ellipse 1969" cx="22.971" cy="22.971" r="22.971" transform="translate(2717.743 1773.743)" fill="none"/>
    </clipPath>
    <clipPath id="clip-path-2">
      <path id="Path_2986" data-name="Path 2986" d="M2763.686,1796.714a22.956,22.956,0,1,1-.218-3.171A22.986,22.986,0,0,1,2763.686,1796.714Z" fill="none"/>
    </clipPath>
  </defs>
  <g id="Group_2883" data-name="Group 2883" transform="translate(-2710.714 -1766.714)">
    <path id="Path_2977" data-name="Path 2977" d="M2740.714,1771.857a24.857,24.857,0,1,1-24.857,24.857,24.856,24.856,0,0,1,24.857-24.857m0-1.714a26.571,26.571,0,1,0,18.789,7.782,26.4,26.4,0,0,0-18.789-7.782Z" fill="#ba7dea"/>
    <g id="Group_2871" data-name="Group 2871">
      <path id="Path_2978" data-name="Path 2978" d="M2741.225,1773.748l-10.232,2.148A23.042,23.042,0,0,1,2741.225,1773.748Z" fill="#c595e8"/>
      <path id="Path_2979" data-name="Path 2979" d="M2757.684,1812.2a22.994,22.994,0,0,1-36.033-2.656q-.45-.671-.853-1.366.493.112,1,.206a21.322,21.322,0,0,0,3.748.332,20.938,20.938,0,0,0,15.1-6.4,18.369,18.369,0,0,0,22.755-9.251A22.932,22.932,0,0,1,2757.684,1812.2Z" fill="#28747c"/>
      <path id="Path_2980" data-name="Path 2980" d="M2740.641,1802.31a20.938,20.938,0,0,1-15.1,6.4,21.322,21.322,0,0,1-3.748-.332q-.5-.093-1-.206a22.993,22.993,0,0,1,10.195-32.28,18.346,18.346,0,0,0,9.648,26.414Z" fill="#7e58af"/>
      <path id="Path_2981" data-name="Path 2981" d="M2757.684,1812.2a22.994,22.994,0,0,1-36.033-2.656q.06-.584.144-1.16a21.322,21.322,0,0,0,3.748.332,20.938,20.938,0,0,0,15.1-6.4,18.369,18.369,0,0,0,22.755-9.251A22.932,22.932,0,0,1,2757.684,1812.2Z" fill="#593975"/>
      <path id="Path_2982" data-name="Path 2982" d="M2763.955,1791.787c-.172.432-.358.858-.559,1.272q-.165-1.016-.417-2.014Q2763.476,1791.405,2763.955,1791.787Z" fill="#39aaaa"/>
      <path id="Path_2983" data-name="Path 2983" d="M2763.4,1793.059a18.346,18.346,0,1,1-32.4-17.163l10.232-2.148a22.949,22.949,0,0,1,21.754,17.3Q2763.231,1792.042,2763.4,1793.059Z" fill="#c595e8"/>
      <path id="Path_2984" data-name="Path 2984" d="M2763.955,1791.787c-.172.432-.358.858-.559,1.272q-.165-1.016-.417-2.014Q2763.476,1791.405,2763.955,1791.787Z" fill="#39aaaa"/>
    </g>
    <g id="Group_2877" data-name="Group 2877">
      <g id="Group_2876" data-name="Group 2876" clip-path="url(#clip-path)">
        <g id="Group_2872" data-name="Group 2872" opacity="0.5">
          <circle id="Ellipse_1953" data-name="Ellipse 1953" cx="4.543" cy="4.543" r="4.543" transform="translate(2716.371 1771.857)" fill="#fff"/>
          <circle id="Ellipse_1954" data-name="Ellipse 1954" cx="4.543" cy="4.543" r="4.543" transform="translate(2716.371 1786.6)" fill="#fff"/>
          <circle id="Ellipse_1955" data-name="Ellipse 1955" cx="4.543" cy="4.543" r="4.543" transform="translate(2716.371 1801.343)" fill="#fff"/>
          <circle id="Ellipse_1956" data-name="Ellipse 1956" cx="4.543" cy="4.543" r="4.543" transform="translate(2716.371 1816.086)" fill="#fff"/>
        </g>
        <g id="Group_2873" data-name="Group 2873" opacity="0.5">
          <circle id="Ellipse_1957" data-name="Ellipse 1957" cx="4.543" cy="4.543" r="4.543" transform="translate(2730.257 1771.857)" fill="#fff"/>
          <circle id="Ellipse_1958" data-name="Ellipse 1958" cx="4.543" cy="4.543" r="4.543" transform="translate(2730.257 1786.6)" fill="#fff"/>
          <circle id="Ellipse_1959" data-name="Ellipse 1959" cx="4.543" cy="4.543" r="4.543" transform="translate(2730.257 1801.343)" fill="#fff"/>
          <circle id="Ellipse_1960" data-name="Ellipse 1960" cx="4.543" cy="4.543" r="4.543" transform="translate(2730.257 1816.086)" fill="#fff"/>
        </g>
        <g id="Group_2874" data-name="Group 2874" opacity="0.5">
          <circle id="Ellipse_1961" data-name="Ellipse 1961" cx="4.543" cy="4.543" r="4.543" transform="translate(2744.143 1771.857)" fill="#fff"/>
          <circle id="Ellipse_1962" data-name="Ellipse 1962" cx="4.543" cy="4.543" r="4.543" transform="translate(2744.143 1786.6)" fill="#fff"/>
          <circle id="Ellipse_1963" data-name="Ellipse 1963" cx="4.543" cy="4.543" r="4.543" transform="translate(2744.143 1801.343)" fill="#fff"/>
          <circle id="Ellipse_1964" data-name="Ellipse 1964" cx="4.543" cy="4.543" r="4.543" transform="translate(2744.143 1816.086)" fill="#fff"/>
        </g>
        <g id="Group_2875" data-name="Group 2875" opacity="0.5">
          <circle id="Ellipse_1965" data-name="Ellipse 1965" cx="4.543" cy="4.543" r="4.543" transform="translate(2758.029 1771.857)" fill="#fff"/>
          <circle id="Ellipse_1966" data-name="Ellipse 1966" cx="4.543" cy="4.543" r="4.543" transform="translate(2758.029 1786.6)" fill="#fff"/>
          <circle id="Ellipse_1967" data-name="Ellipse 1967" cx="4.543" cy="4.543" r="4.543" transform="translate(2758.029 1801.343)" fill="#fff"/>
          <circle id="Ellipse_1968" data-name="Ellipse 1968" cx="4.543" cy="4.543" r="4.543" transform="translate(2758.029 1816.086)" fill="#fff"/>
        </g>
      </g>
    </g>
    <g id="Group_2879" data-name="Group 2879">
      <g id="Group_2878" data-name="Group 2878" clip-path="url(#clip-path-2)">
        <path id="Path_2985" data-name="Path 2985" d="M2771.5,1798.146v-.005c-.033-.542-.088-1.08-.162-1.587-.082-.592-.193-1.182-.329-1.754a19.358,19.358,0,0,0-5.639-9.74,19.066,19.066,0,0,0-2.235-1.794,10.129,10.129,0,0,0,3.9-1.222,2.9,2.9,0,0,0,1.445-2.12,2.768,2.768,0,0,0-.785-2.356,7.943,7.943,0,0,0-4.809-2.29c-.1-.009-.193-.017-.288-.023a12.847,12.847,0,0,0,.782-5.15,2.876,2.876,0,0,0-1.278-2.277,2.913,2.913,0,0,0-2.632-.264,9.806,9.806,0,0,0-5.3,4.777,8.911,8.911,0,0,0-.9,5.547,17.347,17.347,0,0,0-1.484,2.061,21.051,21.051,0,0,0-5.4.8,19.1,19.1,0,0,0-1.893.658,17.563,17.563,0,0,0-9.12,8.467,2.56,2.56,0,0,0-.422-.671,2.493,2.493,0,0,0-2.068-.862,5.761,5.761,0,0,0-2.959,1.061,8.724,8.724,0,0,0-1.826-1.939,2.563,2.563,0,0,0-2.281-.466,2.589,2.589,0,0,0-1.719,1.6,6.9,6.9,0,0,0-.244,4.035c-.441.135-.856.283-1.264.45a13.607,13.607,0,0,0-6.321,5.224,3.023,3.023,0,0,0-2.248,1.1,2.92,2.92,0,0,0-.5,2.907c.165.445.344.891.542,1.348-.1.452-.18.885-.242,1.319-.051.332-.093.679-.129,1.062a12.177,12.177,0,0,0,2.244,8.7,12.028,12.028,0,0,0,5.728,4.013,20.145,20.145,0,0,0,6.7,1.035c5.665,0,10.17-1.834,12.782-5.182a4.925,4.925,0,0,0,1.153-.69c.306.126.617.244.931.354a26.108,26.108,0,0,0,8.687,1.339c5.3,0,9.7-1.165,13.067-3.461a14.621,14.621,0,0,0,6.205-9.363A18.1,18.1,0,0,0,2771.5,1798.146Z" fill="#fff"/>
      </g>
    </g>
    <g id="Group_2882" data-name="Group 2882">
      <g id="Group_2880" data-name="Group 2880">
        <path id="Path_2987" data-name="Path 2987" d="M2760.179,1769.494a7.775,7.775,0,0,0-4.176,3.769c-.743,1.482-1.241,3.616-.359,5.135l-.008.005a3.634,3.634,0,0,0,1.486,1.115,9.076,9.076,0,0,0,1.062-1,11.209,11.209,0,0,0,3.139-8.3A.8.8,0,0,0,2760.179,1769.494Z" fill="#328230"/>
        <path id="Path_2988" data-name="Path 2988" d="M2766.237,1779.022a5.85,5.85,0,0,0-3.559-1.7,14.255,14.255,0,0,0-2.166.053,8.223,8.223,0,0,0-2.429.348.56.56,0,0,0-.138.076,4.529,4.529,0,0,0-.625.1.788.788,0,0,0-.526,1.127,4.466,4.466,0,0,0,2.179,1.617,8,8,0,0,0,2.335.578,8.117,8.117,0,0,0,4.721-.974A.791.791,0,0,0,2766.237,1779.022Z" fill="#70b535"/>
        <path id="Path_2989" data-name="Path 2989" d="M2757.882,1777.425a.8.8,0,0,0-1.1-.037,15.256,15.256,0,0,0-4.716,6.546,8.77,8.77,0,0,0,.115,7.71c.5.868,1.891.146,1.385-.726a7.4,7.4,0,0,1,.044-6.64,18.08,18.08,0,0,1,1.737-3.1,10.593,10.593,0,0,1,2.5-2.648A.787.787,0,0,0,2757.882,1777.425Z" fill="#2d1e07"/>
        <path id="Path_2990" data-name="Path 2990" d="M2769.177,1802.382c-1.339,6.622-7.168,11.173-17.256,11.173a24,24,0,0,1-8-1.22c-6.492-2.277-9.4-7.555-8.787-14.069.041-.431.09-.852.154-1.267.082-.578.188-1.142.314-1.69,1.311-5.817,4.788-10.005,9.666-12a16.913,16.913,0,0,1,1.687-.586,19.174,19.174,0,0,1,5.332-.723c.228,0,.454,0,.679.013A17.07,17.07,0,0,1,2769,1795.273q.183.771.294,1.565c.068.471.116.948.145,1.428A16.067,16.067,0,0,1,2769.177,1802.382Z" fill="#fba71b"/>
        <path id="Path_2991" data-name="Path 2991" d="M2737.533,1800.323a.782.782,0,0,0,0,1.564A.782.782,0,0,0,2737.533,1800.323Z" fill="#2d1e07"/>
        <path id="Path_2992" data-name="Path 2992" d="M2739.429,1798.269a.782.782,0,0,0,0,1.564A.782.782,0,0,0,2739.429,1798.269Z" fill="#2d1e07"/>
        <path id="Path_2993" data-name="Path 2993" d="M2740.693,1802.219a.782.782,0,0,0,0,1.564A.782.782,0,0,0,2740.693,1802.219Z" fill="#2d1e07"/>
        <path id="Path_2994" data-name="Path 2994" d="M2758.409,1796.834a.782.782,0,0,0,0,1.563A.782.782,0,0,0,2758.409,1796.834Z" fill="#2d1e07"/>
        <path id="Path_2995" data-name="Path 2995" d="M2761.806,1799.6a.782.782,0,0,0,0,1.563A.782.782,0,0,0,2761.806,1799.6Z" fill="#2d1e07"/>
        <path id="Path_2996" data-name="Path 2996" d="M2758.8,1800.626a.782.782,0,0,0,0,1.564A.782.782,0,0,0,2758.8,1800.626Z" fill="#2d1e07"/>
        <circle id="Ellipse_1970" data-name="Ellipse 1970" cx="3.596" cy="3.596" r="3.596" transform="translate(2736.315 1797.918)" fill="#f9551c" opacity="0.41"/>
        <circle id="Ellipse_1971" data-name="Ellipse 1971" cx="3.596" cy="3.596" r="3.596" transform="translate(2756.098 1795.78)" fill="#f9551c" opacity="0.41"/>
        <path id="Path_2997" data-name="Path 2997" d="M2746.6,1787.05a1.478,1.478,0,0,0-1.077-.954,2,2,0,0,0-1.423.173,2.532,2.532,0,0,0-.879.837.847.847,0,0,0-.1.238c-.051.034-.1.069-.145.1a1.307,1.307,0,0,0-.435.632,1.039,1.039,0,0,0,.347,1.091,1.172,1.172,0,0,0,.751.271l.025,0,.016.005a1.694,1.694,0,0,0,.918-.09,3.487,3.487,0,0,0,1.788-1.155A1.377,1.377,0,0,0,2746.6,1787.05Z" fill="#ffca85"/>
        <path id="Path_2998" data-name="Path 2998" d="M2749.767,1790.954a10.507,10.507,0,0,1-3.135-3.385,10.307,10.307,0,0,1-1.365-4.259,16.913,16.913,0,0,1,1.687-.586,8.629,8.629,0,0,0,3.679,6.749C2751.537,1790.095,2750.679,1791.58,2749.767,1790.954Z" fill="#2d1e07"/>
        <path id="Path_2999" data-name="Path 2999" d="M2754.483,1788.027a13.624,13.624,0,0,1-1.313-1.445,4.624,4.624,0,0,1-1.065-1.706c-.114-1.087-1.829-1.1-1.714,0,.174,1.65,1.735,3.255,2.879,4.363C2754.063,1790.007,2755.277,1788.8,2754.483,1788.027Z" fill="#2d1e07"/>
        <path id="Path_3000" data-name="Path 3000" d="M2757.961,1787.633a17.649,17.649,0,0,1-2.429-3.31.858.858,0,0,0-1.48.866,19.562,19.562,0,0,0,2.7,3.657C2757.5,1789.654,2758.713,1788.44,2757.961,1787.633Z" fill="#2d1e07"/>
        <path id="Path_3001" data-name="Path 3001" d="M2760.925,1787.3a7.767,7.767,0,0,1-1.247-1.468.877.877,0,0,0-1.173-.308.867.867,0,0,0-.308,1.173,9.624,9.624,0,0,0,1.516,1.815.857.857,0,0,0,1.212-1.212Z" fill="#2d1e07"/>
        <path id="Path_3002" data-name="Path 3002" d="M2755.789,1793.532a1.759,1.759,0,0,0-1.571-.824.964.964,0,0,0-.649.133,1.794,1.794,0,0,0-1.122,1.229,1.859,1.859,0,0,0,3.377,1.385A1.85,1.85,0,0,0,2755.789,1793.532Z" fill="#2d1e07"/>
        <path id="Path_3003" data-name="Path 3003" d="M2744.818,1794.218a1.758,1.758,0,0,0-1.571-.824.958.958,0,0,0-.649.133,1.791,1.791,0,0,0-1.123,1.229,1.86,1.86,0,0,0,3.378,1.385A1.85,1.85,0,0,0,2744.818,1794.218Z" fill="#2d1e07"/>
        <path id="Path_3004" data-name="Path 3004" d="M2751.806,1798.53a3.841,3.841,0,0,1-5.976.241c-.6-.652-1.566.32-.97.97a5.226,5.226,0,0,0,8.13-.519C2753.514,1798.511,2752.324,1797.826,2751.806,1798.53Z" fill="#2d1e07"/>
        <path id="Path_3005" data-name="Path 3005" d="M2762.3,1796.828a32.344,32.344,0,0,1-8.4,10.757c-.678.567.3,1.532.97.97a33.284,33.284,0,0,0,8.61-11.035C2763.87,1796.729,2762.688,1796.033,2762.3,1796.828Z" fill="#2d1e07"/>
        <path id="Path_3006" data-name="Path 3006" d="M2735.216,1798.618q-2.321,3-4.852,5.817c-.589.656.378,1.629.969.97q2.532-2.82,4.853-5.817C2736.72,1798.9,2735.756,1797.921,2735.216,1798.618Z" fill="#2d1e07"/>
      </g>
      <g id="Group_2881" data-name="Group 2881">
        <path id="Path_3007" data-name="Path 3007" d="M2744.157,1799.354q-1.061,2.2-2.121,4.406c.033.18.063.362.089.543q.078.532.108,1.075a12.5,12.5,0,0,1-.05,2.119,2.85,2.85,0,0,1-.418,3.907c-4.976-2.613-7.174-7.4-6.632-13.138.041-.431.09-.852.154-1.267.082-.578.188-1.142.314-1.69.037-.167.077-.331.118-.494a12.956,12.956,0,0,1,5.606,6.475q.621-1.292,1.244-2.584C2743.046,1797.715,2744.637,1798.357,2744.157,1799.354Z" fill="#cc7712"/>
        <path id="Path_3008" data-name="Path 3008" d="M2744.157,1799.354q-1.061,2.2-2.121,4.406c.033.18.063.362.089.543q.078.532.108,1.075a12.5,12.5,0,0,1-.05,2.119,2.85,2.85,0,0,1-.418,3.907c-4.976-2.613-7.174-7.4-6.632-13.138.041-.431.09-.852.154-1.267.082-.578.188-1.142.314-1.69.037-.167.077-.331.118-.494a12.956,12.956,0,0,1,5.606,6.475q.621-1.292,1.244-2.584C2743.046,1797.715,2744.637,1798.357,2744.157,1799.354Z" fill="#cc7712"/>
        <path id="Path_3009" data-name="Path 3009" d="M2726.017,1789.329a4.876,4.876,0,0,0,.06,3.528,3.607,3.607,0,0,0,2.28,2.287v.005a2.266,2.266,0,0,0,1.14-.243,5.672,5.672,0,0,0-.034-.913,7.031,7.031,0,0,0-2.629-4.905A.5.5,0,0,0,2726.017,1789.329Z" fill="#328230"/>
        <path id="Path_3010" data-name="Path 3010" d="M2733.019,1790.392a3.666,3.666,0,0,0-2.269.983,8.862,8.862,0,0,0-.868,1.046,5.18,5.18,0,0,0-.837,1.292.33.33,0,0,0-.021.1,2.685,2.685,0,0,0-.211.336.494.494,0,0,0,.316.713,2.8,2.8,0,0,0,1.663-.364,4.986,4.986,0,0,0,1.236-.865,5.091,5.091,0,0,0,1.485-2.634A.5.5,0,0,0,2733.019,1790.392Z" fill="#70b535"/>
        <path id="Path_3011" data-name="Path 3011" d="M2717.572,1813.5a10.034,10.034,0,0,0,4.779,3.322,18.064,18.064,0,0,0,6.017.917c6.333,0,10.432-2.386,12.2-6.069C2734.109,1815.763,2725.137,1815.4,2717.572,1813.5Z" fill="#a2b552"/>
        <path id="Path_3012" data-name="Path 3012" d="M2741.547,1806.235c-.02-.361-.056-.72-.108-1.074q-.084-.6-.221-1.178a12.876,12.876,0,0,0-10.537-9.826c-.072-.012-.146-.023-.218-.033a13.086,13.086,0,0,0-1.308-.113c-.065,0-.13-.005-.2-.007-.1,0-.209,0-.315,0a15.328,15.328,0,0,0-2.379.181.356.356,0,0,0-.048.009,13.6,13.6,0,0,0-1.584.353c-.019.005-.038.01-.057.017l-.05.016c-.4.12-.785.255-1.162.409a12.211,12.211,0,0,0-7.27,9.024c-.095.413-.175.837-.237,1.272-.048.312-.086.629-.116.953a10.131,10.131,0,0,0,1.831,7.261c7.565,1.9,16.537,2.267,23-1.83a9.942,9.942,0,0,0,.779-2.335A12.065,12.065,0,0,0,2741.547,1806.235Z" fill="#fba71b"/>
        <path id="Path_3013" data-name="Path 3013" d="M2720.218,1809.923a.783.783,0,0,0,0,1.564A.783.783,0,0,0,2720.218,1809.923Z" fill="#2d1e07"/>
        <path id="Path_3014" data-name="Path 3014" d="M2721.429,1808.555a.782.782,0,0,0,0,1.563A.782.782,0,0,0,2721.429,1808.555Z" fill="#2d1e07"/>
        <path id="Path_3015" data-name="Path 3015" d="M2722.007,1810.619a.782.782,0,0,0,0,1.564A.782.782,0,0,0,2722.007,1810.619Z" fill="#2d1e07"/>
        <path id="Path_3016" data-name="Path 3016" d="M2738.352,1807.634a.782.782,0,0,0,0,1.563A.782.782,0,0,0,2738.352,1807.634Z" fill="#2d1e07"/>
        <path id="Path_3017" data-name="Path 3017" d="M2740.549,1809.2a.782.782,0,0,0,0,1.563A.782.782,0,0,0,2740.549,1809.2Z" fill="#2d1e07"/>
        <path id="Path_3018" data-name="Path 3018" d="M2738.4,1809.883a.782.782,0,0,0,0,1.564A.782.782,0,0,0,2738.4,1809.883Z" fill="#2d1e07"/>
        <circle id="Ellipse_1972" data-name="Ellipse 1972" cx="2.86" cy="2.86" r="2.86" transform="translate(2718.536 1807.569)" fill="#f9551c" opacity="0.41"/>
        <circle id="Ellipse_1973" data-name="Ellipse 1973" cx="2.86" cy="2.86" r="2.86" transform="translate(2736.365 1807.226)" fill="#f9551c" opacity="0.41"/>
        <path id="Path_3019" data-name="Path 3019" d="M2723.506,1798.868a1.143,1.143,0,0,0-.831-.735,1.542,1.542,0,0,0-1.1.133,1.965,1.965,0,0,0-.677.646.643.643,0,0,0-.08.183c-.039.026-.077.053-.112.081a1,1,0,0,0-.335.487.8.8,0,0,0,.267.842.909.909,0,0,0,.579.209l.019,0,.013,0a1.3,1.3,0,0,0,.708-.069,2.686,2.686,0,0,0,1.378-.89A1.062,1.062,0,0,0,2723.506,1798.868Z" fill="#ffca85"/>
        <path id="Path_3020" data-name="Path 3020" d="M2728.339,1799.354a10.525,10.525,0,0,1-3.136-3.385,10.127,10.127,0,0,1-.625-1.262c-.017-.043-.036-.086-.052-.13l.05-.016c.019-.007.038-.012.057-.017a13.6,13.6,0,0,1,1.584-.353,8.441,8.441,0,0,0,2.988,3.682C2730.108,1798.495,2729.251,1799.98,2728.339,1799.354Z" fill="#2d1e07"/>
        <path id="Path_3021" data-name="Path 3021" d="M2731.841,1798.495c-1.143-1.107-2.705-2.712-2.878-4.362a.724.724,0,0,1,0-.129c.066,0,.131,0,.2.007a13.086,13.086,0,0,1,1.308.113c.072.01.146.021.218.033a4.774,4.774,0,0,0,1.061,1.681,13.323,13.323,0,0,0,1.313,1.445C2733.849,1798.053,2732.635,1799.263,2731.841,1798.495Z" fill="#2d1e07"/>
        <path id="Path_3022" data-name="Path 3022" d="M2730.58,1813.547c-3.58-.033-5.294-1.132-4.951-3.442a3.653,3.653,0,0,1,1.428-2.49,1.351,1.351,0,0,1,1.274-.166,6.5,6.5,0,0,0,4.236-.014,1.338,1.338,0,0,1,1.262.15,3.547,3.547,0,0,1,1.4,2.52C2735.571,1812.59,2734.16,1813.579,2730.58,1813.547Z" fill="#548969"/>
        <path id="Path_3023" data-name="Path 3023" d="M2731.316,1812.244h-1.774a1.513,1.513,0,0,1-1.513-1.513h0a2.48,2.48,0,0,1,4.8,0h0A1.514,1.514,0,0,1,2731.316,1812.244Z" fill="#79bc94"/>
        <path id="Path_3024" data-name="Path 3024" d="M2719.708,1806.219a25.547,25.547,0,0,1-2.71-5.359c-.383-1.035-1.926-.287-1.546.741a27.253,27.253,0,0,0,2.949,5.727C2719.015,1808.245,2720.316,1807.127,2719.708,1806.219Z" fill="#2d1e07"/>
        <path id="Path_3025" data-name="Path 3025" d="M2741.883,1799.564l-2.748,5.709c-.48,1,1.111,1.638,1.588.648l2.748-5.71C2743.951,1799.214,2742.36,1798.573,2741.883,1799.564Z" fill="#2d1e07"/>
        <path id="Path_3026" data-name="Path 3026" d="M2726.953,1808.555s.561-1.041,1.247-.7-.423,1.652-.9,1.34S2726.953,1808.555,2726.953,1808.555Z" fill="#66a381"/>
        <path id="Path_3027" data-name="Path 3027" d="M2733.889,1808.555s-.562-1.041-1.247-.7.423,1.652.9,1.34S2733.889,1808.555,2733.889,1808.555Z" fill="#66a381"/>
        <path id="Path_3028" data-name="Path 3028" d="M2729.4,1810.429v.857s-3.426,3.709,1.16,3.921c4.154.193,2.211-3.75.726-4.093l.171-.685a3.778,3.778,0,0,1,2.914,3.085c.315,2.36-1.2,3.462-3.6,3.462s-4.817-1.439-4.18-3.634A4.669,4.669,0,0,1,2729.4,1810.429Z" fill="#fff2cf"/>
        <path id="Path_3029" data-name="Path 3029" d="M2729.431,1810.118s-.6,1.055.2,1.283,2.019.076,2-.287,0-1.028-.515-1.2A2.109,2.109,0,0,0,2729.431,1810.118Z" fill="#ffea94"/>
        <path id="Path_3030" data-name="Path 3030" d="M2735.991,1811.2a5.166,5.166,0,0,1-.278-1.4,5.792,5.792,0,0,1,.009-.719,1,1,0,0,1,.039-.268.838.838,0,0,0,.024-.082.569.569,0,0,1,.03-.053l.025-.027c.388-.392-.218-1-.606-.606a2.223,2.223,0,0,0-.383,1.645,6.071,6.071,0,0,0,.313,1.741.44.44,0,0,0,.527.3A.434.434,0,0,0,2735.991,1811.2Z" fill="#2d1e07"/>
        <path id="Path_3031" data-name="Path 3031" d="M2725.709,1808a.442.442,0,0,0-.587-.154.432.432,0,0,0-.153.587,2.558,2.558,0,0,1,.1,2.87c-.295.467.446.9.74.432A3.415,3.415,0,0,0,2725.709,1808Z" fill="#2d1e07"/>
        <path id="Path_3032" data-name="Path 3032" d="M2728.116,1804.225a3.114,3.114,0,0,0-5.432.279c-.391.789.792,1.484,1.184.693a1.735,1.735,0,0,1,3.064-.28C2727.422,1805.646,2728.61,1804.961,2728.116,1804.225Z" fill="#2d1e07"/>
        <path id="Path_3033" data-name="Path 3033" d="M2737.985,1803.921a2.824,2.824,0,0,0-4.931-.265c-.457.745.617,1.6,1.08.847a1.456,1.456,0,0,1,2.582-.061C2737.132,1805.209,2738.406,1804.7,2737.985,1803.921Z" fill="#2d1e07"/>
      </g>
    </g>
    <rect id="Rectangle_864" data-name="Rectangle 864" width="60" height="60" transform="translate(2710.714 1766.714)" fill="none"/>
  </g>
</svg>
