<svg xmlns="http://www.w3.org/2000/svg" xmlns:xlink="http://www.w3.org/1999/xlink" width="60" height="60" viewBox="0 0 60 60">
  <defs>
    <clipPath id="clip-path">
      <circle id="Ellipse_1947" data-name="Ellipse 1947" cx="22.971" cy="22.971" r="22.971" transform="translate(2758.743 1881.743)" fill="none"/>
    </clipPath>
    <clipPath id="clip-path-2">
      <path id="Path_2930" data-name="Path 2930" d="M2804.686,1904.715a22.956,22.956,0,1,1-.218-3.172A22.992,22.992,0,0,1,2804.686,1904.715Z" fill="none"/>
    </clipPath>
  </defs>
  <g id="Group_2819" data-name="Group 2819" transform="translate(-2751.714 -1874.714)">
    <path id="Path_2895" data-name="Path 2895" d="M2781.714,1879.857a24.857,24.857,0,1,1-24.857,24.857,24.856,24.856,0,0,1,24.857-24.857m0-1.714a26.571,26.571,0,1,0,18.789,7.782,26.4,26.4,0,0,0-18.789-7.782Z" fill="#00a8b5"/>
    <g id="Group_2813" data-name="Group 2813">
      <path id="Path_2896" data-name="Path 2896" d="M2797.2,1887.745a22.95,22.95,0,1,1-2.489-1.977A22.971,22.971,0,0,1,2797.2,1887.745Z" fill="#28747c"/>
      <path id="Path_2897" data-name="Path 2897" d="M2797.2,1887.745a22.971,22.971,0,0,1,4.5,5.625,30.451,30.451,0,0,1-41.263,20.008,22.969,22.969,0,0,1,36.763-25.633Z" fill="#39aaaa"/>
      <path id="Path_2898" data-name="Path 2898" d="M2794.708,1885.768a30.476,30.476,0,0,1-35.284,13.375,22.982,22.982,0,0,1,35.284-13.375Z" fill="#6acebb"/>
    </g>
    <g id="Group_2815" data-name="Group 2815">
      <g id="Group_2814" data-name="Group 2814" clip-path="url(#clip-path)">
        <path id="Path_2899" data-name="Path 2899" d="M2769.259,1876.919l-4.271,3.954,5.856,1.647Z" fill="#fff" opacity="0.5"/>
        <path id="Path_2900" data-name="Path 2900" d="M2766.938,1885.17l-4.271,3.954,5.856,1.647Z" fill="#fff" opacity="0.5"/>
        <path id="Path_2901" data-name="Path 2901" d="M2764.618,1893.422l-4.271,3.954,5.856,1.647Z" fill="#fff" opacity="0.5"/>
        <path id="Path_2902" data-name="Path 2902" d="M2762.3,1901.673l-4.271,3.954,5.856,1.647Z" fill="#fff" opacity="0.5"/>
        <path id="Path_2903" data-name="Path 2903" d="M2759.978,1909.924l-4.271,3.954,5.856,1.647Z" fill="#fff" opacity="0.5"/>
        <path id="Path_2904" data-name="Path 2904" d="M2757.657,1918.176l-4.271,3.954,5.856,1.647Z" fill="#fff" opacity="0.5"/>
        <path id="Path_2905" data-name="Path 2905" d="M2778.831,1879.61l-4.271,3.954,5.856,1.647Z" fill="#fff" opacity="0.5"/>
        <path id="Path_2906" data-name="Path 2906" d="M2776.51,1887.862l-4.271,3.954,5.856,1.647Z" fill="#fff" opacity="0.5"/>
        <path id="Path_2907" data-name="Path 2907" d="M2774.19,1896.113l-4.271,3.954,5.856,1.647Z" fill="#fff" opacity="0.5"/>
        <path id="Path_2908" data-name="Path 2908" d="M2771.87,1904.365l-4.271,3.954,5.856,1.647Z" fill="#fff" opacity="0.5"/>
        <path id="Path_2909" data-name="Path 2909" d="M2769.549,1912.616l-4.271,3.954,5.856,1.647Z" fill="#fff" opacity="0.5"/>
        <path id="Path_2910" data-name="Path 2910" d="M2767.229,1920.867l-4.271,3.954,5.856,1.647Z" fill="#fff" opacity="0.5"/>
        <path id="Path_2911" data-name="Path 2911" d="M2788.4,1882.3l-4.271,3.954,5.856,1.647Z" fill="#fff" opacity="0.5"/>
        <path id="Path_2912" data-name="Path 2912" d="M2786.082,1890.553l-4.271,3.954,5.856,1.647Z" fill="#fff" opacity="0.5"/>
        <path id="Path_2913" data-name="Path 2913" d="M2783.761,1898.8l-4.271,3.954,5.856,1.647Z" fill="#fff" opacity="0.5"/>
        <path id="Path_2914" data-name="Path 2914" d="M2781.441,1907.056l-4.271,3.954,5.856,1.647Z" fill="#fff" opacity="0.5"/>
        <path id="Path_2915" data-name="Path 2915" d="M2779.121,1915.307l-4.271,3.954,5.856,1.647Z" fill="#fff" opacity="0.5"/>
        <path id="Path_2916" data-name="Path 2916" d="M2776.8,1923.559l-4.271,3.954,5.856,1.647Z" fill="#fff" opacity="0.5"/>
        <path id="Path_2917" data-name="Path 2917" d="M2797.974,1884.993l-4.271,3.954,5.856,1.647Z" fill="#fff" opacity="0.5"/>
        <path id="Path_2918" data-name="Path 2918" d="M2795.654,1893.245l-4.271,3.954,5.856,1.647Z" fill="#fff" opacity="0.5"/>
        <path id="Path_2919" data-name="Path 2919" d="M2793.333,1901.5l-4.271,3.954,5.856,1.647Z" fill="#fff" opacity="0.5"/>
        <path id="Path_2920" data-name="Path 2920" d="M2791.013,1909.748l-4.271,3.954,5.856,1.647Z" fill="#fff" opacity="0.5"/>
        <path id="Path_2921" data-name="Path 2921" d="M2788.693,1918l-4.271,3.954,5.856,1.647Z" fill="#fff" opacity="0.5"/>
        <path id="Path_2922" data-name="Path 2922" d="M2786.372,1926.25l-4.271,3.954,5.856,1.647Z" fill="#fff" opacity="0.5"/>
        <path id="Path_2923" data-name="Path 2923" d="M2807.545,1887.685l-4.271,3.954,5.856,1.647Z" fill="#fff" opacity="0.5"/>
        <path id="Path_2924" data-name="Path 2924" d="M2805.225,1895.936l-4.271,3.954,5.856,1.647Z" fill="#fff" opacity="0.5"/>
        <path id="Path_2925" data-name="Path 2925" d="M2802.9,1904.188l-4.271,3.954,5.856,1.647Z" fill="#fff" opacity="0.5"/>
        <path id="Path_2926" data-name="Path 2926" d="M2800.584,1912.439l-4.271,3.954,5.856,1.647Z" fill="#fff" opacity="0.5"/>
        <path id="Path_2927" data-name="Path 2927" d="M2798.264,1920.69l-4.271,3.954,5.856,1.647Z" fill="#fff" opacity="0.5"/>
        <path id="Path_2928" data-name="Path 2928" d="M2795.944,1928.942l-4.271,3.954,5.856,1.647Z" fill="#fff" opacity="0.5"/>
      </g>
    </g>
    <g id="Group_2817" data-name="Group 2817">
      <g id="Group_2816" data-name="Group 2816" clip-path="url(#clip-path-2)">
        <path id="Path_2929" data-name="Path 2929" d="M2805.382,1898.388a2.881,2.881,0,0,0-1.827-1.428,2.733,2.733,0,0,0-2.173.342c-1.006.657-2.03,1.346-3.06,2.06a19.322,19.322,0,0,0-5.877-6.379,10.142,10.142,0,0,0,3.93-1.224,2.894,2.894,0,0,0,1.444-2.121,2.764,2.764,0,0,0-.785-2.356,7.931,7.931,0,0,0-4.808-2.289c-.1-.01-.193-.018-.288-.023a12.871,12.871,0,0,0,.782-5.151,2.874,2.874,0,0,0-1.278-2.276,2.912,2.912,0,0,0-2.632-.265,9.809,9.809,0,0,0-5.3,4.777,8.915,8.915,0,0,0-.9,5.548,17.239,17.239,0,0,0-1.484,2.06,21.1,21.1,0,0,0-5.4.8,19.075,19.075,0,0,0-1.893.658,17.8,17.8,0,0,0-10,10.458c-.835-.678-1.65-1.381-2.438-2.1a2.836,2.836,0,0,0-4.778,2.144,2.8,2.8,0,0,0,.891,1.994,59.632,59.632,0,0,0,4.932,4.058l-.012.118a16.038,16.038,0,0,0,2.017,9.881,14.905,14.905,0,0,0,8.133,6.32,26.081,26.081,0,0,0,8.686,1.339c5.3,0,9.7-1.164,13.068-3.461a14.618,14.618,0,0,0,6.2-9.362,18.154,18.154,0,0,0,.3-4.649c-.032-.541-.087-1.079-.161-1.587-.068-.49-.156-.979-.261-1.457,1.3-.916,2.621-1.815,3.948-2.682A2.864,2.864,0,0,0,2805.382,1898.388Z" fill="#fff"/>
      </g>
    </g>
    <g id="Group_2818" data-name="Group 2818">
      <path id="Path_2931" data-name="Path 2931" d="M2789.522,1879.208a7.779,7.779,0,0,0-4.176,3.769c-.743,1.483-1.242,3.616-.359,5.136l-.008.005a3.63,3.63,0,0,0,1.485,1.114,9.209,9.209,0,0,0,1.063-1,11.215,11.215,0,0,0,3.139-8.3A.8.8,0,0,0,2789.522,1879.208Z" fill="#328230"/>
      <path id="Path_2932" data-name="Path 2932" d="M2795.579,1888.736a5.849,5.849,0,0,0-3.558-1.7,14.114,14.114,0,0,0-2.166.052,8.184,8.184,0,0,0-2.429.349.508.508,0,0,0-.138.075,4.506,4.506,0,0,0-.625.1.788.788,0,0,0-.526,1.127,4.466,4.466,0,0,0,2.179,1.617,7.935,7.935,0,0,0,2.335.578,8.106,8.106,0,0,0,4.72-.974A.79.79,0,0,0,2795.579,1888.736Z" fill="#70b535"/>
      <path id="Path_2933" data-name="Path 2933" d="M2787.225,1887.14a.8.8,0,0,0-1.1-.037,15.25,15.25,0,0,0-4.716,6.545,8.77,8.77,0,0,0,.115,7.71c.5.868,1.891.147,1.385-.726a7.4,7.4,0,0,1,.043-6.639,18.054,18.054,0,0,1,1.738-3.1,10.576,10.576,0,0,1,2.5-2.648A.786.786,0,0,0,2787.225,1887.14Z" fill="#2d1e07"/>
      <path id="Path_2934" data-name="Path 2934" d="M2798.519,1912.1c-1.338,6.622-7.167,11.174-17.256,11.174a24,24,0,0,1-8-1.221c-6.492-2.276-9.4-7.555-8.788-14.069.042-.43.091-.852.155-1.267.082-.578.188-1.142.313-1.69,1.312-5.817,4.788-10.005,9.667-12a16.832,16.832,0,0,1,1.687-.587,19.213,19.213,0,0,1,5.332-.723c.228,0,.454,0,.678.014a17.059,17.059,0,0,1,16.039,13.258q.183.771.293,1.565c.069.471.117.948.146,1.428A16.023,16.023,0,0,1,2798.519,1912.1Z" fill="#fba71b"/>
      <path id="Path_2935" data-name="Path 2935" d="M2766.58,1906.163a54.884,54.884,0,0,1-6.577-5.174.8.8,0,0,0-1.1,0,.79.79,0,0,0,0,1.106,57.59,57.59,0,0,0,6.893,5.419.782.782,0,0,0,.789-1.351Z" fill="#2d1e07"/>
      <path id="Path_2936" data-name="Path 2936" d="M2803.564,1899.349a.788.788,0,0,0-1.057-.324q-3.7,2.418-7.247,5.07a.787.787,0,0,0-.042,1.1.8.8,0,0,0,1.1.042q3.379-2.527,6.916-4.835A.8.8,0,0,0,2803.564,1899.349Z" fill="#2d1e07"/>
      <path id="Path_2937" data-name="Path 2937" d="M2768.761,1910.037a.782.782,0,0,0,0,1.564A.782.782,0,0,0,2768.761,1910.037Z" fill="#2d1e07"/>
      <path id="Path_2938" data-name="Path 2938" d="M2770.657,1907.983a.782.782,0,0,0,0,1.564A.782.782,0,0,0,2770.657,1907.983Z" fill="#2d1e07"/>
      <path id="Path_2939" data-name="Path 2939" d="M2771.921,1911.933a.782.782,0,0,0,0,1.564A.782.782,0,0,0,2771.921,1911.933Z" fill="#2d1e07"/>
      <path id="Path_2940" data-name="Path 2940" d="M2791.352,1906.548a.783.783,0,0,0,0,1.564A.783.783,0,0,0,2791.352,1906.548Z" fill="#2d1e07"/>
      <path id="Path_2941" data-name="Path 2941" d="M2794.749,1909.313a.782.782,0,0,0,0,1.564A.782.782,0,0,0,2794.749,1909.313Z" fill="#2d1e07"/>
      <path id="Path_2942" data-name="Path 2942" d="M2791.747,1910.34a.783.783,0,0,0,0,1.564A.783.783,0,0,0,2791.747,1910.34Z" fill="#2d1e07"/>
      <circle id="Ellipse_1948" data-name="Ellipse 1948" cx="3.596" cy="3.596" r="3.596" transform="translate(2767.543 1907.633)" fill="#f9551c" opacity="0.41"/>
      <circle id="Ellipse_1949" data-name="Ellipse 1949" cx="3.596" cy="3.596" r="3.596" transform="translate(2789.041 1905.494)" fill="#f9551c" opacity="0.41"/>
      <path id="Path_2943" data-name="Path 2943" d="M2775.942,1896.764a1.478,1.478,0,0,0-1.078-.954,2,2,0,0,0-1.423.173,2.53,2.53,0,0,0-.878.837.852.852,0,0,0-.1.238c-.051.034-.1.069-.145.1a1.3,1.3,0,0,0-.435.632,1.041,1.041,0,0,0,.347,1.092,1.181,1.181,0,0,0,.751.271l.024,0,.017.005a1.7,1.7,0,0,0,.918-.089,3.5,3.5,0,0,0,1.788-1.156A1.376,1.376,0,0,0,2775.942,1896.764Z" fill="#ffca85"/>
      <path id="Path_2944" data-name="Path 2944" d="M2779.11,1900.669a10.52,10.52,0,0,1-3.135-3.386,10,10,0,0,1-.626-1.262,10.188,10.188,0,0,1-.739-3,16.832,16.832,0,0,1,1.687-.587,8.626,8.626,0,0,0,3.679,6.749C2780.879,1899.81,2780.022,1901.294,2779.11,1900.669Z" fill="#2d1e07"/>
      <path id="Path_2945" data-name="Path 2945" d="M2783.825,1897.741a13.625,13.625,0,0,1-1.312-1.445,4.616,4.616,0,0,1-1.065-1.706c-.114-1.086-1.83-1.1-1.714,0,.174,1.65,1.735,3.255,2.879,4.363C2783.406,1899.721,2784.62,1898.51,2783.825,1897.741Z" fill="#2d1e07"/>
      <path id="Path_2946" data-name="Path 2946" d="M2787.3,1897.348a17.591,17.591,0,0,1-2.429-3.31.858.858,0,0,0-1.48.865,19.535,19.535,0,0,0,2.7,3.657C2786.846,1899.368,2788.056,1898.154,2787.3,1897.348Z" fill="#2d1e07"/>
      <path id="Path_2947" data-name="Path 2947" d="M2790.268,1897.011a7.767,7.767,0,0,1-1.247-1.468.877.877,0,0,0-1.173-.308.867.867,0,0,0-.308,1.173,9.62,9.62,0,0,0,1.516,1.815.857.857,0,0,0,1.212-1.212Z" fill="#2d1e07"/>
      <path id="Path_2948" data-name="Path 2948" d="M2777.717,1905.817a3.162,3.162,0,0,0-3.165-2.416,3.047,3.047,0,0,0-2.549,2.817c-.14.863,1.181,1.235,1.323.365.118-.726.376-1.612,1.2-1.792.929-.2,1.614.595,1.874,1.391C2776.668,1907.017,2777.992,1906.659,2777.717,1905.817Z" fill="#2d1e07"/>
      <path id="Path_2949" data-name="Path 2949" d="M2787.655,1909.275c.01,2.213-3.839,2.813-5.439,2.912-2.193.135-5.055-.147-6.048-2.421-.352-.807-1.534-.11-1.184.692,1.269,2.905,5.05,3.359,7.838,3.047,2.323-.259,6.218-1.258,6.2-4.23A.686.686,0,0,0,2787.655,1909.275Z" fill="#2d1e07"/>
      <path id="Path_2950" data-name="Path 2950" d="M2789.761,1903.075a1.759,1.759,0,0,0-1.572-.824.963.963,0,0,0-.649.133,1.792,1.792,0,0,0-1.122,1.229,1.859,1.859,0,0,0,3.377,1.385A1.85,1.85,0,0,0,2789.761,1903.075Z" fill="#2d1e07"/>
    </g>
    <rect id="Rectangle_826" data-name="Rectangle 826" width="60" height="60" transform="translate(2751.714 1874.714)" fill="none"/>
  </g>
</svg>
