<svg xmlns="http://www.w3.org/2000/svg" xmlns:xlink="http://www.w3.org/1999/xlink" width="60" height="60" viewBox="0 0 60 60">
  <defs>
    <clipPath id="clip-path">
      <circle id="Ellipse_1939" data-name="Ellipse 1939" cx="22.971" cy="22.971" r="22.971" transform="translate(2758.743 2085.743)" fill="none"/>
    </clipPath>
    <clipPath id="clip-path-2">
      <path id="Path_2756" data-name="Path 2756" d="M2804.686,2108.714a22.956,22.956,0,1,1-.218-3.171A22.986,22.986,0,0,1,2804.686,2108.714Z" fill="none"/>
    </clipPath>
  </defs>
  <g id="Group_2792" data-name="Group 2792" transform="translate(-2751.714 -2078.714)">
    <path id="Path_2751" data-name="Path 2751" d="M2781.714,2083.857a24.857,24.857,0,1,1-24.857,24.857,24.857,24.857,0,0,1,24.857-24.857m0-1.714a26.571,26.571,0,1,0,18.789,7.782,26.4,26.4,0,0,0-18.789-7.782Z" fill="#dd4343"/>
    <g id="Group_2783" data-name="Group 2783">
      <path id="Path_2752" data-name="Path 2752" d="M2804.369,2104.915a22.952,22.952,0,1,1-.739-3.092A22.959,22.959,0,0,1,2804.369,2104.915Z" fill="#b53737"/>
      <path id="Path_2753" data-name="Path 2753" d="M2804.369,2104.915a22.959,22.959,0,0,1,.07,7.2,30.452,30.452,0,0,1-44.816-9.719,22.969,22.969,0,0,1,44.746,2.515Z" fill="#e25252"/>
      <path id="Path_2754" data-name="Path 2754" d="M2803.63,2101.823a30.47,30.47,0,0,1-36.018-11.248,22.982,22.982,0,0,1,36.018,11.248Z" fill="#fc9977"/>
    </g>
    <g id="Group_2786" data-name="Group 2786">
      <g id="Group_2785" data-name="Group 2785" clip-path="url(#clip-path)">
        <g id="Group_2784" data-name="Group 2784" opacity="0.5">
          <circle id="Ellipse_1897" data-name="Ellipse 1897" cx="1.8" cy="1.8" r="1.8" transform="translate(2760.457 2086.771)" fill="#fff"/>
          <circle id="Ellipse_1898" data-name="Ellipse 1898" cx="1.8" cy="1.8" r="1.8" transform="translate(2760.457 2095.171)" fill="#fff"/>
          <circle id="Ellipse_1899" data-name="Ellipse 1899" cx="1.8" cy="1.8" r="1.8" transform="translate(2760.457 2103.572)" fill="#fff"/>
          <circle id="Ellipse_1900" data-name="Ellipse 1900" cx="1.8" cy="1.8" r="1.8" transform="translate(2760.457 2111.971)" fill="#fff"/>
          <circle id="Ellipse_1901" data-name="Ellipse 1901" cx="1.8" cy="1.8" r="1.8" transform="translate(2760.457 2120.371)" fill="#fff"/>
          <circle id="Ellipse_1902" data-name="Ellipse 1902" cx="1.8" cy="1.8" r="1.8" transform="translate(2760.457 2128.771)" fill="#fff"/>
          <circle id="Ellipse_1903" data-name="Ellipse 1903" cx="1.8" cy="1.8" r="1.8" transform="translate(2766.971 2086.771)" fill="#fff"/>
          <circle id="Ellipse_1904" data-name="Ellipse 1904" cx="1.8" cy="1.8" r="1.8" transform="translate(2766.971 2095.171)" fill="#fff"/>
          <circle id="Ellipse_1905" data-name="Ellipse 1905" cx="1.8" cy="1.8" r="1.8" transform="translate(2766.971 2103.572)" fill="#fff"/>
          <circle id="Ellipse_1906" data-name="Ellipse 1906" cx="1.8" cy="1.8" r="1.8" transform="translate(2766.971 2111.971)" fill="#fff"/>
          <circle id="Ellipse_1907" data-name="Ellipse 1907" cx="1.8" cy="1.8" r="1.8" transform="translate(2766.971 2120.371)" fill="#fff"/>
          <circle id="Ellipse_1908" data-name="Ellipse 1908" cx="1.8" cy="1.8" r="1.8" transform="translate(2766.971 2128.771)" fill="#fff"/>
          <circle id="Ellipse_1909" data-name="Ellipse 1909" cx="1.8" cy="1.8" r="1.8" transform="translate(2773.486 2086.771)" fill="#fff"/>
          <circle id="Ellipse_1910" data-name="Ellipse 1910" cx="1.8" cy="1.8" r="1.8" transform="translate(2773.486 2095.171)" fill="#fff"/>
          <circle id="Ellipse_1911" data-name="Ellipse 1911" cx="1.8" cy="1.8" r="1.8" transform="translate(2773.486 2103.572)" fill="#fff"/>
          <circle id="Ellipse_1912" data-name="Ellipse 1912" cx="1.8" cy="1.8" r="1.8" transform="translate(2773.486 2111.971)" fill="#fff"/>
          <circle id="Ellipse_1913" data-name="Ellipse 1913" cx="1.8" cy="1.8" r="1.8" transform="translate(2773.486 2120.371)" fill="#fff"/>
          <circle id="Ellipse_1914" data-name="Ellipse 1914" cx="1.8" cy="1.8" r="1.8" transform="translate(2773.486 2128.771)" fill="#fff"/>
          <circle id="Ellipse_1915" data-name="Ellipse 1915" cx="1.8" cy="1.8" r="1.8" transform="translate(2780 2086.771)" fill="#fff"/>
          <circle id="Ellipse_1916" data-name="Ellipse 1916" cx="1.8" cy="1.8" r="1.8" transform="translate(2780 2095.171)" fill="#fff"/>
          <circle id="Ellipse_1917" data-name="Ellipse 1917" cx="1.8" cy="1.8" r="1.8" transform="translate(2780 2103.572)" fill="#fff"/>
          <circle id="Ellipse_1918" data-name="Ellipse 1918" cx="1.8" cy="1.8" r="1.8" transform="translate(2780 2111.971)" fill="#fff"/>
          <circle id="Ellipse_1919" data-name="Ellipse 1919" cx="1.8" cy="1.8" r="1.8" transform="translate(2780 2120.371)" fill="#fff"/>
          <circle id="Ellipse_1920" data-name="Ellipse 1920" cx="1.8" cy="1.8" r="1.8" transform="translate(2780 2128.771)" fill="#fff"/>
          <circle id="Ellipse_1921" data-name="Ellipse 1921" cx="1.8" cy="1.8" r="1.8" transform="translate(2786.514 2086.771)" fill="#fff"/>
          <circle id="Ellipse_1922" data-name="Ellipse 1922" cx="1.8" cy="1.8" r="1.8" transform="translate(2786.514 2095.171)" fill="#fff"/>
          <circle id="Ellipse_1923" data-name="Ellipse 1923" cx="1.8" cy="1.8" r="1.8" transform="translate(2786.514 2103.572)" fill="#fff"/>
          <circle id="Ellipse_1924" data-name="Ellipse 1924" cx="1.8" cy="1.8" r="1.8" transform="translate(2786.514 2111.971)" fill="#fff"/>
          <circle id="Ellipse_1925" data-name="Ellipse 1925" cx="1.8" cy="1.8" r="1.8" transform="translate(2786.514 2120.371)" fill="#fff"/>
          <circle id="Ellipse_1926" data-name="Ellipse 1926" cx="1.8" cy="1.8" r="1.8" transform="translate(2786.514 2128.771)" fill="#fff"/>
          <circle id="Ellipse_1927" data-name="Ellipse 1927" cx="1.8" cy="1.8" r="1.8" transform="translate(2793.029 2086.771)" fill="#fff"/>
          <circle id="Ellipse_1928" data-name="Ellipse 1928" cx="1.8" cy="1.8" r="1.8" transform="translate(2793.029 2095.171)" fill="#fff"/>
          <circle id="Ellipse_1929" data-name="Ellipse 1929" cx="1.8" cy="1.8" r="1.8" transform="translate(2793.029 2103.572)" fill="#fff"/>
          <circle id="Ellipse_1930" data-name="Ellipse 1930" cx="1.8" cy="1.8" r="1.8" transform="translate(2793.029 2111.971)" fill="#fff"/>
          <circle id="Ellipse_1931" data-name="Ellipse 1931" cx="1.8" cy="1.8" r="1.8" transform="translate(2793.029 2120.371)" fill="#fff"/>
          <circle id="Ellipse_1932" data-name="Ellipse 1932" cx="1.8" cy="1.8" r="1.8" transform="translate(2793.029 2128.771)" fill="#fff"/>
          <circle id="Ellipse_1933" data-name="Ellipse 1933" cx="1.8" cy="1.8" r="1.8" transform="translate(2799.543 2086.771)" fill="#fff"/>
          <circle id="Ellipse_1934" data-name="Ellipse 1934" cx="1.8" cy="1.8" r="1.8" transform="translate(2799.543 2095.171)" fill="#fff"/>
          <circle id="Ellipse_1935" data-name="Ellipse 1935" cx="1.8" cy="1.8" r="1.8" transform="translate(2799.543 2103.572)" fill="#fff"/>
          <circle id="Ellipse_1936" data-name="Ellipse 1936" cx="1.8" cy="1.8" r="1.8" transform="translate(2799.543 2111.971)" fill="#fff"/>
          <circle id="Ellipse_1937" data-name="Ellipse 1937" cx="1.8" cy="1.8" r="1.8" transform="translate(2799.543 2120.371)" fill="#fff"/>
          <circle id="Ellipse_1938" data-name="Ellipse 1938" cx="1.8" cy="1.8" r="1.8" transform="translate(2799.543 2128.771)" fill="#fff"/>
        </g>
      </g>
    </g>
    <g id="Group_2788" data-name="Group 2788">
      <g id="Group_2787" data-name="Group 2787" clip-path="url(#clip-path-2)">
        <path id="Path_2755" data-name="Path 2755" d="M2803.326,2098.649a2.8,2.8,0,0,0-4,.248q-.916,1.047-1.8,2.145a19.031,19.031,0,0,0-14.417-7.25c-.565-.033-1.131-.042-1.693-.027a4.463,4.463,0,0,0-1.546-1.448,19.316,19.316,0,0,0,2.7-2.789,2.888,2.888,0,0,0,.435-3.016,2.847,2.847,0,0,0-2.488-1.682,6.362,6.362,0,0,0-2.461.4,6.983,6.983,0,0,0-1.083.317,11.3,11.3,0,0,0-1.546-2.912c-.3-.414-2.672-2.973-4.114-3.159a2.852,2.852,0,0,0-3.151,2.295,15.374,15.374,0,0,0,.278,6.911l.026.1.1.4a17.182,17.182,0,0,0-4.327.566,2.888,2.888,0,0,0-2.181,2.127,2.845,2.845,0,0,0,.949,2.849,6.377,6.377,0,0,0,2.2,1.182,7.413,7.413,0,0,0,2.02.631,4.809,4.809,0,0,0,.628,3.34,19.526,19.526,0,0,0-3.013,4.3l-1.147,1.194-1.519-1.229a2.821,2.821,0,0,0-4.008.444,2.771,2.771,0,0,0,.4,3.94l4.146,3.356a16.056,16.056,0,0,0,1.881,8.691c2.974,5.442,8.84,8.458,16.293,8.458q1.1,0,2.251-.089a23.138,23.138,0,0,0,11.145-3.4,14.51,14.51,0,0,0,7.149-13.006,23.841,23.841,0,0,0-1.051-5.937c1.029-1.367,2.113-2.7,3.234-3.984A2.788,2.788,0,0,0,2803.326,2098.649Zm-39.071,6.767c-.045.106-.09.212-.133.319l-.181-.146Z" fill="#fff"/>
      </g>
    </g>
    <g id="Group_2791" data-name="Group 2791">
      <path id="Path_2757" data-name="Path 2757" d="M2764.7,2091.762c2.342-.54,5.692-1.166,7.392,1.05a.8.8,0,0,1-.127,1.1.772.772,0,0,1-.438.163,2.18,2.18,0,0,1-1.039.4,13.208,13.208,0,0,1-1.916.13,5.673,5.673,0,0,1-2.6-.6,4.422,4.422,0,0,1-1.636-.835A.793.793,0,0,1,2764.7,2091.762Z" fill="#70b535"/>
      <path id="Path_2758" data-name="Path 2758" d="M2780.982,2088.219c-1.529,1.854-3.8,4.391-6.5,3.669a.8.8,0,0,1-.568-.948.778.778,0,0,1,.248-.4,2.185,2.185,0,0,1,.582-.948,13.159,13.159,0,0,1,1.44-1.271,5.681,5.681,0,0,1,2.429-1.106,4.408,4.408,0,0,1,1.8-.334A.793.793,0,0,1,2780.982,2088.219Z" fill="#70b535"/>
      <path id="Path_2759" data-name="Path 2759" d="M2771.234,2091.027a28.69,28.69,0,0,1-.8-2.835,13.406,13.406,0,0,1-.263-6,.8.8,0,0,1,.875-.676,11.368,11.368,0,0,1,2.707,2.32,8.544,8.544,0,0,1,1.476,3.108c.41,1.867-.357,3.674-1.227,5.3a.865.865,0,0,1-.118.714.722.722,0,0,1-.68.3.713.713,0,0,1-.531-.009.862.862,0,0,1-.483-.6A4.469,4.469,0,0,1,2771.234,2091.027Z" fill="#328230"/>
      <g id="Group_2789" data-name="Group 2789">
        <path id="Path_2760" data-name="Path 2760" d="M2769.754,2092.853a.79.79,0,0,1,.875-.676,9.948,9.948,0,0,1,1.979.658q-.165-.612-.32-1.214a.788.788,0,0,1,.672-.879.8.8,0,0,1,.879.672c.1.4.212.814.323,1.226a12.31,12.31,0,0,0,1.185-2.008c.375-.8,1.6-.186,1.226.614a13.613,13.613,0,0,1-1.8,2.847.7.7,0,0,1-.146.133l.24.742c.06.177.788,2.205.853,2.38-.385.42-.782.793-1.2,1.187-.23-.571-1.092-2.959-1.282-3.548-.1-.07-.2-.14-.3-.206-.125-.081-.256-.17-.39-.239l-.035-.018-.095-.05c-.079-.041-.158-.081-.239-.12a8.623,8.623,0,0,0-.914-.382q-.227-.081-.459-.148l-.12-.035h0l-.009,0h0a.132.132,0,0,0-.031-.006c-.073-.013-.147-.037-.217-.053a.837.837,0,0,1-.513-.29A.794.794,0,0,1,2769.754,2092.853Z" fill="#2d1e07"/>
        <path id="Path_2761" data-name="Path 2761" d="M2770.687,2093.789c-.137-.013-.091-.016-.04-.008.011,0,.023.006.035.007Z" fill="#2d1e07"/>
      </g>
      <path id="Path_2762" data-name="Path 2762" d="M2793.2,2123.8a20.924,20.924,0,0,1-10.227,3.1c-8.409.652-13.992-2.569-16.58-7.3a14.232,14.232,0,0,1-1.541-8.585,17.178,17.178,0,0,1,18.132-15.169c8.455.5,15.8,5.845,16.387,16.811A12.4,12.4,0,0,1,2793.2,2123.8Z" fill="#fba71b"/>
      <path id="Path_2763" data-name="Path 2763" d="M2792.248,2110.862a.783.783,0,0,1-.1,1.561A.783.783,0,0,1,2792.248,2110.862Z" fill="#2d1e07"/>
      <path id="Path_2764" data-name="Path 2764" d="M2795.768,2109.346a.782.782,0,0,1-.1,1.56A.782.782,0,0,1,2795.768,2109.346Z" fill="#2d1e07"/>
      <path id="Path_2765" data-name="Path 2765" d="M2795.3,2112.764a.782.782,0,0,1-.1,1.56A.782.782,0,0,1,2795.3,2112.764Z" fill="#2d1e07"/>
      <path id="Path_2766" data-name="Path 2766" d="M2770.565,2116.693a.782.782,0,0,1-.1,1.561A.782.782,0,0,1,2770.565,2116.693Z" fill="#2d1e07"/>
      <path id="Path_2767" data-name="Path 2767" d="M2770.479,2114.156a.782.782,0,0,1-.1,1.561A.782.782,0,0,1,2770.479,2114.156Z" fill="#2d1e07"/>
      <path id="Path_2768" data-name="Path 2768" d="M2773.412,2115.368a.783.783,0,0,1-.1,1.561A.783.783,0,0,1,2773.412,2115.368Z" fill="#2d1e07"/>
      <path id="Path_2769" data-name="Path 2769" d="M2777.57,2115.666" fill="none" stroke="#2d1e07" stroke-linecap="round" stroke-miterlimit="10" stroke-width="4"/>
      <circle id="Ellipse_1940" data-name="Ellipse 1940" cx="3.596" cy="3.596" r="3.596" transform="translate(2790.372 2108.118)" fill="#f22281" opacity="0.41"/>
      <path id="Path_2770" data-name="Path 2770" d="M2800.875,2100.251a71.754,71.754,0,0,0-5.274,6.813.805.805,0,0,0,.083,1.1.786.786,0,0,0,1.1-.083,71.955,71.955,0,0,1,5.275-6.812A.783.783,0,0,0,2800.875,2100.251Z" fill="#2d1e07"/>
      <path id="Path_2771" data-name="Path 2771" d="M2768.021,2111.538l-7.146-5.784c-.782-.633-1.8.552-1.02,1.186l7.146,5.783C2767.784,2113.357,2768.8,2112.171,2768.021,2111.538Z" fill="#2d1e07"/>
      <circle id="Ellipse_1941" data-name="Ellipse 1941" cx="3.596" cy="3.596" r="3.596" transform="translate(2768.108 2112.402)" fill="#f22281" opacity="0.41"/>
      <path id="Path_2772" data-name="Path 2772" d="M2774.8,2101.569a1.688,1.688,0,0,0-.244-.844,1.15,1.15,0,0,0-1.038-.537,1.491,1.491,0,0,0-.811.322,3.99,3.99,0,0,0-.327.282,1.463,1.463,0,0,0-.184.187c-.014.015-.029.028-.042.043-.063.071-.123.145-.179.221a2.592,2.592,0,0,0-.267.415,1.16,1.16,0,0,0,.072,1.161,1.24,1.24,0,0,0,.813.52,1.36,1.36,0,0,0,.871-.179,1.329,1.329,0,0,0,.387-.069,1.419,1.419,0,0,0,.757-.653A1.679,1.679,0,0,0,2774.8,2101.569Z" fill="#ffca85"/>
      <g id="Group_2790" data-name="Group 2790">
        <path id="Path_2773" data-name="Path 2773" d="M2774.779,2095.729s2.416-2.513,3.827-1.761a2.1,2.1,0,0,1,1.346,2.232c.079,1.283-1.069,2.044-2.714,1.292a6.69,6.69,0,0,0-2.019-.385c-.844-.079-.734-.553-.734-.553Z" fill="#f43885"/>
        <path id="Path_2774" data-name="Path 2774" d="M2773.686,2096.165s-3.831-1.159-4.316.241a2.739,2.739,0,0,0,.386,2.6c1.074,1.174,2.142.481,2.98-.193,1.261-1.015.724-.78,1.4-1.242s.3-.824.3-.824Z" fill="#f43885"/>
        <path id="Path_2775" data-name="Path 2775" d="M2776.361,2095.5s-1.209.586-.988.915" fill="none" stroke="#ba0d42" stroke-linecap="round" stroke-miterlimit="10" stroke-width="3"/>
        <path id="Path_2776" data-name="Path 2776" d="M2776.81,2096.484s-1.369-.093-1.4.29" fill="none" stroke="#ba0d42" stroke-linecap="round" stroke-miterlimit="10" stroke-width="3"/>
        <path id="Path_2777" data-name="Path 2777" d="M2772.117,2096.928s1.305-.4,1.437-.033" fill="none" stroke="#ba0d42" stroke-linecap="round" stroke-miterlimit="10" stroke-width="3"/>
        <path id="Path_2778" data-name="Path 2778" d="M2772.728,2097.919s.836-.956,1.183-.722" fill="none" stroke="#ba0d42" stroke-linecap="round" stroke-miterlimit="10" stroke-width="3"/>
        <path id="Path_2779" data-name="Path 2779" d="M2773.024,2096.541c.181.766.559,1.616,1.746,1.445.809-.117,1.59-.513,1.215-1.448-.459-1.145-.636-1.276-1.454-1.275S2772.861,2095.854,2773.024,2096.541Z" fill="#f759a9"/>
      </g>
      <path id="Path_2780" data-name="Path 2780" d="M2777.217,2107.822l-4.755-1.049c-.86-.189-1.227,1.133-.364,1.323l3.53.778a14.5,14.5,0,0,0-2.528,3.547c-.4.786.785,1.481,1.184.693a13.486,13.486,0,0,1,3.236-4.146A.69.69,0,0,0,2777.217,2107.822Z" fill="#2d1e07"/>
      <path id="Path_2781" data-name="Path 2781" d="M2791.679,2107.925a10.335,10.335,0,0,0-4.2-1.872c.275-.3.577-.586.817-.861l1.414-1.616c.579-.661-.387-1.635-.97-.969l-2.175,2.485c-.4.456-1.254,1.118-.7,1.78a1.362,1.362,0,0,0,.885.36,11.22,11.22,0,0,1,1.416.387,11.07,11.07,0,0,1,2.818,1.491C2791.706,2109.623,2792.392,2108.435,2791.679,2107.925Z" fill="#2d1e07"/>
      <path id="Path_2782" data-name="Path 2782" d="M2786.575,2110.4c-.273-.835-1.6-.478-1.322.365.794,2.428-3.466,3.563-4.234,1.371-.29-.827-1.616-.471-1.323.365C2781.05,2116.363,2787.919,2114.507,2786.575,2110.4Z" fill="#2d1e07"/>
    </g>
    <rect id="Rectangle_824" data-name="Rectangle 824" width="60" height="60" transform="translate(2751.714 2078.714)" fill="none"/>
  </g>
</svg>
