<svg xmlns="http://www.w3.org/2000/svg" xmlns:xlink="http://www.w3.org/1999/xlink" width="60" height="60" viewBox="0 0 60 60">
  <defs>
    <clipPath id="clip-path">
      <circle id="Ellipse_1894" data-name="Ellipse 1894" cx="22.971" cy="22.971" r="22.971" transform="translate(2871.743 1900.743)" fill="none"/>
    </clipPath>
    <clipPath id="clip-path-2">
      <path id="Path_2732" data-name="Path 2732" d="M2917.686,1923.714a22.956,22.956,0,1,1-.218-3.171A22.986,22.986,0,0,1,2917.686,1923.714Z" fill="none"/>
    </clipPath>
  </defs>
  <g id="Group_2782" data-name="Group 2782" transform="translate(-2864.714 -1893.714)">
    <path id="Path_2691" data-name="Path 2691" d="M2894.714,1898.857a24.857,24.857,0,1,1-24.857,24.857,24.856,24.856,0,0,1,24.857-24.857m0-1.714a26.571,26.571,0,1,0,18.789,7.782,26.4,26.4,0,0,0-18.789-7.782Z" fill="#f1ab33"/>
    <g id="Group_2703" data-name="Group 2703">
      <path id="Path_2692" data-name="Path 2692" d="M2883.843,1943.951a22.972,22.972,0,1,1,28.835-34.561,30.859,30.859,0,0,0-22.58,34.19q.2,1.383.522,2.742a22.666,22.666,0,0,1-3.88-1.062A23.16,23.16,0,0,1,2883.843,1943.951Z" fill="#ef7835"/>
      <path id="Path_2693" data-name="Path 2693" d="M2890.1,1943.58a30.891,30.891,0,0,1-3.092-41.505,22.988,22.988,0,0,1,25.672,7.315,30.859,30.859,0,0,0-22.58,34.19Z" fill="#efc335"/>
      <path id="Path_2694" data-name="Path 2694" d="M2890.62,1946.322q-.321-1.358-.522-2.742a30.859,30.859,0,0,1,22.58-34.19c.191.239.377.48.557.727a22.979,22.979,0,0,1-19.268,36.56A22.462,22.462,0,0,1,2890.62,1946.322Z" fill="#ffddab"/>
    </g>
    <g id="Group_2777" data-name="Group 2777">
      <g id="Group_2776" data-name="Group 2776" clip-path="url(#clip-path)">
        <g id="Group_2705" data-name="Group 2705" opacity="0.5">
          <g id="Group_2704" data-name="Group 2704">
            <path id="Path_2695" data-name="Path 2695" d="M2896.477,1891.4l-.378,1.114a.47.47,0,0,0,.069.432l.7.943a.47.47,0,0,1-.382.751l-1.177-.015a.471.471,0,0,0-.39.2l-.679.96a.47.47,0,0,1-.832-.132l-.35-1.123a.469.469,0,0,0-.309-.309l-1.123-.35a.47.47,0,0,1-.132-.832l.96-.679a.47.47,0,0,0,.2-.39l-.015-1.177a.47.47,0,0,1,.751-.382l.943.7a.468.468,0,0,0,.432.069l1.114-.378A.47.47,0,0,1,2896.477,1891.4Z" fill="#fff"/>
          </g>
        </g>
        <g id="Group_2707" data-name="Group 2707" opacity="0.5">
          <g id="Group_2706" data-name="Group 2706">
            <path id="Path_2696" data-name="Path 2696" d="M2890.416,1897.456l-.378,1.114a.47.47,0,0,0,.069.432l.7.943a.47.47,0,0,1-.382.751l-1.177-.015a.467.467,0,0,0-.389.2l-.68.96a.469.469,0,0,1-.832-.132l-.35-1.123a.466.466,0,0,0-.309-.309l-1.123-.35a.47.47,0,0,1-.132-.832l.96-.679a.471.471,0,0,0,.2-.39l-.015-1.177a.47.47,0,0,1,.751-.382l.943.7a.471.471,0,0,0,.432.069l1.114-.378A.47.47,0,0,1,2890.416,1897.456Z" fill="#fff"/>
          </g>
        </g>
        <g id="Group_2709" data-name="Group 2709" opacity="0.5">
          <g id="Group_2708" data-name="Group 2708">
            <path id="Path_2697" data-name="Path 2697" d="M2884.355,1903.517l-.378,1.114a.47.47,0,0,0,.069.432l.7.943a.47.47,0,0,1-.382.751l-1.177-.015a.467.467,0,0,0-.389.2l-.68.96a.47.47,0,0,1-.832-.132l-.349-1.123a.467.467,0,0,0-.31-.309l-1.123-.35a.47.47,0,0,1-.132-.832l.96-.68a.468.468,0,0,0,.2-.389l-.015-1.177a.47.47,0,0,1,.751-.382l.943.7a.471.471,0,0,0,.432.069l1.114-.378A.47.47,0,0,1,2884.355,1903.517Z" fill="#fff"/>
          </g>
        </g>
        <g id="Group_2711" data-name="Group 2711" opacity="0.5">
          <g id="Group_2710" data-name="Group 2710">
            <path id="Path_2698" data-name="Path 2698" d="M2878.294,1909.578l-.378,1.114a.471.471,0,0,0,.069.432l.7.943a.47.47,0,0,1-.383.751l-1.177-.015a.468.468,0,0,0-.389.2l-.68.96a.47.47,0,0,1-.832-.132l-.349-1.123a.471.471,0,0,0-.31-.31l-1.123-.349a.47.47,0,0,1-.132-.832l.961-.68a.469.469,0,0,0,.2-.389l-.015-1.177a.47.47,0,0,1,.751-.382l.943.7a.47.47,0,0,0,.432.069l1.114-.378A.47.47,0,0,1,2878.294,1909.578Z" fill="#fff"/>
          </g>
        </g>
        <g id="Group_2713" data-name="Group 2713" opacity="0.5">
          <g id="Group_2712" data-name="Group 2712">
            <path id="Path_2699" data-name="Path 2699" d="M2872.233,1915.639l-.377,1.114a.468.468,0,0,0,.068.432l.7.943a.47.47,0,0,1-.383.751l-1.176-.015a.47.47,0,0,0-.39.2l-.679.961a.47.47,0,0,1-.833-.132l-.349-1.123a.472.472,0,0,0-.31-.31l-1.123-.349a.47.47,0,0,1-.132-.832l.961-.68a.469.469,0,0,0,.2-.389l-.015-1.177a.47.47,0,0,1,.751-.383l.943.7a.471.471,0,0,0,.432.069l1.114-.378A.47.47,0,0,1,2872.233,1915.639Z" fill="#fff"/>
          </g>
        </g>
        <g id="Group_2715" data-name="Group 2715" opacity="0.5">
          <g id="Group_2714" data-name="Group 2714">
            <path id="Path_2700" data-name="Path 2700" d="M2866.172,1921.7l-.377,1.114a.471.471,0,0,0,.068.432l.7.943a.47.47,0,0,1-.383.751l-1.176-.015a.47.47,0,0,0-.39.2l-.679.961a.47.47,0,0,1-.833-.132l-.349-1.123a.471.471,0,0,0-.31-.31l-1.123-.349a.47.47,0,0,1-.132-.833l.961-.679a.47.47,0,0,0,.2-.39l-.015-1.176a.47.47,0,0,1,.751-.383l.943.7a.467.467,0,0,0,.432.068l1.114-.377A.47.47,0,0,1,2866.172,1921.7Z" fill="#fff"/>
          </g>
        </g>
        <g id="Group_2717" data-name="Group 2717" opacity="0.5">
          <g id="Group_2716" data-name="Group 2716">
            <path id="Path_2701" data-name="Path 2701" d="M2902.538,1897.456l-.378,1.114a.468.468,0,0,0,.069.432l.7.943a.47.47,0,0,1-.382.751l-1.177-.015a.47.47,0,0,0-.39.2l-.679.96a.47.47,0,0,1-.832-.132l-.35-1.123a.469.469,0,0,0-.309-.309l-1.123-.35a.47.47,0,0,1-.132-.832l.96-.679a.471.471,0,0,0,.2-.39l-.015-1.177a.47.47,0,0,1,.751-.382l.943.7a.47.47,0,0,0,.432.069l1.114-.378A.47.47,0,0,1,2902.538,1897.456Z" fill="#fff"/>
          </g>
        </g>
        <g id="Group_2719" data-name="Group 2719" opacity="0.5">
          <g id="Group_2718" data-name="Group 2718">
            <path id="Path_2702" data-name="Path 2702" d="M2896.477,1903.517l-.378,1.114a.47.47,0,0,0,.069.432l.7.943a.47.47,0,0,1-.382.751l-1.177-.015a.47.47,0,0,0-.39.2l-.679.96a.47.47,0,0,1-.832-.132l-.35-1.123a.467.467,0,0,0-.309-.309l-1.123-.35a.47.47,0,0,1-.132-.832l.96-.68a.468.468,0,0,0,.2-.389l-.015-1.177a.47.47,0,0,1,.751-.382l.943.7a.47.47,0,0,0,.432.069l1.114-.378A.47.47,0,0,1,2896.477,1903.517Z" fill="#fff"/>
          </g>
        </g>
        <g id="Group_2721" data-name="Group 2721" opacity="0.5">
          <g id="Group_2720" data-name="Group 2720">
            <path id="Path_2703" data-name="Path 2703" d="M2890.416,1909.578l-.378,1.114a.471.471,0,0,0,.069.432l.7.943a.47.47,0,0,1-.382.751l-1.177-.015a.467.467,0,0,0-.389.2l-.68.96a.469.469,0,0,1-.832-.132l-.35-1.123a.467.467,0,0,0-.309-.31l-1.123-.349a.47.47,0,0,1-.132-.832l.96-.68a.468.468,0,0,0,.2-.389l-.015-1.177a.47.47,0,0,1,.751-.382l.943.7a.47.47,0,0,0,.432.069l1.114-.378A.47.47,0,0,1,2890.416,1909.578Z" fill="#fff"/>
          </g>
        </g>
        <g id="Group_2723" data-name="Group 2723" opacity="0.5">
          <g id="Group_2722" data-name="Group 2722">
            <path id="Path_2704" data-name="Path 2704" d="M2884.355,1915.639l-.378,1.114a.471.471,0,0,0,.069.432l.7.943a.47.47,0,0,1-.382.751l-1.177-.015a.469.469,0,0,0-.389.2l-.68.961a.47.47,0,0,1-.832-.132l-.349-1.123a.471.471,0,0,0-.31-.31l-1.123-.349a.47.47,0,0,1-.132-.832l.96-.68a.468.468,0,0,0,.2-.389l-.015-1.177a.47.47,0,0,1,.751-.383l.943.7a.472.472,0,0,0,.432.069l1.114-.378A.47.47,0,0,1,2884.355,1915.639Z" fill="#fff"/>
          </g>
        </g>
        <g id="Group_2725" data-name="Group 2725" opacity="0.5">
          <g id="Group_2724" data-name="Group 2724">
            <path id="Path_2705" data-name="Path 2705" d="M2878.294,1921.7l-.378,1.114a.471.471,0,0,0,.069.432l.7.943a.47.47,0,0,1-.383.751l-1.177-.015a.469.469,0,0,0-.389.2l-.68.961a.47.47,0,0,1-.832-.132l-.349-1.123a.471.471,0,0,0-.31-.31l-1.123-.349a.47.47,0,0,1-.132-.833l.961-.679a.469.469,0,0,0,.2-.39l-.015-1.176a.47.47,0,0,1,.751-.383l.943.7a.467.467,0,0,0,.432.068l1.114-.377A.47.47,0,0,1,2878.294,1921.7Z" fill="#fff"/>
          </g>
        </g>
        <g id="Group_2727" data-name="Group 2727" opacity="0.5">
          <g id="Group_2726" data-name="Group 2726">
            <path id="Path_2706" data-name="Path 2706" d="M2872.233,1927.761l-.377,1.114a.468.468,0,0,0,.068.432l.7.943a.47.47,0,0,1-.383.751l-1.176-.015a.47.47,0,0,0-.39.2l-.679.961a.47.47,0,0,1-.833-.132l-.349-1.123a.472.472,0,0,0-.31-.31l-1.123-.349a.47.47,0,0,1-.132-.833l.961-.679a.47.47,0,0,0,.2-.39l-.015-1.176a.47.47,0,0,1,.751-.383l.943.7a.47.47,0,0,0,.432.068l1.114-.377A.469.469,0,0,1,2872.233,1927.761Z" fill="#fff"/>
          </g>
        </g>
        <g id="Group_2729" data-name="Group 2729" opacity="0.5">
          <g id="Group_2728" data-name="Group 2728">
            <path id="Path_2707" data-name="Path 2707" d="M2908.6,1903.517l-.378,1.114a.47.47,0,0,0,.068.432l.7.943a.47.47,0,0,1-.383.751l-1.176-.015a.47.47,0,0,0-.39.2l-.679.96a.47.47,0,0,1-.833-.132l-.349-1.123a.467.467,0,0,0-.309-.309l-1.124-.35a.469.469,0,0,1-.131-.832l.96-.68a.47.47,0,0,0,.2-.389l-.015-1.177a.47.47,0,0,1,.751-.382l.943.7a.47.47,0,0,0,.432.069l1.114-.378A.47.47,0,0,1,2908.6,1903.517Z" fill="#fff"/>
          </g>
        </g>
        <g id="Group_2731" data-name="Group 2731" opacity="0.5">
          <g id="Group_2730" data-name="Group 2730">
            <path id="Path_2708" data-name="Path 2708" d="M2902.538,1909.578l-.378,1.114a.469.469,0,0,0,.069.432l.7.943a.47.47,0,0,1-.382.751l-1.177-.015a.47.47,0,0,0-.39.2l-.679.96a.47.47,0,0,1-.832-.132l-.35-1.123a.47.47,0,0,0-.309-.31l-1.123-.349a.47.47,0,0,1-.132-.832l.96-.68a.468.468,0,0,0,.2-.389l-.015-1.177a.47.47,0,0,1,.751-.382l.943.7a.47.47,0,0,0,.432.069l1.114-.378A.47.47,0,0,1,2902.538,1909.578Z" fill="#fff"/>
          </g>
        </g>
        <g id="Group_2733" data-name="Group 2733" opacity="0.5">
          <g id="Group_2732" data-name="Group 2732">
            <path id="Path_2709" data-name="Path 2709" d="M2896.477,1915.639l-.378,1.114a.471.471,0,0,0,.069.432l.7.943a.47.47,0,0,1-.382.751l-1.177-.015a.472.472,0,0,0-.39.2l-.679.961a.47.47,0,0,1-.832-.132l-.35-1.123a.47.47,0,0,0-.309-.31l-1.123-.349a.47.47,0,0,1-.132-.832l.96-.68a.468.468,0,0,0,.2-.389l-.015-1.177a.47.47,0,0,1,.751-.383l.943.7a.471.471,0,0,0,.432.069l1.114-.378A.47.47,0,0,1,2896.477,1915.639Z" fill="#fff"/>
          </g>
        </g>
        <g id="Group_2735" data-name="Group 2735" opacity="0.5">
          <g id="Group_2734" data-name="Group 2734">
            <path id="Path_2710" data-name="Path 2710" d="M2890.416,1921.7l-.378,1.114a.471.471,0,0,0,.069.432l.7.943a.47.47,0,0,1-.382.751l-1.177-.015a.468.468,0,0,0-.389.2l-.68.961a.469.469,0,0,1-.832-.132l-.35-1.123a.467.467,0,0,0-.309-.31l-1.123-.349a.47.47,0,0,1-.132-.833l.96-.679a.468.468,0,0,0,.2-.39l-.015-1.176a.47.47,0,0,1,.751-.383l.943.7a.467.467,0,0,0,.432.068l1.114-.377A.47.47,0,0,1,2890.416,1921.7Z" fill="#fff"/>
          </g>
        </g>
        <g id="Group_2737" data-name="Group 2737" opacity="0.5">
          <g id="Group_2736" data-name="Group 2736">
            <path id="Path_2711" data-name="Path 2711" d="M2884.355,1927.761l-.378,1.114a.471.471,0,0,0,.069.432l.7.943a.47.47,0,0,1-.382.751l-1.177-.015a.469.469,0,0,0-.389.2l-.68.961a.47.47,0,0,1-.832-.132l-.349-1.123a.471.471,0,0,0-.31-.31l-1.123-.349a.47.47,0,0,1-.132-.833l.96-.679a.468.468,0,0,0,.2-.39l-.015-1.176a.47.47,0,0,1,.751-.383l.943.7a.471.471,0,0,0,.432.068l1.114-.377A.47.47,0,0,1,2884.355,1927.761Z" fill="#fff"/>
          </g>
        </g>
        <g id="Group_2739" data-name="Group 2739" opacity="0.5">
          <g id="Group_2738" data-name="Group 2738">
            <path id="Path_2712" data-name="Path 2712" d="M2878.294,1933.821l-.378,1.115a.471.471,0,0,0,.069.432l.7.943a.47.47,0,0,1-.383.751l-1.177-.015a.47.47,0,0,0-.389.2l-.68.961a.47.47,0,0,1-.832-.132l-.349-1.124a.471.471,0,0,0-.31-.309l-1.123-.349a.47.47,0,0,1-.132-.833l.961-.679a.469.469,0,0,0,.2-.39l-.015-1.176a.47.47,0,0,1,.751-.383l.943.7a.471.471,0,0,0,.432.068l1.114-.378A.47.47,0,0,1,2878.294,1933.821Z" fill="#fff"/>
          </g>
        </g>
        <g id="Group_2741" data-name="Group 2741" opacity="0.5">
          <g id="Group_2740" data-name="Group 2740">
            <path id="Path_2713" data-name="Path 2713" d="M2914.66,1909.578l-.378,1.114a.47.47,0,0,0,.068.432l.7.943a.47.47,0,0,1-.383.751l-1.176-.015a.47.47,0,0,0-.39.2l-.679.96a.47.47,0,0,1-.833-.132l-.349-1.123a.469.469,0,0,0-.309-.31l-1.124-.349a.47.47,0,0,1-.132-.832l.961-.68a.47.47,0,0,0,.2-.389l-.015-1.177a.47.47,0,0,1,.751-.382l.943.7a.47.47,0,0,0,.432.069l1.114-.378A.47.47,0,0,1,2914.66,1909.578Z" fill="#fff"/>
          </g>
        </g>
        <g id="Group_2743" data-name="Group 2743" opacity="0.5">
          <g id="Group_2742" data-name="Group 2742">
            <path id="Path_2714" data-name="Path 2714" d="M2908.6,1915.639l-.378,1.114a.47.47,0,0,0,.068.432l.7.943a.47.47,0,0,1-.383.751l-1.176-.015a.472.472,0,0,0-.39.2l-.679.961a.47.47,0,0,1-.833-.132l-.349-1.123a.47.47,0,0,0-.309-.31l-1.124-.349a.469.469,0,0,1-.131-.832l.96-.68a.47.47,0,0,0,.2-.389l-.015-1.177a.47.47,0,0,1,.751-.383l.943.7a.471.471,0,0,0,.432.069l1.114-.378A.47.47,0,0,1,2908.6,1915.639Z" fill="#fff"/>
          </g>
        </g>
        <g id="Group_2745" data-name="Group 2745" opacity="0.5">
          <g id="Group_2744" data-name="Group 2744">
            <path id="Path_2715" data-name="Path 2715" d="M2902.538,1921.7l-.378,1.114a.469.469,0,0,0,.069.432l.7.943a.47.47,0,0,1-.382.751l-1.177-.015a.471.471,0,0,0-.39.2l-.679.961a.47.47,0,0,1-.832-.132l-.35-1.123a.47.47,0,0,0-.309-.31l-1.123-.349a.47.47,0,0,1-.132-.833l.96-.679a.468.468,0,0,0,.2-.39l-.015-1.176a.47.47,0,0,1,.751-.383l.943.7a.467.467,0,0,0,.432.068l1.114-.377A.47.47,0,0,1,2902.538,1921.7Z" fill="#fff"/>
          </g>
        </g>
        <g id="Group_2747" data-name="Group 2747" opacity="0.5">
          <g id="Group_2746" data-name="Group 2746">
            <path id="Path_2716" data-name="Path 2716" d="M2896.477,1927.761l-.378,1.114a.471.471,0,0,0,.069.432l.7.943a.47.47,0,0,1-.382.751l-1.177-.015a.472.472,0,0,0-.39.2l-.679.961a.47.47,0,0,1-.832-.132l-.35-1.123a.47.47,0,0,0-.309-.31l-1.123-.349a.47.47,0,0,1-.132-.833l.96-.679a.468.468,0,0,0,.2-.39l-.015-1.176a.47.47,0,0,1,.751-.383l.943.7a.47.47,0,0,0,.432.068l1.114-.377A.47.47,0,0,1,2896.477,1927.761Z" fill="#fff"/>
          </g>
        </g>
        <g id="Group_2749" data-name="Group 2749" opacity="0.5">
          <g id="Group_2748" data-name="Group 2748">
            <path id="Path_2717" data-name="Path 2717" d="M2890.416,1933.821l-.378,1.115a.471.471,0,0,0,.069.432l.7.943a.47.47,0,0,1-.382.751l-1.177-.015a.469.469,0,0,0-.389.2l-.68.961a.469.469,0,0,1-.832-.132l-.35-1.124a.468.468,0,0,0-.309-.309l-1.123-.349a.47.47,0,0,1-.132-.833l.96-.679a.468.468,0,0,0,.2-.39l-.015-1.176a.47.47,0,0,1,.751-.383l.943.7a.471.471,0,0,0,.432.068l1.114-.378A.47.47,0,0,1,2890.416,1933.821Z" fill="#fff"/>
          </g>
        </g>
        <g id="Group_2751" data-name="Group 2751" opacity="0.5">
          <g id="Group_2750" data-name="Group 2750">
            <path id="Path_2718" data-name="Path 2718" d="M2884.355,1939.882l-.378,1.115a.471.471,0,0,0,.069.432l.7.942a.471.471,0,0,1-.382.752l-1.177-.015a.469.469,0,0,0-.389.2l-.68.961a.47.47,0,0,1-.832-.132l-.349-1.124a.471.471,0,0,0-.31-.309l-1.123-.349a.47.47,0,0,1-.132-.833l.96-.679a.468.468,0,0,0,.2-.39l-.015-1.176a.47.47,0,0,1,.751-.383l.943.7a.471.471,0,0,0,.432.068l1.114-.378A.47.47,0,0,1,2884.355,1939.882Z" fill="#fff"/>
          </g>
        </g>
        <g id="Group_2753" data-name="Group 2753" opacity="0.5">
          <g id="Group_2752" data-name="Group 2752">
            <path id="Path_2719" data-name="Path 2719" d="M2920.721,1915.639l-.378,1.114a.471.471,0,0,0,.068.432l.7.943a.47.47,0,0,1-.383.751l-1.176-.015a.47.47,0,0,0-.39.2l-.679.961a.47.47,0,0,1-.833-.132l-.349-1.123a.471.471,0,0,0-.309-.31l-1.124-.349a.47.47,0,0,1-.132-.832l.961-.68a.47.47,0,0,0,.2-.389l-.015-1.177a.47.47,0,0,1,.751-.383l.942.7a.473.473,0,0,0,.433.069l1.114-.378A.47.47,0,0,1,2920.721,1915.639Z" fill="#fff"/>
          </g>
        </g>
        <g id="Group_2755" data-name="Group 2755" opacity="0.5">
          <g id="Group_2754" data-name="Group 2754">
            <path id="Path_2720" data-name="Path 2720" d="M2914.66,1921.7l-.378,1.114a.47.47,0,0,0,.068.432l.7.943a.47.47,0,0,1-.383.751l-1.176-.015a.471.471,0,0,0-.39.2l-.679.961a.47.47,0,0,1-.833-.132l-.349-1.123a.469.469,0,0,0-.309-.31l-1.124-.349a.47.47,0,0,1-.132-.833l.961-.679a.47.47,0,0,0,.2-.39l-.015-1.176a.47.47,0,0,1,.751-.383l.943.7a.467.467,0,0,0,.432.068l1.114-.377A.47.47,0,0,1,2914.66,1921.7Z" fill="#fff"/>
          </g>
        </g>
        <g id="Group_2757" data-name="Group 2757" opacity="0.5">
          <g id="Group_2756" data-name="Group 2756">
            <path id="Path_2721" data-name="Path 2721" d="M2908.6,1927.761l-.378,1.114a.47.47,0,0,0,.068.432l.7.943a.47.47,0,0,1-.383.751l-1.176-.015a.472.472,0,0,0-.39.2l-.679.961a.47.47,0,0,1-.833-.132l-.349-1.123a.47.47,0,0,0-.309-.31l-1.124-.349a.47.47,0,0,1-.131-.833l.96-.679a.471.471,0,0,0,.2-.39l-.015-1.176a.47.47,0,0,1,.751-.383l.943.7a.47.47,0,0,0,.432.068l1.114-.377A.47.47,0,0,1,2908.6,1927.761Z" fill="#fff"/>
          </g>
        </g>
        <g id="Group_2759" data-name="Group 2759" opacity="0.5">
          <g id="Group_2758" data-name="Group 2758">
            <path id="Path_2722" data-name="Path 2722" d="M2902.538,1933.821l-.378,1.115a.469.469,0,0,0,.069.432l.7.943a.47.47,0,0,1-.382.751l-1.177-.015a.472.472,0,0,0-.39.2l-.679.961a.47.47,0,0,1-.832-.132l-.35-1.124a.471.471,0,0,0-.309-.309l-1.123-.349a.47.47,0,0,1-.132-.833l.96-.679a.468.468,0,0,0,.2-.39l-.015-1.176a.47.47,0,0,1,.751-.383l.943.7a.47.47,0,0,0,.432.068l1.114-.378A.47.47,0,0,1,2902.538,1933.821Z" fill="#fff"/>
          </g>
        </g>
        <g id="Group_2761" data-name="Group 2761" opacity="0.5">
          <g id="Group_2760" data-name="Group 2760">
            <path id="Path_2723" data-name="Path 2723" d="M2896.477,1939.882,2896.1,1941a.471.471,0,0,0,.069.432l.7.942a.471.471,0,0,1-.382.752l-1.177-.015a.472.472,0,0,0-.39.2l-.679.961a.47.47,0,0,1-.832-.132l-.35-1.124a.471.471,0,0,0-.309-.309l-1.123-.349a.47.47,0,0,1-.132-.833l.96-.679a.468.468,0,0,0,.2-.39l-.015-1.176a.47.47,0,0,1,.751-.383l.943.7a.47.47,0,0,0,.432.068l1.114-.378A.47.47,0,0,1,2896.477,1939.882Z" fill="#fff"/>
          </g>
        </g>
        <g id="Group_2763" data-name="Group 2763" opacity="0.5">
          <g id="Group_2762" data-name="Group 2762">
            <path id="Path_2724" data-name="Path 2724" d="M2890.416,1945.943l-.378,1.114a.472.472,0,0,0,.069.433l.7.942a.47.47,0,0,1-.382.751l-1.177-.015a.47.47,0,0,0-.389.2l-.68.961a.469.469,0,0,1-.832-.132l-.35-1.124a.468.468,0,0,0-.309-.309l-1.123-.349a.47.47,0,0,1-.132-.833l.96-.679a.468.468,0,0,0,.2-.39l-.015-1.176a.47.47,0,0,1,.751-.383l.943.7a.47.47,0,0,0,.432.068l1.114-.378A.47.47,0,0,1,2890.416,1945.943Z" fill="#fff"/>
          </g>
        </g>
        <g id="Group_2765" data-name="Group 2765" opacity="0.5">
          <g id="Group_2764" data-name="Group 2764">
            <path id="Path_2725" data-name="Path 2725" d="M2926.782,1921.7l-.378,1.114a.47.47,0,0,0,.068.432l.7.943a.47.47,0,0,1-.383.751l-1.176-.015a.469.469,0,0,0-.39.2l-.679.961a.47.47,0,0,1-.833-.132l-.349-1.123a.471.471,0,0,0-.309-.31l-1.124-.349a.47.47,0,0,1-.132-.833l.961-.679a.47.47,0,0,0,.2-.39l-.015-1.176a.47.47,0,0,1,.751-.383l.943.7a.468.468,0,0,0,.432.068l1.115-.377A.47.47,0,0,1,2926.782,1921.7Z" fill="#fff"/>
          </g>
        </g>
        <g id="Group_2767" data-name="Group 2767" opacity="0.5">
          <g id="Group_2766" data-name="Group 2766">
            <path id="Path_2726" data-name="Path 2726" d="M2920.721,1927.761l-.378,1.114a.471.471,0,0,0,.068.432l.7.943a.47.47,0,0,1-.383.751l-1.176-.015a.47.47,0,0,0-.39.2l-.679.961a.47.47,0,0,1-.833-.132l-.349-1.123a.471.471,0,0,0-.309-.31l-1.124-.349a.47.47,0,0,1-.132-.833l.961-.679a.47.47,0,0,0,.2-.39l-.015-1.176a.47.47,0,0,1,.751-.383l.942.7a.472.472,0,0,0,.433.068l1.114-.377A.47.47,0,0,1,2920.721,1927.761Z" fill="#fff"/>
          </g>
        </g>
        <g id="Group_2769" data-name="Group 2769" opacity="0.5">
          <g id="Group_2768" data-name="Group 2768">
            <path id="Path_2727" data-name="Path 2727" d="M2914.66,1933.821l-.378,1.115a.47.47,0,0,0,.068.432l.7.943a.47.47,0,0,1-.383.751l-1.176-.015a.472.472,0,0,0-.39.2l-.679.961a.47.47,0,0,1-.833-.132l-.349-1.124a.47.47,0,0,0-.309-.309l-1.124-.349a.47.47,0,0,1-.132-.833l.961-.679a.47.47,0,0,0,.2-.39l-.015-1.176a.47.47,0,0,1,.751-.383l.943.7a.47.47,0,0,0,.432.068l1.114-.378A.47.47,0,0,1,2914.66,1933.821Z" fill="#fff"/>
          </g>
        </g>
        <g id="Group_2771" data-name="Group 2771" opacity="0.5">
          <g id="Group_2770" data-name="Group 2770">
            <path id="Path_2728" data-name="Path 2728" d="M2908.6,1939.882l-.378,1.115a.47.47,0,0,0,.068.432l.7.942a.471.471,0,0,1-.383.752l-1.176-.015a.471.471,0,0,0-.39.2l-.679.961a.47.47,0,0,1-.833-.132l-.349-1.124a.471.471,0,0,0-.309-.309l-1.124-.349a.47.47,0,0,1-.131-.833l.96-.679a.471.471,0,0,0,.2-.39l-.015-1.176a.47.47,0,0,1,.751-.383l.943.7a.47.47,0,0,0,.432.068l1.114-.378A.47.47,0,0,1,2908.6,1939.882Z" fill="#fff"/>
          </g>
        </g>
        <g id="Group_2773" data-name="Group 2773" opacity="0.5">
          <g id="Group_2772" data-name="Group 2772">
            <path id="Path_2729" data-name="Path 2729" d="M2902.538,1945.943l-.378,1.114a.47.47,0,0,0,.069.433l.7.942a.47.47,0,0,1-.382.751l-1.177-.015a.473.473,0,0,0-.39.2l-.679.961a.47.47,0,0,1-.832-.132l-.35-1.124a.471.471,0,0,0-.309-.309l-1.123-.349a.47.47,0,0,1-.132-.833l.96-.679a.468.468,0,0,0,.2-.39l-.015-1.176a.47.47,0,0,1,.751-.383l.943.7a.47.47,0,0,0,.432.068l1.114-.378A.47.47,0,0,1,2902.538,1945.943Z" fill="#fff"/>
          </g>
        </g>
        <g id="Group_2775" data-name="Group 2775" opacity="0.5">
          <g id="Group_2774" data-name="Group 2774">
            <path id="Path_2730" data-name="Path 2730" d="M2896.477,1952l-.378,1.114a.47.47,0,0,0,.069.432l.7.943a.47.47,0,0,1-.382.751l-1.177-.015a.473.473,0,0,0-.39.2l-.679.96a.469.469,0,0,1-.832-.131l-.35-1.124a.469.469,0,0,0-.309-.309l-1.123-.349a.47.47,0,0,1-.132-.833l.96-.679a.47.47,0,0,0,.2-.39l-.015-1.176a.47.47,0,0,1,.751-.383l.943.7a.47.47,0,0,0,.432.068l1.114-.378A.47.47,0,0,1,2896.477,1952Z" fill="#fff"/>
          </g>
        </g>
      </g>
    </g>
    <g id="Group_2779" data-name="Group 2779">
      <g id="Group_2778" data-name="Group 2778" clip-path="url(#clip-path-2)">
        <path id="Path_2731" data-name="Path 2731" d="M2913.983,1914.933l-2.379,2.4a19.4,19.4,0,0,0-5.547-5.522,5.021,5.021,0,0,0,1.028-2.7,4.263,4.263,0,0,0-.074-1.1,10.035,10.035,0,0,0,3.615-.352c1.591-.478,6.479-3.251,7.54-4.552a3.751,3.751,0,0,0,.648-3.728,3.277,3.277,0,0,0-2.634-2.074c-2.77-.38-5.8-.635-8.522.441a2.29,2.29,0,0,0-1.067-1.1,2.251,2.251,0,0,0-2.093.059c-1.007.558-1.951,2.707-1.96,2.728a10.454,10.454,0,0,0-.718,2.5,6.5,6.5,0,0,0-.049,1.449,8.959,8.959,0,0,0-1.469,1.527,7.222,7.222,0,0,0-1.448.844,11.445,11.445,0,0,0-2.753,2.962,19.762,19.762,0,0,0-3.783.277,20.54,20.54,0,0,0-9.725,4.408,18.634,18.634,0,0,0-5.719,8.4c-.088.039-.174.078-.259.118l-.229.1a7.764,7.764,0,0,0-2.784,1.85,3.615,3.615,0,0,0-.131,4.382,2.75,2.75,0,0,0-1.212,1.913,2.8,2.8,0,0,0,1,2.606,2.6,2.6,0,0,0,2.6.36c.131-.052.261-.1.391-.146a13.014,13.014,0,0,0,7.466,8.784,25.932,25.932,0,0,0,11.062,2.12q.672,0,1.364-.023c8.519-.279,14.888-4.046,17.472-10.334a16.2,16.2,0,0,0,.686-9.933q-.087-.369-.19-.739l3.931-3.971a2.77,2.77,0,0,0-.036-3.958A2.82,2.82,0,0,0,2913.983,1914.933Z" fill="#fff"/>
      </g>
    </g>
    <g id="Group_2781" data-name="Group 2781">
      <path id="Path_2733" data-name="Path 2733" d="M2897.859,1914.109a9.427,9.427,0,0,1,1.661-3.693,8.719,8.719,0,0,1,1.565-1.682,3.932,3.932,0,0,0,.126.838c.234.894.961,1.938,2.027,1.756a2.539,2.539,0,0,0,1.794-2.335,2.318,2.318,0,0,0-1.417-2.248,6.522,6.522,0,0,1,1.724-1.253c.968-.514.307-2.092-.663-1.577a7.629,7.629,0,0,0-3.04,2.7,4.763,4.763,0,0,0-1.553.788,10.883,10.883,0,0,0-3.922,6.5C2895.935,1914.986,2897.635,1915.179,2897.859,1914.109Zm5.146-4.589-.082-.18a1.872,1.872,0,0,1-.113-.932c0-.047.014-.092.021-.138a.72.72,0,0,1,.212,1.264C2903.141,1909.688,2903.129,1909.683,2903,1909.52Z" fill="#2d1e07"/>
      <path id="Path_2734" data-name="Path 2734" d="M2915.9,1899.353c-5.156-.708-9.006-.466-11.512,4.1a1.567,1.567,0,0,0,.277,1.978,8.87,8.87,0,0,0,5.368.27,26.368,26.368,0,0,0,6.538-3.881A1.443,1.443,0,0,0,2915.9,1899.353Z" fill="#328230"/>
      <path id="Path_2735" data-name="Path 2735" d="M2905.4,1904.01c.131-.576.224-1.167.317-1.746a11.714,11.714,0,0,0,.117-3.491c-.032-.225-.166-.36-.338-.264a9.147,9.147,0,0,0-1.059,1.721,8.44,8.44,0,0,0-.581,2,5.3,5.3,0,0,0,.464,2.878.611.611,0,0,0,.044.394.181.181,0,0,0,.263.074.233.233,0,0,0,.207-.08.77.77,0,0,0,.189-.413A4.324,4.324,0,0,0,2905.4,1904.01Z" fill="#70b535"/>
      <path id="Path_2736" data-name="Path 2736" d="M2884.6,1939.911a25.2,25.2,0,0,0,11.482,1.9c8.407-.277,13.59-4.083,15.636-9.061a14.2,14.2,0,0,0,.587-8.68,17.137,17.137,0,0,0-19.641-13.05c-8.328,1.422-15.4,8.053-14.78,18.991A11.069,11.069,0,0,0,2884.6,1939.911Z" fill="#fba71b"/>
      <path id="Path_2737" data-name="Path 2737" d="M2884.187,1927.574a.78.78,0,0,0,1.073,1.132A.78.78,0,0,0,2884.187,1927.574Z" fill="#2d1e07"/>
      <path id="Path_2738" data-name="Path 2738" d="M2880.523,1928.667a.78.78,0,0,0,1.073,1.132A.78.78,0,0,0,2880.523,1928.667Z" fill="#2d1e07"/>
      <path id="Path_2739" data-name="Path 2739" d="M2883.071,1930.98a.781.781,0,0,0,1.074,1.132A.781.781,0,0,0,2883.071,1930.98Z" fill="#2d1e07"/>
      <path id="Path_2740" data-name="Path 2740" d="M2906.725,1929.826a.78.78,0,0,0-1.3.862A.78.78,0,0,0,2906.725,1929.826Z" fill="#2d1e07"/>
      <path id="Path_2741" data-name="Path 2741" d="M2908.958,1928.634a.78.78,0,0,0-1.3.863A.78.78,0,0,0,2908.958,1928.634Z" fill="#2d1e07"/>
      <path id="Path_2742" data-name="Path 2742" d="M2906.449,1926.706a.781.781,0,0,0-1.3.863A.781.781,0,0,0,2906.449,1926.706Z" fill="#2d1e07"/>
      <path id="Path_2743" data-name="Path 2743" d="M2900.206,1930.078" fill="none" stroke="#2d1e07" stroke-linecap="round" stroke-miterlimit="10" stroke-width="4"/>
      <path id="Path_2744" data-name="Path 2744" d="M2909,1922.9l6.45-6.518c.706-.713,1.848.349,1.141,1.064l-6.45,6.518C2909.43,1924.676,2908.288,1923.613,2909,1922.9Z" fill="#2d1e07"/>
      <path id="Path_2745" data-name="Path 2745" d="M2901.409,1915.8a1.692,1.692,0,0,1,.149-.862,1.147,1.147,0,0,1,.971-.647,1.49,1.49,0,0,1,.84.23,4.291,4.291,0,0,1,.355.244,1.52,1.52,0,0,1,.2.166c.015.013.031.024.046.037.07.063.137.13.2.2a2.6,2.6,0,0,1,.311.382,1.159,1.159,0,0,1,.056,1.159,1.241,1.241,0,0,1-.75.6,21.462,21.462,0,0,0-1.274-.108,1.419,1.419,0,0,1-.822-.564A1.686,1.686,0,0,1,2901.409,1915.8Z" fill="#ffca85"/>
      <path id="Path_2746" data-name="Path 2746" d="M2889.3,1921.111a1.761,1.761,0,0,0-1.572-.823.949.949,0,0,0-.648.133,1.781,1.781,0,0,0,.748,3.451,1.76,1.76,0,0,0,1.506-.838A1.85,1.85,0,0,0,2889.3,1921.111Z" fill="#2d1e07"/>
      <path id="Path_2747" data-name="Path 2747" d="M2902.237,1920.642a2.033,2.033,0,0,0-3.169,1.141,1.728,1.728,0,0,0,1.786,2.053,1.816,1.816,0,0,0,.951-.156A1.844,1.844,0,0,0,2902.237,1920.642Z" fill="#2d1e07"/>
      <g id="Group_2780" data-name="Group 2780">
        <path id="Path_2748" data-name="Path 2748" d="M2894.737,1930.66c-.974.787-.807-2.521-.8-2.926a.684.684,0,0,0-.065-.3c.092-.049.183-.1.27-.155.065-.042.154-.117.245-.19a2.361,2.361,0,0,0,.2.263,2.019,2.019,0,0,0,.711.468c.022.008.045.012.067.019q-.081.6-.161,1.2C2895.138,1929.476,2895.133,1930.341,2894.737,1930.66Z" fill="#ce3a3a"/>
        <path id="Path_2749" data-name="Path 2749" d="M2897.583,1924.55c-.366-.8-1.549-.106-1.184.692.3.656-.221,1.768-.951,1-.295-.31-.446-.686-.937-.707-.449-.019-.722.335-1.065.555a1.624,1.624,0,0,1-.75.335c-.9-.049-.236-.779,0-1.117.5-.727-.685-1.413-1.184-.692-.626.9-1.092,2.387.155,3.034a1.7,1.7,0,0,0,.9.173c-.019,1.5-.228,4.6,2.1,4.327,1.893-.22,1.958-2.867,2.1-4.473.047-.025.093-.051.139-.081A2.383,2.383,0,0,0,2897.583,1924.55Zm-2.846,6.11c-.974.787-.807-2.521-.8-2.926a.684.684,0,0,0-.065-.3c.092-.049.183-.1.27-.155.065-.042.154-.117.245-.19a2.361,2.361,0,0,0,.2.263,2.019,2.019,0,0,0,.711.468c.022.008.045.012.067.019q-.081.6-.161,1.2C2895.138,1929.476,2895.133,1930.341,2894.737,1930.66Z" fill="#2d1e07"/>
      </g>
      <path id="Path_2750" data-name="Path 2750" d="M2880.441,1922.732a16.569,16.569,0,0,0-2.957,1.05,6.843,6.843,0,0,0-2.311,1.418,1.719,1.719,0,0,0,.166,2.157c.45.664.938,1.307,1.423,1.95a11.579,11.579,0,0,0-2.017.591c-.811.322-.458,1.649.364,1.323a10.749,10.749,0,0,1,2.88-.725c.456-.048.932-.569.592-1.032l-1.31-1.782a7.49,7.49,0,0,1-.748-1.018c-.238-.484-.251-.644.216-.928a14.711,14.711,0,0,1,4.066-1.682A.686.686,0,0,0,2880.441,1922.732Z" fill="#2d1e07"/>
      <circle id="Ellipse_1895" data-name="Ellipse 1895" cx="3.587" cy="3.587" r="3.587" transform="translate(2902.956 1924.622)" fill="#e028e5" opacity="0.41"/>
      <circle id="Ellipse_1896" data-name="Ellipse 1896" cx="3.587" cy="3.587" r="3.587" transform="translate(2879.827 1925.702)" fill="#e028e5" opacity="0.41"/>
    </g>
    <rect id="Rectangle_823" data-name="Rectangle 823" width="60" height="60" transform="translate(2864.714 1893.714)" fill="none"/>
  </g>
</svg>
