<svg xmlns="http://www.w3.org/2000/svg" xmlns:xlink="http://www.w3.org/1999/xlink" width="60" height="60" viewBox="0 0 60 60">
  <defs>
    <clipPath id="clip-path">
      <circle id="Ellipse_1950" data-name="Ellipse 1950" cx="22.971" cy="22.971" r="22.971" transform="translate(2570.743 1894.743)" fill="none"/>
    </clipPath>
    <clipPath id="clip-path-2">
      <path id="Path_2956" data-name="Path 2956" d="M2616.686,1917.714a22.956,22.956,0,1,1-.218-3.171A22.986,22.986,0,0,1,2616.686,1917.714Z" fill="none"/>
    </clipPath>
  </defs>
  <g id="Group_2870" data-name="Group 2870" transform="translate(-2563.714 -1887.714)">
    <path id="Path_2951" data-name="Path 2951" d="M2593.714,1892.857a24.857,24.857,0,1,1-24.857,24.857,24.856,24.856,0,0,1,24.857-24.857m0-1.714a26.571,26.571,0,1,0,18.789,7.782,26.4,26.4,0,0,0-18.789-7.782Z" fill="#969696"/>
    <g id="Group_2820" data-name="Group 2820">
      <path id="Path_2952" data-name="Path 2952" d="M2616.686,1917.677a22.96,22.96,0,0,1-22.972,22.972c-.305,0-.608-.005-.912-.019a22.972,22.972,0,0,1-21.982-21.057q-.077-.937-.077-1.9a22.972,22.972,0,0,1,21.9-22.947c.355-.015.713-.024,1.071-.024A22.971,22.971,0,0,1,2616.686,1917.677Z" fill="#424242"/>
      <path id="Path_2953" data-name="Path 2953" d="M2601.943,1917.763q0,.332-.007.662a33.056,33.056,0,0,1-9.134,22.2,22.972,22.972,0,0,1-21.982-21.057q-.077-.937-.077-1.9a22.972,22.972,0,0,1,21.9-22.947A33.062,33.062,0,0,1,2601.943,1917.763Z" fill="#848484"/>
      <path id="Path_2954" data-name="Path 2954" d="M2614.027,1928.414a22.969,22.969,0,0,1-20.313,12.235c-.305,0-.608-.005-.912-.019a22.972,22.972,0,0,1-21.982-21.057,33.165,33.165,0,0,1,43.207,8.841Z" fill="#c4c4c4"/>
    </g>
    <g id="Group_2864" data-name="Group 2864">
      <g id="Group_2863" data-name="Group 2863" clip-path="url(#clip-path)">
        <g id="Group_2827" data-name="Group 2827">
          <g id="Group_2821" data-name="Group 2821">
            <rect id="Rectangle_827" data-name="Rectangle 827" width="4.932" height="4.932" transform="translate(2557.135 1916.381) rotate(-45)" fill="#fff" opacity="0.5"/>
          </g>
          <g id="Group_2822" data-name="Group 2822">
            <rect id="Rectangle_828" data-name="Rectangle 828" width="4.932" height="4.932" transform="translate(2563.772 1923.019) rotate(-45)" fill="#fff" opacity="0.5"/>
          </g>
          <g id="Group_2823" data-name="Group 2823">
            <rect id="Rectangle_829" data-name="Rectangle 829" width="4.932" height="4.932" transform="translate(2570.41 1929.656) rotate(-45)" fill="#fff" opacity="0.5"/>
          </g>
          <g id="Group_2824" data-name="Group 2824">
            <rect id="Rectangle_830" data-name="Rectangle 830" width="4.932" height="4.932" transform="translate(2577.048 1936.294) rotate(-45)" fill="#fff" opacity="0.5"/>
          </g>
          <g id="Group_2825" data-name="Group 2825">
            <rect id="Rectangle_831" data-name="Rectangle 831" width="4.932" height="4.932" transform="translate(2583.686 1942.932) rotate(-45)" fill="#fff" opacity="0.5"/>
          </g>
          <g id="Group_2826" data-name="Group 2826">
            <rect id="Rectangle_832" data-name="Rectangle 832" width="4.932" height="4.932" transform="translate(2590.323 1949.569) rotate(-45)" fill="#fff" opacity="0.5"/>
          </g>
        </g>
        <g id="Group_2834" data-name="Group 2834">
          <g id="Group_2828" data-name="Group 2828">
            <rect id="Rectangle_833" data-name="Rectangle 833" width="4.932" height="4.932" transform="translate(2563.322 1910.193) rotate(-45)" fill="#fff" opacity="0.5"/>
          </g>
          <g id="Group_2829" data-name="Group 2829">
            <rect id="Rectangle_834" data-name="Rectangle 834" width="4.932" height="4.932" transform="translate(2569.96 1916.831) rotate(-45)" fill="#fff" opacity="0.5"/>
          </g>
          <g id="Group_2830" data-name="Group 2830">
            <rect id="Rectangle_835" data-name="Rectangle 835" width="4.932" height="4.932" transform="translate(2576.598 1923.469) rotate(-45)" fill="#fff" opacity="0.5"/>
          </g>
          <g id="Group_2831" data-name="Group 2831">
            <rect id="Rectangle_836" data-name="Rectangle 836" width="4.932" height="4.932" transform="translate(2583.235 1930.106) rotate(-45)" fill="#fff" opacity="0.5"/>
          </g>
          <g id="Group_2832" data-name="Group 2832">
            <rect id="Rectangle_837" data-name="Rectangle 837" width="4.932" height="4.932" transform="translate(2589.873 1936.744) rotate(-45)" fill="#fff" opacity="0.5"/>
          </g>
          <g id="Group_2833" data-name="Group 2833">
            <rect id="Rectangle_838" data-name="Rectangle 838" width="4.932" height="4.932" transform="translate(2596.511 1943.382) rotate(-45)" fill="#fff" opacity="0.5"/>
          </g>
        </g>
        <g id="Group_2841" data-name="Group 2841">
          <g id="Group_2835" data-name="Group 2835">
            <rect id="Rectangle_839" data-name="Rectangle 839" width="4.932" height="4.932" transform="translate(2569.51 1904.006) rotate(-45)" fill="#fff" opacity="0.5"/>
          </g>
          <g id="Group_2836" data-name="Group 2836">
            <rect id="Rectangle_840" data-name="Rectangle 840" width="4.932" height="4.932" transform="translate(2576.148 1910.643) rotate(-45)" fill="#fff" opacity="0.5"/>
          </g>
          <g id="Group_2837" data-name="Group 2837">
            <rect id="Rectangle_841" data-name="Rectangle 841" width="4.932" height="4.932" transform="translate(2582.785 1917.281) rotate(-45)" fill="#fff" opacity="0.5"/>
          </g>
          <g id="Group_2838" data-name="Group 2838">
            <rect id="Rectangle_842" data-name="Rectangle 842" width="4.932" height="4.932" transform="translate(2589.423 1923.919) rotate(-45)" fill="#fff" opacity="0.5"/>
          </g>
          <g id="Group_2839" data-name="Group 2839">
            <rect id="Rectangle_843" data-name="Rectangle 843" width="4.932" height="4.932" transform="translate(2596.061 1930.556) rotate(-45)" fill="#fff" opacity="0.5"/>
          </g>
          <g id="Group_2840" data-name="Group 2840">
            <rect id="Rectangle_844" data-name="Rectangle 844" width="4.932" height="4.932" transform="translate(2602.698 1937.194) rotate(-45)" fill="#fff" opacity="0.5"/>
          </g>
        </g>
        <g id="Group_2848" data-name="Group 2848">
          <g id="Group_2842" data-name="Group 2842">
            <rect id="Rectangle_845" data-name="Rectangle 845" width="4.932" height="4.932" transform="translate(2575.698 1897.818) rotate(-45)" fill="#fff" opacity="0.5"/>
          </g>
          <g id="Group_2843" data-name="Group 2843">
            <rect id="Rectangle_846" data-name="Rectangle 846" width="4.932" height="4.932" transform="translate(2582.335 1904.456) rotate(-45)" fill="#fff" opacity="0.5"/>
          </g>
          <g id="Group_2844" data-name="Group 2844">
            <rect id="Rectangle_847" data-name="Rectangle 847" width="4.932" height="4.932" transform="translate(2588.973 1911.093) rotate(-45)" fill="#fff" opacity="0.5"/>
          </g>
          <g id="Group_2845" data-name="Group 2845">
            <rect id="Rectangle_848" data-name="Rectangle 848" width="4.932" height="4.932" transform="translate(2595.611 1917.731) rotate(-45)" fill="#fff" opacity="0.5"/>
          </g>
          <g id="Group_2846" data-name="Group 2846">
            <rect id="Rectangle_849" data-name="Rectangle 849" width="4.932" height="4.932" transform="translate(2602.249 1924.369) rotate(-45)" fill="#fff" opacity="0.5"/>
          </g>
          <g id="Group_2847" data-name="Group 2847">
            <rect id="Rectangle_850" data-name="Rectangle 850" width="4.932" height="4.932" transform="translate(2608.886 1931.006) rotate(-45)" fill="#fff" opacity="0.5"/>
          </g>
        </g>
        <g id="Group_2855" data-name="Group 2855">
          <g id="Group_2849" data-name="Group 2849">
            <rect id="Rectangle_851" data-name="Rectangle 851" width="4.932" height="4.932" transform="translate(2581.885 1891.63) rotate(-45)" fill="#fff" opacity="0.5"/>
          </g>
          <g id="Group_2850" data-name="Group 2850">
            <rect id="Rectangle_852" data-name="Rectangle 852" width="4.932" height="4.932" transform="translate(2588.523 1898.268) rotate(-45)" fill="#fff" opacity="0.5"/>
          </g>
          <g id="Group_2851" data-name="Group 2851">
            <rect id="Rectangle_853" data-name="Rectangle 853" width="4.932" height="4.932" transform="translate(2595.161 1904.906) rotate(-45)" fill="#fff" opacity="0.5"/>
          </g>
          <g id="Group_2852" data-name="Group 2852">
            <rect id="Rectangle_854" data-name="Rectangle 854" width="4.932" height="4.932" transform="translate(2601.799 1911.543) rotate(-45)" fill="#fff" opacity="0.5"/>
          </g>
          <g id="Group_2853" data-name="Group 2853">
            <rect id="Rectangle_855" data-name="Rectangle 855" width="4.932" height="4.932" transform="translate(2608.436 1918.181) rotate(-45)" fill="#fff" opacity="0.5"/>
          </g>
          <g id="Group_2854" data-name="Group 2854">
            <rect id="Rectangle_856" data-name="Rectangle 856" width="4.932" height="4.932" transform="translate(2615.074 1924.819) rotate(-45)" fill="#fff" opacity="0.5"/>
          </g>
        </g>
        <g id="Group_2862" data-name="Group 2862">
          <g id="Group_2856" data-name="Group 2856">
            <rect id="Rectangle_857" data-name="Rectangle 857" width="4.932" height="4.932" transform="translate(2588.073 1885.443) rotate(-45)" fill="#fff" opacity="0.5"/>
          </g>
          <g id="Group_2857" data-name="Group 2857">
            <rect id="Rectangle_858" data-name="Rectangle 858" width="4.932" height="4.932" transform="translate(2594.711 1892.08) rotate(-45)" fill="#fff" opacity="0.5"/>
          </g>
          <g id="Group_2858" data-name="Group 2858">
            <rect id="Rectangle_859" data-name="Rectangle 859" width="4.932" height="4.932" transform="translate(2601.348 1898.718) rotate(-45)" fill="#fff" opacity="0.5"/>
          </g>
          <g id="Group_2859" data-name="Group 2859">
            <rect id="Rectangle_860" data-name="Rectangle 860" width="4.932" height="4.932" transform="translate(2607.986 1905.356) rotate(-45)" fill="#fff" opacity="0.5"/>
          </g>
          <g id="Group_2860" data-name="Group 2860">
            <rect id="Rectangle_861" data-name="Rectangle 861" width="4.932" height="4.932" transform="translate(2614.624 1911.993) rotate(-45)" fill="#fff" opacity="0.5"/>
          </g>
          <g id="Group_2861" data-name="Group 2861">
            <rect id="Rectangle_862" data-name="Rectangle 862" width="4.932" height="4.932" transform="translate(2621.261 1918.631) rotate(-45)" fill="#fff" opacity="0.5"/>
          </g>
        </g>
      </g>
    </g>
    <g id="Group_2866" data-name="Group 2866">
      <g id="Group_2865" data-name="Group 2865" clip-path="url(#clip-path-2)">
        <path id="Path_2955" data-name="Path 2955" d="M2621.3,1919.825a3.589,3.589,0,0,0-2.951-1.228h-.446c-1.113,0-2.771-.008-4.54-.017l-.147-.22c-.057-.315-.118-.607-.183-.881a19.359,19.359,0,0,0-5.64-9.741,18.892,18.892,0,0,0-9.573-4.8c.013-.155.031-.306.054-.454.073-.478.314-.821,1.032-1.468a2.781,2.781,0,0,0,.836-1.38c1.354-1.843,3.665-5.4,1.805-8.836a2.856,2.856,0,0,0-3.815-1.177,2.814,2.814,0,0,0-.817.643,4.488,4.488,0,0,0-1.09,1.21,15.43,15.43,0,0,0-1.041,1.961c-.069.158-.133.318-.193.478-.58-.241-1.16-.462-1.73-.678l-.1-.038a17.5,17.5,0,0,0-7.763-1.275,2.979,2.979,0,0,0-2.783,2.973c0,.484.091.988,1.173,2.663a13.578,13.578,0,0,0,1.772,2.274,11.89,11.89,0,0,0,4.079,2.565,7.826,7.826,0,0,0,2.082.423,20.193,20.193,0,0,0-2.911.609,18.6,18.6,0,0,0-1.893.658c-5.585,2.282-9.455,7.058-10.894,13.444-.141.615-.256,1.236-.344,1.847-.064.425-.119.874-.167,1.375a16.033,16.033,0,0,0,2.017,9.881,14.912,14.912,0,0,0,8.133,6.321,26.1,26.1,0,0,0,8.686,1.338,28.933,28.933,0,0,0,6.655-.727h14.8a3.874,3.874,0,0,0,3.3-1.864,2.626,2.626,0,0,0,.706-1.368c.834-3.791,1.667-7.62,2.477-11.382A3.556,3.556,0,0,0,2621.3,1919.825Z" fill="#fff"/>
      </g>
    </g>
    <g id="Group_2869" data-name="Group 2869">
      <path id="Path_2957" data-name="Path 2957" d="M2597.683,1898.951c1.448-1.918,3.386-4.721,2.056-7.177a.8.8,0,0,0-1.055-.332.775.775,0,0,0-.327.334,2.172,2.172,0,0,0-.787.786,13.222,13.222,0,0,0-.9,1.7,5.68,5.68,0,0,0-.51,2.62,4.412,4.412,0,0,0,.1,1.834A.792.792,0,0,0,2597.683,1898.951Z" fill="#548723"/>
      <path id="Path_2958" data-name="Path 2958" d="M2595.177,1896.433a33.048,33.048,0,0,0-3.146-1.316,15.532,15.532,0,0,0-6.858-1.148.929.929,0,0,0-.9.91,13.17,13.17,0,0,0,2.285,3.44,9.914,9.914,0,0,0,3.365,2.135c2.088.734,4.273.107,6.266-.664a1,1,0,0,0,.838-.034.834.834,0,0,0,.436-.74.817.817,0,0,0,.065-.611,1,1,0,0,0-.619-.64A5.172,5.172,0,0,0,2595.177,1896.433Z" fill="#225b1e"/>
      <path id="Path_2959" data-name="Path 2959" d="M2596.732,1898.367a6.126,6.126,0,0,0-2.14,3.04,11.38,11.38,0,0,0-.041,4.414c.137.867,1.5.747,1.366-.127a11.517,11.517,0,0,1-.076-3.526,4.418,4.418,0,0,1,1.69-2.685C2598.179,1898.9,2597.389,1897.776,2596.732,1898.367Z" fill="#2d1e07"/>
      <path id="Path_2960" data-name="Path 2960" d="M2611.205,1925.059c-1.339,6.622-7.167,11.174-17.256,11.174a23.991,23.991,0,0,1-8-1.221c-6.492-2.276-9.4-7.555-8.788-14.069.041-.43.091-.852.154-1.267.083-.577.189-1.141.314-1.69,1.312-5.817,4.788-10.005,9.667-12a16.789,16.789,0,0,1,1.687-.587,19.215,19.215,0,0,1,5.331-.723c.228,0,.455,0,.679.014a16.8,16.8,0,0,1,1.74.151,17.112,17.112,0,0,1,14.3,13.107q.183.771.293,1.565.1.708.146,1.428A16.066,16.066,0,0,1,2611.205,1925.059Z" fill="#b24f18"/>
      <path id="Path_2961" data-name="Path 2961" d="M2592.986,1916a1.759,1.759,0,0,0-1.572-.824.953.953,0,0,0-.649.133,1.781,1.781,0,0,0,.749,3.452,1.763,1.763,0,0,0,1.506-.839A1.848,1.848,0,0,0,2592.986,1916Z" fill="#2d1e07"/>
      <path id="Path_2962" data-name="Path 2962" d="M2603.864,1914.5a2.032,2.032,0,0,0-3.169,1.141,1.728,1.728,0,0,0,1.786,2.053,1.815,1.815,0,0,0,.951-.156A1.845,1.845,0,0,0,2603.864,1914.5Z" fill="#2d1e07"/>
      <path id="Path_2963" data-name="Path 2963" d="M2597.885,1923.731c-.1,0-.2,0-.3-.009a2.964,2.964,0,0,1-3.088-2.445.626.626,0,0,1,1.246-.119c.016.13.2,1.214,1.916,1.315,1.994.114,2.289-1.336,2.316-1.5a.629.629,0,0,1,.712-.522.623.623,0,0,1,.525.7A3.143,3.143,0,0,1,2597.885,1923.731Z" fill="#2d1e07"/>
      <path id="Path_2964" data-name="Path 2964" d="M2586.761,1923a.782.782,0,0,0,0,1.564A.782.782,0,0,0,2586.761,1923Z" fill="#2d1e07"/>
      <path id="Path_2965" data-name="Path 2965" d="M2588.657,1920.946a.782.782,0,0,0,0,1.564A.782.782,0,0,0,2588.657,1920.946Z" fill="#2d1e07"/>
      <path id="Path_2966" data-name="Path 2966" d="M2589.921,1924.9a.782.782,0,0,0,0,1.563A.782.782,0,0,0,2589.921,1924.9Z" fill="#2d1e07"/>
      <path id="Path_2967" data-name="Path 2967" d="M2605.923,1919.854a.782.782,0,0,0,0,1.564A.782.782,0,0,0,2605.923,1919.854Z" fill="#2d1e07"/>
      <path id="Path_2968" data-name="Path 2968" d="M2607.778,1921.762a.783.783,0,0,0,0,1.564A.783.783,0,0,0,2607.778,1921.762Z" fill="#2d1e07"/>
      <path id="Path_2969" data-name="Path 2969" d="M2604.775,1922.789a.783.783,0,0,0,0,1.564A.783.783,0,0,0,2604.775,1922.789Z" fill="#2d1e07"/>
      <circle id="Ellipse_1951" data-name="Ellipse 1951" cx="3.596" cy="3.596" r="3.596" transform="translate(2585.543 1920.596)" fill="#f2ac0f" opacity="0.41"/>
      <circle id="Ellipse_1952" data-name="Ellipse 1952" cx="3.596" cy="3.596" r="3.596" transform="translate(2603.183 1918.886)" fill="#f2ac0f" opacity="0.41"/>
      <path id="Path_2970" data-name="Path 2970" d="M2588.627,1909.727a1.477,1.477,0,0,0-1.077-.954,2,2,0,0,0-1.423.173,2.531,2.531,0,0,0-.878.838.808.808,0,0,0-.1.237c-.05.034-.1.069-.144.1a1.3,1.3,0,0,0-.436.632,1.041,1.041,0,0,0,.348,1.092,1.18,1.18,0,0,0,.75.271l.025,0,.017.005a1.7,1.7,0,0,0,.918-.089,3.489,3.489,0,0,0,1.788-1.156A1.372,1.372,0,0,0,2588.627,1909.727Z" fill="#cc805a"/>
      <path id="Path_2971" data-name="Path 2971" d="M2595.828,1930.284a26.091,26.091,0,0,1-12.157-9.625c-.495-.725-1.683-.04-1.184.692a27.678,27.678,0,0,0,12.977,10.256C2596.288,1931.923,2596.645,1930.6,2595.828,1930.284Z" fill="#2d1e07"/>
      <path id="Path_2972" data-name="Path 2972" d="M2613.721,1923.208a38.758,38.758,0,0,0-2.656-4.354c-.5-.717-1.694-.032-1.184.692a38.758,38.758,0,0,1,2.656,4.354C2612.946,1924.682,2614.13,1923.99,2613.721,1923.208Z" fill="#2d1e07"/>
      <g id="Group_2868" data-name="Group 2868">
        <path id="Path_2973" data-name="Path 2973" d="M2618.346,1920.654c-3.157-.009-13.047-.033-13.693-.152-2.055.042-2.522.481-2.982,2.473a62.52,62.52,0,0,1-1.632,6.9,4.019,4.019,0,0,1-1.186,2.548h-5.863a.99.99,0,0,0-.99.99v.517a1.47,1.47,0,0,0-.057.256c-.028.221-.005-.078.057.121v.212a.99.99,0,0,0,.99.99h22.41a1.8,1.8,0,0,0,1.628-1.037c.152-.263.264-.1.369-.58q1.251-5.685,2.475-11.371C2620.14,1921.263,2619.652,1920.654,2618.346,1920.654Z" fill="#2cb7c6"/>
        <g id="Group_2867" data-name="Group 2867">
          <path id="Path_2974" data-name="Path 2974" d="M2614.206,1927.144a8.347,8.347,0,0,0-1.031.765c-.22-1.623-1-2.572-2.566-2.607a2.6,2.6,0,0,1,.856-.993c.181-.123.01-.421-.173-.3a2.944,2.944,0,0,0-1.052,1.3,2.855,2.855,0,0,0-2.868,2.547l-.092-.134-.645-.947a.176.176,0,0,0-.235-.061.172.172,0,0,0-.061.234l.726,1.065.226.331c-.111,1.04.472,1.917,2.566,2.067,2.111.151,3.394-.883,3.356-2.081a8.006,8.006,0,0,1,1.166-.889C2614.566,1927.323,2614.394,1927.026,2614.206,1927.144Z" fill="#f6fdfe"/>
          <path id="Path_2975" data-name="Path 2975" d="M2610.8,1924.761s-.926-1.462-.006-2.405A1.5,1.5,0,0,1,2610.8,1924.761Z" fill="#f6fdfe"/>
          <path id="Path_2976" data-name="Path 2976" d="M2610.772,1924.338a1.184,1.184,0,0,1,1.745.177S2611.393,1925.43,2610.772,1924.338Z" fill="#f6fdfe"/>
        </g>
      </g>
    </g>
    <rect id="Rectangle_863" data-name="Rectangle 863" width="60" height="60" transform="translate(2563.714 1887.714)" fill="none"/>
  </g>
</svg>
