<svg xmlns="http://www.w3.org/2000/svg" xmlns:xlink="http://www.w3.org/1999/xlink" width="60" height="60" viewBox="0 0 60 60">
  <defs>
    <clipPath id="clip-path">
      <circle id="Ellipse_1942" data-name="Ellipse 1942" cx="22.971" cy="22.971" r="22.971" transform="translate(2640.743 1993.743)" fill="none"/>
    </clipPath>
    <clipPath id="clip-path-2">
      <path id="Path_2832" data-name="Path 2832" d="M2686.686,2016.714a22.956,22.956,0,1,1-.218-3.171A22.986,22.986,0,0,1,2686.686,2016.714Z" fill="none"/>
    </clipPath>
  </defs>
  <g id="Group_2812" data-name="Group 2812" transform="translate(-2633.714 -1986.714)">
    <path id="Path_2783" data-name="Path 2783" d="M2663.714,1991.857a24.857,24.857,0,1,1-24.857,24.857,24.856,24.856,0,0,1,24.857-24.857m0-1.714a26.571,26.571,0,1,0,18.789,7.782,26.4,26.4,0,0,0-18.789-7.782Z" fill="#a5c6a7"/>
    <g id="Group_2794" data-name="Group 2794">
      <path id="Path_2784" data-name="Path 2784" d="M2680.723,2032.119a22.963,22.963,0,0,1-32.449,1.568c-.226-.206-.446-.415-.663-.627a22.968,22.968,0,0,1-2.122-30.366c.382-.5.79-.985,1.217-1.456a22.971,22.971,0,0,1,31.639-2.27c.274.225.544.461.81.7a22.967,22.967,0,0,1,1.568,32.449Z" fill="#424242"/>
      <g id="Group_2793" data-name="Group 2793">
        <path id="Path_2785" data-name="Path 2785" d="M2686.144,2011.709A36.319,36.319,0,0,1,2643.721,2028a22.923,22.923,0,0,0,3.89,5.058c.217.212.437.421.663.627a22.973,22.973,0,0,0,37.87-21.978Z" fill="#6d8c3c"/>
        <path id="Path_2786" data-name="Path 2786" d="M2683.573,2005.119a23,23,0,0,0-4.418-5.449c-.266-.241-.536-.477-.81-.7a22.971,22.971,0,0,0-31.639,2.27c-.427.471-.835.958-1.217,1.456a22.959,22.959,0,0,0-3.854,20.328,36.315,36.315,0,0,1,41.938-17.9Z" fill="#c3e2cf"/>
        <path id="Path_2787" data-name="Path 2787" d="M2681.645,2017.84a36.39,36.39,0,0,0,4.5-6.131,22.9,22.9,0,0,0-2.571-6.59,36.315,36.315,0,0,0-41.938,17.9,22.861,22.861,0,0,0,2.086,4.98A36.265,36.265,0,0,0,2681.645,2017.84Z" fill="#83d178"/>
      </g>
    </g>
    <g id="Group_2803" data-name="Group 2803">
      <g id="Group_2802" data-name="Group 2802" clip-path="url(#clip-path)">
        <g id="Group_2795" data-name="Group 2795">
          <path id="Path_2788" data-name="Path 2788" d="M2637.309,1987.914h-3.761l-1.881,3.257,1.881,3.257h3.761l1.881-3.257Z" fill="#fff"/>
          <path id="Path_2789" data-name="Path 2789" d="M2637.309,1998.543h-3.761l-1.881,3.257,1.881,3.257h3.761l1.881-3.257Z" fill="#fff"/>
          <path id="Path_2790" data-name="Path 2790" d="M2637.309,2009.171h-3.761l-1.881,3.257,1.881,3.257h3.761l1.881-3.257Z" fill="#fff"/>
          <path id="Path_2791" data-name="Path 2791" d="M2637.309,2019.8h-3.761l-1.881,3.257,1.881,3.257h3.761l1.881-3.257Z" fill="#fff"/>
          <path id="Path_2792" data-name="Path 2792" d="M2637.309,2030.429h-3.761l-1.881,3.257,1.881,3.257h3.761l1.881-3.257Z" fill="#fff"/>
          <path id="Path_2793" data-name="Path 2793" d="M2637.309,2041.057h-3.761l-1.881,3.257,1.881,3.257h3.761l1.881-3.257Z" fill="#fff"/>
        </g>
        <g id="Group_2796" data-name="Group 2796" opacity="0.5">
          <path id="Path_2794" data-name="Path 2794" d="M2643.995,1985.171h-3.761l-1.881,3.257,1.881,3.257h3.761l1.88-3.257Z" fill="#fff"/>
          <path id="Path_2795" data-name="Path 2795" d="M2643.995,1995.8h-3.761l-1.881,3.257,1.881,3.257h3.761l1.88-3.257Z" fill="#fff"/>
          <path id="Path_2796" data-name="Path 2796" d="M2643.995,2006.429h-3.761l-1.881,3.257,1.881,3.257h3.761l1.88-3.257Z" fill="#fff"/>
          <path id="Path_2797" data-name="Path 2797" d="M2643.995,2017.057h-3.761l-1.881,3.257,1.881,3.257h3.761l1.88-3.257Z" fill="#fff"/>
          <path id="Path_2798" data-name="Path 2798" d="M2643.995,2027.686h-3.761l-1.881,3.257,1.881,3.257h3.761l1.88-3.257Z" fill="#fff"/>
          <path id="Path_2799" data-name="Path 2799" d="M2643.995,2038.314h-3.761l-1.881,3.257,1.881,3.257h3.761l1.88-3.257Z" fill="#fff"/>
        </g>
        <g id="Group_2797" data-name="Group 2797" opacity="0.5">
          <path id="Path_2800" data-name="Path 2800" d="M2653.252,1985.171h-3.761l-1.881,3.257,1.881,3.257h3.761l1.881-3.257Z" fill="#fff"/>
          <path id="Path_2801" data-name="Path 2801" d="M2653.252,1995.8h-3.761l-1.881,3.257,1.881,3.257h3.761l1.881-3.257Z" fill="#fff"/>
          <path id="Path_2802" data-name="Path 2802" d="M2653.252,2006.429h-3.761l-1.881,3.257,1.881,3.257h3.761l1.881-3.257Z" fill="#fff"/>
          <path id="Path_2803" data-name="Path 2803" d="M2653.252,2017.057h-3.761l-1.881,3.257,1.881,3.257h3.761l1.881-3.257Z" fill="#fff"/>
          <path id="Path_2804" data-name="Path 2804" d="M2653.252,2027.686h-3.761l-1.881,3.257,1.881,3.257h3.761l1.881-3.257Z" fill="#fff"/>
          <path id="Path_2805" data-name="Path 2805" d="M2653.252,2038.314h-3.761l-1.881,3.257,1.881,3.257h3.761l1.881-3.257Z" fill="#fff"/>
        </g>
        <g id="Group_2798" data-name="Group 2798" opacity="0.5">
          <path id="Path_2806" data-name="Path 2806" d="M2662.509,1985.171h-3.761l-1.881,3.257,1.881,3.257h3.761l1.881-3.257Z" fill="#fff"/>
          <path id="Path_2807" data-name="Path 2807" d="M2662.509,1995.8h-3.761l-1.881,3.257,1.881,3.257h3.761l1.881-3.257Z" fill="#fff"/>
          <path id="Path_2808" data-name="Path 2808" d="M2662.509,2006.429h-3.761l-1.881,3.257,1.881,3.257h3.761l1.881-3.257Z" fill="#fff"/>
          <path id="Path_2809" data-name="Path 2809" d="M2662.509,2017.057h-3.761l-1.881,3.257,1.881,3.257h3.761l1.881-3.257Z" fill="#fff"/>
          <path id="Path_2810" data-name="Path 2810" d="M2662.509,2027.686h-3.761l-1.881,3.257,1.881,3.257h3.761l1.881-3.257Z" fill="#fff"/>
          <path id="Path_2811" data-name="Path 2811" d="M2662.509,2038.314h-3.761l-1.881,3.257,1.881,3.257h3.761l1.881-3.257Z" fill="#fff"/>
        </g>
        <g id="Group_2799" data-name="Group 2799" opacity="0.5">
          <path id="Path_2812" data-name="Path 2812" d="M2671.766,1985.171h-3.761l-1.88,3.257,1.88,3.257h3.761l1.881-3.257Z" fill="#fff"/>
          <path id="Path_2813" data-name="Path 2813" d="M2671.766,1995.8h-3.761l-1.88,3.257,1.88,3.257h3.761l1.881-3.257Z" fill="#fff"/>
          <path id="Path_2814" data-name="Path 2814" d="M2671.766,2006.429h-3.761l-1.88,3.257,1.88,3.257h3.761l1.881-3.257Z" fill="#fff"/>
          <path id="Path_2815" data-name="Path 2815" d="M2671.766,2017.057h-3.761l-1.88,3.257,1.88,3.257h3.761l1.881-3.257Z" fill="#fff"/>
          <path id="Path_2816" data-name="Path 2816" d="M2671.766,2027.686h-3.761l-1.88,3.257,1.88,3.257h3.761l1.881-3.257Z" fill="#fff"/>
          <path id="Path_2817" data-name="Path 2817" d="M2671.766,2038.314h-3.761l-1.88,3.257,1.88,3.257h3.761l1.881-3.257Z" fill="#fff"/>
        </g>
        <g id="Group_2800" data-name="Group 2800" opacity="0.5">
          <path id="Path_2818" data-name="Path 2818" d="M2681.023,1985.171h-3.761l-1.881,3.257,1.881,3.257h3.761l1.88-3.257Z" fill="#fff"/>
          <path id="Path_2819" data-name="Path 2819" d="M2681.023,1995.8h-3.761l-1.881,3.257,1.881,3.257h3.761l1.88-3.257Z" fill="#fff"/>
          <path id="Path_2820" data-name="Path 2820" d="M2681.023,2006.429h-3.761l-1.881,3.257,1.881,3.257h3.761l1.88-3.257Z" fill="#fff"/>
          <path id="Path_2821" data-name="Path 2821" d="M2681.023,2017.057h-3.761l-1.881,3.257,1.881,3.257h3.761l1.88-3.257Z" fill="#fff"/>
          <path id="Path_2822" data-name="Path 2822" d="M2681.023,2027.686h-3.761l-1.881,3.257,1.881,3.257h3.761l1.88-3.257Z" fill="#fff"/>
          <path id="Path_2823" data-name="Path 2823" d="M2681.023,2038.314h-3.761l-1.881,3.257,1.881,3.257h3.761l1.88-3.257Z" fill="#fff"/>
        </g>
        <g id="Group_2801" data-name="Group 2801" opacity="0.5">
          <path id="Path_2824" data-name="Path 2824" d="M2690.281,1985.171h-3.761l-1.881,3.257,1.881,3.257h3.761l1.881-3.257Z" fill="#fff"/>
          <path id="Path_2825" data-name="Path 2825" d="M2690.281,1995.8h-3.761l-1.881,3.257,1.881,3.257h3.761l1.881-3.257Z" fill="#fff"/>
          <path id="Path_2826" data-name="Path 2826" d="M2690.281,2006.429h-3.761l-1.881,3.257,1.881,3.257h3.761l1.881-3.257Z" fill="#fff"/>
          <path id="Path_2827" data-name="Path 2827" d="M2690.281,2017.057h-3.761l-1.881,3.257,1.881,3.257h3.761l1.881-3.257Z" fill="#fff"/>
          <path id="Path_2828" data-name="Path 2828" d="M2690.281,2027.686h-3.761l-1.881,3.257,1.881,3.257h3.761l1.881-3.257Z" fill="#fff"/>
          <path id="Path_2829" data-name="Path 2829" d="M2690.281,2038.314h-3.761l-1.881,3.257,1.881,3.257h3.761l1.881-3.257Z" fill="#fff"/>
        </g>
      </g>
    </g>
    <path id="Path_2830" data-name="Path 2830" d="M2666.087,2033.543a19.664,19.664,0,0,1-4.2,1.991,8.711,8.711,0,0,1-1.121-1.228,9.213,9.213,0,0,1-1.728-4.22,28.645,28.645,0,0,0-2.1,3.473c-.5.987-2,.151-1.5-.828a29.835,29.835,0,0,1,3.511-5.352c.008-.1.014-.19.022-.286.031-.324.069-.642.117-.954.061-.435.142-.858.236-1.272a12.216,12.216,0,0,1,7.271-9.024,12.751,12.751,0,0,1,1.212-.425.533.533,0,0,1,.056-.017,14.039,14.039,0,0,1,1.632-.362,1.383,1.383,0,0,1,.573-.992,19.661,19.661,0,0,1,2.192,8.354A12.4,12.4,0,0,1,2666.087,2033.543Z" fill="#cc7712"/>
    <g id="Group_2805" data-name="Group 2805">
      <g id="Group_2804" data-name="Group 2804" clip-path="url(#clip-path-2)">
        <path id="Path_2831" data-name="Path 2831" d="M2690.9,2021.143a3,3,0,0,0-2.753-1.162,2.748,2.748,0,0,0-1.151.424,15.087,15.087,0,0,0-3.71-4.091,6.949,6.949,0,0,0,.929-1.21,2.586,2.586,0,0,0,.187-2.284,2.5,2.5,0,0,0-1.668-1.5,5.755,5.755,0,0,0-3.615.185,8.743,8.743,0,0,0-1.126-2.593c-.025-.039-.051-.077-.078-.115a2.759,2.759,0,0,0-.14-1.1,2.919,2.919,0,0,0-2.192-1.914,2.769,2.769,0,0,0-2.647.916q-1.163,1.329-2.278,2.736a17.412,17.412,0,0,0-2-1.845,2.745,2.745,0,0,0,.663-3.789,2.682,2.682,0,0,0-2-1.2,2.764,2.764,0,0,0-.7-1.132,2.7,2.7,0,0,0-2.4-.751l.026-.092.068-.234a2.721,2.721,0,0,0-1.037-2.967l-1.294-.5a2.712,2.712,0,0,0-2.26.791,35.28,35.28,0,0,0-3.881,4.727,2.746,2.746,0,0,0-.371.783,4.7,4.7,0,0,0-1.34-1.155,19.3,19.3,0,0,0,2.7-2.789,2.887,2.887,0,0,0,.435-3.016,2.847,2.847,0,0,0-2.488-1.682,6.384,6.384,0,0,0-2.461.4,7.019,7.019,0,0,0-1.083.318,11.3,11.3,0,0,0-1.546-2.913c-.3-.413-2.671-2.972-4.115-3.158a2.851,2.851,0,0,0-3.15,2.294,15.377,15.377,0,0,0,.278,6.912l.024.1c.034.136.067.272.1.41a17.227,17.227,0,0,0-4.326.566,2.884,2.884,0,0,0-2.181,2.127,2.842,2.842,0,0,0,.948,2.849,6.379,6.379,0,0,0,2.2,1.182,7.433,7.433,0,0,0,2.02.631,4.809,4.809,0,0,0,.628,3.34,19.525,19.525,0,0,0-2.841,3.977l-1.414,1.444-1.423-1.152a2.79,2.79,0,0,0-2.782-.452,2.919,2.919,0,0,0-1.837,2.256,2.743,2.743,0,0,0,1.01,2.58l4.147,3.355a16.048,16.048,0,0,0,1.88,8.692c3.267,5.979,10.027,9.029,18.544,8.369a28.4,28.4,0,0,0,5.7-.961,12.82,12.82,0,0,0,4.2,2.391,20.175,20.175,0,0,0,6.7,1.034c7.528,0,11.265-3.03,13.075-5.573a11.3,11.3,0,0,0,.887-1.471,4.867,4.867,0,0,0,.678-1.658,12.408,12.408,0,0,0,.357-1.352,13.93,13.93,0,0,0,.255-3.187,26.2,26.2,0,0,0,2.017-3.889A2.884,2.884,0,0,0,2690.9,2021.143Z" fill="#fff"/>
      </g>
    </g>
    <g id="Group_2811" data-name="Group 2811">
      <g id="Group_2808" data-name="Group 2808">
        <path id="Path_2833" data-name="Path 2833" d="M2638.959,2001.506c2.341-.54,5.691-1.166,7.391,1.05a.8.8,0,0,1-.127,1.1.772.772,0,0,1-.438.163,2.181,2.181,0,0,1-1.039.4,13.208,13.208,0,0,1-1.916.13,5.671,5.671,0,0,1-2.6-.6,4.409,4.409,0,0,1-1.635-.835A.792.792,0,0,1,2638.959,2001.506Z" fill="#70b535"/>
        <path id="Path_2834" data-name="Path 2834" d="M2655.241,1997.963c-1.529,1.854-3.8,4.391-6.5,3.669a.8.8,0,0,1-.568-.948.78.78,0,0,1,.248-.4,2.185,2.185,0,0,1,.582-.948,13.185,13.185,0,0,1,1.44-1.271,5.668,5.668,0,0,1,2.429-1.106,4.411,4.411,0,0,1,1.806-.334A.793.793,0,0,1,2655.241,1997.963Z" fill="#70b535"/>
        <path id="Path_2835" data-name="Path 2835" d="M2645.493,2000.771a28.666,28.666,0,0,1-.8-2.835,13.407,13.407,0,0,1-.263-6,.8.8,0,0,1,.875-.676,11.393,11.393,0,0,1,2.708,2.32,8.551,8.551,0,0,1,1.475,3.108c.41,1.867-.357,3.674-1.227,5.3a.865.865,0,0,1-.118.714.722.722,0,0,1-.68.3.713.713,0,0,1-.531-.009.866.866,0,0,1-.483-.6A4.481,4.481,0,0,1,2645.493,2000.771Z" fill="#328230"/>
        <g id="Group_2806" data-name="Group 2806">
          <path id="Path_2836" data-name="Path 2836" d="M2644.013,2002.6a.79.79,0,0,1,.875-.676,9.924,9.924,0,0,1,1.979.658q-.165-.612-.32-1.214a.787.787,0,0,1,.672-.879.8.8,0,0,1,.879.672c.1.4.212.814.323,1.226a12.313,12.313,0,0,0,1.185-2.008c.375-.8,1.6-.186,1.226.614a13.614,13.614,0,0,1-1.8,2.847.693.693,0,0,1-.146.133l.24.742c.06.177.788,2.2.853,2.38-.385.42-.782.793-1.2,1.187-.23-.571-1.091-2.959-1.282-3.548-.1-.07-.2-.14-.3-.206-.125-.081-.256-.17-.39-.239l-.035-.018-.094-.05c-.08-.041-.159-.081-.24-.12a8.606,8.606,0,0,0-.914-.382c-.151-.054-.3-.1-.459-.149l-.12-.034h0l-.009,0h0a.159.159,0,0,0-.032-.006c-.073-.014-.147-.037-.217-.053a.843.843,0,0,1-.513-.29A.794.794,0,0,1,2644.013,2002.6Z" fill="#2d1e07"/>
          <path id="Path_2837" data-name="Path 2837" d="M2644.946,2003.533c-.136-.013-.091-.016-.04-.008.011,0,.023.006.035.007Z" fill="#2d1e07"/>
        </g>
        <path id="Path_2838" data-name="Path 2838" d="M2667.459,2033.544a20.921,20.921,0,0,1-10.227,3.1c-8.409.652-13.992-2.569-16.58-7.3a14.231,14.231,0,0,1-1.541-8.585,17.178,17.178,0,0,1,18.132-15.169c8.455.5,15.8,5.845,16.387,16.811A12.4,12.4,0,0,1,2667.459,2033.544Z" fill="#fba71b"/>
        <path id="Path_2839" data-name="Path 2839" d="M2665.854,2018.662a.783.783,0,0,1-.1,1.561A.783.783,0,0,1,2665.854,2018.662Z" fill="#2d1e07"/>
        <path id="Path_2840" data-name="Path 2840" d="M2669.375,2017.146a.782.782,0,0,1-.1,1.56A.782.782,0,0,1,2669.375,2017.146Z" fill="#2d1e07"/>
        <path id="Path_2841" data-name="Path 2841" d="M2668.9,2020.564a.783.783,0,0,1-.1,1.561A.783.783,0,0,1,2668.9,2020.564Z" fill="#2d1e07"/>
        <path id="Path_2842" data-name="Path 2842" d="M2644.824,2026.437a.782.782,0,0,1-.1,1.56A.782.782,0,0,1,2644.824,2026.437Z" fill="#2d1e07"/>
        <path id="Path_2843" data-name="Path 2843" d="M2644.738,2023.9a.782.782,0,0,1-.1,1.561A.782.782,0,0,1,2644.738,2023.9Z" fill="#2d1e07"/>
        <path id="Path_2844" data-name="Path 2844" d="M2647.671,2025.112a.782.782,0,0,1-.1,1.56A.782.782,0,0,1,2647.671,2025.112Z" fill="#2d1e07"/>
        <path id="Path_2845" data-name="Path 2845" d="M2651.829,2025.41" fill="none" stroke="#2d1e07" stroke-linecap="round" stroke-miterlimit="10" stroke-width="4"/>
        <circle id="Ellipse_1943" data-name="Ellipse 1943" cx="3.596" cy="3.596" r="3.596" transform="translate(2663.978 2015.918)" fill="#f22281" opacity="0.41"/>
        <path id="Path_2846" data-name="Path 2846" d="M2674.481,2008.051a72.1,72.1,0,0,0-5.274,6.813.806.806,0,0,0,.083,1.1.788.788,0,0,0,1.1-.082,71.615,71.615,0,0,1,5.274-6.813A.783.783,0,0,0,2674.481,2008.051Z" fill="#2d1e07"/>
        <path id="Path_2847" data-name="Path 2847" d="M2642.28,2021.282l-7.146-5.784c-.782-.633-1.8.551-1.02,1.185l7.146,5.784C2642.043,2023.1,2643.063,2021.915,2642.28,2021.282Z" fill="#2d1e07"/>
        <circle id="Ellipse_1944" data-name="Ellipse 1944" cx="3.596" cy="3.596" r="3.596" transform="translate(2642.367 2022.146)" fill="#f22281" opacity="0.41"/>
        <path id="Path_2848" data-name="Path 2848" d="M2649.056,2011.313a1.689,1.689,0,0,0-.244-.844,1.15,1.15,0,0,0-1.038-.537,1.492,1.492,0,0,0-.811.322,4,4,0,0,0-.327.282,1.5,1.5,0,0,0-.184.187c-.014.015-.029.028-.042.043-.063.071-.123.145-.179.221a2.586,2.586,0,0,0-.267.415,1.16,1.16,0,0,0,.072,1.161,1.24,1.24,0,0,0,.813.52,1.362,1.362,0,0,0,.871-.179,1.335,1.335,0,0,0,.387-.069,1.42,1.42,0,0,0,.757-.653A1.677,1.677,0,0,0,2649.056,2011.313Z" fill="#ffca85"/>
        <g id="Group_2807" data-name="Group 2807">
          <path id="Path_2849" data-name="Path 2849" d="M2649.038,2005.473s2.416-2.513,3.827-1.761a2.1,2.1,0,0,1,1.346,2.232c.079,1.283-1.069,2.044-2.713,1.292a6.7,6.7,0,0,0-2.02-.385c-.844-.079-.734-.553-.734-.553Z" fill="#f43885"/>
          <path id="Path_2850" data-name="Path 2850" d="M2647.945,2005.909s-3.831-1.159-4.316.241a2.74,2.74,0,0,0,.386,2.6c1.074,1.174,2.142.481,2.98-.193,1.261-1.015.724-.78,1.4-1.242s.3-.824.3-.824Z" fill="#f43885"/>
          <path id="Path_2851" data-name="Path 2851" d="M2650.621,2005.239s-1.21.586-.989.915" fill="none" stroke="#ba0d42" stroke-linecap="round" stroke-miterlimit="10" stroke-width="3"/>
          <path id="Path_2852" data-name="Path 2852" d="M2651.069,2006.228s-1.369-.093-1.4.29" fill="none" stroke="#ba0d42" stroke-linecap="round" stroke-miterlimit="10" stroke-width="3"/>
          <path id="Path_2853" data-name="Path 2853" d="M2646.376,2006.672s1.3-.4,1.437-.033" fill="none" stroke="#ba0d42" stroke-linecap="round" stroke-miterlimit="10" stroke-width="3"/>
          <path id="Path_2854" data-name="Path 2854" d="M2646.987,2007.663s.836-.956,1.183-.722" fill="none" stroke="#ba0d42" stroke-linecap="round" stroke-miterlimit="10" stroke-width="3"/>
          <path id="Path_2855" data-name="Path 2855" d="M2647.283,2006.285c.181.766.559,1.616,1.747,1.445.808-.117,1.589-.513,1.214-1.448-.459-1.145-.636-1.276-1.454-1.275S2647.12,2005.6,2647.283,2006.285Z" fill="#f759a9"/>
        </g>
        <path id="Path_2856" data-name="Path 2856" d="M2651.372,2016.264a2.046,2.046,0,0,0-1.428-.779.554.554,0,0,0-.587-.081c-1,.383-1.99.955-2.032,2.157a2.536,2.536,0,0,0,.109.822c0,.054.009.108.016.162a2.134,2.134,0,0,0,2.064,1.963,3.4,3.4,0,0,0,.944-.1,2.1,2.1,0,0,0,.779-.308,2.3,2.3,0,0,0,.975-1A2.325,2.325,0,0,0,2651.372,2016.264Zm-1,2.726a2.339,2.339,0,0,1-.293.1,1.46,1.46,0,0,1-1.312-1.023,1.775,1.775,0,0,1,.066-.4.586.586,0,0,0,.268-.306c.216-.508.779-.46,1.244-.173.415.511.548,1.44.088,1.775C2650.415,2018.972,2650.4,2018.982,2650.375,2018.99Z" fill="#2d1e07"/>
        <path id="Path_2857" data-name="Path 2857" d="M2662.861,2014.024a2.78,2.78,0,0,0-1.883-2.5,1.889,1.889,0,0,0-.689-.05,1.822,1.822,0,0,0-1.745,1.045,3.382,3.382,0,0,0,.672,3.32l.049.06a2.407,2.407,0,0,0,.389.4,2.089,2.089,0,0,0,2.228.422C2662.951,2016.241,2663,2015.041,2662.861,2014.024Zm-2.866.47a2.287,2.287,0,0,1-.044-1.089c1.462-.838,2.046,2.122.671,1.885a.536.536,0,0,1-.12-.04A2.665,2.665,0,0,1,2660,2014.494Z" fill="#2d1e07"/>
        <path id="Path_2858" data-name="Path 2858" d="M2650.375,2018.99a2.339,2.339,0,0,1-.293.1,1.46,1.46,0,0,1-1.312-1.023,1.775,1.775,0,0,1,.066-.4.586.586,0,0,0,.268-.306c.216-.508.779-.46,1.244-.173.415.511.548,1.44.088,1.775C2650.415,2018.972,2650.4,2018.982,2650.375,2018.99Z" fill="#fff"/>
        <path id="Path_2859" data-name="Path 2859" d="M2660,2014.494a2.287,2.287,0,0,1-.044-1.089c1.462-.838,2.046,2.122.671,1.885a.536.536,0,0,1-.12-.04A2.665,2.665,0,0,1,2660,2014.494Z" fill="#fff"/>
        <path id="Path_2860" data-name="Path 2860" d="M2661.476,2022.047a12.737,12.737,0,0,1-2.321-3.15.69.69,0,0,0-1.184,0,15.707,15.707,0,0,1-.86,2.077c-.75.962-1.459-.281-1.642-1.014-.008-.033-.015-.066-.022-.1-.2-.865-1.492-.494-1.323.365.433,1.846.741,4.729-.58,6.3a.74.74,0,0,0,.457,1.192.581.581,0,0,0,.645.15,36.611,36.611,0,0,0,3.88-1.546,14.988,14.988,0,0,0,3.392-1.851C2662.727,2023.779,2662.027,2022.679,2661.476,2022.047Zm-3.643,3.1c-.829.388-1.675.734-2.534,1.049a8.475,8.475,0,0,0,.535-3.636,2.063,2.063,0,0,0,.992.108c1.1-.14,1.482-.971,1.813-1.847a9.457,9.457,0,0,0,.679.937c.4.48,1.342,1.131,1.549,1.808A16.282,16.282,0,0,1,2657.833,2025.144Z" fill="#2d1e07"/>
        <path id="Path_2861" data-name="Path 2861" d="M2657.833,2025.144c-.829.388-1.675.734-2.534,1.049a8.475,8.475,0,0,0,.535-3.636,2.063,2.063,0,0,0,.992.108c1.1-.14,1.482-.971,1.813-1.847a9.457,9.457,0,0,0,.679.937c.4.48,1.342,1.131,1.549,1.808A16.282,16.282,0,0,1,2657.833,2025.144Z" fill="#ce3a3a"/>
      </g>
      <path id="Path_2862" data-name="Path 2862" d="M2666.733,2004.756a2.4,2.4,0,0,1-1.621.537c-.662-.157-.234-1.041.089-1.394a.686.686,0,0,0-.97-.97,4.1,4.1,0,0,1-1.588.973c-.524.17-1.145.343-1.1-.4a16.541,16.541,0,0,1,.795-3.694.691.691,0,0,0-1.147-.667,33.254,33.254,0,0,0-3.654,4.451c-.5.729.688,1.416,1.184.692q.765-1.114,1.621-2.152c-.034.193-.066.387-.092.582-.1.769-.257,1.738.383,2.325a2.5,2.5,0,0,0,2.761.062,1.688,1.688,0,0,0,.453,1.123c.886.925,2.686.309,3.583-.289C2668.156,2005.453,2667.47,2004.265,2666.733,2004.756Z" fill="#2d1e07"/>
      <path id="Path_2863" data-name="Path 2863" d="M2667.458,2033.543a19.662,19.662,0,0,1-4.2,1.991,8.7,8.7,0,0,1-1.122-1.228,9.232,9.232,0,0,1-1.728-4.22,28.646,28.646,0,0,0-2.1,3.473c-.5.987-2,.151-1.5-.828a29.889,29.889,0,0,1,3.511-5.352c.009-.1.014-.19.023-.286.03-.324.068-.642.116-.954.062-.435.142-.858.237-1.272a12.212,12.212,0,0,1,7.27-9.024,12.823,12.823,0,0,1,1.212-.425c.019-.007.038-.012.057-.017a14,14,0,0,1,1.632-.362,1.382,1.382,0,0,1,.572-.992,19.675,19.675,0,0,1,2.193,8.354A12.4,12.4,0,0,1,2667.458,2033.543Z" fill="#cc7712"/>
      <g id="Group_2810" data-name="Group 2810">
        <path id="Path_2864" data-name="Path 2864" d="M2675.413,2009.989a4.881,4.881,0,0,0-1.108,3.35,3.6,3.6,0,0,0,1.4,2.912l0,.005a2.281,2.281,0,0,0,1.156.147,5.772,5.772,0,0,0,.27-.873,7.04,7.04,0,0,0-.862-5.5A.5.5,0,0,0,2675.413,2009.989Z" fill="#328230"/>
        <path id="Path_2865" data-name="Path 2865" d="M2682.185,2013.306a3.666,3.666,0,0,0-2.466.178,8.843,8.843,0,0,0-1.165.7,5.15,5.15,0,0,0-1.216.943.341.341,0,0,0-.052.084,2.782,2.782,0,0,0-.31.248.5.5,0,0,0,.062.778,2.8,2.8,0,0,0,1.69.2,5,5,0,0,0,1.452-.408,5.088,5.088,0,0,0,2.272-2A.5.5,0,0,0,2682.185,2013.306Z" fill="#70b535"/>
        <path id="Path_2866" data-name="Path 2866" d="M2671.576,2011.91a3.669,3.669,0,0,0,.816,2.334,8.993,8.993,0,0,0,.981.941,5.178,5.178,0,0,0,1.228.928.372.372,0,0,0,.095.028,2.665,2.665,0,0,0,.32.234.494.494,0,0,0,.734-.263,2.8,2.8,0,0,0-.243-1.685,5,5,0,0,0-.773-1.3,5.094,5.094,0,0,0-2.52-1.672A.5.5,0,0,0,2671.576,2011.91Z" fill="#70b535"/>
        <path id="Path_2867" data-name="Path 2867" d="M2663.163,2034.82a10.018,10.018,0,0,0,4.816,3.369,18.073,18.073,0,0,0,6.018.917c5.515,0,9.335-1.809,11.4-4.708A45.313,45.313,0,0,1,2663.163,2034.82Z" fill="#a2b552"/>
        <path id="Path_2868" data-name="Path 2868" d="M2687.176,2027.607q-.031-.543-.108-1.075-.086-.6-.221-1.178a12.878,12.878,0,0,0-10.756-9.859c-.428-.058-.865-.1-1.308-.113-.169-.008-.339-.01-.51-.01a15.334,15.334,0,0,0-2.38.182,14.016,14.016,0,0,0-1.632.361c-.019.006-.038.011-.056.018a12.489,12.489,0,0,0-1.212.425,12.213,12.213,0,0,0-7.271,9.024c-.094.413-.175.836-.236,1.272-.048.312-.086.629-.117.953a10.157,10.157,0,0,0,1.794,7.213,45.313,45.313,0,0,0,22.233-.422,9.6,9.6,0,0,0,1.581-3.695A12.1,12.1,0,0,0,2687.176,2027.607Z" fill="#fba71b"/>
        <path id="Path_2869" data-name="Path 2869" d="M2664.818,2032.323a.782.782,0,0,0,0,1.564A.782.782,0,0,0,2664.818,2032.323Z" fill="#2d1e07"/>
        <path id="Path_2870" data-name="Path 2870" d="M2664.829,2030.612a.782.782,0,0,0,0,1.563A.782.782,0,0,0,2664.829,2030.612Z" fill="#2d1e07"/>
        <path id="Path_2871" data-name="Path 2871" d="M2666.436,2030.791a.782.782,0,0,0,0,1.563A.782.782,0,0,0,2666.436,2030.791Z" fill="#2d1e07"/>
        <path id="Path_2872" data-name="Path 2872" d="M2682.952,2029.005a.782.782,0,0,0,0,1.564A.782.782,0,0,0,2682.952,2029.005Z" fill="#2d1e07"/>
        <path id="Path_2873" data-name="Path 2873" d="M2684.12,2031.256a.782.782,0,0,0,0,1.564A.782.782,0,0,0,2684.12,2031.256Z" fill="#2d1e07"/>
        <path id="Path_2874" data-name="Path 2874" d="M2685.747,2029.54a.782.782,0,0,0,0,1.564A.782.782,0,0,0,2685.747,2029.54Z" fill="#2d1e07"/>
        <path id="Path_2875" data-name="Path 2875" d="M2669.134,2020.24a1.138,1.138,0,0,0-.83-.736,1.541,1.541,0,0,0-1.1.134,1.95,1.95,0,0,0-.677.645.651.651,0,0,0-.081.183c-.039.027-.077.054-.111.081a1.008,1.008,0,0,0-.336.487.8.8,0,0,0,.268.842.906.906,0,0,0,.578.209l.02,0,.012,0a1.31,1.31,0,0,0,.708-.069,2.693,2.693,0,0,0,1.379-.891A1.063,1.063,0,0,0,2669.134,2020.24Z" fill="#ffca85"/>
        <path id="Path_2876" data-name="Path 2876" d="M2674.494,2034.918c-3.58-.032-5.294-1.132-4.951-3.441a3.651,3.651,0,0,1,1.429-2.491,1.35,1.35,0,0,1,1.274-.165,6.486,6.486,0,0,0,4.235-.015,1.34,1.34,0,0,1,1.262.15,3.547,3.547,0,0,1,1.4,2.521C2679.486,2033.962,2678.074,2034.951,2674.494,2034.918Z" fill="#e13b6b"/>
        <path id="Path_2877" data-name="Path 2877" d="M2675.23,2033.615h-1.774a1.512,1.512,0,0,1-1.513-1.513h0a2.48,2.48,0,0,1,4.8,0h0A1.513,1.513,0,0,1,2675.23,2033.615Z" fill="#f586aa"/>
        <path id="Path_2878" data-name="Path 2878" d="M2670.867,2029.926s.562-1.04,1.247-.7-.423,1.651-.9,1.34S2670.867,2029.926,2670.867,2029.926Z" fill="#f47da8"/>
        <path id="Path_2879" data-name="Path 2879" d="M2677.8,2029.926s-.561-1.04-1.247-.7.423,1.651.9,1.34S2677.8,2029.926,2677.8,2029.926Z" fill="#f47da8"/>
        <path id="Path_2880" data-name="Path 2880" d="M2673.314,2031.8v.857s-3.426,3.709,1.16,3.922c4.155.192,2.212-3.75.726-4.093l.171-.686a3.78,3.78,0,0,1,2.915,3.086c.314,2.359-1.2,3.461-3.6,3.461s-4.817-1.439-4.18-3.634A4.666,4.666,0,0,1,2673.314,2031.8Z" fill="#fff2cf"/>
        <path id="Path_2881" data-name="Path 2881" d="M2673.345,2031.49s-.6,1.055.2,1.282,2.019.077,2-.286,0-1.029-.514-1.2A2.1,2.1,0,0,0,2673.345,2031.49Z" fill="#ffc1d1"/>
        <path id="Path_2882" data-name="Path 2882" d="M2679.905,2032.571a5.25,5.25,0,0,1-.278-1.4,5.743,5.743,0,0,1,.009-.719,1.017,1.017,0,0,1,.039-.269.841.841,0,0,0,.024-.082c.01-.018.019-.035.03-.053l.025-.026c.388-.393-.218-1-.606-.606a2.226,2.226,0,0,0-.383,1.644,6.077,6.077,0,0,0,.313,1.742.44.44,0,0,0,.528.3A.434.434,0,0,0,2679.905,2032.571Z" fill="#2d1e07"/>
        <path id="Path_2883" data-name="Path 2883" d="M2669.623,2029.371a.44.44,0,0,0-.586-.153.432.432,0,0,0-.154.586,2.56,2.56,0,0,1,.1,2.87c-.3.468.446.9.74.433A3.419,3.419,0,0,0,2669.623,2029.371Z" fill="#2d1e07"/>
        <path id="Path_2884" data-name="Path 2884" d="M2662.036,2027.081a29.916,29.916,0,0,0-4.2,6.164c-.5.98,1,1.815,1.5.829a28.105,28.105,0,0,1,3.937-5.806C2664,2027.443,2662.768,2026.249,2662.036,2027.081Z" fill="#2d1e07"/>
        <path id="Path_2885" data-name="Path 2885" d="M2687.821,2022.5a22.6,22.6,0,0,1-2.878,5.031c-.665.876.637,1.991,1.306,1.11a24.334,24.334,0,0,0,3.117-5.4C2689.788,2022.227,2688.245,2021.48,2687.821,2022.5Z" fill="#2d1e07"/>
        <g id="Group_2809" data-name="Group 2809">
          <path id="Path_2886" data-name="Path 2886" d="M2675.905,2015.483s-2.014-1.84-3.078-1.182a1.648,1.648,0,0,0-.938,1.811c0,1.007.938,1.543,2.184.872a5.249,5.249,0,0,1,1.558-.4c.655-.1.545-.47.545-.47Z" fill="#f23b44"/>
          <path id="Path_2887" data-name="Path 2887" d="M2676.781,2015.768s2.933-1.1,3.382-.029a2.143,2.143,0,0,1-.169,2.05c-.78.971-1.649.484-2.337,0-1.037-.729-.606-.572-1.154-.9s-.273-.628-.273-.628Z" fill="#f23b44"/>
          <path id="Path_2888" data-name="Path 2888" d="M2674.657,2015.38s.974.4.818.665" fill="none" stroke="#ba0d42" stroke-linecap="round" stroke-miterlimit="10" stroke-width="3"/>
          <path id="Path_2889" data-name="Path 2889" d="M2674.356,2016.176s1.065-.142,1.111.155" fill="none" stroke="#ba0d42" stroke-linecap="round" stroke-miterlimit="10" stroke-width="3"/>
          <path id="Path_2890" data-name="Path 2890" d="M2678.045,2016.285s-1.04-.244-1.124.047" fill="none" stroke="#ba0d42" stroke-linecap="round" stroke-miterlimit="10" stroke-width="3"/>
          <path id="Path_2891" data-name="Path 2891" d="M2677.618,2017.09s-.7-.7-.961-.5" fill="none" stroke="#ba0d42" stroke-linecap="round" stroke-miterlimit="10" stroke-width="3"/>
          <path id="Path_2892" data-name="Path 2892" d="M2677.317,2016.029c-.1.607-.355,1.29-1.292,1.216-.637-.05-1.267-.32-1.021-1.069.3-.917.432-1.028,1.071-1.069S2677.409,2015.484,2677.317,2016.029Z" fill="#f45b5b"/>
        </g>
        <circle id="Ellipse_1945" data-name="Ellipse 1945" cx="2.86" cy="2.86" r="2.86" transform="translate(2680.965 2028.597)" fill="#f22281" opacity="0.41"/>
        <circle id="Ellipse_1946" data-name="Ellipse 1946" cx="2.86" cy="2.86" r="2.86" transform="translate(2662.451 2028.94)" fill="#f22281" opacity="0.41"/>
        <path id="Path_2893" data-name="Path 2893" d="M2672.541,2024.092a27.6,27.6,0,0,0-3.3-1.638c-.813-.341-1.168.986-.365,1.323.69.289,1.361.616,2.02.968l-3.032,2.075c-.723.5-.038,1.685.693,1.184l3.984-2.727A.7.7,0,0,0,2672.541,2024.092Z" fill="#2d1e07"/>
        <path id="Path_2894" data-name="Path 2894" d="M2681.384,2026.464q-1.441-1.09-2.979-2.032a16,16,0,0,1,1.723-1.452c.707-.514.024-1.7-.692-1.185a18.314,18.314,0,0,0-2.617,2.289.694.694,0,0,0,.139,1.077,37.535,37.535,0,0,1,3.734,2.487C2681.4,2028.18,2682.08,2026.99,2681.384,2026.464Z" fill="#2d1e07"/>
      </g>
    </g>
    <rect id="Rectangle_825" data-name="Rectangle 825" width="60" height="60" transform="translate(2633.714 1986.714)" fill="none"/>
  </g>
</svg>
