<svg xmlns="http://www.w3.org/2000/svg" xmlns:xlink="http://www.w3.org/1999/xlink" width="60" height="60" viewBox="0 0 60 60">
  <defs>
    <clipPath id="clip-path">
      <circle id="Ellipse_1889" data-name="Ellipse 1889" cx="22.971" cy="22.971" r="22.971" transform="translate(2795.743 2001.743)" fill="none"/>
    </clipPath>
    <clipPath id="clip-path-2">
      <path id="Path_2629" data-name="Path 2629" d="M2841.686,2024.678a22.956,22.956,0,1,1-.218-3.171A22.986,22.986,0,0,1,2841.686,2024.678Z" fill="none"/>
    </clipPath>
  </defs>
  <g id="Group_2702" data-name="Group 2702" transform="translate(-2788.714 -1994.714)">
    <path id="Path_2594" data-name="Path 2594" d="M2818.714,1999.857a24.857,24.857,0,1,1-24.857,24.857,24.856,24.856,0,0,1,24.857-24.857m0-1.714a26.571,26.571,0,1,0,18.789,7.782,26.4,26.4,0,0,0-18.789-7.782Z" fill="#ffde1d"/>
    <g id="Group_2691" data-name="Group 2691">
      <g id="Group_2690" data-name="Group 2690">
        <path id="Path_2595" data-name="Path 2595" d="M2831.981,2005.922a36.319,36.319,0,0,1-20.458,40.579,22.906,22.906,0,0,0,6.279,1.13c.3.012.607.019.912.019a22.974,22.974,0,0,0,13.267-41.728Z" fill="#e85a28"/>
        <path id="Path_2596" data-name="Path 2596" d="M2825.649,2002.771a23.025,23.025,0,0,0-6.935-1.064c-.358,0-.716.007-1.071.024a22.971,22.971,0,0,0-21.9,22.947c0,.636.026,1.271.077,1.9a22.961,22.961,0,0,0,10.81,17.642,36.315,36.315,0,0,1,19.019-41.445Z" fill="#ddf78b"/>
        <path id="Path_2597" data-name="Path 2597" d="M2832.771,2013.486a36.386,36.386,0,0,0-.79-7.564,22.944,22.944,0,0,0-6.332-3.151,36.315,36.315,0,0,0-19.019,41.445,22.873,22.873,0,0,0,4.893,2.285A36.264,36.264,0,0,0,2832.771,2013.486Z" fill="#f4d834"/>
      </g>
    </g>
    <g id="Group_2694" data-name="Group 2694">
      <g id="Group_2693" data-name="Group 2693" clip-path="url(#clip-path)">
        <g id="Group_2692" data-name="Group 2692">
          <path id="Path_2598" data-name="Path 2598" d="M2822.252,1986.506l-5.413-.857-2.488,4.883,3.875,3.875,4.883-2.488Z" fill="#fff" opacity="0.5"/>
          <path id="Path_2599" data-name="Path 2599" d="M2814.979,1993.78l-5.413-.857-2.488,4.883,3.875,3.875,4.883-2.488Z" fill="#fff" opacity="0.5"/>
          <path id="Path_2600" data-name="Path 2600" d="M2807.706,2001.053l-5.413-.857-2.488,4.883,3.875,3.875,4.883-2.488Z" fill="#fff" opacity="0.5"/>
          <path id="Path_2601" data-name="Path 2601" d="M2800.432,2008.326l-5.413-.857-2.488,4.883,3.875,3.875,4.883-2.488Z" fill="#fff" opacity="0.5"/>
          <path id="Path_2602" data-name="Path 2602" d="M2793.159,2015.6l-5.413-.857-2.488,4.883,3.875,3.875,4.883-2.488Z" fill="#fff" opacity="0.5"/>
          <path id="Path_2603" data-name="Path 2603" d="M2785.886,2022.872l-5.413-.857-2.488,4.883,3.875,3.875,4.883-2.488Z" fill="#fff" opacity="0.5"/>
          <path id="Path_2604" data-name="Path 2604" d="M2830.979,1995.234l-5.413-.857-2.488,4.883,3.875,3.875,4.883-2.488Z" fill="#fff" opacity="0.5"/>
          <path id="Path_2605" data-name="Path 2605" d="M2823.706,2002.507l-5.413-.857-2.488,4.883,3.875,3.875,4.883-2.488Z" fill="#fff" opacity="0.5"/>
          <path id="Path_2606" data-name="Path 2606" d="M2816.433,2009.78l-5.413-.857-2.488,4.883,3.875,3.875,4.883-2.488Z" fill="#fff" opacity="0.5"/>
          <path id="Path_2607" data-name="Path 2607" d="M2809.16,2017.053l-5.413-.857-2.488,4.883,3.875,3.875,4.883-2.488Z" fill="#fff" opacity="0.5"/>
          <path id="Path_2608" data-name="Path 2608" d="M2801.887,2024.327l-5.413-.857-2.488,4.883,3.875,3.875,4.883-2.488Z" fill="#fff" opacity="0.5"/>
          <path id="Path_2609" data-name="Path 2609" d="M2794.614,2031.6l-5.413-.857-2.488,4.883,3.875,3.875,4.883-2.488Z" fill="#fff" opacity="0.5"/>
          <path id="Path_2610" data-name="Path 2610" d="M2839.707,2003.962l-5.413-.857-2.488,4.883,3.875,3.875,4.883-2.488Z" fill="#fff" opacity="0.5"/>
          <path id="Path_2611" data-name="Path 2611" d="M2832.434,2011.235l-5.413-.857-2.488,4.883,3.875,3.875,4.883-2.488Z" fill="#fff" opacity="0.5"/>
          <path id="Path_2612" data-name="Path 2612" d="M2825.161,2018.508l-5.413-.857-2.488,4.883,3.875,3.875,4.883-2.488Z" fill="#fff" opacity="0.5"/>
          <path id="Path_2613" data-name="Path 2613" d="M2817.888,2025.781l-5.413-.857-2.488,4.883,3.875,3.875,4.883-2.488Z" fill="#fff" opacity="0.5"/>
          <path id="Path_2614" data-name="Path 2614" d="M2810.615,2033.054l-5.413-.857-2.488,4.883,3.875,3.875,4.883-2.488Z" fill="#fff" opacity="0.5"/>
          <path id="Path_2615" data-name="Path 2615" d="M2803.342,2040.327l-5.413-.857-2.488,4.883,3.875,3.875,4.883-2.488Z" fill="#fff" opacity="0.5"/>
          <path id="Path_2616" data-name="Path 2616" d="M2848.435,2012.69l-5.413-.857-2.488,4.883,3.875,3.875,4.883-2.488Z" fill="#fff" opacity="0.5"/>
          <path id="Path_2617" data-name="Path 2617" d="M2841.162,2019.963l-5.413-.857-2.488,4.883,3.875,3.875,4.883-2.488Z" fill="#fff" opacity="0.5"/>
          <path id="Path_2618" data-name="Path 2618" d="M2833.889,2027.236l-5.413-.857-2.488,4.883,3.875,3.875,4.883-2.488Z" fill="#fff" opacity="0.5"/>
          <path id="Path_2619" data-name="Path 2619" d="M2826.616,2034.509l-5.413-.857-2.488,4.883,3.875,3.875,4.883-2.488Z" fill="#fff" opacity="0.5"/>
          <path id="Path_2620" data-name="Path 2620" d="M2819.343,2041.782l-5.413-.857-2.488,4.883,3.875,3.875,4.883-2.488Z" fill="#fff" opacity="0.5"/>
          <path id="Path_2621" data-name="Path 2621" d="M2812.069,2049.055l-5.413-.857-2.488,4.883,3.875,3.875,4.883-2.488Z" fill="#fff" opacity="0.5"/>
          <path id="Path_2622" data-name="Path 2622" d="M2857.163,2021.417l-5.413-.857-2.488,4.883,3.875,3.875,4.883-2.488Z" fill="#fff" opacity="0.5"/>
          <path id="Path_2623" data-name="Path 2623" d="M2849.889,2028.69l-5.413-.857-2.488,4.883,3.875,3.875,4.883-2.488Z" fill="#fff" opacity="0.5"/>
          <path id="Path_2624" data-name="Path 2624" d="M2842.616,2035.964l-5.413-.857-2.488,4.883,3.875,3.875,4.883-2.488Z" fill="#fff" opacity="0.5"/>
          <path id="Path_2625" data-name="Path 2625" d="M2835.343,2043.237l-5.413-.857-2.488,4.883,3.875,3.875,4.883-2.488Z" fill="#fff" opacity="0.5"/>
          <path id="Path_2626" data-name="Path 2626" d="M2828.07,2050.51l-5.413-.857-2.488,4.883,3.875,3.875,4.883-2.488Z" fill="#fff" opacity="0.5"/>
          <path id="Path_2627" data-name="Path 2627" d="M2820.8,2057.783l-5.413-.857-2.488,4.883,3.875,3.875,4.883-2.488Z" fill="#fff" opacity="0.5"/>
        </g>
      </g>
    </g>
    <g id="Group_2696" data-name="Group 2696">
      <g id="Group_2695" data-name="Group 2695" clip-path="url(#clip-path-2)">
        <path id="Path_2628" data-name="Path 2628" d="M2849.469,2020.434a2.925,2.925,0,0,0-4.009.645,14.859,14.859,0,0,0-3.744-4.14,7.026,7.026,0,0,0,.925-1.206,2.587,2.587,0,0,0,.187-2.284,2.5,2.5,0,0,0-1.669-1.5,5.765,5.765,0,0,0-3.143.024,8.727,8.727,0,0,0-1.083-2.432,2.532,2.532,0,0,0-3.373-.885c.028-.215.059-.435.09-.662l.049-.351a3.172,3.172,0,0,0,.01-1.262,2.054,2.054,0,0,0-1.223-1.476,2.845,2.845,0,0,0-1.1-.2,7.5,7.5,0,0,0-1.555.068,2.105,2.105,0,0,0-.455.125,2.859,2.859,0,0,0-1.073-.193,7.5,7.5,0,0,0-1.555.068,2.06,2.06,0,0,0-.682.229,2.177,2.177,0,0,0-1,1.146,3.261,3.261,0,0,0-.382.034,2.507,2.507,0,0,0-.458.106,2.637,2.637,0,0,0-.953-.077,2.961,2.961,0,0,0-.692.107,1.907,1.907,0,0,0-.3-.081,3.7,3.7,0,0,0-2.227.422,3.561,3.561,0,0,0-.662-.3c-.031-.011-.062-.02-.093-.029l-.064-.018a3.861,3.861,0,0,0-1.537-.182,4,4,0,0,0-1.376.385l-.03.013a1.889,1.889,0,0,0-.173.088,3.315,3.315,0,0,0-2.227-.435,2.494,2.494,0,0,0-.457.106,2.64,2.64,0,0,0-.954-.077,2.957,2.957,0,0,0-.691.107,1.929,1.929,0,0,0-.3-.081,3.755,3.755,0,0,0-2.539.609,2.26,2.26,0,0,0-.979,2.19c0,.037.011.073.016.11a2.519,2.519,0,0,0-1-.281,2.594,2.594,0,0,0-2.152.943,6.581,6.581,0,0,0-.663.946c-.13-.046-.262-.088-.394-.126a2.586,2.586,0,0,0-2.254.417,2.492,2.492,0,0,0-1.01,2,5.77,5.77,0,0,0,.345,1.989l-.153.043c-.04.011-.081.023-.121.036-.476.142-.939.3-1.375.484a13.725,13.725,0,0,0-6.788,6c-.111-.112-.224-.223-.336-.332a2.863,2.863,0,0,0-2.8-.718,3,3,0,0,0-2.091,2.14,2.807,2.807,0,0,0,.8,2.722,26.52,26.52,0,0,1,2.382,2.645c-.02.161-.037.327-.054.5a12.2,12.2,0,0,0,2.2,8.642,12.017,12.017,0,0,0,5.774,4.073,20.172,20.172,0,0,0,6.7,1.034c7.528,0,11.265-3.03,13.075-5.573a11.363,11.363,0,0,0,.887-1.471l.047-.075a10.732,10.732,0,0,0,.988,1.557,12.029,12.029,0,0,0,5.728,4.013,20.146,20.146,0,0,0,6.7,1.035c6.72,0,11.669-2.5,13.957-7.036a4.849,4.849,0,0,0,.681-1.657,12.085,12.085,0,0,0,.359-1.361,14.07,14.07,0,0,0,.243-3.494l2.594-3.87A2.811,2.811,0,0,0,2849.469,2020.434Zm-27.941-5.935a2.885,2.885,0,0,0,1.34-.028,2.488,2.488,0,0,0,.386-.128q.083.038.156.066a1.982,1.982,0,0,0,.448.119,3.5,3.5,0,0,0,.513.039,2.677,2.677,0,0,0,1.29-.311,2.168,2.168,0,0,0,1.388.668c-.136.051-.271.1-.406.158a13.653,13.653,0,0,0-6.818,6.036,2.868,2.868,0,0,0-.443-.013,2.739,2.739,0,0,0-.751-.245,2.886,2.886,0,0,0-1.073.022,15.084,15.084,0,0,0-3.275-3.425,6.945,6.945,0,0,0,.929-1.21,2.586,2.586,0,0,0,.187-2.284c-.009-.023-.022-.045-.032-.069.011-.01.024-.02.035-.031s.039-.045.06-.067c.126.1.245.181.355.258a3.523,3.523,0,0,0,1.388.566l.063.014a2.148,2.148,0,0,0,.383.047h.111a4.773,4.773,0,0,0,1.478-.251,3.714,3.714,0,0,0,1.065-.536A2.279,2.279,0,0,0,2821.528,2014.5Z" fill="#fff"/>
      </g>
    </g>
    <g id="Group_2701" data-name="Group 2701">
      <g id="Group_2697" data-name="Group 2697">
        <path id="Path_2630" data-name="Path 2630" d="M2834.356,2010.618a4.879,4.879,0,0,0-1.108,3.35,3.6,3.6,0,0,0,1.4,2.912l0,.005a2.291,2.291,0,0,0,1.156.147,5.678,5.678,0,0,0,.269-.874,7.027,7.027,0,0,0-.861-5.5A.5.5,0,0,0,2834.356,2010.618Z" fill="#328230"/>
        <path id="Path_2631" data-name="Path 2631" d="M2840.614,2013.934a3.676,3.676,0,0,0-2.467.179,8.948,8.948,0,0,0-1.164.7,5.13,5.13,0,0,0-1.217.944.287.287,0,0,0-.051.084,2.763,2.763,0,0,0-.311.247.5.5,0,0,0,.063.778,2.8,2.8,0,0,0,1.69.206,5,5,0,0,0,1.452-.409,5.087,5.087,0,0,0,2.272-1.995A.5.5,0,0,0,2840.614,2013.934Z" fill="#70b535"/>
        <path id="Path_2632" data-name="Path 2632" d="M2821.629,2035.5a10.039,10.039,0,0,0,4.779,3.322,18.065,18.065,0,0,0,6.017.917c6.334,0,10.432-2.386,12.2-6.069C2838.166,2037.763,2829.194,2037.4,2821.629,2035.5Z" fill="#a2b552"/>
        <path id="Path_2633" data-name="Path 2633" d="M2845.6,2028.235c-.021-.361-.057-.72-.108-1.074q-.086-.6-.222-1.178a12.876,12.876,0,0,0-10.537-9.826c-.072-.012-.146-.023-.218-.033a13.084,13.084,0,0,0-1.308-.113c-.065,0-.13-.005-.195-.007-.1,0-.21,0-.316,0a15.323,15.323,0,0,0-2.379.181.36.36,0,0,0-.048.009,13.6,13.6,0,0,0-1.584.353.592.592,0,0,0-.057.017l-.05.016c-.4.12-.785.255-1.162.409a12.216,12.216,0,0,0-7.27,9.024c-.094.413-.175.837-.237,1.272-.048.312-.085.629-.116.953a10.131,10.131,0,0,0,1.831,7.261c7.565,1.9,16.537,2.267,23-1.83a9.92,9.92,0,0,0,.779-2.335A12.1,12.1,0,0,0,2845.6,2028.235Z" fill="#fba71b"/>
        <path id="Path_2634" data-name="Path 2634" d="M2829.229,2025.257a1.508,1.508,0,0,0-1.346-.706.82.82,0,0,0-.556.114,1.526,1.526,0,0,0,.641,2.958,1.512,1.512,0,0,0,1.291-.718A1.586,1.586,0,0,0,2829.229,2025.257Z" fill="#2d1e07"/>
        <path id="Path_2635" data-name="Path 2635" d="M2839,2025.257a1.508,1.508,0,0,0-1.346-.706.823.823,0,0,0-.556.114,1.538,1.538,0,0,0-.962,1.053,1.593,1.593,0,0,0,2.894,1.187A1.584,1.584,0,0,0,2839,2025.257Z" fill="#2d1e07"/>
        <path id="Path_2636" data-name="Path 2636" d="M2822.561,2031.923a.783.783,0,0,0,0,1.564A.783.783,0,0,0,2822.561,2031.923Z" fill="#2d1e07"/>
        <path id="Path_2637" data-name="Path 2637" d="M2823.772,2030.555a.782.782,0,0,0,0,1.563A.782.782,0,0,0,2823.772,2030.555Z" fill="#2d1e07"/>
        <path id="Path_2638" data-name="Path 2638" d="M2824.35,2032.619a.782.782,0,0,0,0,1.564A.782.782,0,0,0,2824.35,2032.619Z" fill="#2d1e07"/>
        <path id="Path_2639" data-name="Path 2639" d="M2841.38,2029.634a.782.782,0,0,0,0,1.563A.782.782,0,0,0,2841.38,2029.634Z" fill="#2d1e07"/>
        <path id="Path_2640" data-name="Path 2640" d="M2843.578,2031.2a.782.782,0,0,0,0,1.563A.782.782,0,0,0,2843.578,2031.2Z" fill="#2d1e07"/>
        <path id="Path_2641" data-name="Path 2641" d="M2841.432,2031.883a.782.782,0,0,0,0,1.564A.782.782,0,0,0,2841.432,2031.883Z" fill="#2d1e07"/>
        <circle id="Ellipse_1890" data-name="Ellipse 1890" cx="2.86" cy="2.86" r="2.86" transform="translate(2820.879 2029.569)" fill="#f9551c" opacity="0.41"/>
        <circle id="Ellipse_1891" data-name="Ellipse 1891" cx="2.86" cy="2.86" r="2.86" transform="translate(2839.393 2029.226)" fill="#f9551c" opacity="0.41"/>
        <path id="Path_2642" data-name="Path 2642" d="M2827.563,2020.868a1.14,1.14,0,0,0-.831-.735,1.541,1.541,0,0,0-1.1.133,1.961,1.961,0,0,0-.677.646.637.637,0,0,0-.08.183c-.039.026-.077.053-.112.081a1.006,1.006,0,0,0-.335.487.8.8,0,0,0,.268.842.9.9,0,0,0,.578.209l.019,0,.013,0a1.3,1.3,0,0,0,.708-.069,2.688,2.688,0,0,0,1.378-.89A1.061,1.061,0,0,0,2827.563,2020.868Z" fill="#ffca85"/>
        <path id="Path_2643" data-name="Path 2643" d="M2832.4,2021.354a10.511,10.511,0,0,1-3.135-3.385,9.935,9.935,0,0,1-.626-1.262c-.017-.043-.036-.086-.052-.13l.05-.016a.592.592,0,0,1,.057-.017,13.6,13.6,0,0,1,1.584-.353,8.443,8.443,0,0,0,2.988,3.682C2834.165,2020.495,2833.308,2021.98,2832.4,2021.354Z" fill="#2d1e07"/>
        <path id="Path_2644" data-name="Path 2644" d="M2835.9,2020.495c-1.143-1.107-2.7-2.712-2.878-4.362a.606.606,0,0,1,0-.129c.065,0,.13,0,.195.007a13.084,13.084,0,0,1,1.308.113c.072.01.146.021.218.033a4.785,4.785,0,0,0,1.061,1.681,13.3,13.3,0,0,0,1.313,1.445C2837.906,2020.053,2836.692,2021.263,2835.9,2020.495Z" fill="#2d1e07"/>
        <path id="Path_2645" data-name="Path 2645" d="M2832.923,2035.547c-3.58-.033-5.294-1.132-4.952-3.442a3.658,3.658,0,0,1,1.429-2.49,1.35,1.35,0,0,1,1.274-.166,6.5,6.5,0,0,0,4.236-.014,1.338,1.338,0,0,1,1.262.15,3.547,3.547,0,0,1,1.4,2.52C2837.914,2034.59,2836.5,2035.579,2832.923,2035.547Z" fill="#548969"/>
        <path id="Path_2646" data-name="Path 2646" d="M2833.658,2034.244h-1.774a1.514,1.514,0,0,1-1.513-1.513h0a2.48,2.48,0,0,1,4.8,0h0A1.513,1.513,0,0,1,2833.658,2034.244Z" fill="#79bc94"/>
        <path id="Path_2647" data-name="Path 2647" d="M2821.537,2028.734a25.443,25.443,0,0,1-2.71-5.359c-.383-1.036-1.926-.288-1.546.74a27.245,27.245,0,0,0,2.948,5.728C2820.843,2030.76,2822.144,2029.641,2821.537,2028.734Z" fill="#2d1e07"/>
        <path id="Path_2648" data-name="Path 2648" d="M2847.07,2022.363l-3.528,5.264c-.616.919.868,1.778,1.48.865l3.528-5.263C2849.166,2022.31,2847.682,2021.45,2847.07,2022.363Z" fill="#2d1e07"/>
        <path id="Path_2649" data-name="Path 2649" d="M2829.295,2030.555s.562-1.041,1.248-.7-.423,1.652-.9,1.34S2829.295,2030.555,2829.295,2030.555Z" fill="#66a381"/>
        <path id="Path_2650" data-name="Path 2650" d="M2836.232,2030.555s-.562-1.041-1.247-.7.423,1.652.9,1.34S2836.232,2030.555,2836.232,2030.555Z" fill="#66a381"/>
        <path id="Path_2651" data-name="Path 2651" d="M2831.743,2032.429v.857s-3.426,3.709,1.16,3.921c4.154.193,2.211-3.75.726-4.093l.171-.685a3.779,3.779,0,0,1,2.914,3.085c.315,2.36-1.2,3.462-3.6,3.462s-4.817-1.439-4.18-3.634A4.667,4.667,0,0,1,2831.743,2032.429Z" fill="#fff2cf"/>
        <path id="Path_2652" data-name="Path 2652" d="M2831.774,2032.118s-.6,1.055.2,1.283,2.019.076,2-.287,0-1.028-.514-1.2A2.109,2.109,0,0,0,2831.774,2032.118Z" fill="#ffea94"/>
        <path id="Path_2653" data-name="Path 2653" d="M2838.334,2033.2a5.166,5.166,0,0,1-.278-1.4,5.4,5.4,0,0,1,.009-.719,1.046,1.046,0,0,1,.038-.268s.025-.075.025-.082a.569.569,0,0,1,.03-.053l.025-.027c.388-.392-.218-1-.606-.606a2.223,2.223,0,0,0-.383,1.645,6.063,6.063,0,0,0,.313,1.741.44.44,0,0,0,.527.3A.434.434,0,0,0,2838.334,2033.2Z" fill="#2d1e07"/>
        <path id="Path_2654" data-name="Path 2654" d="M2828.052,2030a.442.442,0,0,0-.587-.154.433.433,0,0,0-.154.587,2.556,2.556,0,0,1,.1,2.87c-.295.467.446.9.74.432A3.415,3.415,0,0,0,2828.052,2030Z" fill="#2d1e07"/>
      </g>
      <g id="Group_2699" data-name="Group 2699">
        <path id="Path_2655" data-name="Path 2655" d="M2806.413,2011.132a4.881,4.881,0,0,0-1.108,3.35,3.6,3.6,0,0,0,1.4,2.912l0,.005a2.284,2.284,0,0,0,1.156.147,5.807,5.807,0,0,0,.27-.873,7.04,7.04,0,0,0-.862-5.5A.5.5,0,0,0,2806.413,2011.132Z" fill="#328230"/>
        <path id="Path_2656" data-name="Path 2656" d="M2813.185,2014.449a3.667,3.667,0,0,0-2.466.178,8.856,8.856,0,0,0-1.165.7,5.128,5.128,0,0,0-1.216.943.341.341,0,0,0-.052.084,2.783,2.783,0,0,0-.31.248.5.5,0,0,0,.062.778,2.806,2.806,0,0,0,1.69.205,4.969,4.969,0,0,0,1.452-.409,5.086,5.086,0,0,0,2.272-1.995A.5.5,0,0,0,2813.185,2014.449Z" fill="#70b535"/>
        <path id="Path_2657" data-name="Path 2657" d="M2802.576,2013.052a3.672,3.672,0,0,0,.816,2.335,8.981,8.981,0,0,0,.981.941,5.145,5.145,0,0,0,1.228.927.335.335,0,0,0,.095.029,2.664,2.664,0,0,0,.32.234.494.494,0,0,0,.734-.263,2.8,2.8,0,0,0-.243-1.685,4.983,4.983,0,0,0-.773-1.295,5.094,5.094,0,0,0-2.52-1.672A.5.5,0,0,0,2802.576,2013.052Z" fill="#70b535"/>
        <path id="Path_2658" data-name="Path 2658" d="M2794.163,2035.963a10.026,10.026,0,0,0,4.816,3.369,18.076,18.076,0,0,0,6.018.917c5.515,0,9.335-1.809,11.4-4.709A45.3,45.3,0,0,1,2794.163,2035.963Z" fill="#a2b552"/>
        <path id="Path_2659" data-name="Path 2659" d="M2818.176,2028.75q-.031-.543-.108-1.075-.086-.6-.221-1.178a12.878,12.878,0,0,0-10.756-9.859c-.428-.058-.865-.1-1.308-.113-.169-.008-.339-.01-.51-.01a15.334,15.334,0,0,0-2.38.182,13.818,13.818,0,0,0-1.632.361l-.056.017a12.493,12.493,0,0,0-1.212.426,12.213,12.213,0,0,0-7.271,9.024c-.094.413-.175.836-.236,1.272-.048.312-.086.629-.117.953a10.157,10.157,0,0,0,1.794,7.213,45.3,45.3,0,0,0,22.233-.423,9.594,9.594,0,0,0,1.581-3.694A12.1,12.1,0,0,0,2818.176,2028.75Z" fill="#fba71b"/>
        <path id="Path_2660" data-name="Path 2660" d="M2801.8,2025.772a1.5,1.5,0,0,0-1.346-.706.816.816,0,0,0-.556.114,1.536,1.536,0,0,0-.962,1.053,1.593,1.593,0,0,0,2.894,1.186A1.582,1.582,0,0,0,2801.8,2025.772Z" fill="#2d1e07"/>
        <path id="Path_2661" data-name="Path 2661" d="M2811.572,2025.772a1.5,1.5,0,0,0-1.346-.706.814.814,0,0,0-.556.114,1.526,1.526,0,0,0,.641,2.957,1.509,1.509,0,0,0,1.291-.718A1.584,1.584,0,0,0,2811.572,2025.772Z" fill="#2d1e07"/>
        <path id="Path_2662" data-name="Path 2662" d="M2795.818,2033.466a.783.783,0,0,0,0,1.564A.783.783,0,0,0,2795.818,2033.466Z" fill="#2d1e07"/>
        <path id="Path_2663" data-name="Path 2663" d="M2795.829,2031.755a.782.782,0,0,0,0,1.563A.782.782,0,0,0,2795.829,2031.755Z" fill="#2d1e07"/>
        <path id="Path_2664" data-name="Path 2664" d="M2797.436,2031.933a.782.782,0,0,0,0,1.564A.782.782,0,0,0,2797.436,2031.933Z" fill="#2d1e07"/>
        <path id="Path_2665" data-name="Path 2665" d="M2813.952,2030.148a.783.783,0,0,0,0,1.564A.783.783,0,0,0,2813.952,2030.148Z" fill="#2d1e07"/>
        <path id="Path_2666" data-name="Path 2666" d="M2815.12,2032.4a.782.782,0,0,0,0,1.563A.782.782,0,0,0,2815.12,2032.4Z" fill="#2d1e07"/>
        <path id="Path_2667" data-name="Path 2667" d="M2816.747,2030.683a.782.782,0,0,0,0,1.564A.782.782,0,0,0,2816.747,2030.683Z" fill="#2d1e07"/>
        <path id="Path_2668" data-name="Path 2668" d="M2800.134,2021.383a1.138,1.138,0,0,0-.83-.736,1.541,1.541,0,0,0-1.1.134,1.94,1.94,0,0,0-.677.645.651.651,0,0,0-.081.183c-.039.026-.077.053-.111.081a1.008,1.008,0,0,0-.336.487.8.8,0,0,0,.268.842.907.907,0,0,0,.578.209l.02,0,.012,0a1.31,1.31,0,0,0,.708-.069,2.694,2.694,0,0,0,1.379-.891A1.064,1.064,0,0,0,2800.134,2021.383Z" fill="#ffca85"/>
        <path id="Path_2669" data-name="Path 2669" d="M2805.494,2036.061c-3.58-.032-5.294-1.132-4.951-3.442a3.65,3.65,0,0,1,1.429-2.49,1.35,1.35,0,0,1,1.274-.165,6.484,6.484,0,0,0,4.235-.015,1.34,1.34,0,0,1,1.262.15,3.547,3.547,0,0,1,1.4,2.52C2810.486,2035.1,2809.074,2036.094,2805.494,2036.061Z" fill="#e13b6b"/>
        <path id="Path_2670" data-name="Path 2670" d="M2806.23,2034.758h-1.774a1.512,1.512,0,0,1-1.513-1.513h0a2.48,2.48,0,0,1,4.8,0h0A1.513,1.513,0,0,1,2806.23,2034.758Z" fill="#f586aa"/>
        <path id="Path_2671" data-name="Path 2671" d="M2801.867,2031.069s.562-1.04,1.247-.7-.423,1.652-.9,1.341S2801.867,2031.069,2801.867,2031.069Z" fill="#f47da8"/>
        <path id="Path_2672" data-name="Path 2672" d="M2808.8,2031.069s-.561-1.04-1.247-.7.423,1.652.9,1.341S2808.8,2031.069,2808.8,2031.069Z" fill="#f47da8"/>
        <path id="Path_2673" data-name="Path 2673" d="M2804.314,2032.943v.857s-3.426,3.709,1.16,3.922c4.155.192,2.212-3.751.726-4.093l.171-.686a3.78,3.78,0,0,1,2.915,3.086c.314,2.359-1.2,3.461-3.6,3.461s-4.817-1.439-4.18-3.634A4.666,4.666,0,0,1,2804.314,2032.943Z" fill="#fff2cf"/>
        <path id="Path_2674" data-name="Path 2674" d="M2804.345,2032.633s-.6,1.055.2,1.282,2.019.076,2-.286,0-1.029-.514-1.2A2.1,2.1,0,0,0,2804.345,2032.633Z" fill="#ffc1d1"/>
        <path id="Path_2675" data-name="Path 2675" d="M2810.905,2033.714a5.256,5.256,0,0,1-.278-1.4,5.763,5.763,0,0,1,.009-.72,1.01,1.01,0,0,1,.039-.268.831.831,0,0,0,.024-.082c.01-.018.019-.036.03-.053l.025-.026c.388-.393-.218-1-.606-.606a2.224,2.224,0,0,0-.383,1.644,6.065,6.065,0,0,0,.313,1.741.439.439,0,0,0,.528.3A.434.434,0,0,0,2810.905,2033.714Z" fill="#2d1e07"/>
        <path id="Path_2676" data-name="Path 2676" d="M2800.623,2030.514a.442.442,0,0,0-.586-.154.433.433,0,0,0-.154.587,2.56,2.56,0,0,1,.1,2.87c-.3.468.446.9.74.433A3.419,3.419,0,0,0,2800.623,2030.514Z" fill="#2d1e07"/>
        <path id="Path_2677" data-name="Path 2677" d="M2795.318,2028.568a29.955,29.955,0,0,0-4.66-5.825c-.79-.766-2.028.42-1.233,1.191a28.109,28.109,0,0,1,4.4,5.468C2794.4,2030.338,2795.9,2029.511,2795.318,2028.568Z" fill="#2d1e07"/>
        <path id="Path_2678" data-name="Path 2678" d="M2818.821,2023.644a22.569,22.569,0,0,1-2.878,5.03c-.665.877.637,1.992,1.306,1.111a24.338,24.338,0,0,0,3.117-5.4C2820.788,2023.37,2819.245,2022.623,2818.821,2023.644Z" fill="#2d1e07"/>
        <g id="Group_2698" data-name="Group 2698">
          <path id="Path_2679" data-name="Path 2679" d="M2806.905,2016.626s-2.014-1.84-3.078-1.182a1.648,1.648,0,0,0-.938,1.811c0,1.006.938,1.543,2.184.872a5.252,5.252,0,0,1,1.558-.4c.655-.1.545-.47.545-.47Z" fill="#f23b44"/>
          <path id="Path_2680" data-name="Path 2680" d="M2807.781,2016.911s2.933-1.1,3.382-.03a2.145,2.145,0,0,1-.169,2.051c-.78.971-1.649.484-2.337,0-1.037-.729-.606-.572-1.154-.9s-.273-.629-.273-.629Z" fill="#f23b44"/>
          <path id="Path_2681" data-name="Path 2681" d="M2805.657,2016.523s.974.4.818.665" fill="none" stroke="#ba0d42" stroke-linecap="round" stroke-miterlimit="10" stroke-width="3"/>
          <path id="Path_2682" data-name="Path 2682" d="M2805.356,2017.319s1.065-.142,1.111.155" fill="none" stroke="#ba0d42" stroke-linecap="round" stroke-miterlimit="10" stroke-width="3"/>
          <path id="Path_2683" data-name="Path 2683" d="M2809.045,2017.428s-1.04-.244-1.124.047" fill="none" stroke="#ba0d42" stroke-linecap="round" stroke-miterlimit="10" stroke-width="3"/>
          <path id="Path_2684" data-name="Path 2684" d="M2808.618,2018.233s-.7-.705-.961-.5" fill="none" stroke="#ba0d42" stroke-linecap="round" stroke-miterlimit="10" stroke-width="3"/>
          <path id="Path_2685" data-name="Path 2685" d="M2808.317,2017.172c-.1.607-.355,1.29-1.292,1.216-.637-.05-1.267-.32-1.021-1.069.3-.917.432-1.029,1.071-1.069S2808.409,2016.627,2808.317,2017.172Z" fill="#f45b5b"/>
        </g>
        <circle id="Ellipse_1892" data-name="Ellipse 1892" cx="2.86" cy="2.86" r="2.86" transform="translate(2811.965 2029.74)" fill="#f22281" opacity="0.41"/>
        <circle id="Ellipse_1893" data-name="Ellipse 1893" cx="2.86" cy="2.86" r="2.86" transform="translate(2793.451 2030.083)" fill="#f22281" opacity="0.41"/>
      </g>
      <g id="Group_2700" data-name="Group 2700">
        <path id="Path_2686" data-name="Path 2686" d="M2810.872,2012.262c-.138-.6-.3-1.156-.462-1.749a8.133,8.133,0,0,1-.393-1.719c-.015-.123.015-.215.069-.231a1.84,1.84,0,0,1,1.018-.308c.131.054.177.193.2.347.1.454.1.6.262,1.387a6.9,6.9,0,0,1,.586-1.564c.092-.124.231-.162.477-.162a.55.55,0,0,1,.424.084c.093.378.216.8.4,1.65l.5-1.565c.023-.154.077-.2.231-.216.208-.053.778.024.855.178.108.084.147.146.108.37-.362,1.024-.632,1.888-.832,2.55a5.554,5.554,0,0,1-.37,1.1.775.775,0,0,1-.578.084c-.177-.069-.239-.146-.262-.385-.154-.416-.239-.848-.508-1.572-.278.586-.609,1.4-.725,1.634-.108.208-.154.277-.308.308a.914.914,0,0,1-.478-.008C2810.949,2012.462,2810.911,2012.4,2810.872,2012.262Z" fill="#2d1e07"/>
        <path id="Path_2687" data-name="Path 2687" d="M2817,2012.37a4.782,4.782,0,0,1-.647-.516,2.481,2.481,0,0,1-.293-.84,3.034,3.034,0,0,1,.008-1.087,1.951,1.951,0,0,1,.339-.948,3.606,3.606,0,0,1,.717-.57,1.879,1.879,0,0,1,1.618-.1,1.523,1.523,0,0,1,.709.493,3.082,3.082,0,0,1,.385.886,3.515,3.515,0,0,1,.077,1.056,1.52,1.52,0,0,1-.146.617c-.108.184-.208.377-.347.57a1.688,1.688,0,0,1-.8.539,2.706,2.706,0,0,1-.91.154A1.753,1.753,0,0,1,2817,2012.37Zm1.495-1.356a1.9,1.9,0,0,0,.124-.9l-.154-.393a1.108,1.108,0,0,0-.686-.223,1.042,1.042,0,0,0-.594.662l-.015.447a.879.879,0,0,0,.285.548.7.7,0,0,0,.539.154A1.262,1.262,0,0,0,2818.494,2011.014Z" fill="#2d1e07"/>
        <path id="Path_2688" data-name="Path 2688" d="M2821.662,2012.262c-.139-.6-.3-1.156-.462-1.749a8.148,8.148,0,0,1-.393-1.719c-.016-.123.015-.215.069-.231a1.84,1.84,0,0,1,1.017-.308c.131.054.177.193.2.347.1.454.1.6.262,1.387a6.939,6.939,0,0,1,.585-1.564c.093-.124.231-.162.478-.162a.55.55,0,0,1,.424.084c.092.378.216.8.4,1.65l.5-1.565c.024-.154.078-.2.232-.216.208-.053.778.024.855.178.108.084.146.146.108.37-.362,1.024-.632,1.888-.832,2.55a5.619,5.619,0,0,1-.37,1.1.775.775,0,0,1-.578.084c-.177-.069-.239-.146-.262-.385-.154-.416-.239-.848-.509-1.572-.277.586-.609,1.4-.724,1.634-.108.208-.154.277-.308.308a.914.914,0,0,1-.478-.008C2821.739,2012.462,2821.7,2012.4,2821.662,2012.262Z" fill="#2d1e07"/>
        <path id="Path_2689" data-name="Path 2689" d="M2827.881,2011.1c-.115,0-.254-.007-.539-.007a.254.254,0,0,1-.254-.177c-.155-.825-.108-3.276-.131-3.815,0-.131.007-.247.092-.293a5.276,5.276,0,0,1,1.179-.046,1.006,1.006,0,0,1,.385.046,1.164,1.164,0,0,1-.023.47c-.092.678-.185,1.3-.246,1.911-.108.8-.124,1.28-.224,1.742C2828.12,2011.037,2828.012,2011.1,2827.881,2011.1Zm-.77,1.688-.047-.154a5.1,5.1,0,0,1,.085-.778,2.355,2.355,0,0,1,.632-.07c.216,0,.362-.007.416.085a2.083,2.083,0,0,1-.023.925,1.264,1.264,0,0,1-.693.069C2827.249,2012.9,2827.157,2012.879,2827.111,2012.786Z" fill="#2d1e07"/>
        <path id="Path_2690" data-name="Path 2690" d="M2830.964,2011.1c-.116,0-.254-.007-.54-.007a.254.254,0,0,1-.254-.177c-.154-.825-.108-3.276-.131-3.815,0-.131.008-.247.093-.293a5.274,5.274,0,0,1,1.179-.046,1.006,1.006,0,0,1,.385.046,1.164,1.164,0,0,1-.023.47c-.093.678-.185,1.3-.247,1.911-.108.8-.123,1.28-.223,1.742C2831.2,2011.037,2831.095,2011.1,2830.964,2011.1Zm-.771,1.688-.046-.154a4.975,4.975,0,0,1,.085-.778,2.355,2.355,0,0,1,.632-.07c.216,0,.362-.007.416.085a2.1,2.1,0,0,1-.023.925,1.267,1.267,0,0,1-.694.069C2830.332,2012.9,2830.24,2012.879,2830.193,2012.786Z" fill="#2d1e07"/>
      </g>
    </g>
    <rect id="Rectangle_822" data-name="Rectangle 822" width="60" height="60" transform="translate(2788.714 1994.714)" fill="none"/>
  </g>
</svg>
