<?xml version="1.0" encoding="utf-8"?>
<!-- Generator: Adobe Illustrator 25.2.1, SVG Export Plug-In . SVG Version: 6.00 Build 0)  -->
<svg version="1.1" id="Group_6" xmlns="http://www.w3.org/2000/svg" xmlns:xlink="http://www.w3.org/1999/xlink" x="0px" y="0px"
	 viewBox="0 0 24 24" style="enable-background:new 0 0 24 24;" xml:space="preserve">
<style type="text/css">
	.st0{fill:none;}
	.st1{fill:#272727;}
</style>
<rect id="Rectangle_6" y="0" class="st0" width="24" height="24"/>
<g>
	<path class="st1" d="M4.7,7.4l14.5,0c0.4,0,0.8-0.4,0.8-0.8v0c0-0.4-0.4-0.8-0.8-0.8l-14.5,0c-0.4,0-0.8,0.4-0.8,0.8v0
		C3.9,7.1,4.3,7.4,4.7,7.4z"/>
	<path class="st1" d="M4.7,12.8l14.5,0c0.4,0,0.8-0.4,0.8-0.8v0c0-0.4-0.4-0.8-0.8-0.8l-14.5,0c-0.4,0-0.8,0.4-0.8,0.8v0
		C3.9,12.4,4.3,12.8,4.7,12.8z"/>
	<path class="st1" d="M4.7,18.2l14.5,0c0.4,0,0.8-0.4,0.8-0.8v0c0-0.4-0.4-0.8-0.8-0.8H4.7c-0.4,0-0.8,0.4-0.8,0.8v0
		C3.9,17.8,4.3,18.2,4.7,18.2z"/>
</g>
</svg>
