<svg id="Group_6" data-name="Group 6" xmlns="http://www.w3.org/2000/svg" width="24" height="24" viewBox="0 0 24 24">
  <rect id="Rectangle_6" data-name="Rectangle 6" width="24" height="24" fill="none"/>
  <g id="Group_6-2" data-name="Group 6" transform="translate(1.293 1.291)">
    <path id="Path_29" data-name="Path 29" d="M-709.219,269.936a4.854,4.854,0,0,1-.578-.429q-2.426-2.409-4.837-4.831c-.054-.054-.1-.116-.159-.185a8.956,8.956,0,0,1-8.115,1.821,8.735,8.735,0,0,1-5.237-3.735,9,9,0,0,1,1.693-11.914,8.984,8.984,0,0,1,11.605-.039,8.769,8.769,0,0,1,3.226,6.14,8.881,8.881,0,0,1-2.073,6.609c.06.063.11.118.163.171q2.424,2.426,4.845,4.852a4.827,4.827,0,0,1,.428.578v.334a.964.964,0,0,1-.627.628Zm-18.865-12.365a7.45,7.45,0,0,0,7.462,7.454,7.431,7.431,0,0,0,7.454-7.459,7.444,7.444,0,0,0-7.46-7.455A7.469,7.469,0,0,0-728.084,257.571Z" transform="translate(729.674 -248.518)" fill="#272727"/>
    <g id="Group_5" data-name="Group 5" transform="translate(3.223 4.645)">
      <path id="Path_30" data-name="Path 30" d="M-726.451,257.314a5.414,5.414,0,0,1,1.566-3.9.772.772,0,0,1,1.091-.044.761.761,0,0,1,.066,1.1,3.713,3.713,0,0,0-1.007,1.8,9.979,9.979,0,0,0-.114,1.428.787.787,0,0,1-1.065.739.743.743,0,0,1-.5-.639C-726.433,257.638-726.439,257.477-726.451,257.314Z" transform="translate(726.451 -253.163)" fill="#272727"/>
    </g>
  </g>
</svg>
